%TF.GenerationSoftware,KiCad,Pcbnew,8.0.3*%
%TF.CreationDate,2024-07-02T19:52:40-05:00*%
%TF.ProjectId,lucidGloves,6c756369-6447-46c6-9f76-65732e6b6963,rev?*%
%TF.SameCoordinates,Original*%
%TF.FileFunction,Drillmap*%
%TF.FilePolarity,Positive*%
%FSLAX45Y45*%
G04 Gerber Fmt 4.5, Leading zero omitted, Abs format (unit mm)*
G04 Created by KiCad (PCBNEW 8.0.3) date 2024-07-02 19:52:40*
%MOMM*%
%LPD*%
G01*
G04 APERTURE LIST*
%ADD10C,0.100000*%
%ADD11C,0.200000*%
%ADD12C,0.320000*%
G04 APERTURE END LIST*
D10*
X14351000Y-5080000D02*
X21717000Y-5080000D01*
X21717000Y-10160000D01*
X14351000Y-10160000D01*
X14351000Y-5080000D01*
D11*
D12*
X15969000Y-6840500D02*
X16289000Y-7160500D01*
X16289000Y-6840500D02*
X15969000Y-7160500D01*
X15969000Y-8984500D02*
X16289000Y-9304500D01*
X16289000Y-8984500D02*
X15969000Y-9304500D01*
X19140000Y-6840000D02*
X19460000Y-7160000D01*
X19460000Y-6840000D02*
X19140000Y-7160000D01*
D11*
X14606777Y-10476484D02*
X14606777Y-10276484D01*
X14606777Y-10276484D02*
X14654396Y-10276484D01*
X14654396Y-10276484D02*
X14682967Y-10286008D01*
X14682967Y-10286008D02*
X14702015Y-10305055D01*
X14702015Y-10305055D02*
X14711539Y-10324103D01*
X14711539Y-10324103D02*
X14721062Y-10362198D01*
X14721062Y-10362198D02*
X14721062Y-10390770D01*
X14721062Y-10390770D02*
X14711539Y-10428865D01*
X14711539Y-10428865D02*
X14702015Y-10447912D01*
X14702015Y-10447912D02*
X14682967Y-10466960D01*
X14682967Y-10466960D02*
X14654396Y-10476484D01*
X14654396Y-10476484D02*
X14606777Y-10476484D01*
X14806777Y-10476484D02*
X14806777Y-10343150D01*
X14806777Y-10381246D02*
X14816301Y-10362198D01*
X14816301Y-10362198D02*
X14825824Y-10352674D01*
X14825824Y-10352674D02*
X14844872Y-10343150D01*
X14844872Y-10343150D02*
X14863920Y-10343150D01*
X14930586Y-10476484D02*
X14930586Y-10343150D01*
X14930586Y-10276484D02*
X14921062Y-10286008D01*
X14921062Y-10286008D02*
X14930586Y-10295531D01*
X14930586Y-10295531D02*
X14940110Y-10286008D01*
X14940110Y-10286008D02*
X14930586Y-10276484D01*
X14930586Y-10276484D02*
X14930586Y-10295531D01*
X15054396Y-10476484D02*
X15035348Y-10466960D01*
X15035348Y-10466960D02*
X15025824Y-10447912D01*
X15025824Y-10447912D02*
X15025824Y-10276484D01*
X15159158Y-10476484D02*
X15140110Y-10466960D01*
X15140110Y-10466960D02*
X15130586Y-10447912D01*
X15130586Y-10447912D02*
X15130586Y-10276484D01*
X15387729Y-10476484D02*
X15387729Y-10276484D01*
X15387729Y-10276484D02*
X15454396Y-10419341D01*
X15454396Y-10419341D02*
X15521062Y-10276484D01*
X15521062Y-10276484D02*
X15521062Y-10476484D01*
X15702015Y-10476484D02*
X15702015Y-10371722D01*
X15702015Y-10371722D02*
X15692491Y-10352674D01*
X15692491Y-10352674D02*
X15673443Y-10343150D01*
X15673443Y-10343150D02*
X15635348Y-10343150D01*
X15635348Y-10343150D02*
X15616301Y-10352674D01*
X15702015Y-10466960D02*
X15682967Y-10476484D01*
X15682967Y-10476484D02*
X15635348Y-10476484D01*
X15635348Y-10476484D02*
X15616301Y-10466960D01*
X15616301Y-10466960D02*
X15606777Y-10447912D01*
X15606777Y-10447912D02*
X15606777Y-10428865D01*
X15606777Y-10428865D02*
X15616301Y-10409817D01*
X15616301Y-10409817D02*
X15635348Y-10400293D01*
X15635348Y-10400293D02*
X15682967Y-10400293D01*
X15682967Y-10400293D02*
X15702015Y-10390770D01*
X15797253Y-10343150D02*
X15797253Y-10543150D01*
X15797253Y-10352674D02*
X15816301Y-10343150D01*
X15816301Y-10343150D02*
X15854396Y-10343150D01*
X15854396Y-10343150D02*
X15873443Y-10352674D01*
X15873443Y-10352674D02*
X15882967Y-10362198D01*
X15882967Y-10362198D02*
X15892491Y-10381246D01*
X15892491Y-10381246D02*
X15892491Y-10438389D01*
X15892491Y-10438389D02*
X15882967Y-10457436D01*
X15882967Y-10457436D02*
X15873443Y-10466960D01*
X15873443Y-10466960D02*
X15854396Y-10476484D01*
X15854396Y-10476484D02*
X15816301Y-10476484D01*
X15816301Y-10476484D02*
X15797253Y-10466960D01*
X15978205Y-10457436D02*
X15987729Y-10466960D01*
X15987729Y-10466960D02*
X15978205Y-10476484D01*
X15978205Y-10476484D02*
X15968682Y-10466960D01*
X15968682Y-10466960D02*
X15978205Y-10457436D01*
X15978205Y-10457436D02*
X15978205Y-10476484D01*
X15978205Y-10352674D02*
X15987729Y-10362198D01*
X15987729Y-10362198D02*
X15978205Y-10371722D01*
X15978205Y-10371722D02*
X15968682Y-10362198D01*
X15968682Y-10362198D02*
X15978205Y-10352674D01*
X15978205Y-10352674D02*
X15978205Y-10371722D01*
X14146000Y-10705000D02*
X14346000Y-10905000D01*
X14346000Y-10705000D02*
X14146000Y-10905000D01*
X14587729Y-10696484D02*
X14711539Y-10696484D01*
X14711539Y-10696484D02*
X14644872Y-10772674D01*
X14644872Y-10772674D02*
X14673443Y-10772674D01*
X14673443Y-10772674D02*
X14692491Y-10782198D01*
X14692491Y-10782198D02*
X14702015Y-10791722D01*
X14702015Y-10791722D02*
X14711539Y-10810770D01*
X14711539Y-10810770D02*
X14711539Y-10858389D01*
X14711539Y-10858389D02*
X14702015Y-10877436D01*
X14702015Y-10877436D02*
X14692491Y-10886960D01*
X14692491Y-10886960D02*
X14673443Y-10896484D01*
X14673443Y-10896484D02*
X14616301Y-10896484D01*
X14616301Y-10896484D02*
X14597253Y-10886960D01*
X14597253Y-10886960D02*
X14587729Y-10877436D01*
X14797253Y-10877436D02*
X14806777Y-10886960D01*
X14806777Y-10886960D02*
X14797253Y-10896484D01*
X14797253Y-10896484D02*
X14787729Y-10886960D01*
X14787729Y-10886960D02*
X14797253Y-10877436D01*
X14797253Y-10877436D02*
X14797253Y-10896484D01*
X14882967Y-10715531D02*
X14892491Y-10706008D01*
X14892491Y-10706008D02*
X14911539Y-10696484D01*
X14911539Y-10696484D02*
X14959158Y-10696484D01*
X14959158Y-10696484D02*
X14978205Y-10706008D01*
X14978205Y-10706008D02*
X14987729Y-10715531D01*
X14987729Y-10715531D02*
X14997253Y-10734579D01*
X14997253Y-10734579D02*
X14997253Y-10753627D01*
X14997253Y-10753627D02*
X14987729Y-10782198D01*
X14987729Y-10782198D02*
X14873443Y-10896484D01*
X14873443Y-10896484D02*
X14997253Y-10896484D01*
X15121062Y-10696484D02*
X15140110Y-10696484D01*
X15140110Y-10696484D02*
X15159158Y-10706008D01*
X15159158Y-10706008D02*
X15168682Y-10715531D01*
X15168682Y-10715531D02*
X15178205Y-10734579D01*
X15178205Y-10734579D02*
X15187729Y-10772674D01*
X15187729Y-10772674D02*
X15187729Y-10820293D01*
X15187729Y-10820293D02*
X15178205Y-10858389D01*
X15178205Y-10858389D02*
X15168682Y-10877436D01*
X15168682Y-10877436D02*
X15159158Y-10886960D01*
X15159158Y-10886960D02*
X15140110Y-10896484D01*
X15140110Y-10896484D02*
X15121062Y-10896484D01*
X15121062Y-10896484D02*
X15102015Y-10886960D01*
X15102015Y-10886960D02*
X15092491Y-10877436D01*
X15092491Y-10877436D02*
X15082967Y-10858389D01*
X15082967Y-10858389D02*
X15073443Y-10820293D01*
X15073443Y-10820293D02*
X15073443Y-10772674D01*
X15073443Y-10772674D02*
X15082967Y-10734579D01*
X15082967Y-10734579D02*
X15092491Y-10715531D01*
X15092491Y-10715531D02*
X15102015Y-10706008D01*
X15102015Y-10706008D02*
X15121062Y-10696484D01*
X15311539Y-10696484D02*
X15330586Y-10696484D01*
X15330586Y-10696484D02*
X15349634Y-10706008D01*
X15349634Y-10706008D02*
X15359158Y-10715531D01*
X15359158Y-10715531D02*
X15368682Y-10734579D01*
X15368682Y-10734579D02*
X15378205Y-10772674D01*
X15378205Y-10772674D02*
X15378205Y-10820293D01*
X15378205Y-10820293D02*
X15368682Y-10858389D01*
X15368682Y-10858389D02*
X15359158Y-10877436D01*
X15359158Y-10877436D02*
X15349634Y-10886960D01*
X15349634Y-10886960D02*
X15330586Y-10896484D01*
X15330586Y-10896484D02*
X15311539Y-10896484D01*
X15311539Y-10896484D02*
X15292491Y-10886960D01*
X15292491Y-10886960D02*
X15282967Y-10877436D01*
X15282967Y-10877436D02*
X15273443Y-10858389D01*
X15273443Y-10858389D02*
X15263920Y-10820293D01*
X15263920Y-10820293D02*
X15263920Y-10772674D01*
X15263920Y-10772674D02*
X15273443Y-10734579D01*
X15273443Y-10734579D02*
X15282967Y-10715531D01*
X15282967Y-10715531D02*
X15292491Y-10706008D01*
X15292491Y-10706008D02*
X15311539Y-10696484D01*
X15463920Y-10896484D02*
X15463920Y-10763150D01*
X15463920Y-10782198D02*
X15473443Y-10772674D01*
X15473443Y-10772674D02*
X15492491Y-10763150D01*
X15492491Y-10763150D02*
X15521063Y-10763150D01*
X15521063Y-10763150D02*
X15540110Y-10772674D01*
X15540110Y-10772674D02*
X15549634Y-10791722D01*
X15549634Y-10791722D02*
X15549634Y-10896484D01*
X15549634Y-10791722D02*
X15559158Y-10772674D01*
X15559158Y-10772674D02*
X15578205Y-10763150D01*
X15578205Y-10763150D02*
X15606777Y-10763150D01*
X15606777Y-10763150D02*
X15625824Y-10772674D01*
X15625824Y-10772674D02*
X15635348Y-10791722D01*
X15635348Y-10791722D02*
X15635348Y-10896484D01*
X15730586Y-10896484D02*
X15730586Y-10763150D01*
X15730586Y-10782198D02*
X15740110Y-10772674D01*
X15740110Y-10772674D02*
X15759158Y-10763150D01*
X15759158Y-10763150D02*
X15787729Y-10763150D01*
X15787729Y-10763150D02*
X15806777Y-10772674D01*
X15806777Y-10772674D02*
X15816301Y-10791722D01*
X15816301Y-10791722D02*
X15816301Y-10896484D01*
X15816301Y-10791722D02*
X15825824Y-10772674D01*
X15825824Y-10772674D02*
X15844872Y-10763150D01*
X15844872Y-10763150D02*
X15873443Y-10763150D01*
X15873443Y-10763150D02*
X15892491Y-10772674D01*
X15892491Y-10772674D02*
X15902015Y-10791722D01*
X15902015Y-10791722D02*
X15902015Y-10896484D01*
X16292491Y-10686960D02*
X16121063Y-10944103D01*
X16549634Y-10696484D02*
X16568682Y-10696484D01*
X16568682Y-10696484D02*
X16587729Y-10706008D01*
X16587729Y-10706008D02*
X16597253Y-10715531D01*
X16597253Y-10715531D02*
X16606777Y-10734579D01*
X16606777Y-10734579D02*
X16616301Y-10772674D01*
X16616301Y-10772674D02*
X16616301Y-10820293D01*
X16616301Y-10820293D02*
X16606777Y-10858389D01*
X16606777Y-10858389D02*
X16597253Y-10877436D01*
X16597253Y-10877436D02*
X16587729Y-10886960D01*
X16587729Y-10886960D02*
X16568682Y-10896484D01*
X16568682Y-10896484D02*
X16549634Y-10896484D01*
X16549634Y-10896484D02*
X16530586Y-10886960D01*
X16530586Y-10886960D02*
X16521063Y-10877436D01*
X16521063Y-10877436D02*
X16511539Y-10858389D01*
X16511539Y-10858389D02*
X16502015Y-10820293D01*
X16502015Y-10820293D02*
X16502015Y-10772674D01*
X16502015Y-10772674D02*
X16511539Y-10734579D01*
X16511539Y-10734579D02*
X16521063Y-10715531D01*
X16521063Y-10715531D02*
X16530586Y-10706008D01*
X16530586Y-10706008D02*
X16549634Y-10696484D01*
X16702015Y-10877436D02*
X16711539Y-10886960D01*
X16711539Y-10886960D02*
X16702015Y-10896484D01*
X16702015Y-10896484D02*
X16692491Y-10886960D01*
X16692491Y-10886960D02*
X16702015Y-10877436D01*
X16702015Y-10877436D02*
X16702015Y-10896484D01*
X16902015Y-10896484D02*
X16787729Y-10896484D01*
X16844872Y-10896484D02*
X16844872Y-10696484D01*
X16844872Y-10696484D02*
X16825825Y-10725055D01*
X16825825Y-10725055D02*
X16806777Y-10744103D01*
X16806777Y-10744103D02*
X16787729Y-10753627D01*
X16978206Y-10715531D02*
X16987729Y-10706008D01*
X16987729Y-10706008D02*
X17006777Y-10696484D01*
X17006777Y-10696484D02*
X17054396Y-10696484D01*
X17054396Y-10696484D02*
X17073444Y-10706008D01*
X17073444Y-10706008D02*
X17082968Y-10715531D01*
X17082968Y-10715531D02*
X17092491Y-10734579D01*
X17092491Y-10734579D02*
X17092491Y-10753627D01*
X17092491Y-10753627D02*
X17082968Y-10782198D01*
X17082968Y-10782198D02*
X16968682Y-10896484D01*
X16968682Y-10896484D02*
X17092491Y-10896484D01*
X17263920Y-10696484D02*
X17225825Y-10696484D01*
X17225825Y-10696484D02*
X17206777Y-10706008D01*
X17206777Y-10706008D02*
X17197253Y-10715531D01*
X17197253Y-10715531D02*
X17178206Y-10744103D01*
X17178206Y-10744103D02*
X17168682Y-10782198D01*
X17168682Y-10782198D02*
X17168682Y-10858389D01*
X17168682Y-10858389D02*
X17178206Y-10877436D01*
X17178206Y-10877436D02*
X17187729Y-10886960D01*
X17187729Y-10886960D02*
X17206777Y-10896484D01*
X17206777Y-10896484D02*
X17244872Y-10896484D01*
X17244872Y-10896484D02*
X17263920Y-10886960D01*
X17263920Y-10886960D02*
X17273444Y-10877436D01*
X17273444Y-10877436D02*
X17282968Y-10858389D01*
X17282968Y-10858389D02*
X17282968Y-10810770D01*
X17282968Y-10810770D02*
X17273444Y-10791722D01*
X17273444Y-10791722D02*
X17263920Y-10782198D01*
X17263920Y-10782198D02*
X17244872Y-10772674D01*
X17244872Y-10772674D02*
X17206777Y-10772674D01*
X17206777Y-10772674D02*
X17187729Y-10782198D01*
X17187729Y-10782198D02*
X17178206Y-10791722D01*
X17178206Y-10791722D02*
X17168682Y-10810770D01*
X17406777Y-10696484D02*
X17425825Y-10696484D01*
X17425825Y-10696484D02*
X17444872Y-10706008D01*
X17444872Y-10706008D02*
X17454396Y-10715531D01*
X17454396Y-10715531D02*
X17463920Y-10734579D01*
X17463920Y-10734579D02*
X17473444Y-10772674D01*
X17473444Y-10772674D02*
X17473444Y-10820293D01*
X17473444Y-10820293D02*
X17463920Y-10858389D01*
X17463920Y-10858389D02*
X17454396Y-10877436D01*
X17454396Y-10877436D02*
X17444872Y-10886960D01*
X17444872Y-10886960D02*
X17425825Y-10896484D01*
X17425825Y-10896484D02*
X17406777Y-10896484D01*
X17406777Y-10896484D02*
X17387729Y-10886960D01*
X17387729Y-10886960D02*
X17378206Y-10877436D01*
X17378206Y-10877436D02*
X17368682Y-10858389D01*
X17368682Y-10858389D02*
X17359158Y-10820293D01*
X17359158Y-10820293D02*
X17359158Y-10772674D01*
X17359158Y-10772674D02*
X17368682Y-10734579D01*
X17368682Y-10734579D02*
X17378206Y-10715531D01*
X17378206Y-10715531D02*
X17387729Y-10706008D01*
X17387729Y-10706008D02*
X17406777Y-10696484D01*
X17549634Y-10696484D02*
X17549634Y-10734579D01*
X17625825Y-10696484D02*
X17625825Y-10734579D01*
X17921063Y-10972674D02*
X17911539Y-10963150D01*
X17911539Y-10963150D02*
X17892491Y-10934579D01*
X17892491Y-10934579D02*
X17882968Y-10915531D01*
X17882968Y-10915531D02*
X17873444Y-10886960D01*
X17873444Y-10886960D02*
X17863920Y-10839341D01*
X17863920Y-10839341D02*
X17863920Y-10801246D01*
X17863920Y-10801246D02*
X17873444Y-10753627D01*
X17873444Y-10753627D02*
X17882968Y-10725055D01*
X17882968Y-10725055D02*
X17892491Y-10706008D01*
X17892491Y-10706008D02*
X17911539Y-10677436D01*
X17911539Y-10677436D02*
X17921063Y-10667912D01*
X17978206Y-10696484D02*
X18102015Y-10696484D01*
X18102015Y-10696484D02*
X18035349Y-10772674D01*
X18035349Y-10772674D02*
X18063920Y-10772674D01*
X18063920Y-10772674D02*
X18082968Y-10782198D01*
X18082968Y-10782198D02*
X18092491Y-10791722D01*
X18092491Y-10791722D02*
X18102015Y-10810770D01*
X18102015Y-10810770D02*
X18102015Y-10858389D01*
X18102015Y-10858389D02*
X18092491Y-10877436D01*
X18092491Y-10877436D02*
X18082968Y-10886960D01*
X18082968Y-10886960D02*
X18063920Y-10896484D01*
X18063920Y-10896484D02*
X18006777Y-10896484D01*
X18006777Y-10896484D02*
X17987730Y-10886960D01*
X17987730Y-10886960D02*
X17978206Y-10877436D01*
X18340111Y-10896484D02*
X18340111Y-10696484D01*
X18425825Y-10896484D02*
X18425825Y-10791722D01*
X18425825Y-10791722D02*
X18416301Y-10772674D01*
X18416301Y-10772674D02*
X18397253Y-10763150D01*
X18397253Y-10763150D02*
X18368682Y-10763150D01*
X18368682Y-10763150D02*
X18349634Y-10772674D01*
X18349634Y-10772674D02*
X18340111Y-10782198D01*
X18549634Y-10896484D02*
X18530587Y-10886960D01*
X18530587Y-10886960D02*
X18521063Y-10877436D01*
X18521063Y-10877436D02*
X18511539Y-10858389D01*
X18511539Y-10858389D02*
X18511539Y-10801246D01*
X18511539Y-10801246D02*
X18521063Y-10782198D01*
X18521063Y-10782198D02*
X18530587Y-10772674D01*
X18530587Y-10772674D02*
X18549634Y-10763150D01*
X18549634Y-10763150D02*
X18578206Y-10763150D01*
X18578206Y-10763150D02*
X18597253Y-10772674D01*
X18597253Y-10772674D02*
X18606777Y-10782198D01*
X18606777Y-10782198D02*
X18616301Y-10801246D01*
X18616301Y-10801246D02*
X18616301Y-10858389D01*
X18616301Y-10858389D02*
X18606777Y-10877436D01*
X18606777Y-10877436D02*
X18597253Y-10886960D01*
X18597253Y-10886960D02*
X18578206Y-10896484D01*
X18578206Y-10896484D02*
X18549634Y-10896484D01*
X18730587Y-10896484D02*
X18711539Y-10886960D01*
X18711539Y-10886960D02*
X18702015Y-10867912D01*
X18702015Y-10867912D02*
X18702015Y-10696484D01*
X18882968Y-10886960D02*
X18863920Y-10896484D01*
X18863920Y-10896484D02*
X18825825Y-10896484D01*
X18825825Y-10896484D02*
X18806777Y-10886960D01*
X18806777Y-10886960D02*
X18797253Y-10867912D01*
X18797253Y-10867912D02*
X18797253Y-10791722D01*
X18797253Y-10791722D02*
X18806777Y-10772674D01*
X18806777Y-10772674D02*
X18825825Y-10763150D01*
X18825825Y-10763150D02*
X18863920Y-10763150D01*
X18863920Y-10763150D02*
X18882968Y-10772674D01*
X18882968Y-10772674D02*
X18892492Y-10791722D01*
X18892492Y-10791722D02*
X18892492Y-10810770D01*
X18892492Y-10810770D02*
X18797253Y-10829817D01*
X18968682Y-10886960D02*
X18987730Y-10896484D01*
X18987730Y-10896484D02*
X19025825Y-10896484D01*
X19025825Y-10896484D02*
X19044873Y-10886960D01*
X19044873Y-10886960D02*
X19054396Y-10867912D01*
X19054396Y-10867912D02*
X19054396Y-10858389D01*
X19054396Y-10858389D02*
X19044873Y-10839341D01*
X19044873Y-10839341D02*
X19025825Y-10829817D01*
X19025825Y-10829817D02*
X18997253Y-10829817D01*
X18997253Y-10829817D02*
X18978206Y-10820293D01*
X18978206Y-10820293D02*
X18968682Y-10801246D01*
X18968682Y-10801246D02*
X18968682Y-10791722D01*
X18968682Y-10791722D02*
X18978206Y-10772674D01*
X18978206Y-10772674D02*
X18997253Y-10763150D01*
X18997253Y-10763150D02*
X19025825Y-10763150D01*
X19025825Y-10763150D02*
X19044873Y-10772674D01*
X19121063Y-10972674D02*
X19130587Y-10963150D01*
X19130587Y-10963150D02*
X19149634Y-10934579D01*
X19149634Y-10934579D02*
X19159158Y-10915531D01*
X19159158Y-10915531D02*
X19168682Y-10886960D01*
X19168682Y-10886960D02*
X19178206Y-10839341D01*
X19178206Y-10839341D02*
X19178206Y-10801246D01*
X19178206Y-10801246D02*
X19168682Y-10753627D01*
X19168682Y-10753627D02*
X19159158Y-10725055D01*
X19159158Y-10725055D02*
X19149634Y-10706008D01*
X19149634Y-10706008D02*
X19130587Y-10677436D01*
X19130587Y-10677436D02*
X19121063Y-10667912D01*
X19482968Y-10972674D02*
X19473444Y-10963150D01*
X19473444Y-10963150D02*
X19454396Y-10934579D01*
X19454396Y-10934579D02*
X19444873Y-10915531D01*
X19444873Y-10915531D02*
X19435349Y-10886960D01*
X19435349Y-10886960D02*
X19425825Y-10839341D01*
X19425825Y-10839341D02*
X19425825Y-10801246D01*
X19425825Y-10801246D02*
X19435349Y-10753627D01*
X19435349Y-10753627D02*
X19444873Y-10725055D01*
X19444873Y-10725055D02*
X19454396Y-10706008D01*
X19454396Y-10706008D02*
X19473444Y-10677436D01*
X19473444Y-10677436D02*
X19482968Y-10667912D01*
X19559158Y-10763150D02*
X19559158Y-10896484D01*
X19559158Y-10782198D02*
X19568682Y-10772674D01*
X19568682Y-10772674D02*
X19587730Y-10763150D01*
X19587730Y-10763150D02*
X19616301Y-10763150D01*
X19616301Y-10763150D02*
X19635349Y-10772674D01*
X19635349Y-10772674D02*
X19644873Y-10791722D01*
X19644873Y-10791722D02*
X19644873Y-10896484D01*
X19768682Y-10896484D02*
X19749634Y-10886960D01*
X19749634Y-10886960D02*
X19740111Y-10877436D01*
X19740111Y-10877436D02*
X19730587Y-10858389D01*
X19730587Y-10858389D02*
X19730587Y-10801246D01*
X19730587Y-10801246D02*
X19740111Y-10782198D01*
X19740111Y-10782198D02*
X19749634Y-10772674D01*
X19749634Y-10772674D02*
X19768682Y-10763150D01*
X19768682Y-10763150D02*
X19797254Y-10763150D01*
X19797254Y-10763150D02*
X19816301Y-10772674D01*
X19816301Y-10772674D02*
X19825825Y-10782198D01*
X19825825Y-10782198D02*
X19835349Y-10801246D01*
X19835349Y-10801246D02*
X19835349Y-10858389D01*
X19835349Y-10858389D02*
X19825825Y-10877436D01*
X19825825Y-10877436D02*
X19816301Y-10886960D01*
X19816301Y-10886960D02*
X19797254Y-10896484D01*
X19797254Y-10896484D02*
X19768682Y-10896484D01*
X19892492Y-10763150D02*
X19968682Y-10763150D01*
X19921063Y-10696484D02*
X19921063Y-10867912D01*
X19921063Y-10867912D02*
X19930587Y-10886960D01*
X19930587Y-10886960D02*
X19949634Y-10896484D01*
X19949634Y-10896484D02*
X19968682Y-10896484D01*
X20187730Y-10763150D02*
X20187730Y-10963150D01*
X20187730Y-10772674D02*
X20206777Y-10763150D01*
X20206777Y-10763150D02*
X20244873Y-10763150D01*
X20244873Y-10763150D02*
X20263920Y-10772674D01*
X20263920Y-10772674D02*
X20273444Y-10782198D01*
X20273444Y-10782198D02*
X20282968Y-10801246D01*
X20282968Y-10801246D02*
X20282968Y-10858389D01*
X20282968Y-10858389D02*
X20273444Y-10877436D01*
X20273444Y-10877436D02*
X20263920Y-10886960D01*
X20263920Y-10886960D02*
X20244873Y-10896484D01*
X20244873Y-10896484D02*
X20206777Y-10896484D01*
X20206777Y-10896484D02*
X20187730Y-10886960D01*
X20397254Y-10896484D02*
X20378206Y-10886960D01*
X20378206Y-10886960D02*
X20368682Y-10867912D01*
X20368682Y-10867912D02*
X20368682Y-10696484D01*
X20559158Y-10896484D02*
X20559158Y-10791722D01*
X20559158Y-10791722D02*
X20549635Y-10772674D01*
X20549635Y-10772674D02*
X20530587Y-10763150D01*
X20530587Y-10763150D02*
X20492492Y-10763150D01*
X20492492Y-10763150D02*
X20473444Y-10772674D01*
X20559158Y-10886960D02*
X20540111Y-10896484D01*
X20540111Y-10896484D02*
X20492492Y-10896484D01*
X20492492Y-10896484D02*
X20473444Y-10886960D01*
X20473444Y-10886960D02*
X20463920Y-10867912D01*
X20463920Y-10867912D02*
X20463920Y-10848865D01*
X20463920Y-10848865D02*
X20473444Y-10829817D01*
X20473444Y-10829817D02*
X20492492Y-10820293D01*
X20492492Y-10820293D02*
X20540111Y-10820293D01*
X20540111Y-10820293D02*
X20559158Y-10810770D01*
X20625825Y-10763150D02*
X20702015Y-10763150D01*
X20654396Y-10696484D02*
X20654396Y-10867912D01*
X20654396Y-10867912D02*
X20663920Y-10886960D01*
X20663920Y-10886960D02*
X20682968Y-10896484D01*
X20682968Y-10896484D02*
X20702015Y-10896484D01*
X20844873Y-10886960D02*
X20825825Y-10896484D01*
X20825825Y-10896484D02*
X20787730Y-10896484D01*
X20787730Y-10896484D02*
X20768682Y-10886960D01*
X20768682Y-10886960D02*
X20759158Y-10867912D01*
X20759158Y-10867912D02*
X20759158Y-10791722D01*
X20759158Y-10791722D02*
X20768682Y-10772674D01*
X20768682Y-10772674D02*
X20787730Y-10763150D01*
X20787730Y-10763150D02*
X20825825Y-10763150D01*
X20825825Y-10763150D02*
X20844873Y-10772674D01*
X20844873Y-10772674D02*
X20854396Y-10791722D01*
X20854396Y-10791722D02*
X20854396Y-10810770D01*
X20854396Y-10810770D02*
X20759158Y-10829817D01*
X21025825Y-10896484D02*
X21025825Y-10696484D01*
X21025825Y-10886960D02*
X21006777Y-10896484D01*
X21006777Y-10896484D02*
X20968682Y-10896484D01*
X20968682Y-10896484D02*
X20949635Y-10886960D01*
X20949635Y-10886960D02*
X20940111Y-10877436D01*
X20940111Y-10877436D02*
X20930587Y-10858389D01*
X20930587Y-10858389D02*
X20930587Y-10801246D01*
X20930587Y-10801246D02*
X20940111Y-10782198D01*
X20940111Y-10782198D02*
X20949635Y-10772674D01*
X20949635Y-10772674D02*
X20968682Y-10763150D01*
X20968682Y-10763150D02*
X21006777Y-10763150D01*
X21006777Y-10763150D02*
X21025825Y-10772674D01*
X21102016Y-10972674D02*
X21111539Y-10963150D01*
X21111539Y-10963150D02*
X21130587Y-10934579D01*
X21130587Y-10934579D02*
X21140111Y-10915531D01*
X21140111Y-10915531D02*
X21149635Y-10886960D01*
X21149635Y-10886960D02*
X21159158Y-10839341D01*
X21159158Y-10839341D02*
X21159158Y-10801246D01*
X21159158Y-10801246D02*
X21149635Y-10753627D01*
X21149635Y-10753627D02*
X21140111Y-10725055D01*
X21140111Y-10725055D02*
X21130587Y-10706008D01*
X21130587Y-10706008D02*
X21111539Y-10677436D01*
X21111539Y-10677436D02*
X21102016Y-10667912D01*
M02*
