%TF.GenerationSoftware,KiCad,Pcbnew,8.0.3*%
%TF.CreationDate,2024-07-03T13:18:24-05:00*%
%TF.ProjectId,lucidGloves,6c756369-6447-46c6-9f76-65732e6b6963,rev?*%
%TF.SameCoordinates,Original*%
%TF.FileFunction,AssemblyDrawing,Top*%
%FSLAX46Y46*%
G04 Gerber Fmt 4.6, Leading zero omitted, Abs format (unit mm)*
G04 Created by KiCad (PCBNEW 8.0.3) date 2024-07-03 13:18:24*
%MOMM*%
%LPD*%
G01*
G04 APERTURE LIST*
%ADD10C,0.150000*%
%ADD11C,0.040000*%
%ADD12C,0.100000*%
G04 APERTURE END LIST*
D10*
X169994104Y-93936309D02*
X170041723Y-93888690D01*
X170041723Y-93888690D02*
X170136961Y-93841071D01*
X170136961Y-93841071D02*
X170375056Y-93841071D01*
X170375056Y-93841071D02*
X170470294Y-93888690D01*
X170470294Y-93888690D02*
X170517913Y-93936309D01*
X170517913Y-93936309D02*
X170565532Y-94031547D01*
X170565532Y-94031547D02*
X170565532Y-94126785D01*
X170565532Y-94126785D02*
X170517913Y-94269642D01*
X170517913Y-94269642D02*
X169946485Y-94841071D01*
X169946485Y-94841071D02*
X170565532Y-94841071D01*
X170898866Y-93841071D02*
X171565532Y-93841071D01*
X171565532Y-93841071D02*
X171136961Y-94841071D01*
X172136961Y-93841071D02*
X172232199Y-93841071D01*
X172232199Y-93841071D02*
X172327437Y-93888690D01*
X172327437Y-93888690D02*
X172375056Y-93936309D01*
X172375056Y-93936309D02*
X172422675Y-94031547D01*
X172422675Y-94031547D02*
X172470294Y-94222023D01*
X172470294Y-94222023D02*
X172470294Y-94460118D01*
X172470294Y-94460118D02*
X172422675Y-94650594D01*
X172422675Y-94650594D02*
X172375056Y-94745832D01*
X172375056Y-94745832D02*
X172327437Y-94793452D01*
X172327437Y-94793452D02*
X172232199Y-94841071D01*
X172232199Y-94841071D02*
X172136961Y-94841071D01*
X172136961Y-94841071D02*
X172041723Y-94793452D01*
X172041723Y-94793452D02*
X171994104Y-94745832D01*
X171994104Y-94745832D02*
X171946485Y-94650594D01*
X171946485Y-94650594D02*
X171898866Y-94460118D01*
X171898866Y-94460118D02*
X171898866Y-94222023D01*
X171898866Y-94222023D02*
X171946485Y-94031547D01*
X171946485Y-94031547D02*
X171994104Y-93936309D01*
X171994104Y-93936309D02*
X172041723Y-93888690D01*
X172041723Y-93888690D02*
X172136961Y-93841071D01*
X172851247Y-94841071D02*
X173089342Y-94841071D01*
X173089342Y-94841071D02*
X173089342Y-94650594D01*
X173089342Y-94650594D02*
X172994104Y-94602975D01*
X172994104Y-94602975D02*
X172898866Y-94507737D01*
X172898866Y-94507737D02*
X172851247Y-94364880D01*
X172851247Y-94364880D02*
X172851247Y-94126785D01*
X172851247Y-94126785D02*
X172898866Y-93983928D01*
X172898866Y-93983928D02*
X172994104Y-93888690D01*
X172994104Y-93888690D02*
X173136961Y-93841071D01*
X173136961Y-93841071D02*
X173327437Y-93841071D01*
X173327437Y-93841071D02*
X173470294Y-93888690D01*
X173470294Y-93888690D02*
X173565532Y-93983928D01*
X173565532Y-93983928D02*
X173613151Y-94126785D01*
X173613151Y-94126785D02*
X173613151Y-94364880D01*
X173613151Y-94364880D02*
X173565532Y-94507737D01*
X173565532Y-94507737D02*
X173470294Y-94602975D01*
X173470294Y-94602975D02*
X173375056Y-94650594D01*
X173375056Y-94650594D02*
X173375056Y-94841071D01*
X173375056Y-94841071D02*
X173613151Y-94841071D01*
D11*
X172964667Y-92829037D02*
X172878000Y-92705228D01*
X172816095Y-92829037D02*
X172816095Y-92569037D01*
X172816095Y-92569037D02*
X172915143Y-92569037D01*
X172915143Y-92569037D02*
X172939905Y-92581418D01*
X172939905Y-92581418D02*
X172952286Y-92593799D01*
X172952286Y-92593799D02*
X172964667Y-92618561D01*
X172964667Y-92618561D02*
X172964667Y-92655704D01*
X172964667Y-92655704D02*
X172952286Y-92680466D01*
X172952286Y-92680466D02*
X172939905Y-92692847D01*
X172939905Y-92692847D02*
X172915143Y-92705228D01*
X172915143Y-92705228D02*
X172816095Y-92705228D01*
X173051333Y-92569037D02*
X173212286Y-92569037D01*
X173212286Y-92569037D02*
X173125619Y-92668085D01*
X173125619Y-92668085D02*
X173162762Y-92668085D01*
X173162762Y-92668085D02*
X173187524Y-92680466D01*
X173187524Y-92680466D02*
X173199905Y-92692847D01*
X173199905Y-92692847D02*
X173212286Y-92717609D01*
X173212286Y-92717609D02*
X173212286Y-92779514D01*
X173212286Y-92779514D02*
X173199905Y-92804276D01*
X173199905Y-92804276D02*
X173187524Y-92816657D01*
X173187524Y-92816657D02*
X173162762Y-92829037D01*
X173162762Y-92829037D02*
X173088476Y-92829037D01*
X173088476Y-92829037D02*
X173063714Y-92816657D01*
X173063714Y-92816657D02*
X173051333Y-92804276D01*
D10*
X184483095Y-92064819D02*
X184006905Y-92064819D01*
X184006905Y-92064819D02*
X183959286Y-92541009D01*
X183959286Y-92541009D02*
X184006905Y-92493390D01*
X184006905Y-92493390D02*
X184102143Y-92445771D01*
X184102143Y-92445771D02*
X184340238Y-92445771D01*
X184340238Y-92445771D02*
X184435476Y-92493390D01*
X184435476Y-92493390D02*
X184483095Y-92541009D01*
X184483095Y-92541009D02*
X184530714Y-92636247D01*
X184530714Y-92636247D02*
X184530714Y-92874342D01*
X184530714Y-92874342D02*
X184483095Y-92969580D01*
X184483095Y-92969580D02*
X184435476Y-93017200D01*
X184435476Y-93017200D02*
X184340238Y-93064819D01*
X184340238Y-93064819D02*
X184102143Y-93064819D01*
X184102143Y-93064819D02*
X184006905Y-93017200D01*
X184006905Y-93017200D02*
X183959286Y-92969580D01*
X185483095Y-93064819D02*
X184911667Y-93064819D01*
X185197381Y-93064819D02*
X185197381Y-92064819D01*
X185197381Y-92064819D02*
X185102143Y-92207676D01*
X185102143Y-92207676D02*
X185006905Y-92302914D01*
X185006905Y-92302914D02*
X184911667Y-92350533D01*
X186102143Y-92064819D02*
X186197381Y-92064819D01*
X186197381Y-92064819D02*
X186292619Y-92112438D01*
X186292619Y-92112438D02*
X186340238Y-92160057D01*
X186340238Y-92160057D02*
X186387857Y-92255295D01*
X186387857Y-92255295D02*
X186435476Y-92445771D01*
X186435476Y-92445771D02*
X186435476Y-92683866D01*
X186435476Y-92683866D02*
X186387857Y-92874342D01*
X186387857Y-92874342D02*
X186340238Y-92969580D01*
X186340238Y-92969580D02*
X186292619Y-93017200D01*
X186292619Y-93017200D02*
X186197381Y-93064819D01*
X186197381Y-93064819D02*
X186102143Y-93064819D01*
X186102143Y-93064819D02*
X186006905Y-93017200D01*
X186006905Y-93017200D02*
X185959286Y-92969580D01*
X185959286Y-92969580D02*
X185911667Y-92874342D01*
X185911667Y-92874342D02*
X185864048Y-92683866D01*
X185864048Y-92683866D02*
X185864048Y-92445771D01*
X185864048Y-92445771D02*
X185911667Y-92255295D01*
X185911667Y-92255295D02*
X185959286Y-92160057D01*
X185959286Y-92160057D02*
X186006905Y-92112438D01*
X186006905Y-92112438D02*
X186102143Y-92064819D01*
X187054524Y-92064819D02*
X187149762Y-92064819D01*
X187149762Y-92064819D02*
X187245000Y-92112438D01*
X187245000Y-92112438D02*
X187292619Y-92160057D01*
X187292619Y-92160057D02*
X187340238Y-92255295D01*
X187340238Y-92255295D02*
X187387857Y-92445771D01*
X187387857Y-92445771D02*
X187387857Y-92683866D01*
X187387857Y-92683866D02*
X187340238Y-92874342D01*
X187340238Y-92874342D02*
X187292619Y-92969580D01*
X187292619Y-92969580D02*
X187245000Y-93017200D01*
X187245000Y-93017200D02*
X187149762Y-93064819D01*
X187149762Y-93064819D02*
X187054524Y-93064819D01*
X187054524Y-93064819D02*
X186959286Y-93017200D01*
X186959286Y-93017200D02*
X186911667Y-92969580D01*
X186911667Y-92969580D02*
X186864048Y-92874342D01*
X186864048Y-92874342D02*
X186816429Y-92683866D01*
X186816429Y-92683866D02*
X186816429Y-92445771D01*
X186816429Y-92445771D02*
X186864048Y-92255295D01*
X186864048Y-92255295D02*
X186911667Y-92160057D01*
X186911667Y-92160057D02*
X186959286Y-92112438D01*
X186959286Y-92112438D02*
X187054524Y-92064819D01*
X187768810Y-93064819D02*
X188006905Y-93064819D01*
X188006905Y-93064819D02*
X188006905Y-92874342D01*
X188006905Y-92874342D02*
X187911667Y-92826723D01*
X187911667Y-92826723D02*
X187816429Y-92731485D01*
X187816429Y-92731485D02*
X187768810Y-92588628D01*
X187768810Y-92588628D02*
X187768810Y-92350533D01*
X187768810Y-92350533D02*
X187816429Y-92207676D01*
X187816429Y-92207676D02*
X187911667Y-92112438D01*
X187911667Y-92112438D02*
X188054524Y-92064819D01*
X188054524Y-92064819D02*
X188245000Y-92064819D01*
X188245000Y-92064819D02*
X188387857Y-92112438D01*
X188387857Y-92112438D02*
X188483095Y-92207676D01*
X188483095Y-92207676D02*
X188530714Y-92350533D01*
X188530714Y-92350533D02*
X188530714Y-92588628D01*
X188530714Y-92588628D02*
X188483095Y-92731485D01*
X188483095Y-92731485D02*
X188387857Y-92826723D01*
X188387857Y-92826723D02*
X188292619Y-92874342D01*
X188292619Y-92874342D02*
X188292619Y-93064819D01*
X188292619Y-93064819D02*
X188530714Y-93064819D01*
D11*
X186201667Y-91558200D02*
X186115000Y-91434391D01*
X186053095Y-91558200D02*
X186053095Y-91298200D01*
X186053095Y-91298200D02*
X186152143Y-91298200D01*
X186152143Y-91298200D02*
X186176905Y-91310581D01*
X186176905Y-91310581D02*
X186189286Y-91322962D01*
X186189286Y-91322962D02*
X186201667Y-91347724D01*
X186201667Y-91347724D02*
X186201667Y-91384867D01*
X186201667Y-91384867D02*
X186189286Y-91409629D01*
X186189286Y-91409629D02*
X186176905Y-91422010D01*
X186176905Y-91422010D02*
X186152143Y-91434391D01*
X186152143Y-91434391D02*
X186053095Y-91434391D01*
X186300714Y-91322962D02*
X186313095Y-91310581D01*
X186313095Y-91310581D02*
X186337857Y-91298200D01*
X186337857Y-91298200D02*
X186399762Y-91298200D01*
X186399762Y-91298200D02*
X186424524Y-91310581D01*
X186424524Y-91310581D02*
X186436905Y-91322962D01*
X186436905Y-91322962D02*
X186449286Y-91347724D01*
X186449286Y-91347724D02*
X186449286Y-91372486D01*
X186449286Y-91372486D02*
X186436905Y-91409629D01*
X186436905Y-91409629D02*
X186288333Y-91558200D01*
X186288333Y-91558200D02*
X186449286Y-91558200D01*
D10*
X205248095Y-89624819D02*
X204771905Y-89624819D01*
X204771905Y-89624819D02*
X204724286Y-90101009D01*
X204724286Y-90101009D02*
X204771905Y-90053390D01*
X204771905Y-90053390D02*
X204867143Y-90005771D01*
X204867143Y-90005771D02*
X205105238Y-90005771D01*
X205105238Y-90005771D02*
X205200476Y-90053390D01*
X205200476Y-90053390D02*
X205248095Y-90101009D01*
X205248095Y-90101009D02*
X205295714Y-90196247D01*
X205295714Y-90196247D02*
X205295714Y-90434342D01*
X205295714Y-90434342D02*
X205248095Y-90529580D01*
X205248095Y-90529580D02*
X205200476Y-90577200D01*
X205200476Y-90577200D02*
X205105238Y-90624819D01*
X205105238Y-90624819D02*
X204867143Y-90624819D01*
X204867143Y-90624819D02*
X204771905Y-90577200D01*
X204771905Y-90577200D02*
X204724286Y-90529580D01*
X206248095Y-90624819D02*
X205676667Y-90624819D01*
X205962381Y-90624819D02*
X205962381Y-89624819D01*
X205962381Y-89624819D02*
X205867143Y-89767676D01*
X205867143Y-89767676D02*
X205771905Y-89862914D01*
X205771905Y-89862914D02*
X205676667Y-89910533D01*
X206867143Y-89624819D02*
X206962381Y-89624819D01*
X206962381Y-89624819D02*
X207057619Y-89672438D01*
X207057619Y-89672438D02*
X207105238Y-89720057D01*
X207105238Y-89720057D02*
X207152857Y-89815295D01*
X207152857Y-89815295D02*
X207200476Y-90005771D01*
X207200476Y-90005771D02*
X207200476Y-90243866D01*
X207200476Y-90243866D02*
X207152857Y-90434342D01*
X207152857Y-90434342D02*
X207105238Y-90529580D01*
X207105238Y-90529580D02*
X207057619Y-90577200D01*
X207057619Y-90577200D02*
X206962381Y-90624819D01*
X206962381Y-90624819D02*
X206867143Y-90624819D01*
X206867143Y-90624819D02*
X206771905Y-90577200D01*
X206771905Y-90577200D02*
X206724286Y-90529580D01*
X206724286Y-90529580D02*
X206676667Y-90434342D01*
X206676667Y-90434342D02*
X206629048Y-90243866D01*
X206629048Y-90243866D02*
X206629048Y-90005771D01*
X206629048Y-90005771D02*
X206676667Y-89815295D01*
X206676667Y-89815295D02*
X206724286Y-89720057D01*
X206724286Y-89720057D02*
X206771905Y-89672438D01*
X206771905Y-89672438D02*
X206867143Y-89624819D01*
X207819524Y-89624819D02*
X207914762Y-89624819D01*
X207914762Y-89624819D02*
X208010000Y-89672438D01*
X208010000Y-89672438D02*
X208057619Y-89720057D01*
X208057619Y-89720057D02*
X208105238Y-89815295D01*
X208105238Y-89815295D02*
X208152857Y-90005771D01*
X208152857Y-90005771D02*
X208152857Y-90243866D01*
X208152857Y-90243866D02*
X208105238Y-90434342D01*
X208105238Y-90434342D02*
X208057619Y-90529580D01*
X208057619Y-90529580D02*
X208010000Y-90577200D01*
X208010000Y-90577200D02*
X207914762Y-90624819D01*
X207914762Y-90624819D02*
X207819524Y-90624819D01*
X207819524Y-90624819D02*
X207724286Y-90577200D01*
X207724286Y-90577200D02*
X207676667Y-90529580D01*
X207676667Y-90529580D02*
X207629048Y-90434342D01*
X207629048Y-90434342D02*
X207581429Y-90243866D01*
X207581429Y-90243866D02*
X207581429Y-90005771D01*
X207581429Y-90005771D02*
X207629048Y-89815295D01*
X207629048Y-89815295D02*
X207676667Y-89720057D01*
X207676667Y-89720057D02*
X207724286Y-89672438D01*
X207724286Y-89672438D02*
X207819524Y-89624819D01*
X208533810Y-90624819D02*
X208771905Y-90624819D01*
X208771905Y-90624819D02*
X208771905Y-90434342D01*
X208771905Y-90434342D02*
X208676667Y-90386723D01*
X208676667Y-90386723D02*
X208581429Y-90291485D01*
X208581429Y-90291485D02*
X208533810Y-90148628D01*
X208533810Y-90148628D02*
X208533810Y-89910533D01*
X208533810Y-89910533D02*
X208581429Y-89767676D01*
X208581429Y-89767676D02*
X208676667Y-89672438D01*
X208676667Y-89672438D02*
X208819524Y-89624819D01*
X208819524Y-89624819D02*
X209010000Y-89624819D01*
X209010000Y-89624819D02*
X209152857Y-89672438D01*
X209152857Y-89672438D02*
X209248095Y-89767676D01*
X209248095Y-89767676D02*
X209295714Y-89910533D01*
X209295714Y-89910533D02*
X209295714Y-90148628D01*
X209295714Y-90148628D02*
X209248095Y-90291485D01*
X209248095Y-90291485D02*
X209152857Y-90386723D01*
X209152857Y-90386723D02*
X209057619Y-90434342D01*
X209057619Y-90434342D02*
X209057619Y-90624819D01*
X209057619Y-90624819D02*
X209295714Y-90624819D01*
D11*
X211286667Y-91558200D02*
X211200000Y-91434391D01*
X211138095Y-91558200D02*
X211138095Y-91298200D01*
X211138095Y-91298200D02*
X211237143Y-91298200D01*
X211237143Y-91298200D02*
X211261905Y-91310581D01*
X211261905Y-91310581D02*
X211274286Y-91322962D01*
X211274286Y-91322962D02*
X211286667Y-91347724D01*
X211286667Y-91347724D02*
X211286667Y-91384867D01*
X211286667Y-91384867D02*
X211274286Y-91409629D01*
X211274286Y-91409629D02*
X211261905Y-91422010D01*
X211261905Y-91422010D02*
X211237143Y-91434391D01*
X211237143Y-91434391D02*
X211138095Y-91434391D01*
X211534286Y-91558200D02*
X211385714Y-91558200D01*
X211460000Y-91558200D02*
X211460000Y-91298200D01*
X211460000Y-91298200D02*
X211435238Y-91335343D01*
X211435238Y-91335343D02*
X211410476Y-91360105D01*
X211410476Y-91360105D02*
X211385714Y-91372486D01*
D12*
X169136109Y-91809047D02*
X168636109Y-91809047D01*
X168636109Y-91809047D02*
X168636109Y-91689999D01*
X168636109Y-91689999D02*
X168659919Y-91618571D01*
X168659919Y-91618571D02*
X168707538Y-91570952D01*
X168707538Y-91570952D02*
X168755157Y-91547142D01*
X168755157Y-91547142D02*
X168850395Y-91523333D01*
X168850395Y-91523333D02*
X168921823Y-91523333D01*
X168921823Y-91523333D02*
X169017061Y-91547142D01*
X169017061Y-91547142D02*
X169064680Y-91570952D01*
X169064680Y-91570952D02*
X169112300Y-91618571D01*
X169112300Y-91618571D02*
X169136109Y-91689999D01*
X169136109Y-91689999D02*
X169136109Y-91809047D01*
X169136109Y-91047142D02*
X169136109Y-91332856D01*
X169136109Y-91189999D02*
X168636109Y-91189999D01*
X168636109Y-91189999D02*
X168707538Y-91237618D01*
X168707538Y-91237618D02*
X168755157Y-91285237D01*
X168755157Y-91285237D02*
X168778966Y-91332856D01*
D10*
X157988095Y-70304819D02*
X157988095Y-69304819D01*
X157988095Y-69781009D02*
X158559523Y-69781009D01*
X158559523Y-70304819D02*
X158559523Y-69304819D01*
X158940476Y-69304819D02*
X159559523Y-69304819D01*
X159559523Y-69304819D02*
X159226190Y-69685771D01*
X159226190Y-69685771D02*
X159369047Y-69685771D01*
X159369047Y-69685771D02*
X159464285Y-69733390D01*
X159464285Y-69733390D02*
X159511904Y-69781009D01*
X159511904Y-69781009D02*
X159559523Y-69876247D01*
X159559523Y-69876247D02*
X159559523Y-70114342D01*
X159559523Y-70114342D02*
X159511904Y-70209580D01*
X159511904Y-70209580D02*
X159464285Y-70257200D01*
X159464285Y-70257200D02*
X159369047Y-70304819D01*
X159369047Y-70304819D02*
X159083333Y-70304819D01*
X159083333Y-70304819D02*
X158988095Y-70257200D01*
X158988095Y-70257200D02*
X158940476Y-70209580D01*
X145554819Y-59229523D02*
X146269104Y-59229523D01*
X146269104Y-59229523D02*
X146411961Y-59277142D01*
X146411961Y-59277142D02*
X146507200Y-59372380D01*
X146507200Y-59372380D02*
X146554819Y-59515237D01*
X146554819Y-59515237D02*
X146554819Y-59610475D01*
X146554819Y-58229523D02*
X146554819Y-58800951D01*
X146554819Y-58515237D02*
X145554819Y-58515237D01*
X145554819Y-58515237D02*
X145697676Y-58610475D01*
X145697676Y-58610475D02*
X145792914Y-58705713D01*
X145792914Y-58705713D02*
X145840533Y-58800951D01*
X145650057Y-57848570D02*
X145602438Y-57800951D01*
X145602438Y-57800951D02*
X145554819Y-57705713D01*
X145554819Y-57705713D02*
X145554819Y-57467618D01*
X145554819Y-57467618D02*
X145602438Y-57372380D01*
X145602438Y-57372380D02*
X145650057Y-57324761D01*
X145650057Y-57324761D02*
X145745295Y-57277142D01*
X145745295Y-57277142D02*
X145840533Y-57277142D01*
X145840533Y-57277142D02*
X145983390Y-57324761D01*
X145983390Y-57324761D02*
X146554819Y-57896189D01*
X146554819Y-57896189D02*
X146554819Y-57277142D01*
X176009819Y-76533333D02*
X176724104Y-76533333D01*
X176724104Y-76533333D02*
X176866961Y-76580952D01*
X176866961Y-76580952D02*
X176962200Y-76676190D01*
X176962200Y-76676190D02*
X177009819Y-76819047D01*
X177009819Y-76819047D02*
X177009819Y-76914285D01*
X177009819Y-76009523D02*
X177009819Y-75819047D01*
X177009819Y-75819047D02*
X176962200Y-75723809D01*
X176962200Y-75723809D02*
X176914580Y-75676190D01*
X176914580Y-75676190D02*
X176771723Y-75580952D01*
X176771723Y-75580952D02*
X176581247Y-75533333D01*
X176581247Y-75533333D02*
X176200295Y-75533333D01*
X176200295Y-75533333D02*
X176105057Y-75580952D01*
X176105057Y-75580952D02*
X176057438Y-75628571D01*
X176057438Y-75628571D02*
X176009819Y-75723809D01*
X176009819Y-75723809D02*
X176009819Y-75914285D01*
X176009819Y-75914285D02*
X176057438Y-76009523D01*
X176057438Y-76009523D02*
X176105057Y-76057142D01*
X176105057Y-76057142D02*
X176200295Y-76104761D01*
X176200295Y-76104761D02*
X176438390Y-76104761D01*
X176438390Y-76104761D02*
X176533628Y-76057142D01*
X176533628Y-76057142D02*
X176581247Y-76009523D01*
X176581247Y-76009523D02*
X176628866Y-75914285D01*
X176628866Y-75914285D02*
X176628866Y-75723809D01*
X176628866Y-75723809D02*
X176581247Y-75628571D01*
X176581247Y-75628571D02*
X176533628Y-75580952D01*
X176533628Y-75580952D02*
X176438390Y-75533333D01*
X210010476Y-62954819D02*
X210010476Y-63669104D01*
X210010476Y-63669104D02*
X209962857Y-63811961D01*
X209962857Y-63811961D02*
X209867619Y-63907200D01*
X209867619Y-63907200D02*
X209724762Y-63954819D01*
X209724762Y-63954819D02*
X209629524Y-63954819D01*
X211010476Y-63954819D02*
X210439048Y-63954819D01*
X210724762Y-63954819D02*
X210724762Y-62954819D01*
X210724762Y-62954819D02*
X210629524Y-63097676D01*
X210629524Y-63097676D02*
X210534286Y-63192914D01*
X210534286Y-63192914D02*
X210439048Y-63240533D01*
X211867619Y-62954819D02*
X211677143Y-62954819D01*
X211677143Y-62954819D02*
X211581905Y-63002438D01*
X211581905Y-63002438D02*
X211534286Y-63050057D01*
X211534286Y-63050057D02*
X211439048Y-63192914D01*
X211439048Y-63192914D02*
X211391429Y-63383390D01*
X211391429Y-63383390D02*
X211391429Y-63764342D01*
X211391429Y-63764342D02*
X211439048Y-63859580D01*
X211439048Y-63859580D02*
X211486667Y-63907200D01*
X211486667Y-63907200D02*
X211581905Y-63954819D01*
X211581905Y-63954819D02*
X211772381Y-63954819D01*
X211772381Y-63954819D02*
X211867619Y-63907200D01*
X211867619Y-63907200D02*
X211915238Y-63859580D01*
X211915238Y-63859580D02*
X211962857Y-63764342D01*
X211962857Y-63764342D02*
X211962857Y-63526247D01*
X211962857Y-63526247D02*
X211915238Y-63431009D01*
X211915238Y-63431009D02*
X211867619Y-63383390D01*
X211867619Y-63383390D02*
X211772381Y-63335771D01*
X211772381Y-63335771D02*
X211581905Y-63335771D01*
X211581905Y-63335771D02*
X211486667Y-63383390D01*
X211486667Y-63383390D02*
X211439048Y-63431009D01*
X211439048Y-63431009D02*
X211391429Y-63526247D01*
X145554819Y-74469523D02*
X146269104Y-74469523D01*
X146269104Y-74469523D02*
X146411961Y-74517142D01*
X146411961Y-74517142D02*
X146507200Y-74612380D01*
X146507200Y-74612380D02*
X146554819Y-74755237D01*
X146554819Y-74755237D02*
X146554819Y-74850475D01*
X146554819Y-73469523D02*
X146554819Y-74040951D01*
X146554819Y-73755237D02*
X145554819Y-73755237D01*
X145554819Y-73755237D02*
X145697676Y-73850475D01*
X145697676Y-73850475D02*
X145792914Y-73945713D01*
X145792914Y-73945713D02*
X145840533Y-74040951D01*
X146554819Y-72517142D02*
X146554819Y-73088570D01*
X146554819Y-72802856D02*
X145554819Y-72802856D01*
X145554819Y-72802856D02*
X145697676Y-72898094D01*
X145697676Y-72898094D02*
X145792914Y-72993332D01*
X145792914Y-72993332D02*
X145840533Y-73088570D01*
X166846666Y-98074819D02*
X166846666Y-98789104D01*
X166846666Y-98789104D02*
X166799047Y-98931961D01*
X166799047Y-98931961D02*
X166703809Y-99027200D01*
X166703809Y-99027200D02*
X166560952Y-99074819D01*
X166560952Y-99074819D02*
X166465714Y-99074819D01*
X167799047Y-98074819D02*
X167322857Y-98074819D01*
X167322857Y-98074819D02*
X167275238Y-98551009D01*
X167275238Y-98551009D02*
X167322857Y-98503390D01*
X167322857Y-98503390D02*
X167418095Y-98455771D01*
X167418095Y-98455771D02*
X167656190Y-98455771D01*
X167656190Y-98455771D02*
X167751428Y-98503390D01*
X167751428Y-98503390D02*
X167799047Y-98551009D01*
X167799047Y-98551009D02*
X167846666Y-98646247D01*
X167846666Y-98646247D02*
X167846666Y-98884342D01*
X167846666Y-98884342D02*
X167799047Y-98979580D01*
X167799047Y-98979580D02*
X167751428Y-99027200D01*
X167751428Y-99027200D02*
X167656190Y-99074819D01*
X167656190Y-99074819D02*
X167418095Y-99074819D01*
X167418095Y-99074819D02*
X167322857Y-99027200D01*
X167322857Y-99027200D02*
X167275238Y-98979580D01*
X188425476Y-58914819D02*
X188425476Y-59629104D01*
X188425476Y-59629104D02*
X188377857Y-59771961D01*
X188377857Y-59771961D02*
X188282619Y-59867200D01*
X188282619Y-59867200D02*
X188139762Y-59914819D01*
X188139762Y-59914819D02*
X188044524Y-59914819D01*
X189425476Y-59914819D02*
X188854048Y-59914819D01*
X189139762Y-59914819D02*
X189139762Y-58914819D01*
X189139762Y-58914819D02*
X189044524Y-59057676D01*
X189044524Y-59057676D02*
X188949286Y-59152914D01*
X188949286Y-59152914D02*
X188854048Y-59200533D01*
X190330238Y-58914819D02*
X189854048Y-58914819D01*
X189854048Y-58914819D02*
X189806429Y-59391009D01*
X189806429Y-59391009D02*
X189854048Y-59343390D01*
X189854048Y-59343390D02*
X189949286Y-59295771D01*
X189949286Y-59295771D02*
X190187381Y-59295771D01*
X190187381Y-59295771D02*
X190282619Y-59343390D01*
X190282619Y-59343390D02*
X190330238Y-59391009D01*
X190330238Y-59391009D02*
X190377857Y-59486247D01*
X190377857Y-59486247D02*
X190377857Y-59724342D01*
X190377857Y-59724342D02*
X190330238Y-59819580D01*
X190330238Y-59819580D02*
X190282619Y-59867200D01*
X190282619Y-59867200D02*
X190187381Y-59914819D01*
X190187381Y-59914819D02*
X189949286Y-59914819D01*
X189949286Y-59914819D02*
X189854048Y-59867200D01*
X189854048Y-59867200D02*
X189806429Y-59819580D01*
X210489879Y-95774967D02*
X210489879Y-96489252D01*
X210489879Y-96489252D02*
X210442260Y-96632109D01*
X210442260Y-96632109D02*
X210347022Y-96727348D01*
X210347022Y-96727348D02*
X210204165Y-96774967D01*
X210204165Y-96774967D02*
X210108927Y-96774967D01*
X211489879Y-96774967D02*
X210918451Y-96774967D01*
X211204165Y-96774967D02*
X211204165Y-95774967D01*
X211204165Y-95774967D02*
X211108927Y-95917824D01*
X211108927Y-95917824D02*
X211013689Y-96013062D01*
X211013689Y-96013062D02*
X210918451Y-96060681D01*
X145529819Y-89889523D02*
X146244104Y-89889523D01*
X146244104Y-89889523D02*
X146386961Y-89937142D01*
X146386961Y-89937142D02*
X146482200Y-90032380D01*
X146482200Y-90032380D02*
X146529819Y-90175237D01*
X146529819Y-90175237D02*
X146529819Y-90270475D01*
X146529819Y-88889523D02*
X146529819Y-89460951D01*
X146529819Y-89175237D02*
X145529819Y-89175237D01*
X145529819Y-89175237D02*
X145672676Y-89270475D01*
X145672676Y-89270475D02*
X145767914Y-89365713D01*
X145767914Y-89365713D02*
X145815533Y-89460951D01*
X145529819Y-88270475D02*
X145529819Y-88175237D01*
X145529819Y-88175237D02*
X145577438Y-88079999D01*
X145577438Y-88079999D02*
X145625057Y-88032380D01*
X145625057Y-88032380D02*
X145720295Y-87984761D01*
X145720295Y-87984761D02*
X145910771Y-87937142D01*
X145910771Y-87937142D02*
X146148866Y-87937142D01*
X146148866Y-87937142D02*
X146339342Y-87984761D01*
X146339342Y-87984761D02*
X146434580Y-88032380D01*
X146434580Y-88032380D02*
X146482200Y-88079999D01*
X146482200Y-88079999D02*
X146529819Y-88175237D01*
X146529819Y-88175237D02*
X146529819Y-88270475D01*
X146529819Y-88270475D02*
X146482200Y-88365713D01*
X146482200Y-88365713D02*
X146434580Y-88413332D01*
X146434580Y-88413332D02*
X146339342Y-88460951D01*
X146339342Y-88460951D02*
X146148866Y-88508570D01*
X146148866Y-88508570D02*
X145910771Y-88508570D01*
X145910771Y-88508570D02*
X145720295Y-88460951D01*
X145720295Y-88460951D02*
X145625057Y-88413332D01*
X145625057Y-88413332D02*
X145577438Y-88365713D01*
X145577438Y-88365713D02*
X145529819Y-88270475D01*
X150841666Y-98514819D02*
X150841666Y-99229104D01*
X150841666Y-99229104D02*
X150794047Y-99371961D01*
X150794047Y-99371961D02*
X150698809Y-99467200D01*
X150698809Y-99467200D02*
X150555952Y-99514819D01*
X150555952Y-99514819D02*
X150460714Y-99514819D01*
X151746428Y-98848152D02*
X151746428Y-99514819D01*
X151508333Y-98467200D02*
X151270238Y-99181485D01*
X151270238Y-99181485D02*
X151889285Y-99181485D01*
X210010476Y-73114819D02*
X210010476Y-73829104D01*
X210010476Y-73829104D02*
X209962857Y-73971961D01*
X209962857Y-73971961D02*
X209867619Y-74067200D01*
X209867619Y-74067200D02*
X209724762Y-74114819D01*
X209724762Y-74114819D02*
X209629524Y-74114819D01*
X211010476Y-74114819D02*
X210439048Y-74114819D01*
X210724762Y-74114819D02*
X210724762Y-73114819D01*
X210724762Y-73114819D02*
X210629524Y-73257676D01*
X210629524Y-73257676D02*
X210534286Y-73352914D01*
X210534286Y-73352914D02*
X210439048Y-73400533D01*
X211581905Y-73543390D02*
X211486667Y-73495771D01*
X211486667Y-73495771D02*
X211439048Y-73448152D01*
X211439048Y-73448152D02*
X211391429Y-73352914D01*
X211391429Y-73352914D02*
X211391429Y-73305295D01*
X211391429Y-73305295D02*
X211439048Y-73210057D01*
X211439048Y-73210057D02*
X211486667Y-73162438D01*
X211486667Y-73162438D02*
X211581905Y-73114819D01*
X211581905Y-73114819D02*
X211772381Y-73114819D01*
X211772381Y-73114819D02*
X211867619Y-73162438D01*
X211867619Y-73162438D02*
X211915238Y-73210057D01*
X211915238Y-73210057D02*
X211962857Y-73305295D01*
X211962857Y-73305295D02*
X211962857Y-73352914D01*
X211962857Y-73352914D02*
X211915238Y-73448152D01*
X211915238Y-73448152D02*
X211867619Y-73495771D01*
X211867619Y-73495771D02*
X211772381Y-73543390D01*
X211772381Y-73543390D02*
X211581905Y-73543390D01*
X211581905Y-73543390D02*
X211486667Y-73591009D01*
X211486667Y-73591009D02*
X211439048Y-73638628D01*
X211439048Y-73638628D02*
X211391429Y-73733866D01*
X211391429Y-73733866D02*
X211391429Y-73924342D01*
X211391429Y-73924342D02*
X211439048Y-74019580D01*
X211439048Y-74019580D02*
X211486667Y-74067200D01*
X211486667Y-74067200D02*
X211581905Y-74114819D01*
X211581905Y-74114819D02*
X211772381Y-74114819D01*
X211772381Y-74114819D02*
X211867619Y-74067200D01*
X211867619Y-74067200D02*
X211915238Y-74019580D01*
X211915238Y-74019580D02*
X211962857Y-73924342D01*
X211962857Y-73924342D02*
X211962857Y-73733866D01*
X211962857Y-73733866D02*
X211915238Y-73638628D01*
X211915238Y-73638628D02*
X211867619Y-73591009D01*
X211867619Y-73591009D02*
X211772381Y-73543390D01*
X194818095Y-70304819D02*
X194818095Y-69304819D01*
X194818095Y-69781009D02*
X195389523Y-69781009D01*
X195389523Y-70304819D02*
X195389523Y-69304819D01*
X196389523Y-70304819D02*
X195818095Y-70304819D01*
X196103809Y-70304819D02*
X196103809Y-69304819D01*
X196103809Y-69304819D02*
X196008571Y-69447676D01*
X196008571Y-69447676D02*
X195913333Y-69542914D01*
X195913333Y-69542914D02*
X195818095Y-69590533D01*
X157988095Y-91894819D02*
X157988095Y-90894819D01*
X157988095Y-91371009D02*
X158559523Y-91371009D01*
X158559523Y-91894819D02*
X158559523Y-90894819D01*
X159464285Y-91228152D02*
X159464285Y-91894819D01*
X159226190Y-90847200D02*
X158988095Y-91561485D01*
X158988095Y-91561485D02*
X159607142Y-91561485D01*
X201384819Y-77009523D02*
X202099104Y-77009523D01*
X202099104Y-77009523D02*
X202241961Y-77057142D01*
X202241961Y-77057142D02*
X202337200Y-77152380D01*
X202337200Y-77152380D02*
X202384819Y-77295237D01*
X202384819Y-77295237D02*
X202384819Y-77390475D01*
X202384819Y-76009523D02*
X202384819Y-76580951D01*
X202384819Y-76295237D02*
X201384819Y-76295237D01*
X201384819Y-76295237D02*
X201527676Y-76390475D01*
X201527676Y-76390475D02*
X201622914Y-76485713D01*
X201622914Y-76485713D02*
X201670533Y-76580951D01*
X201384819Y-75676189D02*
X201384819Y-75057142D01*
X201384819Y-75057142D02*
X201765771Y-75390475D01*
X201765771Y-75390475D02*
X201765771Y-75247618D01*
X201765771Y-75247618D02*
X201813390Y-75152380D01*
X201813390Y-75152380D02*
X201861009Y-75104761D01*
X201861009Y-75104761D02*
X201956247Y-75057142D01*
X201956247Y-75057142D02*
X202194342Y-75057142D01*
X202194342Y-75057142D02*
X202289580Y-75104761D01*
X202289580Y-75104761D02*
X202337200Y-75152380D01*
X202337200Y-75152380D02*
X202384819Y-75247618D01*
X202384819Y-75247618D02*
X202384819Y-75533332D01*
X202384819Y-75533332D02*
X202337200Y-75628570D01*
X202337200Y-75628570D02*
X202289580Y-75676189D01*
X210010476Y-83274819D02*
X210010476Y-83989104D01*
X210010476Y-83989104D02*
X209962857Y-84131961D01*
X209962857Y-84131961D02*
X209867619Y-84227200D01*
X209867619Y-84227200D02*
X209724762Y-84274819D01*
X209724762Y-84274819D02*
X209629524Y-84274819D01*
X210439048Y-83370057D02*
X210486667Y-83322438D01*
X210486667Y-83322438D02*
X210581905Y-83274819D01*
X210581905Y-83274819D02*
X210820000Y-83274819D01*
X210820000Y-83274819D02*
X210915238Y-83322438D01*
X210915238Y-83322438D02*
X210962857Y-83370057D01*
X210962857Y-83370057D02*
X211010476Y-83465295D01*
X211010476Y-83465295D02*
X211010476Y-83560533D01*
X211010476Y-83560533D02*
X210962857Y-83703390D01*
X210962857Y-83703390D02*
X210391429Y-84274819D01*
X210391429Y-84274819D02*
X211010476Y-84274819D01*
X211629524Y-83274819D02*
X211724762Y-83274819D01*
X211724762Y-83274819D02*
X211820000Y-83322438D01*
X211820000Y-83322438D02*
X211867619Y-83370057D01*
X211867619Y-83370057D02*
X211915238Y-83465295D01*
X211915238Y-83465295D02*
X211962857Y-83655771D01*
X211962857Y-83655771D02*
X211962857Y-83893866D01*
X211962857Y-83893866D02*
X211915238Y-84084342D01*
X211915238Y-84084342D02*
X211867619Y-84179580D01*
X211867619Y-84179580D02*
X211820000Y-84227200D01*
X211820000Y-84227200D02*
X211724762Y-84274819D01*
X211724762Y-84274819D02*
X211629524Y-84274819D01*
X211629524Y-84274819D02*
X211534286Y-84227200D01*
X211534286Y-84227200D02*
X211486667Y-84179580D01*
X211486667Y-84179580D02*
X211439048Y-84084342D01*
X211439048Y-84084342D02*
X211391429Y-83893866D01*
X211391429Y-83893866D02*
X211391429Y-83655771D01*
X211391429Y-83655771D02*
X211439048Y-83465295D01*
X211439048Y-83465295D02*
X211486667Y-83370057D01*
X211486667Y-83370057D02*
X211534286Y-83322438D01*
X211534286Y-83322438D02*
X211629524Y-83274819D01*
X194818095Y-91894819D02*
X194818095Y-90894819D01*
X194818095Y-91371009D02*
X195389523Y-91371009D01*
X195389523Y-91894819D02*
X195389523Y-90894819D01*
X195818095Y-90990057D02*
X195865714Y-90942438D01*
X195865714Y-90942438D02*
X195960952Y-90894819D01*
X195960952Y-90894819D02*
X196199047Y-90894819D01*
X196199047Y-90894819D02*
X196294285Y-90942438D01*
X196294285Y-90942438D02*
X196341904Y-90990057D01*
X196341904Y-90990057D02*
X196389523Y-91085295D01*
X196389523Y-91085295D02*
X196389523Y-91180533D01*
X196389523Y-91180533D02*
X196341904Y-91323390D01*
X196341904Y-91323390D02*
X195770476Y-91894819D01*
X195770476Y-91894819D02*
X196389523Y-91894819D01*
X164766666Y-58914819D02*
X164766666Y-59629104D01*
X164766666Y-59629104D02*
X164719047Y-59771961D01*
X164719047Y-59771961D02*
X164623809Y-59867200D01*
X164623809Y-59867200D02*
X164480952Y-59914819D01*
X164480952Y-59914819D02*
X164385714Y-59914819D01*
X165671428Y-58914819D02*
X165480952Y-58914819D01*
X165480952Y-58914819D02*
X165385714Y-58962438D01*
X165385714Y-58962438D02*
X165338095Y-59010057D01*
X165338095Y-59010057D02*
X165242857Y-59152914D01*
X165242857Y-59152914D02*
X165195238Y-59343390D01*
X165195238Y-59343390D02*
X165195238Y-59724342D01*
X165195238Y-59724342D02*
X165242857Y-59819580D01*
X165242857Y-59819580D02*
X165290476Y-59867200D01*
X165290476Y-59867200D02*
X165385714Y-59914819D01*
X165385714Y-59914819D02*
X165576190Y-59914819D01*
X165576190Y-59914819D02*
X165671428Y-59867200D01*
X165671428Y-59867200D02*
X165719047Y-59819580D01*
X165719047Y-59819580D02*
X165766666Y-59724342D01*
X165766666Y-59724342D02*
X165766666Y-59486247D01*
X165766666Y-59486247D02*
X165719047Y-59391009D01*
X165719047Y-59391009D02*
X165671428Y-59343390D01*
X165671428Y-59343390D02*
X165576190Y-59295771D01*
X165576190Y-59295771D02*
X165385714Y-59295771D01*
X165385714Y-59295771D02*
X165290476Y-59343390D01*
X165290476Y-59343390D02*
X165242857Y-59391009D01*
X165242857Y-59391009D02*
X165195238Y-59486247D01*
X210010476Y-78194819D02*
X210010476Y-78909104D01*
X210010476Y-78909104D02*
X209962857Y-79051961D01*
X209962857Y-79051961D02*
X209867619Y-79147200D01*
X209867619Y-79147200D02*
X209724762Y-79194819D01*
X209724762Y-79194819D02*
X209629524Y-79194819D01*
X211010476Y-79194819D02*
X210439048Y-79194819D01*
X210724762Y-79194819D02*
X210724762Y-78194819D01*
X210724762Y-78194819D02*
X210629524Y-78337676D01*
X210629524Y-78337676D02*
X210534286Y-78432914D01*
X210534286Y-78432914D02*
X210439048Y-78480533D01*
X211486667Y-79194819D02*
X211677143Y-79194819D01*
X211677143Y-79194819D02*
X211772381Y-79147200D01*
X211772381Y-79147200D02*
X211820000Y-79099580D01*
X211820000Y-79099580D02*
X211915238Y-78956723D01*
X211915238Y-78956723D02*
X211962857Y-78766247D01*
X211962857Y-78766247D02*
X211962857Y-78385295D01*
X211962857Y-78385295D02*
X211915238Y-78290057D01*
X211915238Y-78290057D02*
X211867619Y-78242438D01*
X211867619Y-78242438D02*
X211772381Y-78194819D01*
X211772381Y-78194819D02*
X211581905Y-78194819D01*
X211581905Y-78194819D02*
X211486667Y-78242438D01*
X211486667Y-78242438D02*
X211439048Y-78290057D01*
X211439048Y-78290057D02*
X211391429Y-78385295D01*
X211391429Y-78385295D02*
X211391429Y-78623390D01*
X211391429Y-78623390D02*
X211439048Y-78718628D01*
X211439048Y-78718628D02*
X211486667Y-78766247D01*
X211486667Y-78766247D02*
X211581905Y-78813866D01*
X211581905Y-78813866D02*
X211772381Y-78813866D01*
X211772381Y-78813866D02*
X211867619Y-78766247D01*
X211867619Y-78766247D02*
X211915238Y-78718628D01*
X211915238Y-78718628D02*
X211962857Y-78623390D01*
X151854819Y-75263333D02*
X152569104Y-75263333D01*
X152569104Y-75263333D02*
X152711961Y-75310952D01*
X152711961Y-75310952D02*
X152807200Y-75406190D01*
X152807200Y-75406190D02*
X152854819Y-75549047D01*
X152854819Y-75549047D02*
X152854819Y-75644285D01*
X151854819Y-74882380D02*
X151854819Y-74215714D01*
X151854819Y-74215714D02*
X152854819Y-74644285D01*
X210046667Y-55307200D02*
X210189524Y-55354819D01*
X210189524Y-55354819D02*
X210427619Y-55354819D01*
X210427619Y-55354819D02*
X210522857Y-55307200D01*
X210522857Y-55307200D02*
X210570476Y-55259580D01*
X210570476Y-55259580D02*
X210618095Y-55164342D01*
X210618095Y-55164342D02*
X210618095Y-55069104D01*
X210618095Y-55069104D02*
X210570476Y-54973866D01*
X210570476Y-54973866D02*
X210522857Y-54926247D01*
X210522857Y-54926247D02*
X210427619Y-54878628D01*
X210427619Y-54878628D02*
X210237143Y-54831009D01*
X210237143Y-54831009D02*
X210141905Y-54783390D01*
X210141905Y-54783390D02*
X210094286Y-54735771D01*
X210094286Y-54735771D02*
X210046667Y-54640533D01*
X210046667Y-54640533D02*
X210046667Y-54545295D01*
X210046667Y-54545295D02*
X210094286Y-54450057D01*
X210094286Y-54450057D02*
X210141905Y-54402438D01*
X210141905Y-54402438D02*
X210237143Y-54354819D01*
X210237143Y-54354819D02*
X210475238Y-54354819D01*
X210475238Y-54354819D02*
X210618095Y-54402438D01*
X210951429Y-54354819D02*
X211189524Y-55354819D01*
X211189524Y-55354819D02*
X211380000Y-54640533D01*
X211380000Y-54640533D02*
X211570476Y-55354819D01*
X211570476Y-55354819D02*
X211808572Y-54354819D01*
X212713333Y-55354819D02*
X212141905Y-55354819D01*
X212427619Y-55354819D02*
X212427619Y-54354819D01*
X212427619Y-54354819D02*
X212332381Y-54497676D01*
X212332381Y-54497676D02*
X212237143Y-54592914D01*
X212237143Y-54592914D02*
X212141905Y-54640533D01*
X182564819Y-68913333D02*
X183279104Y-68913333D01*
X183279104Y-68913333D02*
X183421961Y-68960952D01*
X183421961Y-68960952D02*
X183517200Y-69056190D01*
X183517200Y-69056190D02*
X183564819Y-69199047D01*
X183564819Y-69199047D02*
X183564819Y-69294285D01*
X182564819Y-68532380D02*
X182564819Y-67913333D01*
X182564819Y-67913333D02*
X182945771Y-68246666D01*
X182945771Y-68246666D02*
X182945771Y-68103809D01*
X182945771Y-68103809D02*
X182993390Y-68008571D01*
X182993390Y-68008571D02*
X183041009Y-67960952D01*
X183041009Y-67960952D02*
X183136247Y-67913333D01*
X183136247Y-67913333D02*
X183374342Y-67913333D01*
X183374342Y-67913333D02*
X183469580Y-67960952D01*
X183469580Y-67960952D02*
X183517200Y-68008571D01*
X183517200Y-68008571D02*
X183564819Y-68103809D01*
X183564819Y-68103809D02*
X183564819Y-68389523D01*
X183564819Y-68389523D02*
X183517200Y-68484761D01*
X183517200Y-68484761D02*
X183469580Y-68532380D01*
X169634819Y-75263333D02*
X170349104Y-75263333D01*
X170349104Y-75263333D02*
X170491961Y-75310952D01*
X170491961Y-75310952D02*
X170587200Y-75406190D01*
X170587200Y-75406190D02*
X170634819Y-75549047D01*
X170634819Y-75549047D02*
X170634819Y-75644285D01*
X170063390Y-74644285D02*
X170015771Y-74739523D01*
X170015771Y-74739523D02*
X169968152Y-74787142D01*
X169968152Y-74787142D02*
X169872914Y-74834761D01*
X169872914Y-74834761D02*
X169825295Y-74834761D01*
X169825295Y-74834761D02*
X169730057Y-74787142D01*
X169730057Y-74787142D02*
X169682438Y-74739523D01*
X169682438Y-74739523D02*
X169634819Y-74644285D01*
X169634819Y-74644285D02*
X169634819Y-74453809D01*
X169634819Y-74453809D02*
X169682438Y-74358571D01*
X169682438Y-74358571D02*
X169730057Y-74310952D01*
X169730057Y-74310952D02*
X169825295Y-74263333D01*
X169825295Y-74263333D02*
X169872914Y-74263333D01*
X169872914Y-74263333D02*
X169968152Y-74310952D01*
X169968152Y-74310952D02*
X170015771Y-74358571D01*
X170015771Y-74358571D02*
X170063390Y-74453809D01*
X170063390Y-74453809D02*
X170063390Y-74644285D01*
X170063390Y-74644285D02*
X170111009Y-74739523D01*
X170111009Y-74739523D02*
X170158628Y-74787142D01*
X170158628Y-74787142D02*
X170253866Y-74834761D01*
X170253866Y-74834761D02*
X170444342Y-74834761D01*
X170444342Y-74834761D02*
X170539580Y-74787142D01*
X170539580Y-74787142D02*
X170587200Y-74739523D01*
X170587200Y-74739523D02*
X170634819Y-74644285D01*
X170634819Y-74644285D02*
X170634819Y-74453809D01*
X170634819Y-74453809D02*
X170587200Y-74358571D01*
X170587200Y-74358571D02*
X170539580Y-74310952D01*
X170539580Y-74310952D02*
X170444342Y-74263333D01*
X170444342Y-74263333D02*
X170253866Y-74263333D01*
X170253866Y-74263333D02*
X170158628Y-74310952D01*
X170158628Y-74310952D02*
X170111009Y-74358571D01*
X170111009Y-74358571D02*
X170063390Y-74453809D01*
X182564819Y-83359523D02*
X183279104Y-83359523D01*
X183279104Y-83359523D02*
X183421961Y-83407142D01*
X183421961Y-83407142D02*
X183517200Y-83502380D01*
X183517200Y-83502380D02*
X183564819Y-83645237D01*
X183564819Y-83645237D02*
X183564819Y-83740475D01*
X183564819Y-82359523D02*
X183564819Y-82930951D01*
X183564819Y-82645237D02*
X182564819Y-82645237D01*
X182564819Y-82645237D02*
X182707676Y-82740475D01*
X182707676Y-82740475D02*
X182802914Y-82835713D01*
X182802914Y-82835713D02*
X182850533Y-82930951D01*
X182898152Y-81502380D02*
X183564819Y-81502380D01*
X182517200Y-81740475D02*
X183231485Y-81978570D01*
X183231485Y-81978570D02*
X183231485Y-81359523D01*
X185086666Y-95974819D02*
X185086666Y-96689104D01*
X185086666Y-96689104D02*
X185039047Y-96831961D01*
X185039047Y-96831961D02*
X184943809Y-96927200D01*
X184943809Y-96927200D02*
X184800952Y-96974819D01*
X184800952Y-96974819D02*
X184705714Y-96974819D01*
X185515238Y-96070057D02*
X185562857Y-96022438D01*
X185562857Y-96022438D02*
X185658095Y-95974819D01*
X185658095Y-95974819D02*
X185896190Y-95974819D01*
X185896190Y-95974819D02*
X185991428Y-96022438D01*
X185991428Y-96022438D02*
X186039047Y-96070057D01*
X186039047Y-96070057D02*
X186086666Y-96165295D01*
X186086666Y-96165295D02*
X186086666Y-96260533D01*
X186086666Y-96260533D02*
X186039047Y-96403390D01*
X186039047Y-96403390D02*
X185467619Y-96974819D01*
X185467619Y-96974819D02*
X186086666Y-96974819D01*
X210010476Y-68034819D02*
X210010476Y-68749104D01*
X210010476Y-68749104D02*
X209962857Y-68891961D01*
X209962857Y-68891961D02*
X209867619Y-68987200D01*
X209867619Y-68987200D02*
X209724762Y-69034819D01*
X209724762Y-69034819D02*
X209629524Y-69034819D01*
X211010476Y-69034819D02*
X210439048Y-69034819D01*
X210724762Y-69034819D02*
X210724762Y-68034819D01*
X210724762Y-68034819D02*
X210629524Y-68177676D01*
X210629524Y-68177676D02*
X210534286Y-68272914D01*
X210534286Y-68272914D02*
X210439048Y-68320533D01*
X211343810Y-68034819D02*
X212010476Y-68034819D01*
X212010476Y-68034819D02*
X211581905Y-69034819D01*
D12*
%TO.C,R3*%
X172483000Y-92440837D02*
X173533000Y-92440837D01*
X172483000Y-92980837D02*
X172483000Y-92440837D01*
X173533000Y-92440837D02*
X173533000Y-92980837D01*
X173533000Y-92980837D02*
X172483000Y-92980837D01*
%TO.C,R2*%
X185720000Y-91170000D02*
X186770000Y-91170000D01*
X185720000Y-91710000D02*
X185720000Y-91170000D01*
X186770000Y-91170000D02*
X186770000Y-91710000D01*
X186770000Y-91710000D02*
X185720000Y-91710000D01*
%TO.C,R1*%
X210805000Y-91170000D02*
X211855000Y-91170000D01*
X210805000Y-91710000D02*
X210805000Y-91170000D01*
X211855000Y-91170000D02*
X211855000Y-91710000D01*
X211855000Y-91710000D02*
X210805000Y-91710000D01*
%TO.C,D1*%
X167910000Y-92940000D02*
X169910000Y-92940000D01*
X168510000Y-92940000D02*
X167910000Y-92340000D01*
X169910000Y-92940000D02*
X169910000Y-89940000D01*
X168210000Y-91990000D02*
X168210000Y-90890000D01*
X169610000Y-91990000D02*
X169610000Y-90890000D01*
X167910000Y-89940000D02*
X167910000Y-92940000D01*
X169910000Y-89940000D02*
X167910000Y-89940000D01*
X169610000Y-91990000D02*
G75*
G02*
X168210000Y-91990000I-700000J0D01*
G01*
X168210000Y-90890000D02*
G75*
G02*
X169610000Y-90890000I700000J0D01*
G01*
%TO.C,J12*%
X144830000Y-52705000D02*
X145465000Y-52070000D01*
X144830000Y-64770000D02*
X144830000Y-52705000D01*
X145465000Y-52070000D02*
X147370000Y-52070000D01*
X147370000Y-52070000D02*
X147370000Y-64770000D01*
X147370000Y-64770000D02*
X144830000Y-64770000D01*
%TO.C,J9*%
X175285000Y-52070000D02*
X177190000Y-52070000D01*
X175285000Y-100330000D02*
X175285000Y-52070000D01*
X177190000Y-52070000D02*
X177825000Y-52705000D01*
X177825000Y-52705000D02*
X177825000Y-100330000D01*
X177825000Y-100330000D02*
X175285000Y-100330000D01*
%TO.C,J16*%
X207010000Y-62230000D02*
X213995000Y-62230000D01*
X207010000Y-64770000D02*
X207010000Y-62230000D01*
X213995000Y-62230000D02*
X214630000Y-62865000D01*
X214630000Y-62865000D02*
X214630000Y-64770000D01*
X214630000Y-64770000D02*
X207010000Y-64770000D01*
%TO.C,J11*%
X144830000Y-67945000D02*
X145465000Y-67310000D01*
X144830000Y-80010000D02*
X144830000Y-67945000D01*
X145465000Y-67310000D02*
X147370000Y-67310000D01*
X147370000Y-67310000D02*
X147370000Y-80010000D01*
X147370000Y-80010000D02*
X144830000Y-80010000D01*
%TO.C,J5*%
X159850000Y-97790000D02*
X172550000Y-97790000D01*
X159850000Y-99695000D02*
X159850000Y-97790000D01*
X160485000Y-100330000D02*
X159850000Y-99695000D01*
X172550000Y-97790000D02*
X172550000Y-100330000D01*
X172550000Y-100330000D02*
X160485000Y-100330000D01*
%TO.C,J15*%
X182885000Y-58190000D02*
X195585000Y-58190000D01*
X182885000Y-60095000D02*
X182885000Y-58190000D01*
X183520000Y-60730000D02*
X182885000Y-60095000D01*
X183835000Y-52190000D02*
X184475000Y-52190000D01*
X183835000Y-58190000D02*
X183835000Y-52190000D01*
X183835000Y-62550000D02*
X183835000Y-60730000D01*
X183835000Y-62550000D02*
X184475000Y-62550000D01*
X184475000Y-58190000D02*
X184475000Y-52190000D01*
X184475000Y-62550000D02*
X184475000Y-60730000D01*
X186375000Y-52190000D02*
X187015000Y-52190000D01*
X186375000Y-58190000D02*
X186375000Y-52190000D01*
X186375000Y-62550000D02*
X186375000Y-60730000D01*
X186375000Y-62550000D02*
X187015000Y-62550000D01*
X187015000Y-58190000D02*
X187015000Y-52190000D01*
X187015000Y-62550000D02*
X187015000Y-60730000D01*
X188915000Y-52190000D02*
X189555000Y-52190000D01*
X188915000Y-58190000D02*
X188915000Y-52190000D01*
X188915000Y-62550000D02*
X188915000Y-60730000D01*
X188915000Y-62550000D02*
X189555000Y-62550000D01*
X189555000Y-58190000D02*
X189555000Y-52190000D01*
X189555000Y-62550000D02*
X189555000Y-60730000D01*
X191455000Y-52190000D02*
X192095000Y-52190000D01*
X191455000Y-58190000D02*
X191455000Y-52190000D01*
X191455000Y-62550000D02*
X191455000Y-60730000D01*
X191455000Y-62550000D02*
X192095000Y-62550000D01*
X192095000Y-58190000D02*
X192095000Y-52190000D01*
X192095000Y-62550000D02*
X192095000Y-60730000D01*
X193995000Y-52190000D02*
X194635000Y-52190000D01*
X193995000Y-58190000D02*
X193995000Y-52190000D01*
X193995000Y-62550000D02*
X193995000Y-60730000D01*
X193995000Y-62550000D02*
X194635000Y-62550000D01*
X194635000Y-58190000D02*
X194635000Y-52190000D01*
X194635000Y-62550000D02*
X194635000Y-60730000D01*
X195585000Y-58190000D02*
X195585000Y-60730000D01*
X195585000Y-60730000D02*
X183520000Y-60730000D01*
%TO.C,J1*%
X206353213Y-92867648D02*
X215293213Y-92867648D01*
X215293213Y-99772648D01*
X206353213Y-99772648D01*
X206353213Y-92867648D01*
%TO.C,J10*%
X144805000Y-83365000D02*
X145440000Y-82730000D01*
X144805000Y-95430000D02*
X144805000Y-83365000D01*
X145440000Y-82730000D02*
X147345000Y-82730000D01*
X147345000Y-82730000D02*
X147345000Y-95430000D01*
X147345000Y-95430000D02*
X144805000Y-95430000D01*
%TO.C,J4*%
X144830000Y-97790000D02*
X157530000Y-97790000D01*
X144830000Y-99695000D02*
X144830000Y-97790000D01*
X145465000Y-100330000D02*
X144830000Y-99695000D01*
X157530000Y-97790000D02*
X157530000Y-100330000D01*
X157530000Y-100330000D02*
X145465000Y-100330000D01*
%TO.C,J18*%
X207010000Y-72390000D02*
X213995000Y-72390000D01*
X207010000Y-74930000D02*
X207010000Y-72390000D01*
X213995000Y-72390000D02*
X214630000Y-73025000D01*
X214630000Y-73025000D02*
X214630000Y-74930000D01*
X214630000Y-74930000D02*
X207010000Y-74930000D01*
%TO.C,J13*%
X200660000Y-52070000D02*
X202565000Y-52070000D01*
X200660000Y-100330000D02*
X200660000Y-52070000D01*
X202565000Y-52070000D02*
X203200000Y-52705000D01*
X203200000Y-52705000D02*
X203200000Y-100330000D01*
X203200000Y-100330000D02*
X200660000Y-100330000D01*
%TO.C,J20*%
X207010000Y-82550000D02*
X213995000Y-82550000D01*
X207010000Y-85090000D02*
X207010000Y-82550000D01*
X213995000Y-82550000D02*
X214630000Y-83185000D01*
X214630000Y-83185000D02*
X214630000Y-85090000D01*
X214630000Y-85090000D02*
X207010000Y-85090000D01*
%TO.C,J6*%
X158750000Y-58190000D02*
X171450000Y-58190000D01*
X158750000Y-60095000D02*
X158750000Y-58190000D01*
X159385000Y-60730000D02*
X158750000Y-60095000D01*
X159700000Y-52190000D02*
X160340000Y-52190000D01*
X159700000Y-58190000D02*
X159700000Y-52190000D01*
X159700000Y-62550000D02*
X159700000Y-60730000D01*
X159700000Y-62550000D02*
X160340000Y-62550000D01*
X160340000Y-58190000D02*
X160340000Y-52190000D01*
X160340000Y-62550000D02*
X160340000Y-60730000D01*
X162240000Y-52190000D02*
X162880000Y-52190000D01*
X162240000Y-58190000D02*
X162240000Y-52190000D01*
X162240000Y-62550000D02*
X162240000Y-60730000D01*
X162240000Y-62550000D02*
X162880000Y-62550000D01*
X162880000Y-58190000D02*
X162880000Y-52190000D01*
X162880000Y-62550000D02*
X162880000Y-60730000D01*
X164780000Y-52190000D02*
X165420000Y-52190000D01*
X164780000Y-58190000D02*
X164780000Y-52190000D01*
X164780000Y-62550000D02*
X164780000Y-60730000D01*
X164780000Y-62550000D02*
X165420000Y-62550000D01*
X165420000Y-58190000D02*
X165420000Y-52190000D01*
X165420000Y-62550000D02*
X165420000Y-60730000D01*
X167320000Y-52190000D02*
X167960000Y-52190000D01*
X167320000Y-58190000D02*
X167320000Y-52190000D01*
X167320000Y-62550000D02*
X167320000Y-60730000D01*
X167320000Y-62550000D02*
X167960000Y-62550000D01*
X167960000Y-58190000D02*
X167960000Y-52190000D01*
X167960000Y-62550000D02*
X167960000Y-60730000D01*
X169860000Y-52190000D02*
X170500000Y-52190000D01*
X169860000Y-58190000D02*
X169860000Y-52190000D01*
X169860000Y-62550000D02*
X169860000Y-60730000D01*
X169860000Y-62550000D02*
X170500000Y-62550000D01*
X170500000Y-58190000D02*
X170500000Y-52190000D01*
X170500000Y-62550000D02*
X170500000Y-60730000D01*
X171450000Y-58190000D02*
X171450000Y-60730000D01*
X171450000Y-60730000D02*
X159385000Y-60730000D01*
%TO.C,J19*%
X207010000Y-77470000D02*
X213995000Y-77470000D01*
X207010000Y-80010000D02*
X207010000Y-77470000D01*
X213995000Y-77470000D02*
X214630000Y-78105000D01*
X214630000Y-78105000D02*
X214630000Y-80010000D01*
X214630000Y-80010000D02*
X207010000Y-80010000D01*
%TO.C,J7*%
X151130000Y-55245000D02*
X151765000Y-54610000D01*
X151130000Y-95250000D02*
X151130000Y-55245000D01*
X151765000Y-54610000D02*
X153670000Y-54610000D01*
X153670000Y-54610000D02*
X153670000Y-95250000D01*
X153670000Y-95250000D02*
X151130000Y-95250000D01*
%TO.C,SW1*%
X208380000Y-51900000D02*
X208380000Y-57900000D01*
X208380000Y-51900000D02*
X214380000Y-51900000D01*
X208380000Y-57900000D02*
X214380000Y-57900000D01*
X214380000Y-51900000D02*
X214380000Y-57900000D01*
%TO.C,J3*%
X180020000Y-65720000D02*
X180020000Y-66360000D01*
X180020000Y-65720000D02*
X181840000Y-65720000D01*
X180020000Y-66360000D02*
X181840000Y-66360000D01*
X180020000Y-68260000D02*
X180020000Y-68900000D01*
X180020000Y-68260000D02*
X181840000Y-68260000D01*
X180020000Y-68900000D02*
X181840000Y-68900000D01*
X180020000Y-70800000D02*
X180020000Y-71440000D01*
X180020000Y-70800000D02*
X181840000Y-70800000D01*
X180020000Y-71440000D02*
X181840000Y-71440000D01*
X181840000Y-65405000D02*
X182475000Y-64770000D01*
X181840000Y-72390000D02*
X181840000Y-65405000D01*
X182475000Y-64770000D02*
X184380000Y-64770000D01*
X184380000Y-64770000D02*
X184380000Y-72390000D01*
X184380000Y-65720000D02*
X190380000Y-65720000D01*
X184380000Y-66360000D02*
X190380000Y-66360000D01*
X184380000Y-68260000D02*
X190380000Y-68260000D01*
X184380000Y-68900000D02*
X190380000Y-68900000D01*
X184380000Y-70800000D02*
X190380000Y-70800000D01*
X184380000Y-71440000D02*
X190380000Y-71440000D01*
X184380000Y-72390000D02*
X181840000Y-72390000D01*
X190380000Y-65720000D02*
X190380000Y-66360000D01*
X190380000Y-68260000D02*
X190380000Y-68900000D01*
X190380000Y-70800000D02*
X190380000Y-71440000D01*
%TO.C,J8*%
X168910000Y-65405000D02*
X169545000Y-64770000D01*
X168910000Y-85090000D02*
X168910000Y-65405000D01*
X169545000Y-64770000D02*
X171450000Y-64770000D01*
X171450000Y-64770000D02*
X171450000Y-85090000D01*
X171450000Y-85090000D02*
X168910000Y-85090000D01*
%TO.C,J14*%
X180020000Y-75880000D02*
X180020000Y-76520000D01*
X180020000Y-75880000D02*
X181840000Y-75880000D01*
X180020000Y-76520000D02*
X181840000Y-76520000D01*
X180020000Y-78420000D02*
X180020000Y-79060000D01*
X180020000Y-78420000D02*
X181840000Y-78420000D01*
X180020000Y-79060000D02*
X181840000Y-79060000D01*
X180020000Y-80960000D02*
X180020000Y-81600000D01*
X180020000Y-80960000D02*
X181840000Y-80960000D01*
X180020000Y-81600000D02*
X181840000Y-81600000D01*
X180020000Y-83500000D02*
X180020000Y-84140000D01*
X180020000Y-83500000D02*
X181840000Y-83500000D01*
X180020000Y-84140000D02*
X181840000Y-84140000D01*
X180020000Y-86040000D02*
X180020000Y-86680000D01*
X180020000Y-86040000D02*
X181840000Y-86040000D01*
X180020000Y-86680000D02*
X181840000Y-86680000D01*
X180020000Y-88580000D02*
X180020000Y-89220000D01*
X180020000Y-88580000D02*
X181840000Y-88580000D01*
X180020000Y-89220000D02*
X181840000Y-89220000D01*
X181840000Y-75565000D02*
X182475000Y-74930000D01*
X181840000Y-90170000D02*
X181840000Y-75565000D01*
X182475000Y-74930000D02*
X184380000Y-74930000D01*
X184380000Y-74930000D02*
X184380000Y-90170000D01*
X184380000Y-75880000D02*
X190380000Y-75880000D01*
X184380000Y-76520000D02*
X190380000Y-76520000D01*
X184380000Y-78420000D02*
X190380000Y-78420000D01*
X184380000Y-79060000D02*
X190380000Y-79060000D01*
X184380000Y-80960000D02*
X190380000Y-80960000D01*
X184380000Y-81600000D02*
X190380000Y-81600000D01*
X184380000Y-83500000D02*
X190380000Y-83500000D01*
X184380000Y-84140000D02*
X190380000Y-84140000D01*
X184380000Y-86040000D02*
X190380000Y-86040000D01*
X184380000Y-86680000D02*
X190380000Y-86680000D01*
X184380000Y-88580000D02*
X190380000Y-88580000D01*
X184380000Y-89220000D02*
X190380000Y-89220000D01*
X184380000Y-90170000D02*
X181840000Y-90170000D01*
X190380000Y-75880000D02*
X190380000Y-76520000D01*
X190380000Y-78420000D02*
X190380000Y-79060000D01*
X190380000Y-80960000D02*
X190380000Y-81600000D01*
X190380000Y-83500000D02*
X190380000Y-84140000D01*
X190380000Y-86040000D02*
X190380000Y-86680000D01*
X190380000Y-88580000D02*
X190380000Y-89220000D01*
%TO.C,J2*%
X180950000Y-93067500D02*
X189890000Y-93067500D01*
X189890000Y-99972500D01*
X180950000Y-99972500D01*
X180950000Y-93067500D01*
%TO.C,J17*%
X207010000Y-67310000D02*
X213995000Y-67310000D01*
X207010000Y-69850000D02*
X207010000Y-67310000D01*
X213995000Y-67310000D02*
X214630000Y-67945000D01*
X214630000Y-67945000D02*
X214630000Y-69850000D01*
X214630000Y-69850000D02*
X207010000Y-69850000D01*
%TD*%
M02*
