%TF.GenerationSoftware,KiCad,Pcbnew,8.0.3*%
%TF.CreationDate,2024-07-03T12:22:04-05:00*%
%TF.ProjectId,lucidGloves,6c756369-6447-46c6-9f76-65732e6b6963,rev?*%
%TF.SameCoordinates,Original*%
%TF.FileFunction,Component,L1,Top*%
%TF.FilePolarity,Positive*%
%FSLAX46Y46*%
G04 Gerber Fmt 4.6, Leading zero omitted, Abs format (unit mm)*
G04 Created by KiCad (PCBNEW 8.0.3) date 2024-07-03 12:22:04*
%MOMM*%
%LPD*%
G01*
G04 APERTURE LIST*
%TA.AperFunction,ComponentMain*%
%ADD10C,0.300000*%
%TD*%
%TA.AperFunction,ComponentOutline,Courtyard*%
%ADD11C,0.100000*%
%TD*%
%TA.AperFunction,ComponentPin*%
%ADD12P,0.360000X4X0.000000*%
%TD*%
%TA.AperFunction,ComponentPin*%
%ADD13C,0.100000*%
%TD*%
G04 APERTURE END LIST*
D10*
%TO.C,R2*%
%TO.CFtp,R_0603_1608Metric*%
%TO.CVal,5100Ω*%
%TO.CLbN,Resistor_SMD*%
%TO.CMnt,SMD*%
%TO.CRot,0*%
X186245000Y-91440000D03*
D11*
X187724999Y-90710001D02*
X187724999Y-92169999D01*
X184765001Y-92169999D01*
X184765001Y-90710001D01*
X187724999Y-90710001D01*
D12*
%TO.P,R2,1*%
X185420000Y-91440000D03*
D13*
%TO.P,R2,2*%
X187070000Y-91440000D03*
%TD*%
D10*
%TO.C,D1*%
%TO.CFtp,LED_PLCC-2_3.4x3.0mm_AK*%
%TO.CVal,LED*%
%TO.CLbN,LED_SMD*%
%TO.CMnt,SMD*%
%TO.CRot,90*%
X168910000Y-91440000D03*
D11*
X170759999Y-88940001D02*
X170759999Y-94089999D01*
X167060001Y-94089999D01*
X167060001Y-88940001D01*
X170759999Y-88940001D01*
D12*
%TO.P,D1,1,K*%
X168910000Y-89940000D03*
D13*
%TO.P,D1,2,A*%
X168910000Y-92940000D03*
%TD*%
D10*
%TO.C,J12*%
%TO.CFtp,PinHeader_1x05_P2.54mm_Vertical*%
%TO.CVal,Conn_01x05_Pin*%
%TO.CLbN,Connector_PinHeader_2.54mm*%
%TO.CMnt,TH*%
%TO.CRot,0*%
X146100000Y-53340000D03*
D11*
X147899999Y-51540001D02*
X147899999Y-65289999D01*
X144300001Y-65289999D01*
X144300001Y-51540001D01*
X147899999Y-51540001D01*
D12*
%TO.P,J12,1,Pin_1*%
X146100000Y-53340000D03*
D13*
%TO.P,J12,2,Pin_2*%
X146100000Y-55880000D03*
%TO.P,J12,3,Pin_3*%
X146100000Y-58420000D03*
%TO.P,J12,4,Pin_4*%
X146100000Y-60960000D03*
%TO.P,J12,5,Pin_5*%
X146100000Y-63500000D03*
%TD*%
D10*
%TO.C,J9*%
%TO.CFtp,PinSocket_1x19_P2.54mm_Vertical*%
%TO.CVal,Conn_01x19_Socket*%
%TO.CLbN,Connector_PinSocket_2.54mm*%
%TO.CMnt,TH*%
%TO.CRot,0*%
X176555000Y-53340000D03*
D11*
X178304999Y-51540001D02*
X178304999Y-100839999D01*
X174755001Y-100839999D01*
X174755001Y-51540001D01*
X178304999Y-51540001D01*
D12*
%TO.P,J9,1,Pin_1*%
X176555000Y-53340000D03*
D13*
%TO.P,J9,2,Pin_2*%
X176555000Y-55880000D03*
%TO.P,J9,3,Pin_3*%
X176555000Y-58420000D03*
%TO.P,J9,4,Pin_4*%
X176555000Y-60960000D03*
%TO.P,J9,5,Pin_5*%
X176555000Y-63500000D03*
%TO.P,J9,6,Pin_6*%
X176555000Y-66040000D03*
%TO.P,J9,7,Pin_7*%
X176555000Y-68580000D03*
%TO.P,J9,8,Pin_8*%
X176555000Y-71120000D03*
%TO.P,J9,9,Pin_9*%
X176555000Y-73660000D03*
%TO.P,J9,10,Pin_10*%
X176555000Y-76200000D03*
%TO.P,J9,11,Pin_11*%
X176555000Y-78740000D03*
%TO.P,J9,12,Pin_12*%
X176555000Y-81280000D03*
%TO.P,J9,13,Pin_13*%
X176555000Y-83820000D03*
%TO.P,J9,14,Pin_14*%
X176555000Y-86360000D03*
%TO.P,J9,15,Pin_15*%
X176555000Y-88900000D03*
%TO.P,J9,16,Pin_16*%
X176555000Y-91440000D03*
%TO.P,J9,17,Pin_17*%
X176555000Y-93980000D03*
%TO.P,J9,18,Pin_18*%
X176555000Y-96520000D03*
%TO.P,J9,19,Pin_19*%
X176555000Y-99060000D03*
%TD*%
D10*
%TO.C,J16*%
%TO.CFtp,PinHeader_1x03_P2.54mm_Vertical*%
%TO.CVal,Conn_01x03_Pin*%
%TO.CLbN,Connector_PinHeader_2.54mm*%
%TO.CMnt,TH*%
%TO.CRot,-90*%
X213360000Y-63500000D03*
D11*
X215159999Y-61700001D02*
X215159999Y-65299999D01*
X206510001Y-65299999D01*
X206510001Y-61700001D01*
X215159999Y-61700001D01*
D12*
%TO.P,J16,1,Pin_1*%
X213360000Y-63500000D03*
D13*
%TO.P,J16,2,Pin_2*%
X210820000Y-63500000D03*
%TO.P,J16,3,Pin_3*%
X208280000Y-63500000D03*
%TD*%
D10*
%TO.C,J11*%
%TO.CFtp,PinHeader_1x05_P2.54mm_Vertical*%
%TO.CVal,Conn_01x05_Pin*%
%TO.CLbN,Connector_PinHeader_2.54mm*%
%TO.CMnt,TH*%
%TO.CRot,0*%
X146100000Y-68580000D03*
D11*
X147899999Y-66780001D02*
X147899999Y-80529999D01*
X144300001Y-80529999D01*
X144300001Y-66780001D01*
X147899999Y-66780001D01*
D12*
%TO.P,J11,1,Pin_1*%
X146100000Y-68580000D03*
D13*
%TO.P,J11,2,Pin_2*%
X146100000Y-71120000D03*
%TO.P,J11,3,Pin_3*%
X146100000Y-73660000D03*
%TO.P,J11,4,Pin_4*%
X146100000Y-76200000D03*
%TO.P,J11,5,Pin_5*%
X146100000Y-78740000D03*
%TD*%
D10*
%TO.C,R1*%
%TO.CFtp,R_0603_1608Metric*%
%TO.CVal,5100Ω*%
%TO.CLbN,Resistor_SMD*%
%TO.CMnt,SMD*%
%TO.CRot,0*%
X212535000Y-89915000D03*
D11*
X214014999Y-89185001D02*
X214014999Y-90644999D01*
X211055001Y-90644999D01*
X211055001Y-89185001D01*
X214014999Y-89185001D01*
D12*
%TO.P,R1,1*%
X211710000Y-89915000D03*
D13*
%TO.P,R1,2*%
X213360000Y-89915000D03*
%TD*%
D10*
%TO.C,J5*%
%TO.CFtp,PinHeader_1x05_P2.54mm_Vertical*%
%TO.CVal,Conn_01x05_Pin*%
%TO.CLbN,Connector_PinHeader_2.54mm*%
%TO.CMnt,TH*%
%TO.CRot,90*%
X161120000Y-99060000D03*
D11*
X173069999Y-97260001D02*
X173069999Y-100859999D01*
X159320001Y-100859999D01*
X159320001Y-97260001D01*
X173069999Y-97260001D01*
D12*
%TO.P,J5,1,Pin_1*%
X161120000Y-99060000D03*
D13*
%TO.P,J5,2,Pin_2*%
X163660000Y-99060000D03*
%TO.P,J5,3,Pin_3*%
X166200000Y-99060000D03*
%TO.P,J5,4,Pin_4*%
X168740000Y-99060000D03*
%TO.P,J5,5,Pin_5*%
X171280000Y-99060000D03*
%TD*%
D10*
%TO.C,J15*%
%TO.CFtp,PinHeader_1x05_P2.54mm_Horizontal*%
%TO.CVal,Conn_01x05_Pin*%
%TO.CLbN,Connector_PinHeader_2.54mm*%
%TO.CMnt,TH*%
%TO.CRot,90*%
X184155000Y-62230000D03*
D11*
X196104999Y-51680001D02*
X196104999Y-64029999D01*
X182355001Y-64029999D01*
X182355001Y-51680001D01*
X196104999Y-51680001D01*
D12*
%TO.P,J15,1,Pin_1*%
X184155000Y-62230000D03*
D13*
%TO.P,J15,2,Pin_2*%
X186695000Y-62230000D03*
%TO.P,J15,3,Pin_3*%
X189235000Y-62230000D03*
%TO.P,J15,4,Pin_4*%
X191775000Y-62230000D03*
%TO.P,J15,5,Pin_5*%
X194315000Y-62230000D03*
%TD*%
D10*
%TO.C,J1*%
%TO.CFtp,USB_C_Receptacle_GCT_USB4135-GF-A_6P_TopMnt_Horizontal*%
%TO.CVal,USB_C_Receptacle_PowerOnly_6P*%
%TO.CLbN,Connector_USB*%
%TO.CMnt,SMD*%
%TO.CRot,0*%
X210823213Y-96320148D03*
D11*
X217373212Y-92120149D02*
X217373212Y-94520147D01*
X215823212Y-94520147D01*
X215823212Y-95670149D01*
X217373212Y-95670149D01*
X217373212Y-98220147D01*
X215823212Y-98220147D01*
X215823212Y-100320147D01*
X205823214Y-100320147D01*
X205823214Y-98220147D01*
X204273214Y-98220147D01*
X204273214Y-95670149D01*
X205823214Y-95670149D01*
X205823214Y-94520147D01*
X204273214Y-94520147D01*
X204273214Y-92120149D01*
X217373212Y-92120149D01*
D13*
%TO.P,J1,A5,CC1*%
X210323213Y-93287648D03*
%TO.P,J1,A9,VBUS*%
X212343213Y-93287648D03*
%TO.P,J1,A12,GND*%
X213573213Y-93287648D03*
%TO.P,J1,B5,CC2*%
X211323213Y-93287648D03*
%TO.P,J1,B9,VBUS*%
X209303213Y-93287648D03*
%TO.P,J1,B12,GND*%
X208073213Y-93287648D03*
%TO.P,J1,S1,SHIELD*%
X205698213Y-93342648D03*
X205698213Y-96922648D03*
X215948213Y-93342648D03*
X215948213Y-96922648D03*
%TD*%
D10*
%TO.C,J10*%
%TO.CFtp,PinHeader_1x05_P2.54mm_Vertical*%
%TO.CVal,Conn_01x05_Pin*%
%TO.CLbN,Connector_PinHeader_2.54mm*%
%TO.CMnt,TH*%
%TO.CRot,0*%
X146075000Y-84000000D03*
D11*
X147874999Y-82200001D02*
X147874999Y-95949999D01*
X144275001Y-95949999D01*
X144275001Y-82200001D01*
X147874999Y-82200001D01*
D12*
%TO.P,J10,1,Pin_1*%
X146075000Y-84000000D03*
D13*
%TO.P,J10,2,Pin_2*%
X146075000Y-86540000D03*
%TO.P,J10,3,Pin_3*%
X146075000Y-89080000D03*
%TO.P,J10,4,Pin_4*%
X146075000Y-91620000D03*
%TO.P,J10,5,Pin_5*%
X146075000Y-94160000D03*
%TD*%
D10*
%TO.C,J4*%
%TO.CFtp,PinHeader_1x05_P2.54mm_Vertical*%
%TO.CVal,Conn_01x05_Pin*%
%TO.CLbN,Connector_PinHeader_2.54mm*%
%TO.CMnt,TH*%
%TO.CRot,90*%
X146100000Y-99060000D03*
D11*
X158049999Y-97260001D02*
X158049999Y-100859999D01*
X144300001Y-100859999D01*
X144300001Y-97260001D01*
X158049999Y-97260001D01*
D12*
%TO.P,J4,1,Pin_1*%
X146100000Y-99060000D03*
D13*
%TO.P,J4,2,Pin_2*%
X148640000Y-99060000D03*
%TO.P,J4,3,Pin_3*%
X151180000Y-99060000D03*
%TO.P,J4,4,Pin_4*%
X153720000Y-99060000D03*
%TO.P,J4,5,Pin_5*%
X156260000Y-99060000D03*
%TD*%
D10*
%TO.C,J18*%
%TO.CFtp,PinHeader_1x03_P2.54mm_Vertical*%
%TO.CVal,Conn_01x03_Pin*%
%TO.CLbN,Connector_PinHeader_2.54mm*%
%TO.CMnt,TH*%
%TO.CRot,-90*%
X213360000Y-73660000D03*
D11*
X215159999Y-71860001D02*
X215159999Y-75459999D01*
X206510001Y-75459999D01*
X206510001Y-71860001D01*
X215159999Y-71860001D01*
D12*
%TO.P,J18,1,Pin_1*%
X213360000Y-73660000D03*
D13*
%TO.P,J18,2,Pin_2*%
X210820000Y-73660000D03*
%TO.P,J18,3,Pin_3*%
X208280000Y-73660000D03*
%TD*%
D10*
%TO.C,J13*%
%TO.CFtp,PinSocket_1x19_P2.54mm_Vertical*%
%TO.CVal,Conn_01x19_Socket*%
%TO.CLbN,Connector_PinSocket_2.54mm*%
%TO.CMnt,TH*%
%TO.CRot,0*%
X201930000Y-53340000D03*
D11*
X203679999Y-51540001D02*
X203679999Y-100839999D01*
X200130001Y-100839999D01*
X200130001Y-51540001D01*
X203679999Y-51540001D01*
D12*
%TO.P,J13,1,Pin_1*%
X201930000Y-53340000D03*
D13*
%TO.P,J13,2,Pin_2*%
X201930000Y-55880000D03*
%TO.P,J13,3,Pin_3*%
X201930000Y-58420000D03*
%TO.P,J13,4,Pin_4*%
X201930000Y-60960000D03*
%TO.P,J13,5,Pin_5*%
X201930000Y-63500000D03*
%TO.P,J13,6,Pin_6*%
X201930000Y-66040000D03*
%TO.P,J13,7,Pin_7*%
X201930000Y-68580000D03*
%TO.P,J13,8,Pin_8*%
X201930000Y-71120000D03*
%TO.P,J13,9,Pin_9*%
X201930000Y-73660000D03*
%TO.P,J13,10,Pin_10*%
X201930000Y-76200000D03*
%TO.P,J13,11,Pin_11*%
X201930000Y-78740000D03*
%TO.P,J13,12,Pin_12*%
X201930000Y-81280000D03*
%TO.P,J13,13,Pin_13*%
X201930000Y-83820000D03*
%TO.P,J13,14,Pin_14*%
X201930000Y-86360000D03*
%TO.P,J13,15,Pin_15*%
X201930000Y-88900000D03*
%TO.P,J13,16,Pin_16*%
X201930000Y-91440000D03*
%TO.P,J13,17,Pin_17*%
X201930000Y-93980000D03*
%TO.P,J13,18,Pin_18*%
X201930000Y-96520000D03*
%TO.P,J13,19,Pin_19*%
X201930000Y-99060000D03*
%TD*%
D10*
%TO.C,J20*%
%TO.CFtp,PinHeader_1x03_P2.54mm_Vertical*%
%TO.CVal,Conn_01x03_Pin*%
%TO.CLbN,Connector_PinHeader_2.54mm*%
%TO.CMnt,TH*%
%TO.CRot,-90*%
X213360000Y-83820000D03*
D11*
X215159999Y-82020001D02*
X215159999Y-85619999D01*
X206510001Y-85619999D01*
X206510001Y-82020001D01*
X215159999Y-82020001D01*
D12*
%TO.P,J20,1,Pin_1*%
X213360000Y-83820000D03*
D13*
%TO.P,J20,2,Pin_2*%
X210820000Y-83820000D03*
%TO.P,J20,3,Pin_3*%
X208280000Y-83820000D03*
%TD*%
D10*
%TO.C,J6*%
%TO.CFtp,PinHeader_1x05_P2.54mm_Horizontal*%
%TO.CVal,Conn_01x05_Pin*%
%TO.CLbN,Connector_PinHeader_2.54mm*%
%TO.CMnt,TH*%
%TO.CRot,90*%
X160020000Y-62230000D03*
D11*
X171969999Y-51680001D02*
X171969999Y-64029999D01*
X158220001Y-64029999D01*
X158220001Y-51680001D01*
X171969999Y-51680001D01*
D12*
%TO.P,J6,1,Pin_1*%
X160020000Y-62230000D03*
D13*
%TO.P,J6,2,Pin_2*%
X162560000Y-62230000D03*
%TO.P,J6,3,Pin_3*%
X165100000Y-62230000D03*
%TO.P,J6,4,Pin_4*%
X167640000Y-62230000D03*
%TO.P,J6,5,Pin_5*%
X170180000Y-62230000D03*
%TD*%
D10*
%TO.C,J19*%
%TO.CFtp,PinHeader_1x03_P2.54mm_Vertical*%
%TO.CVal,Conn_01x03_Pin*%
%TO.CLbN,Connector_PinHeader_2.54mm*%
%TO.CMnt,TH*%
%TO.CRot,-90*%
X213360000Y-78740000D03*
D11*
X215159999Y-76940001D02*
X215159999Y-80539999D01*
X206510001Y-80539999D01*
X206510001Y-76940001D01*
X215159999Y-76940001D01*
D12*
%TO.P,J19,1,Pin_1*%
X213360000Y-78740000D03*
D13*
%TO.P,J19,2,Pin_2*%
X210820000Y-78740000D03*
%TO.P,J19,3,Pin_3*%
X208280000Y-78740000D03*
%TD*%
D10*
%TO.C,J7*%
%TO.CFtp,PinHeader_1x16_P2.54mm_Vertical*%
%TO.CVal,Conn_01x16_Pin*%
%TO.CLbN,Connector_PinHeader_2.54mm*%
%TO.CMnt,TH*%
%TO.CRot,0*%
X152400000Y-55880000D03*
D11*
X154199999Y-54080001D02*
X154199999Y-95779999D01*
X150600001Y-95779999D01*
X150600001Y-54080001D01*
X154199999Y-54080001D01*
D12*
%TO.P,J7,1,Pin_1*%
X152400000Y-55880000D03*
D13*
%TO.P,J7,2,Pin_2*%
X152400000Y-58420000D03*
%TO.P,J7,3,Pin_3*%
X152400000Y-60960000D03*
%TO.P,J7,4,Pin_4*%
X152400000Y-63500000D03*
%TO.P,J7,5,Pin_5*%
X152400000Y-66040000D03*
%TO.P,J7,6,Pin_6*%
X152400000Y-68580000D03*
%TO.P,J7,7,Pin_7*%
X152400000Y-71120000D03*
%TO.P,J7,8,Pin_8*%
X152400000Y-73660000D03*
%TO.P,J7,9,Pin_9*%
X152400000Y-76200000D03*
%TO.P,J7,10,Pin_10*%
X152400000Y-78740000D03*
%TO.P,J7,11,Pin_11*%
X152400000Y-81280000D03*
%TO.P,J7,12,Pin_12*%
X152400000Y-83820000D03*
%TO.P,J7,13,Pin_13*%
X152400000Y-86360000D03*
%TO.P,J7,14,Pin_14*%
X152400000Y-88900000D03*
%TO.P,J7,15,Pin_15*%
X152400000Y-91440000D03*
%TO.P,J7,16,Pin_16*%
X152400000Y-93980000D03*
%TD*%
D10*
%TO.C,SW1*%
%TO.CFtp,SW_TH_Tactile_Omron_B3F-10xx*%
%TO.CVal,SW_Push*%
%TO.CLbN,Button_Switch_THT*%
%TO.CMnt,TH*%
%TO.CRot,0*%
X208130000Y-52650000D03*
D11*
X215729999Y-51550001D02*
X215729999Y-58249999D01*
X207030001Y-58249999D01*
X207030001Y-51550001D01*
X215729999Y-51550001D01*
D12*
%TO.P,SW1,1,1*%
X208130000Y-52650000D03*
X214630000Y-52650000D03*
D13*
%TO.P,SW1,2,2*%
X208130000Y-57150000D03*
X214630000Y-57150000D03*
%TD*%
D10*
%TO.C,J3*%
%TO.CFtp,PinHeader_1x03_P2.54mm_Horizontal*%
%TO.CVal,Conn_01x03_Pin*%
%TO.CLbN,Connector_PinHeader_2.54mm*%
%TO.CMnt,TH*%
%TO.CRot,0*%
X180340000Y-66040000D03*
D11*
X190889999Y-64240001D02*
X190889999Y-72889999D01*
X178540001Y-72889999D01*
X178540001Y-64240001D01*
X190889999Y-64240001D01*
D12*
%TO.P,J3,1,Pin_1*%
X180340000Y-66040000D03*
D13*
%TO.P,J3,2,Pin_2*%
X180340000Y-68580000D03*
%TO.P,J3,3,Pin_3*%
X180340000Y-71120000D03*
%TD*%
D10*
%TO.C,J8*%
%TO.CFtp,PinHeader_1x08_P2.54mm_Vertical*%
%TO.CVal,Conn_01x08_Pin*%
%TO.CLbN,Connector_PinHeader_2.54mm*%
%TO.CMnt,TH*%
%TO.CRot,0*%
X170180000Y-66040000D03*
D11*
X171979999Y-64240001D02*
X171979999Y-85589999D01*
X168380001Y-85589999D01*
X168380001Y-64240001D01*
X171979999Y-64240001D01*
D12*
%TO.P,J8,1,Pin_1*%
X170180000Y-66040000D03*
D13*
%TO.P,J8,2,Pin_2*%
X170180000Y-68580000D03*
%TO.P,J8,3,Pin_3*%
X170180000Y-71120000D03*
%TO.P,J8,4,Pin_4*%
X170180000Y-73660000D03*
%TO.P,J8,5,Pin_5*%
X170180000Y-76200000D03*
%TO.P,J8,6,Pin_6*%
X170180000Y-78740000D03*
%TO.P,J8,7,Pin_7*%
X170180000Y-81280000D03*
%TO.P,J8,8,Pin_8*%
X170180000Y-83820000D03*
%TD*%
D10*
%TO.C,J14*%
%TO.CFtp,PinHeader_1x06_P2.54mm_Horizontal*%
%TO.CVal,Conn_01x06_Pin*%
%TO.CLbN,Connector_PinHeader_2.54mm*%
%TO.CMnt,TH*%
%TO.CRot,0*%
X180340000Y-76200000D03*
D11*
X190889999Y-74400001D02*
X190889999Y-90699999D01*
X178540001Y-90699999D01*
X178540001Y-74400001D01*
X190889999Y-74400001D01*
D12*
%TO.P,J14,1,Pin_1*%
X180340000Y-76200000D03*
D13*
%TO.P,J14,2,Pin_2*%
X180340000Y-78740000D03*
%TO.P,J14,3,Pin_3*%
X180340000Y-81280000D03*
%TO.P,J14,4,Pin_4*%
X180340000Y-83820000D03*
%TO.P,J14,5,Pin_5*%
X180340000Y-86360000D03*
%TO.P,J14,6,Pin_6*%
X180340000Y-88900000D03*
%TD*%
D10*
%TO.C,J2*%
%TO.CFtp,USB_C_Receptacle_GCT_USB4135-GF-A_6P_TopMnt_Horizontal*%
%TO.CVal,USB_C_Receptacle_PowerOnly_6P*%
%TO.CLbN,Connector_USB*%
%TO.CMnt,SMD*%
%TO.CRot,0*%
X185420000Y-96520000D03*
D11*
X191969999Y-92320001D02*
X191969999Y-94719999D01*
X190419999Y-94719999D01*
X190419999Y-95870001D01*
X191969999Y-95870001D01*
X191969999Y-98419999D01*
X190419999Y-98419999D01*
X190419999Y-100519999D01*
X180420001Y-100519999D01*
X180420001Y-98419999D01*
X178870001Y-98419999D01*
X178870001Y-95870001D01*
X180420001Y-95870001D01*
X180420001Y-94719999D01*
X178870001Y-94719999D01*
X178870001Y-92320001D01*
X191969999Y-92320001D01*
D13*
%TO.P,J2,A5,CC1*%
X184920000Y-93487500D03*
%TO.P,J2,A9,VBUS*%
X186940000Y-93487500D03*
%TO.P,J2,A12,GND*%
X188170000Y-93487500D03*
%TO.P,J2,B5,CC2*%
X185920000Y-93487500D03*
%TO.P,J2,B9,VBUS*%
X183900000Y-93487500D03*
%TO.P,J2,B12,GND*%
X182670000Y-93487500D03*
%TO.P,J2,S1,SHIELD*%
X180295000Y-93542500D03*
X180295000Y-97122500D03*
X190545000Y-93542500D03*
X190545000Y-97122500D03*
%TD*%
D10*
%TO.C,J17*%
%TO.CFtp,PinHeader_1x03_P2.54mm_Vertical*%
%TO.CVal,Conn_01x03_Pin*%
%TO.CLbN,Connector_PinHeader_2.54mm*%
%TO.CMnt,TH*%
%TO.CRot,-90*%
X213360000Y-68580000D03*
D11*
X215159999Y-66780001D02*
X215159999Y-70379999D01*
X206510001Y-70379999D01*
X206510001Y-66780001D01*
X215159999Y-66780001D01*
D12*
%TO.P,J17,1,Pin_1*%
X213360000Y-68580000D03*
D13*
%TO.P,J17,2,Pin_2*%
X210820000Y-68580000D03*
%TO.P,J17,3,Pin_3*%
X208280000Y-68580000D03*
%TD*%
D10*
%TO.C,R3*%
%TO.CFtp,R_0603_1608Metric*%
%TO.CVal,270Ω*%
%TO.CLbN,Resistor_SMD*%
%TO.CMnt,SMD*%
%TO.CRot,-90*%
X173990000Y-92710000D03*
D11*
X174719999Y-91230001D02*
X174719999Y-94189999D01*
X173260001Y-94189999D01*
X173260001Y-91230001D01*
X174719999Y-91230001D01*
D12*
%TO.P,R3,1*%
X173990000Y-91885000D03*
D13*
%TO.P,R3,2*%
X173990000Y-93535000D03*
%TD*%
M02*
