%TF.GenerationSoftware,KiCad,Pcbnew,8.0.3*%
%TF.CreationDate,2024-07-03T01:18:00-05:00*%
%TF.ProjectId,lucidGloves,6c756369-6447-46c6-9f76-65732e6b6963,rev?*%
%TF.SameCoordinates,Original*%
%TF.FileFunction,OtherDrawing,Comment*%
%FSLAX46Y46*%
G04 Gerber Fmt 4.6, Leading zero omitted, Abs format (unit mm)*
G04 Created by KiCad (PCBNEW 8.0.3) date 2024-07-03 01:18:00*
%MOMM*%
%LPD*%
G01*
G04 APERTURE LIST*
%ADD10C,0.150000*%
%ADD11C,0.100000*%
G04 APERTURE END LIST*
D10*
X170180000Y-85150000D02*
X168530000Y-85150000D01*
X167930000Y-85150000D02*
X166280000Y-85150000D01*
X165680000Y-85150000D02*
X164030000Y-85150000D01*
X163430000Y-85150000D02*
X161780000Y-85150000D01*
X161180000Y-85150000D02*
X159530000Y-85150000D01*
X158930000Y-85150000D02*
X157280000Y-85150000D01*
X156680000Y-85150000D02*
X155030000Y-85150000D01*
X154430000Y-85150000D02*
X152780000Y-85150000D01*
X157242381Y-66494819D02*
X156670953Y-66494819D01*
X156956667Y-66494819D02*
X156956667Y-65494819D01*
X156956667Y-65494819D02*
X156861429Y-65637676D01*
X156861429Y-65637676D02*
X156766191Y-65732914D01*
X156766191Y-65732914D02*
X156670953Y-65780533D01*
X157575715Y-65494819D02*
X158242381Y-65494819D01*
X158242381Y-65494819D02*
X157813810Y-66494819D01*
X158623334Y-66399580D02*
X158670953Y-66447200D01*
X158670953Y-66447200D02*
X158623334Y-66494819D01*
X158623334Y-66494819D02*
X158575715Y-66447200D01*
X158575715Y-66447200D02*
X158623334Y-66399580D01*
X158623334Y-66399580D02*
X158623334Y-66494819D01*
X159004286Y-65494819D02*
X159670952Y-65494819D01*
X159670952Y-65494819D02*
X159242381Y-66494819D01*
X160194762Y-65923390D02*
X160099524Y-65875771D01*
X160099524Y-65875771D02*
X160051905Y-65828152D01*
X160051905Y-65828152D02*
X160004286Y-65732914D01*
X160004286Y-65732914D02*
X160004286Y-65685295D01*
X160004286Y-65685295D02*
X160051905Y-65590057D01*
X160051905Y-65590057D02*
X160099524Y-65542438D01*
X160099524Y-65542438D02*
X160194762Y-65494819D01*
X160194762Y-65494819D02*
X160385238Y-65494819D01*
X160385238Y-65494819D02*
X160480476Y-65542438D01*
X160480476Y-65542438D02*
X160528095Y-65590057D01*
X160528095Y-65590057D02*
X160575714Y-65685295D01*
X160575714Y-65685295D02*
X160575714Y-65732914D01*
X160575714Y-65732914D02*
X160528095Y-65828152D01*
X160528095Y-65828152D02*
X160480476Y-65875771D01*
X160480476Y-65875771D02*
X160385238Y-65923390D01*
X160385238Y-65923390D02*
X160194762Y-65923390D01*
X160194762Y-65923390D02*
X160099524Y-65971009D01*
X160099524Y-65971009D02*
X160051905Y-66018628D01*
X160051905Y-66018628D02*
X160004286Y-66113866D01*
X160004286Y-66113866D02*
X160004286Y-66304342D01*
X160004286Y-66304342D02*
X160051905Y-66399580D01*
X160051905Y-66399580D02*
X160099524Y-66447200D01*
X160099524Y-66447200D02*
X160194762Y-66494819D01*
X160194762Y-66494819D02*
X160385238Y-66494819D01*
X160385238Y-66494819D02*
X160480476Y-66447200D01*
X160480476Y-66447200D02*
X160528095Y-66399580D01*
X160528095Y-66399580D02*
X160575714Y-66304342D01*
X160575714Y-66304342D02*
X160575714Y-66113866D01*
X160575714Y-66113866D02*
X160528095Y-66018628D01*
X160528095Y-66018628D02*
X160480476Y-65971009D01*
X160480476Y-65971009D02*
X160385238Y-65923390D01*
X161194762Y-65494819D02*
X161290000Y-65494819D01*
X161290000Y-65494819D02*
X161385238Y-65542438D01*
X161385238Y-65542438D02*
X161432857Y-65590057D01*
X161432857Y-65590057D02*
X161480476Y-65685295D01*
X161480476Y-65685295D02*
X161528095Y-65875771D01*
X161528095Y-65875771D02*
X161528095Y-66113866D01*
X161528095Y-66113866D02*
X161480476Y-66304342D01*
X161480476Y-66304342D02*
X161432857Y-66399580D01*
X161432857Y-66399580D02*
X161385238Y-66447200D01*
X161385238Y-66447200D02*
X161290000Y-66494819D01*
X161290000Y-66494819D02*
X161194762Y-66494819D01*
X161194762Y-66494819D02*
X161099524Y-66447200D01*
X161099524Y-66447200D02*
X161051905Y-66399580D01*
X161051905Y-66399580D02*
X161004286Y-66304342D01*
X161004286Y-66304342D02*
X160956667Y-66113866D01*
X160956667Y-66113866D02*
X160956667Y-65875771D01*
X160956667Y-65875771D02*
X161004286Y-65685295D01*
X161004286Y-65685295D02*
X161051905Y-65590057D01*
X161051905Y-65590057D02*
X161099524Y-65542438D01*
X161099524Y-65542438D02*
X161194762Y-65494819D01*
X162147143Y-65494819D02*
X162242381Y-65494819D01*
X162242381Y-65494819D02*
X162337619Y-65542438D01*
X162337619Y-65542438D02*
X162385238Y-65590057D01*
X162385238Y-65590057D02*
X162432857Y-65685295D01*
X162432857Y-65685295D02*
X162480476Y-65875771D01*
X162480476Y-65875771D02*
X162480476Y-66113866D01*
X162480476Y-66113866D02*
X162432857Y-66304342D01*
X162432857Y-66304342D02*
X162385238Y-66399580D01*
X162385238Y-66399580D02*
X162337619Y-66447200D01*
X162337619Y-66447200D02*
X162242381Y-66494819D01*
X162242381Y-66494819D02*
X162147143Y-66494819D01*
X162147143Y-66494819D02*
X162051905Y-66447200D01*
X162051905Y-66447200D02*
X162004286Y-66399580D01*
X162004286Y-66399580D02*
X161956667Y-66304342D01*
X161956667Y-66304342D02*
X161909048Y-66113866D01*
X161909048Y-66113866D02*
X161909048Y-65875771D01*
X161909048Y-65875771D02*
X161956667Y-65685295D01*
X161956667Y-65685295D02*
X162004286Y-65590057D01*
X162004286Y-65590057D02*
X162051905Y-65542438D01*
X162051905Y-65542438D02*
X162147143Y-65494819D01*
X163670953Y-66494819D02*
X163670953Y-65828152D01*
X163670953Y-65923390D02*
X163718572Y-65875771D01*
X163718572Y-65875771D02*
X163813810Y-65828152D01*
X163813810Y-65828152D02*
X163956667Y-65828152D01*
X163956667Y-65828152D02*
X164051905Y-65875771D01*
X164051905Y-65875771D02*
X164099524Y-65971009D01*
X164099524Y-65971009D02*
X164099524Y-66494819D01*
X164099524Y-65971009D02*
X164147143Y-65875771D01*
X164147143Y-65875771D02*
X164242381Y-65828152D01*
X164242381Y-65828152D02*
X164385238Y-65828152D01*
X164385238Y-65828152D02*
X164480477Y-65875771D01*
X164480477Y-65875771D02*
X164528096Y-65971009D01*
X164528096Y-65971009D02*
X164528096Y-66494819D01*
X165004286Y-66494819D02*
X165004286Y-65828152D01*
X165004286Y-65923390D02*
X165051905Y-65875771D01*
X165051905Y-65875771D02*
X165147143Y-65828152D01*
X165147143Y-65828152D02*
X165290000Y-65828152D01*
X165290000Y-65828152D02*
X165385238Y-65875771D01*
X165385238Y-65875771D02*
X165432857Y-65971009D01*
X165432857Y-65971009D02*
X165432857Y-66494819D01*
X165432857Y-65971009D02*
X165480476Y-65875771D01*
X165480476Y-65875771D02*
X165575714Y-65828152D01*
X165575714Y-65828152D02*
X165718571Y-65828152D01*
X165718571Y-65828152D02*
X165813810Y-65875771D01*
X165813810Y-65875771D02*
X165861429Y-65971009D01*
X165861429Y-65971009D02*
X165861429Y-66494819D01*
X170180000Y-66540000D02*
X170180000Y-66626420D01*
X152400000Y-66540000D02*
X152400000Y-66626420D01*
X170180000Y-66040000D02*
X166724524Y-66040000D01*
X155855477Y-66040000D02*
X152400000Y-66040000D01*
X170180000Y-66040000D02*
X169053496Y-66626421D01*
X170180000Y-66040000D02*
X169053496Y-65453579D01*
X152400000Y-66040000D02*
X153526504Y-65453579D01*
X152400000Y-66040000D02*
X153526504Y-66626421D01*
X183340953Y-88450057D02*
X183388572Y-88402438D01*
X183388572Y-88402438D02*
X183483810Y-88354819D01*
X183483810Y-88354819D02*
X183721905Y-88354819D01*
X183721905Y-88354819D02*
X183817143Y-88402438D01*
X183817143Y-88402438D02*
X183864762Y-88450057D01*
X183864762Y-88450057D02*
X183912381Y-88545295D01*
X183912381Y-88545295D02*
X183912381Y-88640533D01*
X183912381Y-88640533D02*
X183864762Y-88783390D01*
X183864762Y-88783390D02*
X183293334Y-89354819D01*
X183293334Y-89354819D02*
X183912381Y-89354819D01*
X184817143Y-88354819D02*
X184340953Y-88354819D01*
X184340953Y-88354819D02*
X184293334Y-88831009D01*
X184293334Y-88831009D02*
X184340953Y-88783390D01*
X184340953Y-88783390D02*
X184436191Y-88735771D01*
X184436191Y-88735771D02*
X184674286Y-88735771D01*
X184674286Y-88735771D02*
X184769524Y-88783390D01*
X184769524Y-88783390D02*
X184817143Y-88831009D01*
X184817143Y-88831009D02*
X184864762Y-88926247D01*
X184864762Y-88926247D02*
X184864762Y-89164342D01*
X184864762Y-89164342D02*
X184817143Y-89259580D01*
X184817143Y-89259580D02*
X184769524Y-89307200D01*
X184769524Y-89307200D02*
X184674286Y-89354819D01*
X184674286Y-89354819D02*
X184436191Y-89354819D01*
X184436191Y-89354819D02*
X184340953Y-89307200D01*
X184340953Y-89307200D02*
X184293334Y-89259580D01*
X185293334Y-89259580D02*
X185340953Y-89307200D01*
X185340953Y-89307200D02*
X185293334Y-89354819D01*
X185293334Y-89354819D02*
X185245715Y-89307200D01*
X185245715Y-89307200D02*
X185293334Y-89259580D01*
X185293334Y-89259580D02*
X185293334Y-89354819D01*
X186198095Y-88688152D02*
X186198095Y-89354819D01*
X185960000Y-88307200D02*
X185721905Y-89021485D01*
X185721905Y-89021485D02*
X186340952Y-89021485D01*
X186912381Y-88354819D02*
X187007619Y-88354819D01*
X187007619Y-88354819D02*
X187102857Y-88402438D01*
X187102857Y-88402438D02*
X187150476Y-88450057D01*
X187150476Y-88450057D02*
X187198095Y-88545295D01*
X187198095Y-88545295D02*
X187245714Y-88735771D01*
X187245714Y-88735771D02*
X187245714Y-88973866D01*
X187245714Y-88973866D02*
X187198095Y-89164342D01*
X187198095Y-89164342D02*
X187150476Y-89259580D01*
X187150476Y-89259580D02*
X187102857Y-89307200D01*
X187102857Y-89307200D02*
X187007619Y-89354819D01*
X187007619Y-89354819D02*
X186912381Y-89354819D01*
X186912381Y-89354819D02*
X186817143Y-89307200D01*
X186817143Y-89307200D02*
X186769524Y-89259580D01*
X186769524Y-89259580D02*
X186721905Y-89164342D01*
X186721905Y-89164342D02*
X186674286Y-88973866D01*
X186674286Y-88973866D02*
X186674286Y-88735771D01*
X186674286Y-88735771D02*
X186721905Y-88545295D01*
X186721905Y-88545295D02*
X186769524Y-88450057D01*
X186769524Y-88450057D02*
X186817143Y-88402438D01*
X186817143Y-88402438D02*
X186912381Y-88354819D01*
X187864762Y-88354819D02*
X187960000Y-88354819D01*
X187960000Y-88354819D02*
X188055238Y-88402438D01*
X188055238Y-88402438D02*
X188102857Y-88450057D01*
X188102857Y-88450057D02*
X188150476Y-88545295D01*
X188150476Y-88545295D02*
X188198095Y-88735771D01*
X188198095Y-88735771D02*
X188198095Y-88973866D01*
X188198095Y-88973866D02*
X188150476Y-89164342D01*
X188150476Y-89164342D02*
X188102857Y-89259580D01*
X188102857Y-89259580D02*
X188055238Y-89307200D01*
X188055238Y-89307200D02*
X187960000Y-89354819D01*
X187960000Y-89354819D02*
X187864762Y-89354819D01*
X187864762Y-89354819D02*
X187769524Y-89307200D01*
X187769524Y-89307200D02*
X187721905Y-89259580D01*
X187721905Y-89259580D02*
X187674286Y-89164342D01*
X187674286Y-89164342D02*
X187626667Y-88973866D01*
X187626667Y-88973866D02*
X187626667Y-88735771D01*
X187626667Y-88735771D02*
X187674286Y-88545295D01*
X187674286Y-88545295D02*
X187721905Y-88450057D01*
X187721905Y-88450057D02*
X187769524Y-88402438D01*
X187769524Y-88402438D02*
X187864762Y-88354819D01*
X188817143Y-88354819D02*
X188912381Y-88354819D01*
X188912381Y-88354819D02*
X189007619Y-88402438D01*
X189007619Y-88402438D02*
X189055238Y-88450057D01*
X189055238Y-88450057D02*
X189102857Y-88545295D01*
X189102857Y-88545295D02*
X189150476Y-88735771D01*
X189150476Y-88735771D02*
X189150476Y-88973866D01*
X189150476Y-88973866D02*
X189102857Y-89164342D01*
X189102857Y-89164342D02*
X189055238Y-89259580D01*
X189055238Y-89259580D02*
X189007619Y-89307200D01*
X189007619Y-89307200D02*
X188912381Y-89354819D01*
X188912381Y-89354819D02*
X188817143Y-89354819D01*
X188817143Y-89354819D02*
X188721905Y-89307200D01*
X188721905Y-89307200D02*
X188674286Y-89259580D01*
X188674286Y-89259580D02*
X188626667Y-89164342D01*
X188626667Y-89164342D02*
X188579048Y-88973866D01*
X188579048Y-88973866D02*
X188579048Y-88735771D01*
X188579048Y-88735771D02*
X188626667Y-88545295D01*
X188626667Y-88545295D02*
X188674286Y-88450057D01*
X188674286Y-88450057D02*
X188721905Y-88402438D01*
X188721905Y-88402438D02*
X188817143Y-88354819D01*
X190340953Y-89354819D02*
X190340953Y-88688152D01*
X190340953Y-88783390D02*
X190388572Y-88735771D01*
X190388572Y-88735771D02*
X190483810Y-88688152D01*
X190483810Y-88688152D02*
X190626667Y-88688152D01*
X190626667Y-88688152D02*
X190721905Y-88735771D01*
X190721905Y-88735771D02*
X190769524Y-88831009D01*
X190769524Y-88831009D02*
X190769524Y-89354819D01*
X190769524Y-88831009D02*
X190817143Y-88735771D01*
X190817143Y-88735771D02*
X190912381Y-88688152D01*
X190912381Y-88688152D02*
X191055238Y-88688152D01*
X191055238Y-88688152D02*
X191150477Y-88735771D01*
X191150477Y-88735771D02*
X191198096Y-88831009D01*
X191198096Y-88831009D02*
X191198096Y-89354819D01*
X191674286Y-89354819D02*
X191674286Y-88688152D01*
X191674286Y-88783390D02*
X191721905Y-88735771D01*
X191721905Y-88735771D02*
X191817143Y-88688152D01*
X191817143Y-88688152D02*
X191960000Y-88688152D01*
X191960000Y-88688152D02*
X192055238Y-88735771D01*
X192055238Y-88735771D02*
X192102857Y-88831009D01*
X192102857Y-88831009D02*
X192102857Y-89354819D01*
X192102857Y-88831009D02*
X192150476Y-88735771D01*
X192150476Y-88735771D02*
X192245714Y-88688152D01*
X192245714Y-88688152D02*
X192388571Y-88688152D01*
X192388571Y-88688152D02*
X192483810Y-88735771D01*
X192483810Y-88735771D02*
X192531429Y-88831009D01*
X192531429Y-88831009D02*
X192531429Y-89354819D01*
X176530000Y-88400000D02*
X176530000Y-88313580D01*
X201930000Y-88400000D02*
X201930000Y-88313580D01*
X176530000Y-88900000D02*
X182525477Y-88900000D01*
X193394524Y-88900000D02*
X201930000Y-88900000D01*
X176530000Y-88900000D02*
X177656504Y-88313579D01*
X176530000Y-88900000D02*
X177656504Y-89486421D01*
X201930000Y-88900000D02*
X200803496Y-89486421D01*
X201930000Y-88900000D02*
X200803496Y-88313579D01*
D11*
X209108927Y-99446257D02*
X209108927Y-98946257D01*
X209108927Y-98946257D02*
X209299403Y-98946257D01*
X209299403Y-98946257D02*
X209347022Y-98970067D01*
X209347022Y-98970067D02*
X209370832Y-98993876D01*
X209370832Y-98993876D02*
X209394641Y-99041495D01*
X209394641Y-99041495D02*
X209394641Y-99112924D01*
X209394641Y-99112924D02*
X209370832Y-99160543D01*
X209370832Y-99160543D02*
X209347022Y-99184352D01*
X209347022Y-99184352D02*
X209299403Y-99208162D01*
X209299403Y-99208162D02*
X209108927Y-99208162D01*
X209894641Y-99398638D02*
X209870832Y-99422448D01*
X209870832Y-99422448D02*
X209799403Y-99446257D01*
X209799403Y-99446257D02*
X209751784Y-99446257D01*
X209751784Y-99446257D02*
X209680356Y-99422448D01*
X209680356Y-99422448D02*
X209632737Y-99374828D01*
X209632737Y-99374828D02*
X209608927Y-99327209D01*
X209608927Y-99327209D02*
X209585118Y-99231971D01*
X209585118Y-99231971D02*
X209585118Y-99160543D01*
X209585118Y-99160543D02*
X209608927Y-99065305D01*
X209608927Y-99065305D02*
X209632737Y-99017686D01*
X209632737Y-99017686D02*
X209680356Y-98970067D01*
X209680356Y-98970067D02*
X209751784Y-98946257D01*
X209751784Y-98946257D02*
X209799403Y-98946257D01*
X209799403Y-98946257D02*
X209870832Y-98970067D01*
X209870832Y-98970067D02*
X209894641Y-98993876D01*
X210275594Y-99184352D02*
X210347022Y-99208162D01*
X210347022Y-99208162D02*
X210370832Y-99231971D01*
X210370832Y-99231971D02*
X210394641Y-99279590D01*
X210394641Y-99279590D02*
X210394641Y-99351019D01*
X210394641Y-99351019D02*
X210370832Y-99398638D01*
X210370832Y-99398638D02*
X210347022Y-99422448D01*
X210347022Y-99422448D02*
X210299403Y-99446257D01*
X210299403Y-99446257D02*
X210108927Y-99446257D01*
X210108927Y-99446257D02*
X210108927Y-98946257D01*
X210108927Y-98946257D02*
X210275594Y-98946257D01*
X210275594Y-98946257D02*
X210323213Y-98970067D01*
X210323213Y-98970067D02*
X210347022Y-98993876D01*
X210347022Y-98993876D02*
X210370832Y-99041495D01*
X210370832Y-99041495D02*
X210370832Y-99089114D01*
X210370832Y-99089114D02*
X210347022Y-99136733D01*
X210347022Y-99136733D02*
X210323213Y-99160543D01*
X210323213Y-99160543D02*
X210275594Y-99184352D01*
X210275594Y-99184352D02*
X210108927Y-99184352D01*
X210989879Y-99184352D02*
X211156546Y-99184352D01*
X211227974Y-99446257D02*
X210989879Y-99446257D01*
X210989879Y-99446257D02*
X210989879Y-98946257D01*
X210989879Y-98946257D02*
X211227974Y-98946257D01*
X211656546Y-99446257D02*
X211656546Y-98946257D01*
X211656546Y-99422448D02*
X211608927Y-99446257D01*
X211608927Y-99446257D02*
X211513689Y-99446257D01*
X211513689Y-99446257D02*
X211466070Y-99422448D01*
X211466070Y-99422448D02*
X211442260Y-99398638D01*
X211442260Y-99398638D02*
X211418451Y-99351019D01*
X211418451Y-99351019D02*
X211418451Y-99208162D01*
X211418451Y-99208162D02*
X211442260Y-99160543D01*
X211442260Y-99160543D02*
X211466070Y-99136733D01*
X211466070Y-99136733D02*
X211513689Y-99112924D01*
X211513689Y-99112924D02*
X211608927Y-99112924D01*
X211608927Y-99112924D02*
X211656546Y-99136733D01*
X212108927Y-99112924D02*
X212108927Y-99517686D01*
X212108927Y-99517686D02*
X212085117Y-99565305D01*
X212085117Y-99565305D02*
X212061308Y-99589114D01*
X212061308Y-99589114D02*
X212013689Y-99612924D01*
X212013689Y-99612924D02*
X211942260Y-99612924D01*
X211942260Y-99612924D02*
X211894641Y-99589114D01*
X212108927Y-99422448D02*
X212061308Y-99446257D01*
X212061308Y-99446257D02*
X211966070Y-99446257D01*
X211966070Y-99446257D02*
X211918451Y-99422448D01*
X211918451Y-99422448D02*
X211894641Y-99398638D01*
X211894641Y-99398638D02*
X211870832Y-99351019D01*
X211870832Y-99351019D02*
X211870832Y-99208162D01*
X211870832Y-99208162D02*
X211894641Y-99160543D01*
X211894641Y-99160543D02*
X211918451Y-99136733D01*
X211918451Y-99136733D02*
X211966070Y-99112924D01*
X211966070Y-99112924D02*
X212061308Y-99112924D01*
X212061308Y-99112924D02*
X212108927Y-99136733D01*
X212537498Y-99422448D02*
X212489879Y-99446257D01*
X212489879Y-99446257D02*
X212394641Y-99446257D01*
X212394641Y-99446257D02*
X212347022Y-99422448D01*
X212347022Y-99422448D02*
X212323213Y-99374828D01*
X212323213Y-99374828D02*
X212323213Y-99184352D01*
X212323213Y-99184352D02*
X212347022Y-99136733D01*
X212347022Y-99136733D02*
X212394641Y-99112924D01*
X212394641Y-99112924D02*
X212489879Y-99112924D01*
X212489879Y-99112924D02*
X212537498Y-99136733D01*
X212537498Y-99136733D02*
X212561308Y-99184352D01*
X212561308Y-99184352D02*
X212561308Y-99231971D01*
X212561308Y-99231971D02*
X212323213Y-99279590D01*
X183705714Y-99646109D02*
X183705714Y-99146109D01*
X183705714Y-99146109D02*
X183896190Y-99146109D01*
X183896190Y-99146109D02*
X183943809Y-99169919D01*
X183943809Y-99169919D02*
X183967619Y-99193728D01*
X183967619Y-99193728D02*
X183991428Y-99241347D01*
X183991428Y-99241347D02*
X183991428Y-99312776D01*
X183991428Y-99312776D02*
X183967619Y-99360395D01*
X183967619Y-99360395D02*
X183943809Y-99384204D01*
X183943809Y-99384204D02*
X183896190Y-99408014D01*
X183896190Y-99408014D02*
X183705714Y-99408014D01*
X184491428Y-99598490D02*
X184467619Y-99622300D01*
X184467619Y-99622300D02*
X184396190Y-99646109D01*
X184396190Y-99646109D02*
X184348571Y-99646109D01*
X184348571Y-99646109D02*
X184277143Y-99622300D01*
X184277143Y-99622300D02*
X184229524Y-99574680D01*
X184229524Y-99574680D02*
X184205714Y-99527061D01*
X184205714Y-99527061D02*
X184181905Y-99431823D01*
X184181905Y-99431823D02*
X184181905Y-99360395D01*
X184181905Y-99360395D02*
X184205714Y-99265157D01*
X184205714Y-99265157D02*
X184229524Y-99217538D01*
X184229524Y-99217538D02*
X184277143Y-99169919D01*
X184277143Y-99169919D02*
X184348571Y-99146109D01*
X184348571Y-99146109D02*
X184396190Y-99146109D01*
X184396190Y-99146109D02*
X184467619Y-99169919D01*
X184467619Y-99169919D02*
X184491428Y-99193728D01*
X184872381Y-99384204D02*
X184943809Y-99408014D01*
X184943809Y-99408014D02*
X184967619Y-99431823D01*
X184967619Y-99431823D02*
X184991428Y-99479442D01*
X184991428Y-99479442D02*
X184991428Y-99550871D01*
X184991428Y-99550871D02*
X184967619Y-99598490D01*
X184967619Y-99598490D02*
X184943809Y-99622300D01*
X184943809Y-99622300D02*
X184896190Y-99646109D01*
X184896190Y-99646109D02*
X184705714Y-99646109D01*
X184705714Y-99646109D02*
X184705714Y-99146109D01*
X184705714Y-99146109D02*
X184872381Y-99146109D01*
X184872381Y-99146109D02*
X184920000Y-99169919D01*
X184920000Y-99169919D02*
X184943809Y-99193728D01*
X184943809Y-99193728D02*
X184967619Y-99241347D01*
X184967619Y-99241347D02*
X184967619Y-99288966D01*
X184967619Y-99288966D02*
X184943809Y-99336585D01*
X184943809Y-99336585D02*
X184920000Y-99360395D01*
X184920000Y-99360395D02*
X184872381Y-99384204D01*
X184872381Y-99384204D02*
X184705714Y-99384204D01*
X185586666Y-99384204D02*
X185753333Y-99384204D01*
X185824761Y-99646109D02*
X185586666Y-99646109D01*
X185586666Y-99646109D02*
X185586666Y-99146109D01*
X185586666Y-99146109D02*
X185824761Y-99146109D01*
X186253333Y-99646109D02*
X186253333Y-99146109D01*
X186253333Y-99622300D02*
X186205714Y-99646109D01*
X186205714Y-99646109D02*
X186110476Y-99646109D01*
X186110476Y-99646109D02*
X186062857Y-99622300D01*
X186062857Y-99622300D02*
X186039047Y-99598490D01*
X186039047Y-99598490D02*
X186015238Y-99550871D01*
X186015238Y-99550871D02*
X186015238Y-99408014D01*
X186015238Y-99408014D02*
X186039047Y-99360395D01*
X186039047Y-99360395D02*
X186062857Y-99336585D01*
X186062857Y-99336585D02*
X186110476Y-99312776D01*
X186110476Y-99312776D02*
X186205714Y-99312776D01*
X186205714Y-99312776D02*
X186253333Y-99336585D01*
X186705714Y-99312776D02*
X186705714Y-99717538D01*
X186705714Y-99717538D02*
X186681904Y-99765157D01*
X186681904Y-99765157D02*
X186658095Y-99788966D01*
X186658095Y-99788966D02*
X186610476Y-99812776D01*
X186610476Y-99812776D02*
X186539047Y-99812776D01*
X186539047Y-99812776D02*
X186491428Y-99788966D01*
X186705714Y-99622300D02*
X186658095Y-99646109D01*
X186658095Y-99646109D02*
X186562857Y-99646109D01*
X186562857Y-99646109D02*
X186515238Y-99622300D01*
X186515238Y-99622300D02*
X186491428Y-99598490D01*
X186491428Y-99598490D02*
X186467619Y-99550871D01*
X186467619Y-99550871D02*
X186467619Y-99408014D01*
X186467619Y-99408014D02*
X186491428Y-99360395D01*
X186491428Y-99360395D02*
X186515238Y-99336585D01*
X186515238Y-99336585D02*
X186562857Y-99312776D01*
X186562857Y-99312776D02*
X186658095Y-99312776D01*
X186658095Y-99312776D02*
X186705714Y-99336585D01*
X187134285Y-99622300D02*
X187086666Y-99646109D01*
X187086666Y-99646109D02*
X186991428Y-99646109D01*
X186991428Y-99646109D02*
X186943809Y-99622300D01*
X186943809Y-99622300D02*
X186920000Y-99574680D01*
X186920000Y-99574680D02*
X186920000Y-99384204D01*
X186920000Y-99384204D02*
X186943809Y-99336585D01*
X186943809Y-99336585D02*
X186991428Y-99312776D01*
X186991428Y-99312776D02*
X187086666Y-99312776D01*
X187086666Y-99312776D02*
X187134285Y-99336585D01*
X187134285Y-99336585D02*
X187158095Y-99384204D01*
X187158095Y-99384204D02*
X187158095Y-99431823D01*
X187158095Y-99431823D02*
X186920000Y-99479442D01*
%TO.C,J1*%
X206073213Y-99772648D02*
X215573213Y-99772648D01*
%TO.C,J2*%
X180670000Y-99972500D02*
X190170000Y-99972500D01*
%TD*%
M02*
