%TF.GenerationSoftware,KiCad,Pcbnew,8.0.3*%
%TF.CreationDate,2024-07-03T13:18:24-05:00*%
%TF.ProjectId,lucidGloves,6c756369-6447-46c6-9f76-65732e6b6963,rev?*%
%TF.SameCoordinates,Original*%
%TF.FileFunction,Soldermask,Top*%
%TF.FilePolarity,Negative*%
%FSLAX46Y46*%
G04 Gerber Fmt 4.6, Leading zero omitted, Abs format (unit mm)*
G04 Created by KiCad (PCBNEW 8.0.3) date 2024-07-03 13:18:24*
%MOMM*%
%LPD*%
G01*
G04 APERTURE LIST*
G04 Aperture macros list*
%AMRoundRect*
0 Rectangle with rounded corners*
0 $1 Rounding radius*
0 $2 $3 $4 $5 $6 $7 $8 $9 X,Y pos of 4 corners*
0 Add a 4 corners polygon primitive as box body*
4,1,4,$2,$3,$4,$5,$6,$7,$8,$9,$2,$3,0*
0 Add four circle primitives for the rounded corners*
1,1,$1+$1,$2,$3*
1,1,$1+$1,$4,$5*
1,1,$1+$1,$6,$7*
1,1,$1+$1,$8,$9*
0 Add four rect primitives between the rounded corners*
20,1,$1+$1,$2,$3,$4,$5,0*
20,1,$1+$1,$4,$5,$6,$7,0*
20,1,$1+$1,$6,$7,$8,$9,0*
20,1,$1+$1,$8,$9,$2,$3,0*%
G04 Aperture macros list end*
%ADD10RoundRect,0.135000X0.135000X0.185000X-0.135000X0.185000X-0.135000X-0.185000X0.135000X-0.185000X0*%
%ADD11RoundRect,0.135000X-0.135000X-0.185000X0.135000X-0.185000X0.135000X0.185000X-0.135000X0.185000X0*%
%ADD12R,2.200000X1.550000*%
%ADD13C,3.200000*%
%ADD14R,1.700000X1.700000*%
%ADD15O,1.700000X1.700000*%
%ADD16RoundRect,0.175000X-0.175000X-0.425000X0.175000X-0.425000X0.175000X0.425000X-0.175000X0.425000X0*%
%ADD17RoundRect,0.190000X0.190000X0.410000X-0.190000X0.410000X-0.190000X-0.410000X0.190000X-0.410000X0*%
%ADD18RoundRect,0.200000X0.200000X0.400000X-0.200000X0.400000X-0.200000X-0.400000X0.200000X-0.400000X0*%
%ADD19RoundRect,0.175000X0.175000X0.425000X-0.175000X0.425000X-0.175000X-0.425000X0.175000X-0.425000X0*%
%ADD20RoundRect,0.190000X-0.190000X-0.410000X0.190000X-0.410000X0.190000X0.410000X-0.190000X0.410000X0*%
%ADD21RoundRect,0.200000X-0.200000X-0.400000X0.200000X-0.400000X0.200000X0.400000X-0.200000X0.400000X0*%
%ADD22RoundRect,0.250000X-0.650000X-0.425000X0.650000X-0.425000X0.650000X0.425000X-0.650000X0.425000X0*%
%ADD23RoundRect,0.250000X-0.650000X-0.500000X0.650000X-0.500000X0.650000X0.500000X-0.650000X0.500000X0*%
%ADD24C,1.700000*%
G04 APERTURE END LIST*
D10*
%TO.C,R3*%
X172498000Y-92710837D03*
X173518000Y-92710837D03*
%TD*%
D11*
%TO.C,R2*%
X185735000Y-91440000D03*
X186755000Y-91440000D03*
%TD*%
%TO.C,R1*%
X210820000Y-91440000D03*
X211840000Y-91440000D03*
%TD*%
D12*
%TO.C,D1*%
X168910000Y-90015000D03*
X168910000Y-92865000D03*
%TD*%
D13*
%TO.C,H3*%
X158750000Y-69850000D03*
%TD*%
D14*
%TO.C,J12*%
X146100000Y-53340000D03*
D15*
X146100000Y-55880000D03*
X146100000Y-58420000D03*
X146100000Y-60960000D03*
X146100000Y-63500000D03*
%TD*%
D14*
%TO.C,J9*%
X176555000Y-53340000D03*
D15*
X176555000Y-55880000D03*
X176555000Y-58420000D03*
X176555000Y-60960000D03*
X176555000Y-63500000D03*
X176555000Y-66040000D03*
X176555000Y-68580000D03*
X176555000Y-71120000D03*
X176555000Y-73660000D03*
X176555000Y-76200000D03*
X176555000Y-78740000D03*
X176555000Y-81280000D03*
X176555000Y-83820000D03*
X176555000Y-86360000D03*
X176555000Y-88900000D03*
X176555000Y-91440000D03*
X176555000Y-93980000D03*
X176555000Y-96520000D03*
X176555000Y-99060000D03*
%TD*%
D14*
%TO.C,J16*%
X213360000Y-63500000D03*
D15*
X210820000Y-63500000D03*
X208280000Y-63500000D03*
%TD*%
D14*
%TO.C,J11*%
X146100000Y-68580000D03*
D15*
X146100000Y-71120000D03*
X146100000Y-73660000D03*
X146100000Y-76200000D03*
X146100000Y-78740000D03*
%TD*%
D14*
%TO.C,J5*%
X161120000Y-99060000D03*
D15*
X163660000Y-99060000D03*
X166200000Y-99060000D03*
X168740000Y-99060000D03*
X171280000Y-99060000D03*
%TD*%
D14*
%TO.C,J15*%
X184155000Y-62230000D03*
D15*
X186695000Y-62230000D03*
X189235000Y-62230000D03*
X191775000Y-62230000D03*
X194315000Y-62230000D03*
%TD*%
D16*
%TO.C,J1*%
X210323213Y-93287648D03*
D17*
X212343213Y-93287648D03*
D18*
X213573213Y-93287648D03*
D19*
X211323213Y-93287648D03*
D20*
X209303213Y-93287648D03*
D21*
X208073213Y-93287648D03*
D22*
X205698213Y-93342648D03*
D23*
X205698213Y-96922648D03*
D22*
X215948213Y-93342648D03*
D23*
X215948213Y-96922648D03*
%TD*%
D14*
%TO.C,J10*%
X146075000Y-84000000D03*
D15*
X146075000Y-86540000D03*
X146075000Y-89080000D03*
X146075000Y-91620000D03*
X146075000Y-94160000D03*
%TD*%
D14*
%TO.C,J4*%
X146100000Y-99060000D03*
D15*
X148640000Y-99060000D03*
X151180000Y-99060000D03*
X153720000Y-99060000D03*
X156260000Y-99060000D03*
%TD*%
D14*
%TO.C,J18*%
X213360000Y-73660000D03*
D15*
X210820000Y-73660000D03*
X208280000Y-73660000D03*
%TD*%
D13*
%TO.C,H1*%
X195580000Y-69850000D03*
%TD*%
%TO.C,H4*%
X158750000Y-91440000D03*
%TD*%
D14*
%TO.C,J13*%
X201930000Y-53340000D03*
D15*
X201930000Y-55880000D03*
X201930000Y-58420000D03*
X201930000Y-60960000D03*
X201930000Y-63500000D03*
X201930000Y-66040000D03*
X201930000Y-68580000D03*
X201930000Y-71120000D03*
X201930000Y-73660000D03*
X201930000Y-76200000D03*
X201930000Y-78740000D03*
X201930000Y-81280000D03*
X201930000Y-83820000D03*
X201930000Y-86360000D03*
X201930000Y-88900000D03*
X201930000Y-91440000D03*
X201930000Y-93980000D03*
X201930000Y-96520000D03*
X201930000Y-99060000D03*
%TD*%
D14*
%TO.C,J20*%
X213360000Y-83820000D03*
D15*
X210820000Y-83820000D03*
X208280000Y-83820000D03*
%TD*%
D13*
%TO.C,H2*%
X195580000Y-91440000D03*
%TD*%
D14*
%TO.C,J6*%
X160020000Y-62230000D03*
D15*
X162560000Y-62230000D03*
X165100000Y-62230000D03*
X167640000Y-62230000D03*
X170180000Y-62230000D03*
%TD*%
D14*
%TO.C,J19*%
X213360000Y-78740000D03*
D15*
X210820000Y-78740000D03*
X208280000Y-78740000D03*
%TD*%
D14*
%TO.C,J7*%
X152400000Y-55880000D03*
D15*
X152400000Y-58420000D03*
X152400000Y-60960000D03*
X152400000Y-63500000D03*
X152400000Y-66040000D03*
X152400000Y-68580000D03*
X152400000Y-71120000D03*
X152400000Y-73660000D03*
X152400000Y-76200000D03*
X152400000Y-78740000D03*
X152400000Y-81280000D03*
X152400000Y-83820000D03*
X152400000Y-86360000D03*
X152400000Y-88900000D03*
X152400000Y-91440000D03*
X152400000Y-93980000D03*
%TD*%
D14*
%TO.C,SW1*%
X208130000Y-52650000D03*
D24*
X214630000Y-52650000D03*
X208130000Y-57150000D03*
X214630000Y-57150000D03*
%TD*%
D14*
%TO.C,J3*%
X180340000Y-66040000D03*
D15*
X180340000Y-68580000D03*
X180340000Y-71120000D03*
%TD*%
D14*
%TO.C,J8*%
X170180000Y-66040000D03*
D15*
X170180000Y-68580000D03*
X170180000Y-71120000D03*
X170180000Y-73660000D03*
X170180000Y-76200000D03*
X170180000Y-78740000D03*
X170180000Y-81280000D03*
X170180000Y-83820000D03*
%TD*%
D14*
%TO.C,J14*%
X180340000Y-76200000D03*
D15*
X180340000Y-78740000D03*
X180340000Y-81280000D03*
X180340000Y-83820000D03*
X180340000Y-86360000D03*
X180340000Y-88900000D03*
%TD*%
D23*
%TO.C,J2*%
X190545000Y-97122500D03*
D22*
X190545000Y-93542500D03*
D23*
X180295000Y-97122500D03*
D22*
X180295000Y-93542500D03*
D21*
X182670000Y-93487500D03*
D20*
X183900000Y-93487500D03*
D19*
X185920000Y-93487500D03*
D18*
X188170000Y-93487500D03*
D17*
X186940000Y-93487500D03*
D16*
X184920000Y-93487500D03*
%TD*%
D14*
%TO.C,J17*%
X213360000Y-68580000D03*
D15*
X210820000Y-68580000D03*
X208280000Y-68580000D03*
%TD*%
M02*
