%TF.GenerationSoftware,KiCad,Pcbnew,8.0.3*%
%TF.CreationDate,2024-07-02T19:52:34-05:00*%
%TF.ProjectId,lucidGloves,6c756369-6447-46c6-9f76-65732e6b6963,rev?*%
%TF.SameCoordinates,Original*%
%TF.FileFunction,Copper,L2,Bot*%
%TF.FilePolarity,Positive*%
%FSLAX46Y46*%
G04 Gerber Fmt 4.6, Leading zero omitted, Abs format (unit mm)*
G04 Created by KiCad (PCBNEW 8.0.3) date 2024-07-02 19:52:34*
%MOMM*%
%LPD*%
G01*
G04 APERTURE LIST*
%TA.AperFunction,ComponentPad*%
%ADD10R,1.700000X1.700000*%
%TD*%
%TA.AperFunction,ComponentPad*%
%ADD11O,1.700000X1.700000*%
%TD*%
%TA.AperFunction,ComponentPad*%
%ADD12C,1.700000*%
%TD*%
%TA.AperFunction,ComponentPad*%
%ADD13C,1.800000*%
%TD*%
%TA.AperFunction,ComponentPad*%
%ADD14R,1.800000X1.800000*%
%TD*%
%TA.AperFunction,ViaPad*%
%ADD15C,0.300000*%
%TD*%
%TA.AperFunction,Conductor*%
%ADD16C,0.250000*%
%TD*%
G04 APERTURE END LIST*
D10*
%TO.P,J13,1,Pin_1*%
%TO.N,Net-(J12-Pin_1)*%
X184155000Y-62230000D03*
D11*
%TO.P,J13,2,Pin_2*%
%TO.N,Net-(J12-Pin_5)*%
X186695000Y-62230000D03*
%TO.P,J13,3,Pin_3*%
%TO.N,Net-(J12-Pin_4)*%
X189235000Y-62230000D03*
%TO.P,J13,4,Pin_4*%
%TO.N,Net-(J12-Pin_3)*%
X191775000Y-62230000D03*
%TO.P,J13,5,Pin_5*%
%TO.N,Net-(J12-Pin_2)*%
X194315000Y-62230000D03*
%TD*%
D10*
%TO.P,J5,1,Pin_1*%
%TO.N,Net-(J10-Pin_5)*%
X160020000Y-62230000D03*
D11*
%TO.P,J5,2,Pin_2*%
%TO.N,Net-(J10-Pin_1)*%
X162560000Y-62230000D03*
%TO.P,J5,3,Pin_3*%
%TO.N,Net-(J5-Pin_3)*%
X165100000Y-62230000D03*
%TO.P,J5,4,Pin_4*%
%TO.N,Net-(J5-Pin_4)*%
X167640000Y-62230000D03*
%TO.P,J5,5,Pin_5*%
%TO.N,Net-(J5-Pin_5)*%
X170180000Y-62230000D03*
%TD*%
%TO.P,J7,8,Pin_8*%
%TO.N,Net-(J7-Pin_8)*%
X170180000Y-83820000D03*
%TO.P,J7,7,Pin_7*%
%TO.N,Net-(J7-Pin_7)*%
X170180000Y-81280000D03*
%TO.P,J7,6,Pin_6*%
%TO.N,Net-(J7-Pin_6)*%
X170180000Y-78740000D03*
%TO.P,J7,5,Pin_5*%
%TO.N,Net-(J7-Pin_5)*%
X170180000Y-76200000D03*
%TO.P,J7,4,Pin_4*%
%TO.N,Net-(J7-Pin_4)*%
X170180000Y-73660000D03*
%TO.P,J7,3,Pin_3*%
%TO.N,unconnected-(J7-Pin_3-Pad3)*%
X170180000Y-71120000D03*
%TO.P,J7,2,Pin_2*%
%TO.N,Net-(J10-Pin_1)*%
X170180000Y-68580000D03*
D10*
%TO.P,J7,1,Pin_1*%
%TO.N,Net-(J10-Pin_5)*%
X170180000Y-66040000D03*
%TD*%
D11*
%TO.P,J6,16,Pin_16*%
%TO.N,unconnected-(J6-Pin_16-Pad16)*%
X152240000Y-93980000D03*
%TO.P,J6,15,Pin_15*%
%TO.N,Net-(J4-Pin_4)*%
X152240000Y-91440000D03*
%TO.P,J6,14,Pin_14*%
%TO.N,Net-(J4-Pin_2)*%
X152240000Y-88900000D03*
%TO.P,J6,13,Pin_13*%
%TO.N,Net-(J4-Pin_3)*%
X152240000Y-86360000D03*
%TO.P,J6,12,Pin_12*%
%TO.N,Net-(J3-Pin_4)*%
X152240000Y-83820000D03*
%TO.P,J6,11,Pin_11*%
%TO.N,Net-(J3-Pin_2)*%
X152240000Y-81280000D03*
%TO.P,J6,10,Pin_10*%
%TO.N,Net-(J3-Pin_3)*%
X152240000Y-78740000D03*
%TO.P,J6,9,Pin_9*%
%TO.N,Net-(J6-Pin_9)*%
X152240000Y-76200000D03*
%TO.P,J6,8,Pin_8*%
%TO.N,Net-(J6-Pin_8)*%
X152240000Y-73660000D03*
%TO.P,J6,7,Pin_7*%
%TO.N,Net-(J6-Pin_7)*%
X152240000Y-71120000D03*
%TO.P,J6,6,Pin_6*%
%TO.N,Net-(J10-Pin_2)*%
X152240000Y-68580000D03*
%TO.P,J6,5,Pin_5*%
%TO.N,Net-(J10-Pin_4)*%
X152240000Y-66040000D03*
%TO.P,J6,4,Pin_4*%
%TO.N,Net-(J10-Pin_3)*%
X152240000Y-63500000D03*
%TO.P,J6,3,Pin_3*%
%TO.N,Net-(J11-Pin_3)*%
X152240000Y-60960000D03*
%TO.P,J6,2,Pin_2*%
%TO.N,Net-(J11-Pin_4)*%
X152240000Y-58420000D03*
D10*
%TO.P,J6,1,Pin_1*%
%TO.N,Net-(J11-Pin_2)*%
X152240000Y-55880000D03*
%TD*%
%TO.P,SW1,1,1*%
%TO.N,Net-(J12-Pin_1)*%
X208130000Y-52650000D03*
D12*
X214630000Y-52650000D03*
%TO.P,SW1,2,2*%
%TO.N,Net-(J12-Pin_6)*%
X208130000Y-57150000D03*
X214630000Y-57150000D03*
%TD*%
D10*
%TO.P,J18,1,Pin_1*%
%TO.N,Net-(J14-Pin_1)*%
X213360000Y-83820000D03*
D11*
%TO.P,J18,2,Pin_2*%
%TO.N,Net-(J14-Pin_2)*%
X210820000Y-83820000D03*
%TO.P,J18,3,Pin_3*%
%TO.N,Net-(J12-Pin_12)*%
X208280000Y-83820000D03*
%TD*%
D10*
%TO.P,J17,1,Pin_1*%
%TO.N,Net-(J14-Pin_1)*%
X213360000Y-78375000D03*
D11*
%TO.P,J17,2,Pin_2*%
%TO.N,Net-(J14-Pin_2)*%
X210820000Y-78375000D03*
%TO.P,J17,3,Pin_3*%
%TO.N,Net-(J12-Pin_11)*%
X208280000Y-78375000D03*
%TD*%
D10*
%TO.P,J16,1,Pin_1*%
%TO.N,Net-(J14-Pin_1)*%
X213360000Y-73470000D03*
D11*
%TO.P,J16,2,Pin_2*%
%TO.N,Net-(J14-Pin_2)*%
X210820000Y-73470000D03*
%TO.P,J16,3,Pin_3*%
%TO.N,Net-(J12-Pin_10)*%
X208280000Y-73470000D03*
%TD*%
D10*
%TO.P,J15,1,Pin_1*%
%TO.N,Net-(J14-Pin_1)*%
X213360000Y-68820000D03*
D11*
%TO.P,J15,2,Pin_2*%
%TO.N,Net-(J14-Pin_2)*%
X210820000Y-68820000D03*
%TO.P,J15,3,Pin_3*%
%TO.N,Net-(J12-Pin_9)*%
X208280000Y-68820000D03*
%TD*%
D10*
%TO.P,J14,1,Pin_1*%
%TO.N,Net-(J14-Pin_1)*%
X213360000Y-64170000D03*
D11*
%TO.P,J14,2,Pin_2*%
%TO.N,Net-(J14-Pin_2)*%
X210820000Y-64170000D03*
%TO.P,J14,3,Pin_3*%
%TO.N,Net-(J12-Pin_8)*%
X208280000Y-64170000D03*
%TD*%
D10*
%TO.P,J12,1,Pin_1*%
%TO.N,Net-(J12-Pin_1)*%
X201930000Y-53340000D03*
D11*
%TO.P,J12,2,Pin_2*%
%TO.N,Net-(J12-Pin_2)*%
X201930000Y-55880000D03*
%TO.P,J12,3,Pin_3*%
%TO.N,Net-(J12-Pin_3)*%
X201930000Y-58420000D03*
%TO.P,J12,4,Pin_4*%
%TO.N,Net-(J12-Pin_4)*%
X201930000Y-60960000D03*
%TO.P,J12,5,Pin_5*%
%TO.N,Net-(J12-Pin_5)*%
X201930000Y-63500000D03*
%TO.P,J12,6,Pin_6*%
%TO.N,Net-(J12-Pin_6)*%
X201930000Y-66040000D03*
%TO.P,J12,7,Pin_7*%
%TO.N,unconnected-(J12-Pin_7-Pad7)*%
X201930000Y-68580000D03*
%TO.P,J12,8,Pin_8*%
%TO.N,Net-(J12-Pin_8)*%
X201930000Y-71120000D03*
%TO.P,J12,9,Pin_9*%
%TO.N,Net-(J12-Pin_9)*%
X201930000Y-73660000D03*
%TO.P,J12,10,Pin_10*%
%TO.N,Net-(J12-Pin_10)*%
X201930000Y-76200000D03*
%TO.P,J12,11,Pin_11*%
%TO.N,Net-(J12-Pin_11)*%
X201930000Y-78740000D03*
%TO.P,J12,12,Pin_12*%
%TO.N,Net-(J12-Pin_12)*%
X201930000Y-81280000D03*
%TO.P,J12,13,Pin_13*%
%TO.N,unconnected-(J12-Pin_13-Pad13)*%
X201930000Y-83820000D03*
%TO.P,J12,14,Pin_14*%
%TO.N,unconnected-(J12-Pin_14-Pad14)*%
X201930000Y-86360000D03*
%TO.P,J12,15,Pin_15*%
%TO.N,unconnected-(J12-Pin_15-Pad15)*%
X201930000Y-88900000D03*
%TO.P,J12,16,Pin_16*%
%TO.N,unconnected-(J12-Pin_16-Pad16)*%
X201930000Y-91440000D03*
%TO.P,J12,17,Pin_17*%
%TO.N,unconnected-(J12-Pin_17-Pad17)*%
X201930000Y-93980000D03*
%TO.P,J12,18,Pin_18*%
%TO.N,unconnected-(J12-Pin_18-Pad18)*%
X201930000Y-96520000D03*
%TO.P,J12,19,Pin_19*%
%TO.N,unconnected-(J12-Pin_19-Pad19)*%
X201930000Y-99060000D03*
%TD*%
%TO.P,J11,5,Pin_5*%
%TO.N,Net-(J10-Pin_5)*%
X146100000Y-63500000D03*
%TO.P,J11,4,Pin_4*%
%TO.N,Net-(J11-Pin_4)*%
X146100000Y-60960000D03*
%TO.P,J11,3,Pin_3*%
%TO.N,Net-(J11-Pin_3)*%
X146100000Y-58420000D03*
%TO.P,J11,2,Pin_2*%
%TO.N,Net-(J11-Pin_2)*%
X146100000Y-55880000D03*
D10*
%TO.P,J11,1,Pin_1*%
%TO.N,Net-(J10-Pin_1)*%
X146100000Y-53340000D03*
%TD*%
%TO.P,J10,1,Pin_1*%
%TO.N,Net-(J10-Pin_1)*%
X146100000Y-68580000D03*
D11*
%TO.P,J10,2,Pin_2*%
%TO.N,Net-(J10-Pin_2)*%
X146100000Y-71120000D03*
%TO.P,J10,3,Pin_3*%
%TO.N,Net-(J10-Pin_3)*%
X146100000Y-73660000D03*
%TO.P,J10,4,Pin_4*%
%TO.N,Net-(J10-Pin_4)*%
X146100000Y-76200000D03*
%TO.P,J10,5,Pin_5*%
%TO.N,Net-(J10-Pin_5)*%
X146100000Y-78740000D03*
%TD*%
D10*
%TO.P,J9,1,Pin_1*%
%TO.N,Net-(J10-Pin_1)*%
X146075000Y-84000000D03*
D11*
%TO.P,J9,2,Pin_2*%
%TO.N,Net-(J6-Pin_9)*%
X146075000Y-86540000D03*
%TO.P,J9,3,Pin_3*%
%TO.N,Net-(J6-Pin_7)*%
X146075000Y-89080000D03*
%TO.P,J9,4,Pin_4*%
%TO.N,Net-(J6-Pin_8)*%
X146075000Y-91620000D03*
%TO.P,J9,5,Pin_5*%
%TO.N,Net-(J10-Pin_5)*%
X146075000Y-94160000D03*
%TD*%
%TO.P,J8,19,Pin_19*%
%TO.N,Net-(J8-Pin_19)*%
X176555000Y-99060000D03*
%TO.P,J8,18,Pin_18*%
%TO.N,unconnected-(J8-Pin_18-Pad18)*%
X176555000Y-96520000D03*
%TO.P,J8,17,Pin_17*%
%TO.N,unconnected-(J8-Pin_17-Pad17)*%
X176555000Y-93980000D03*
%TO.P,J8,16,Pin_16*%
%TO.N,unconnected-(J8-Pin_16-Pad16)*%
X176555000Y-91440000D03*
%TO.P,J8,15,Pin_15*%
%TO.N,Net-(D1-K)*%
X176555000Y-88900000D03*
%TO.P,J8,14,Pin_14*%
%TO.N,Net-(J10-Pin_5)*%
X176555000Y-86360000D03*
%TO.P,J8,13,Pin_13*%
%TO.N,unconnected-(J8-Pin_13-Pad13)*%
X176555000Y-83820000D03*
%TO.P,J8,12,Pin_12*%
%TO.N,unconnected-(J8-Pin_12-Pad12)*%
X176555000Y-81280000D03*
%TO.P,J8,11,Pin_11*%
%TO.N,Net-(J7-Pin_7)*%
X176555000Y-78740000D03*
%TO.P,J8,10,Pin_10*%
%TO.N,Net-(J7-Pin_6)*%
X176555000Y-76200000D03*
%TO.P,J8,9,Pin_9*%
%TO.N,Net-(J7-Pin_5)*%
X176555000Y-73660000D03*
%TO.P,J8,8,Pin_8*%
%TO.N,Net-(J7-Pin_4)*%
X176555000Y-71120000D03*
%TO.P,J8,7,Pin_7*%
%TO.N,Net-(J5-Pin_5)*%
X176555000Y-68580000D03*
%TO.P,J8,6,Pin_6*%
%TO.N,Net-(J5-Pin_4)*%
X176555000Y-66040000D03*
%TO.P,J8,5,Pin_5*%
%TO.N,Net-(J5-Pin_3)*%
X176555000Y-63500000D03*
%TO.P,J8,4,Pin_4*%
%TO.N,unconnected-(J8-Pin_4-Pad4)*%
X176555000Y-60960000D03*
%TO.P,J8,3,Pin_3*%
%TO.N,Net-(J7-Pin_8)*%
X176555000Y-58420000D03*
%TO.P,J8,2,Pin_2*%
%TO.N,unconnected-(J8-Pin_2-Pad2)*%
X176555000Y-55880000D03*
D10*
%TO.P,J8,1,Pin_1*%
%TO.N,Net-(J10-Pin_1)*%
X176555000Y-53340000D03*
%TD*%
D11*
%TO.P,J4,5,Pin_5*%
%TO.N,Net-(J10-Pin_1)*%
X171280000Y-99060000D03*
%TO.P,J4,4,Pin_4*%
%TO.N,Net-(J4-Pin_4)*%
X168740000Y-99060000D03*
%TO.P,J4,3,Pin_3*%
%TO.N,Net-(J4-Pin_3)*%
X166200000Y-99060000D03*
%TO.P,J4,2,Pin_2*%
%TO.N,Net-(J4-Pin_2)*%
X163660000Y-99060000D03*
D10*
%TO.P,J4,1,Pin_1*%
%TO.N,Net-(J10-Pin_5)*%
X161120000Y-99060000D03*
%TD*%
%TO.P,J3,1,Pin_1*%
%TO.N,Net-(J10-Pin_5)*%
X146100000Y-99060000D03*
D11*
%TO.P,J3,2,Pin_2*%
%TO.N,Net-(J3-Pin_2)*%
X148640000Y-99060000D03*
%TO.P,J3,3,Pin_3*%
%TO.N,Net-(J3-Pin_3)*%
X151180000Y-99060000D03*
%TO.P,J3,4,Pin_4*%
%TO.N,Net-(J3-Pin_4)*%
X153720000Y-99060000D03*
%TO.P,J3,5,Pin_5*%
%TO.N,Net-(J10-Pin_1)*%
X156260000Y-99060000D03*
%TD*%
D13*
%TO.P,D1,2,A*%
%TO.N,Net-(D1-A)*%
X183072290Y-97575488D03*
D14*
%TO.P,D1,1,K*%
%TO.N,Net-(D1-K)*%
X180532290Y-97575488D03*
%TD*%
D15*
%TO.N,Net-(J8-Pin_19)*%
X191135000Y-92075000D03*
%TD*%
D16*
%TO.N,Net-(J8-Pin_19)*%
X180365000Y-95250000D02*
X176555000Y-99060000D01*
X181610000Y-95250000D02*
X180365000Y-95250000D01*
X184785000Y-92075000D02*
X181610000Y-95250000D01*
X191135000Y-92075000D02*
X184785000Y-92075000D01*
%TO.N,Net-(J10-Pin_5)*%
X144925000Y-64675000D02*
X146100000Y-63500000D01*
X146100000Y-78740000D02*
X144925000Y-77565000D01*
X144925000Y-77565000D02*
X144925000Y-64675000D01*
X144900000Y-79940000D02*
X146100000Y-78740000D01*
X144900000Y-92985000D02*
X144900000Y-79940000D01*
X146075000Y-94160000D02*
X144900000Y-92985000D01*
X146100000Y-94185000D02*
X146075000Y-94160000D01*
X146100000Y-99060000D02*
X146100000Y-94185000D01*
X147275000Y-100235000D02*
X146100000Y-99060000D01*
X161120000Y-99060000D02*
X159945000Y-100235000D01*
X159945000Y-100235000D02*
X147275000Y-100235000D01*
X162295000Y-100235000D02*
X161120000Y-99060000D01*
X171766701Y-100235000D02*
X162295000Y-100235000D01*
X172455000Y-90460000D02*
X172455000Y-99546701D01*
X172455000Y-99546701D02*
X171766701Y-100235000D01*
X176555000Y-86360000D02*
X172455000Y-90460000D01*
%TO.N,Net-(J10-Pin_1)*%
X153670000Y-53340000D02*
X162560000Y-62230000D01*
X146100000Y-53340000D02*
X153670000Y-53340000D01*
X170105000Y-97885000D02*
X171280000Y-99060000D01*
X156260000Y-99060000D02*
X157435000Y-97885000D01*
X157435000Y-97885000D02*
X170105000Y-97885000D01*
X154990000Y-97790000D02*
X156260000Y-99060000D01*
X147320000Y-97790000D02*
X154990000Y-97790000D01*
X147320000Y-85245000D02*
X147320000Y-97790000D01*
X146075000Y-84000000D02*
X147320000Y-85245000D01*
X147275000Y-69755000D02*
X147275000Y-82800000D01*
X146100000Y-68580000D02*
X147275000Y-69755000D01*
X147275000Y-82800000D02*
X146075000Y-84000000D01*
X147275000Y-54515000D02*
X147275000Y-67405000D01*
X146100000Y-53340000D02*
X147275000Y-54515000D01*
X147275000Y-67405000D02*
X146100000Y-68580000D01*
X170180000Y-68580000D02*
X168910000Y-68580000D01*
X168910000Y-68580000D02*
X162560000Y-62230000D01*
X172720000Y-57175000D02*
X172720000Y-66040000D01*
X176555000Y-53340000D02*
X172720000Y-57175000D01*
X172720000Y-66040000D02*
X170180000Y-68580000D01*
%TO.N,Net-(J7-Pin_8)*%
X173990000Y-60985000D02*
X176555000Y-58420000D01*
X173990000Y-80010000D02*
X173990000Y-60985000D01*
X170180000Y-83820000D02*
X173990000Y-80010000D01*
%TD*%
M02*
