%TF.GenerationSoftware,KiCad,Pcbnew,8.0.3*%
%TF.CreationDate,2024-07-02T19:52:34-05:00*%
%TF.ProjectId,lucidGloves,6c756369-6447-46c6-9f76-65732e6b6963,rev?*%
%TF.SameCoordinates,Original*%
%TF.FileFunction,Legend,Top*%
%TF.FilePolarity,Positive*%
%FSLAX46Y46*%
G04 Gerber Fmt 4.6, Leading zero omitted, Abs format (unit mm)*
G04 Created by KiCad (PCBNEW 8.0.3) date 2024-07-02 19:52:34*
%MOMM*%
%LPD*%
G01*
G04 APERTURE LIST*
%ADD10C,0.150000*%
%ADD11C,0.120000*%
G04 APERTURE END LIST*
D10*
X209963286Y-80547151D02*
X210534714Y-80547151D01*
X210249000Y-81547151D02*
X210249000Y-80547151D01*
X210868048Y-81547151D02*
X210868048Y-80547151D01*
X211296619Y-81547151D02*
X211296619Y-81023341D01*
X211296619Y-81023341D02*
X211249000Y-80928103D01*
X211249000Y-80928103D02*
X211153762Y-80880484D01*
X211153762Y-80880484D02*
X211010905Y-80880484D01*
X211010905Y-80880484D02*
X210915667Y-80928103D01*
X210915667Y-80928103D02*
X210868048Y-80975722D01*
X212201381Y-80880484D02*
X212201381Y-81547151D01*
X211772810Y-80880484D02*
X211772810Y-81404293D01*
X211772810Y-81404293D02*
X211820429Y-81499532D01*
X211820429Y-81499532D02*
X211915667Y-81547151D01*
X211915667Y-81547151D02*
X212058524Y-81547151D01*
X212058524Y-81547151D02*
X212153762Y-81499532D01*
X212153762Y-81499532D02*
X212201381Y-81451912D01*
X212677572Y-81547151D02*
X212677572Y-80880484D01*
X212677572Y-80975722D02*
X212725191Y-80928103D01*
X212725191Y-80928103D02*
X212820429Y-80880484D01*
X212820429Y-80880484D02*
X212963286Y-80880484D01*
X212963286Y-80880484D02*
X213058524Y-80928103D01*
X213058524Y-80928103D02*
X213106143Y-81023341D01*
X213106143Y-81023341D02*
X213106143Y-81547151D01*
X213106143Y-81023341D02*
X213153762Y-80928103D01*
X213153762Y-80928103D02*
X213249000Y-80880484D01*
X213249000Y-80880484D02*
X213391857Y-80880484D01*
X213391857Y-80880484D02*
X213487096Y-80928103D01*
X213487096Y-80928103D02*
X213534715Y-81023341D01*
X213534715Y-81023341D02*
X213534715Y-81547151D01*
X214010905Y-81547151D02*
X214010905Y-80547151D01*
X214010905Y-80928103D02*
X214106143Y-80880484D01*
X214106143Y-80880484D02*
X214296619Y-80880484D01*
X214296619Y-80880484D02*
X214391857Y-80928103D01*
X214391857Y-80928103D02*
X214439476Y-80975722D01*
X214439476Y-80975722D02*
X214487095Y-81070960D01*
X214487095Y-81070960D02*
X214487095Y-81356674D01*
X214487095Y-81356674D02*
X214439476Y-81451912D01*
X214439476Y-81451912D02*
X214391857Y-81499532D01*
X214391857Y-81499532D02*
X214296619Y-81547151D01*
X214296619Y-81547151D02*
X214106143Y-81547151D01*
X214106143Y-81547151D02*
X214010905Y-81499532D01*
X210941348Y-76347708D02*
X210941348Y-75347708D01*
X211417538Y-75681041D02*
X211417538Y-76347708D01*
X211417538Y-75776279D02*
X211465157Y-75728660D01*
X211465157Y-75728660D02*
X211560395Y-75681041D01*
X211560395Y-75681041D02*
X211703252Y-75681041D01*
X211703252Y-75681041D02*
X211798490Y-75728660D01*
X211798490Y-75728660D02*
X211846109Y-75823898D01*
X211846109Y-75823898D02*
X211846109Y-76347708D01*
X212750871Y-76347708D02*
X212750871Y-75347708D01*
X212750871Y-76300089D02*
X212655633Y-76347708D01*
X212655633Y-76347708D02*
X212465157Y-76347708D01*
X212465157Y-76347708D02*
X212369919Y-76300089D01*
X212369919Y-76300089D02*
X212322300Y-76252469D01*
X212322300Y-76252469D02*
X212274681Y-76157231D01*
X212274681Y-76157231D02*
X212274681Y-75871517D01*
X212274681Y-75871517D02*
X212322300Y-75776279D01*
X212322300Y-75776279D02*
X212369919Y-75728660D01*
X212369919Y-75728660D02*
X212465157Y-75681041D01*
X212465157Y-75681041D02*
X212655633Y-75681041D01*
X212655633Y-75681041D02*
X212750871Y-75728660D01*
X213608014Y-76300089D02*
X213512776Y-76347708D01*
X213512776Y-76347708D02*
X213322300Y-76347708D01*
X213322300Y-76347708D02*
X213227062Y-76300089D01*
X213227062Y-76300089D02*
X213179443Y-76204850D01*
X213179443Y-76204850D02*
X213179443Y-75823898D01*
X213179443Y-75823898D02*
X213227062Y-75728660D01*
X213227062Y-75728660D02*
X213322300Y-75681041D01*
X213322300Y-75681041D02*
X213512776Y-75681041D01*
X213512776Y-75681041D02*
X213608014Y-75728660D01*
X213608014Y-75728660D02*
X213655633Y-75823898D01*
X213655633Y-75823898D02*
X213655633Y-75919136D01*
X213655633Y-75919136D02*
X213179443Y-76014374D01*
X213988967Y-76347708D02*
X214512776Y-75681041D01*
X213988967Y-75681041D02*
X214512776Y-76347708D01*
X210040328Y-71499281D02*
X210040328Y-70499281D01*
X210040328Y-70499281D02*
X210373661Y-71213566D01*
X210373661Y-71213566D02*
X210706994Y-70499281D01*
X210706994Y-70499281D02*
X210706994Y-71499281D01*
X211183185Y-71499281D02*
X211183185Y-70832614D01*
X211183185Y-70499281D02*
X211135566Y-70546900D01*
X211135566Y-70546900D02*
X211183185Y-70594519D01*
X211183185Y-70594519D02*
X211230804Y-70546900D01*
X211230804Y-70546900D02*
X211183185Y-70499281D01*
X211183185Y-70499281D02*
X211183185Y-70594519D01*
X212087946Y-71499281D02*
X212087946Y-70499281D01*
X212087946Y-71451662D02*
X211992708Y-71499281D01*
X211992708Y-71499281D02*
X211802232Y-71499281D01*
X211802232Y-71499281D02*
X211706994Y-71451662D01*
X211706994Y-71451662D02*
X211659375Y-71404042D01*
X211659375Y-71404042D02*
X211611756Y-71308804D01*
X211611756Y-71308804D02*
X211611756Y-71023090D01*
X211611756Y-71023090D02*
X211659375Y-70927852D01*
X211659375Y-70927852D02*
X211706994Y-70880233D01*
X211706994Y-70880233D02*
X211802232Y-70832614D01*
X211802232Y-70832614D02*
X211992708Y-70832614D01*
X211992708Y-70832614D02*
X212087946Y-70880233D01*
X212992708Y-71499281D02*
X212992708Y-70499281D01*
X212992708Y-71451662D02*
X212897470Y-71499281D01*
X212897470Y-71499281D02*
X212706994Y-71499281D01*
X212706994Y-71499281D02*
X212611756Y-71451662D01*
X212611756Y-71451662D02*
X212564137Y-71404042D01*
X212564137Y-71404042D02*
X212516518Y-71308804D01*
X212516518Y-71308804D02*
X212516518Y-71023090D01*
X212516518Y-71023090D02*
X212564137Y-70927852D01*
X212564137Y-70927852D02*
X212611756Y-70880233D01*
X212611756Y-70880233D02*
X212706994Y-70832614D01*
X212706994Y-70832614D02*
X212897470Y-70832614D01*
X212897470Y-70832614D02*
X212992708Y-70880233D01*
X213611756Y-71499281D02*
X213516518Y-71451662D01*
X213516518Y-71451662D02*
X213468899Y-71356423D01*
X213468899Y-71356423D02*
X213468899Y-70499281D01*
X214373661Y-71451662D02*
X214278423Y-71499281D01*
X214278423Y-71499281D02*
X214087947Y-71499281D01*
X214087947Y-71499281D02*
X213992709Y-71451662D01*
X213992709Y-71451662D02*
X213945090Y-71356423D01*
X213945090Y-71356423D02*
X213945090Y-70975471D01*
X213945090Y-70975471D02*
X213992709Y-70880233D01*
X213992709Y-70880233D02*
X214087947Y-70832614D01*
X214087947Y-70832614D02*
X214278423Y-70832614D01*
X214278423Y-70832614D02*
X214373661Y-70880233D01*
X214373661Y-70880233D02*
X214421280Y-70975471D01*
X214421280Y-70975471D02*
X214421280Y-71070709D01*
X214421280Y-71070709D02*
X213945090Y-71165947D01*
X212376890Y-66738609D02*
X212043557Y-66262418D01*
X211805462Y-66738609D02*
X211805462Y-65738609D01*
X211805462Y-65738609D02*
X212186414Y-65738609D01*
X212186414Y-65738609D02*
X212281652Y-65786228D01*
X212281652Y-65786228D02*
X212329271Y-65833847D01*
X212329271Y-65833847D02*
X212376890Y-65929085D01*
X212376890Y-65929085D02*
X212376890Y-66071942D01*
X212376890Y-66071942D02*
X212329271Y-66167180D01*
X212329271Y-66167180D02*
X212281652Y-66214799D01*
X212281652Y-66214799D02*
X212186414Y-66262418D01*
X212186414Y-66262418D02*
X211805462Y-66262418D01*
X212805462Y-66738609D02*
X212805462Y-66071942D01*
X212805462Y-65738609D02*
X212757843Y-65786228D01*
X212757843Y-65786228D02*
X212805462Y-65833847D01*
X212805462Y-65833847D02*
X212853081Y-65786228D01*
X212853081Y-65786228D02*
X212805462Y-65738609D01*
X212805462Y-65738609D02*
X212805462Y-65833847D01*
X213281652Y-66071942D02*
X213281652Y-66738609D01*
X213281652Y-66167180D02*
X213329271Y-66119561D01*
X213329271Y-66119561D02*
X213424509Y-66071942D01*
X213424509Y-66071942D02*
X213567366Y-66071942D01*
X213567366Y-66071942D02*
X213662604Y-66119561D01*
X213662604Y-66119561D02*
X213710223Y-66214799D01*
X213710223Y-66214799D02*
X213710223Y-66738609D01*
X214614985Y-66071942D02*
X214614985Y-66881466D01*
X214614985Y-66881466D02*
X214567366Y-66976704D01*
X214567366Y-66976704D02*
X214519747Y-67024323D01*
X214519747Y-67024323D02*
X214424509Y-67071942D01*
X214424509Y-67071942D02*
X214281652Y-67071942D01*
X214281652Y-67071942D02*
X214186414Y-67024323D01*
X214614985Y-66690990D02*
X214519747Y-66738609D01*
X214519747Y-66738609D02*
X214329271Y-66738609D01*
X214329271Y-66738609D02*
X214234033Y-66690990D01*
X214234033Y-66690990D02*
X214186414Y-66643370D01*
X214186414Y-66643370D02*
X214138795Y-66548132D01*
X214138795Y-66548132D02*
X214138795Y-66262418D01*
X214138795Y-66262418D02*
X214186414Y-66167180D01*
X214186414Y-66167180D02*
X214234033Y-66119561D01*
X214234033Y-66119561D02*
X214329271Y-66071942D01*
X214329271Y-66071942D02*
X214519747Y-66071942D01*
X214519747Y-66071942D02*
X214614985Y-66119561D01*
X210907222Y-62133945D02*
X210907222Y-61133945D01*
X210907222Y-61133945D02*
X211288174Y-61133945D01*
X211288174Y-61133945D02*
X211383412Y-61181564D01*
X211383412Y-61181564D02*
X211431031Y-61229183D01*
X211431031Y-61229183D02*
X211478650Y-61324421D01*
X211478650Y-61324421D02*
X211478650Y-61467278D01*
X211478650Y-61467278D02*
X211431031Y-61562516D01*
X211431031Y-61562516D02*
X211383412Y-61610135D01*
X211383412Y-61610135D02*
X211288174Y-61657754D01*
X211288174Y-61657754D02*
X210907222Y-61657754D01*
X211907222Y-62133945D02*
X211907222Y-61467278D01*
X211907222Y-61133945D02*
X211859603Y-61181564D01*
X211859603Y-61181564D02*
X211907222Y-61229183D01*
X211907222Y-61229183D02*
X211954841Y-61181564D01*
X211954841Y-61181564D02*
X211907222Y-61133945D01*
X211907222Y-61133945D02*
X211907222Y-61229183D01*
X212383412Y-61467278D02*
X212383412Y-62133945D01*
X212383412Y-61562516D02*
X212431031Y-61514897D01*
X212431031Y-61514897D02*
X212526269Y-61467278D01*
X212526269Y-61467278D02*
X212669126Y-61467278D01*
X212669126Y-61467278D02*
X212764364Y-61514897D01*
X212764364Y-61514897D02*
X212811983Y-61610135D01*
X212811983Y-61610135D02*
X212811983Y-62133945D01*
X213288174Y-62133945D02*
X213288174Y-61133945D01*
X213383412Y-61752992D02*
X213669126Y-62133945D01*
X213669126Y-61467278D02*
X213288174Y-61848230D01*
X214002460Y-61467278D02*
X214240555Y-62133945D01*
X214478650Y-61467278D02*
X214240555Y-62133945D01*
X214240555Y-62133945D02*
X214145317Y-62372040D01*
X214145317Y-62372040D02*
X214097698Y-62419659D01*
X214097698Y-62419659D02*
X214002460Y-62467278D01*
X166814997Y-95896844D02*
X167386425Y-95896844D01*
X167100711Y-96896844D02*
X167100711Y-95896844D01*
X167719759Y-96896844D02*
X167719759Y-95896844D01*
X168148330Y-96896844D02*
X168148330Y-96373034D01*
X168148330Y-96373034D02*
X168100711Y-96277796D01*
X168100711Y-96277796D02*
X168005473Y-96230177D01*
X168005473Y-96230177D02*
X167862616Y-96230177D01*
X167862616Y-96230177D02*
X167767378Y-96277796D01*
X167767378Y-96277796D02*
X167719759Y-96325415D01*
X169053092Y-96230177D02*
X169053092Y-96896844D01*
X168624521Y-96230177D02*
X168624521Y-96753986D01*
X168624521Y-96753986D02*
X168672140Y-96849225D01*
X168672140Y-96849225D02*
X168767378Y-96896844D01*
X168767378Y-96896844D02*
X168910235Y-96896844D01*
X168910235Y-96896844D02*
X169005473Y-96849225D01*
X169005473Y-96849225D02*
X169053092Y-96801605D01*
X169529283Y-96896844D02*
X169529283Y-96230177D01*
X169529283Y-96325415D02*
X169576902Y-96277796D01*
X169576902Y-96277796D02*
X169672140Y-96230177D01*
X169672140Y-96230177D02*
X169814997Y-96230177D01*
X169814997Y-96230177D02*
X169910235Y-96277796D01*
X169910235Y-96277796D02*
X169957854Y-96373034D01*
X169957854Y-96373034D02*
X169957854Y-96896844D01*
X169957854Y-96373034D02*
X170005473Y-96277796D01*
X170005473Y-96277796D02*
X170100711Y-96230177D01*
X170100711Y-96230177D02*
X170243568Y-96230177D01*
X170243568Y-96230177D02*
X170338807Y-96277796D01*
X170338807Y-96277796D02*
X170386426Y-96373034D01*
X170386426Y-96373034D02*
X170386426Y-96896844D01*
X170862616Y-96896844D02*
X170862616Y-95896844D01*
X170862616Y-96277796D02*
X170957854Y-96230177D01*
X170957854Y-96230177D02*
X171148330Y-96230177D01*
X171148330Y-96230177D02*
X171243568Y-96277796D01*
X171243568Y-96277796D02*
X171291187Y-96325415D01*
X171291187Y-96325415D02*
X171338806Y-96420653D01*
X171338806Y-96420653D02*
X171338806Y-96706367D01*
X171338806Y-96706367D02*
X171291187Y-96801605D01*
X171291187Y-96801605D02*
X171243568Y-96849225D01*
X171243568Y-96849225D02*
X171148330Y-96896844D01*
X171148330Y-96896844D02*
X170957854Y-96896844D01*
X170957854Y-96896844D02*
X170862616Y-96849225D01*
X145220377Y-97115622D02*
X145220377Y-96115622D01*
X145696567Y-96448955D02*
X145696567Y-97115622D01*
X145696567Y-96544193D02*
X145744186Y-96496574D01*
X145744186Y-96496574D02*
X145839424Y-96448955D01*
X145839424Y-96448955D02*
X145982281Y-96448955D01*
X145982281Y-96448955D02*
X146077519Y-96496574D01*
X146077519Y-96496574D02*
X146125138Y-96591812D01*
X146125138Y-96591812D02*
X146125138Y-97115622D01*
X147029900Y-97115622D02*
X147029900Y-96115622D01*
X147029900Y-97068003D02*
X146934662Y-97115622D01*
X146934662Y-97115622D02*
X146744186Y-97115622D01*
X146744186Y-97115622D02*
X146648948Y-97068003D01*
X146648948Y-97068003D02*
X146601329Y-97020383D01*
X146601329Y-97020383D02*
X146553710Y-96925145D01*
X146553710Y-96925145D02*
X146553710Y-96639431D01*
X146553710Y-96639431D02*
X146601329Y-96544193D01*
X146601329Y-96544193D02*
X146648948Y-96496574D01*
X146648948Y-96496574D02*
X146744186Y-96448955D01*
X146744186Y-96448955D02*
X146934662Y-96448955D01*
X146934662Y-96448955D02*
X147029900Y-96496574D01*
X147887043Y-97068003D02*
X147791805Y-97115622D01*
X147791805Y-97115622D02*
X147601329Y-97115622D01*
X147601329Y-97115622D02*
X147506091Y-97068003D01*
X147506091Y-97068003D02*
X147458472Y-96972764D01*
X147458472Y-96972764D02*
X147458472Y-96591812D01*
X147458472Y-96591812D02*
X147506091Y-96496574D01*
X147506091Y-96496574D02*
X147601329Y-96448955D01*
X147601329Y-96448955D02*
X147791805Y-96448955D01*
X147791805Y-96448955D02*
X147887043Y-96496574D01*
X147887043Y-96496574D02*
X147934662Y-96591812D01*
X147934662Y-96591812D02*
X147934662Y-96687050D01*
X147934662Y-96687050D02*
X147458472Y-96782288D01*
X148267996Y-97115622D02*
X148791805Y-96448955D01*
X148267996Y-96448955D02*
X148791805Y-97115622D01*
X149729819Y-94913220D02*
X148729819Y-94913220D01*
X148729819Y-94913220D02*
X149444104Y-94579887D01*
X149444104Y-94579887D02*
X148729819Y-94246554D01*
X148729819Y-94246554D02*
X149729819Y-94246554D01*
X149729819Y-93770363D02*
X149063152Y-93770363D01*
X148729819Y-93770363D02*
X148777438Y-93817982D01*
X148777438Y-93817982D02*
X148825057Y-93770363D01*
X148825057Y-93770363D02*
X148777438Y-93722744D01*
X148777438Y-93722744D02*
X148729819Y-93770363D01*
X148729819Y-93770363D02*
X148825057Y-93770363D01*
X149729819Y-92865602D02*
X148729819Y-92865602D01*
X149682200Y-92865602D02*
X149729819Y-92960840D01*
X149729819Y-92960840D02*
X149729819Y-93151316D01*
X149729819Y-93151316D02*
X149682200Y-93246554D01*
X149682200Y-93246554D02*
X149634580Y-93294173D01*
X149634580Y-93294173D02*
X149539342Y-93341792D01*
X149539342Y-93341792D02*
X149253628Y-93341792D01*
X149253628Y-93341792D02*
X149158390Y-93294173D01*
X149158390Y-93294173D02*
X149110771Y-93246554D01*
X149110771Y-93246554D02*
X149063152Y-93151316D01*
X149063152Y-93151316D02*
X149063152Y-92960840D01*
X149063152Y-92960840D02*
X149110771Y-92865602D01*
X149729819Y-91960840D02*
X148729819Y-91960840D01*
X149682200Y-91960840D02*
X149729819Y-92056078D01*
X149729819Y-92056078D02*
X149729819Y-92246554D01*
X149729819Y-92246554D02*
X149682200Y-92341792D01*
X149682200Y-92341792D02*
X149634580Y-92389411D01*
X149634580Y-92389411D02*
X149539342Y-92437030D01*
X149539342Y-92437030D02*
X149253628Y-92437030D01*
X149253628Y-92437030D02*
X149158390Y-92389411D01*
X149158390Y-92389411D02*
X149110771Y-92341792D01*
X149110771Y-92341792D02*
X149063152Y-92246554D01*
X149063152Y-92246554D02*
X149063152Y-92056078D01*
X149063152Y-92056078D02*
X149110771Y-91960840D01*
X149729819Y-91341792D02*
X149682200Y-91437030D01*
X149682200Y-91437030D02*
X149586961Y-91484649D01*
X149586961Y-91484649D02*
X148729819Y-91484649D01*
X149682200Y-90579887D02*
X149729819Y-90675125D01*
X149729819Y-90675125D02*
X149729819Y-90865601D01*
X149729819Y-90865601D02*
X149682200Y-90960839D01*
X149682200Y-90960839D02*
X149586961Y-91008458D01*
X149586961Y-91008458D02*
X149206009Y-91008458D01*
X149206009Y-91008458D02*
X149110771Y-90960839D01*
X149110771Y-90960839D02*
X149063152Y-90865601D01*
X149063152Y-90865601D02*
X149063152Y-90675125D01*
X149063152Y-90675125D02*
X149110771Y-90579887D01*
X149110771Y-90579887D02*
X149206009Y-90532268D01*
X149206009Y-90532268D02*
X149301247Y-90532268D01*
X149301247Y-90532268D02*
X149396485Y-91008458D01*
X149729819Y-68941792D02*
X149253628Y-69275125D01*
X149729819Y-69513220D02*
X148729819Y-69513220D01*
X148729819Y-69513220D02*
X148729819Y-69132268D01*
X148729819Y-69132268D02*
X148777438Y-69037030D01*
X148777438Y-69037030D02*
X148825057Y-68989411D01*
X148825057Y-68989411D02*
X148920295Y-68941792D01*
X148920295Y-68941792D02*
X149063152Y-68941792D01*
X149063152Y-68941792D02*
X149158390Y-68989411D01*
X149158390Y-68989411D02*
X149206009Y-69037030D01*
X149206009Y-69037030D02*
X149253628Y-69132268D01*
X149253628Y-69132268D02*
X149253628Y-69513220D01*
X149729819Y-68513220D02*
X149063152Y-68513220D01*
X148729819Y-68513220D02*
X148777438Y-68560839D01*
X148777438Y-68560839D02*
X148825057Y-68513220D01*
X148825057Y-68513220D02*
X148777438Y-68465601D01*
X148777438Y-68465601D02*
X148729819Y-68513220D01*
X148729819Y-68513220D02*
X148825057Y-68513220D01*
X149063152Y-68037030D02*
X149729819Y-68037030D01*
X149158390Y-68037030D02*
X149110771Y-67989411D01*
X149110771Y-67989411D02*
X149063152Y-67894173D01*
X149063152Y-67894173D02*
X149063152Y-67751316D01*
X149063152Y-67751316D02*
X149110771Y-67656078D01*
X149110771Y-67656078D02*
X149206009Y-67608459D01*
X149206009Y-67608459D02*
X149729819Y-67608459D01*
X149063152Y-66703697D02*
X149872676Y-66703697D01*
X149872676Y-66703697D02*
X149967914Y-66751316D01*
X149967914Y-66751316D02*
X150015533Y-66798935D01*
X150015533Y-66798935D02*
X150063152Y-66894173D01*
X150063152Y-66894173D02*
X150063152Y-67037030D01*
X150063152Y-67037030D02*
X150015533Y-67132268D01*
X149682200Y-66703697D02*
X149729819Y-66798935D01*
X149729819Y-66798935D02*
X149729819Y-66989411D01*
X149729819Y-66989411D02*
X149682200Y-67084649D01*
X149682200Y-67084649D02*
X149634580Y-67132268D01*
X149634580Y-67132268D02*
X149539342Y-67179887D01*
X149539342Y-67179887D02*
X149253628Y-67179887D01*
X149253628Y-67179887D02*
X149158390Y-67132268D01*
X149158390Y-67132268D02*
X149110771Y-67084649D01*
X149110771Y-67084649D02*
X149063152Y-66989411D01*
X149063152Y-66989411D02*
X149063152Y-66798935D01*
X149063152Y-66798935D02*
X149110771Y-66703697D01*
X149729819Y-63163220D02*
X148729819Y-63163220D01*
X148729819Y-63163220D02*
X148729819Y-62782268D01*
X148729819Y-62782268D02*
X148777438Y-62687030D01*
X148777438Y-62687030D02*
X148825057Y-62639411D01*
X148825057Y-62639411D02*
X148920295Y-62591792D01*
X148920295Y-62591792D02*
X149063152Y-62591792D01*
X149063152Y-62591792D02*
X149158390Y-62639411D01*
X149158390Y-62639411D02*
X149206009Y-62687030D01*
X149206009Y-62687030D02*
X149253628Y-62782268D01*
X149253628Y-62782268D02*
X149253628Y-63163220D01*
X149729819Y-62163220D02*
X149063152Y-62163220D01*
X148729819Y-62163220D02*
X148777438Y-62210839D01*
X148777438Y-62210839D02*
X148825057Y-62163220D01*
X148825057Y-62163220D02*
X148777438Y-62115601D01*
X148777438Y-62115601D02*
X148729819Y-62163220D01*
X148729819Y-62163220D02*
X148825057Y-62163220D01*
X149063152Y-61687030D02*
X149729819Y-61687030D01*
X149158390Y-61687030D02*
X149110771Y-61639411D01*
X149110771Y-61639411D02*
X149063152Y-61544173D01*
X149063152Y-61544173D02*
X149063152Y-61401316D01*
X149063152Y-61401316D02*
X149110771Y-61306078D01*
X149110771Y-61306078D02*
X149206009Y-61258459D01*
X149206009Y-61258459D02*
X149729819Y-61258459D01*
X149729819Y-60782268D02*
X148729819Y-60782268D01*
X149348866Y-60687030D02*
X149729819Y-60401316D01*
X149063152Y-60401316D02*
X149444104Y-60782268D01*
X149063152Y-60067982D02*
X149729819Y-59829887D01*
X149063152Y-59591792D02*
X149729819Y-59829887D01*
X149729819Y-59829887D02*
X149967914Y-59925125D01*
X149967914Y-59925125D02*
X150015533Y-59972744D01*
X150015533Y-59972744D02*
X150063152Y-60067982D01*
X205152857Y-88382256D02*
X205295714Y-88429875D01*
X205295714Y-88429875D02*
X205533809Y-88429875D01*
X205533809Y-88429875D02*
X205629047Y-88382256D01*
X205629047Y-88382256D02*
X205676666Y-88334636D01*
X205676666Y-88334636D02*
X205724285Y-88239398D01*
X205724285Y-88239398D02*
X205724285Y-88144160D01*
X205724285Y-88144160D02*
X205676666Y-88048922D01*
X205676666Y-88048922D02*
X205629047Y-88001303D01*
X205629047Y-88001303D02*
X205533809Y-87953684D01*
X205533809Y-87953684D02*
X205343333Y-87906065D01*
X205343333Y-87906065D02*
X205248095Y-87858446D01*
X205248095Y-87858446D02*
X205200476Y-87810827D01*
X205200476Y-87810827D02*
X205152857Y-87715589D01*
X205152857Y-87715589D02*
X205152857Y-87620351D01*
X205152857Y-87620351D02*
X205200476Y-87525113D01*
X205200476Y-87525113D02*
X205248095Y-87477494D01*
X205248095Y-87477494D02*
X205343333Y-87429875D01*
X205343333Y-87429875D02*
X205581428Y-87429875D01*
X205581428Y-87429875D02*
X205724285Y-87477494D01*
X206533809Y-88382256D02*
X206438571Y-88429875D01*
X206438571Y-88429875D02*
X206248095Y-88429875D01*
X206248095Y-88429875D02*
X206152857Y-88382256D01*
X206152857Y-88382256D02*
X206105238Y-88287017D01*
X206105238Y-88287017D02*
X206105238Y-87906065D01*
X206105238Y-87906065D02*
X206152857Y-87810827D01*
X206152857Y-87810827D02*
X206248095Y-87763208D01*
X206248095Y-87763208D02*
X206438571Y-87763208D01*
X206438571Y-87763208D02*
X206533809Y-87810827D01*
X206533809Y-87810827D02*
X206581428Y-87906065D01*
X206581428Y-87906065D02*
X206581428Y-88001303D01*
X206581428Y-88001303D02*
X206105238Y-88096541D01*
X207010000Y-88429875D02*
X207010000Y-87763208D01*
X207010000Y-87953684D02*
X207057619Y-87858446D01*
X207057619Y-87858446D02*
X207105238Y-87810827D01*
X207105238Y-87810827D02*
X207200476Y-87763208D01*
X207200476Y-87763208D02*
X207295714Y-87763208D01*
X207533810Y-87763208D02*
X207771905Y-88429875D01*
X207771905Y-88429875D02*
X208010000Y-87763208D01*
X208533810Y-88429875D02*
X208438572Y-88382256D01*
X208438572Y-88382256D02*
X208390953Y-88334636D01*
X208390953Y-88334636D02*
X208343334Y-88239398D01*
X208343334Y-88239398D02*
X208343334Y-87953684D01*
X208343334Y-87953684D02*
X208390953Y-87858446D01*
X208390953Y-87858446D02*
X208438572Y-87810827D01*
X208438572Y-87810827D02*
X208533810Y-87763208D01*
X208533810Y-87763208D02*
X208676667Y-87763208D01*
X208676667Y-87763208D02*
X208771905Y-87810827D01*
X208771905Y-87810827D02*
X208819524Y-87858446D01*
X208819524Y-87858446D02*
X208867143Y-87953684D01*
X208867143Y-87953684D02*
X208867143Y-88239398D01*
X208867143Y-88239398D02*
X208819524Y-88334636D01*
X208819524Y-88334636D02*
X208771905Y-88382256D01*
X208771905Y-88382256D02*
X208676667Y-88429875D01*
X208676667Y-88429875D02*
X208533810Y-88429875D01*
X205081428Y-89373152D02*
X205081428Y-90373152D01*
X205081428Y-89420771D02*
X205176666Y-89373152D01*
X205176666Y-89373152D02*
X205367142Y-89373152D01*
X205367142Y-89373152D02*
X205462380Y-89420771D01*
X205462380Y-89420771D02*
X205509999Y-89468390D01*
X205509999Y-89468390D02*
X205557618Y-89563628D01*
X205557618Y-89563628D02*
X205557618Y-89849342D01*
X205557618Y-89849342D02*
X205509999Y-89944580D01*
X205509999Y-89944580D02*
X205462380Y-89992200D01*
X205462380Y-89992200D02*
X205367142Y-90039819D01*
X205367142Y-90039819D02*
X205176666Y-90039819D01*
X205176666Y-90039819D02*
X205081428Y-89992200D01*
X206129047Y-90039819D02*
X206033809Y-89992200D01*
X206033809Y-89992200D02*
X205986190Y-89944580D01*
X205986190Y-89944580D02*
X205938571Y-89849342D01*
X205938571Y-89849342D02*
X205938571Y-89563628D01*
X205938571Y-89563628D02*
X205986190Y-89468390D01*
X205986190Y-89468390D02*
X206033809Y-89420771D01*
X206033809Y-89420771D02*
X206129047Y-89373152D01*
X206129047Y-89373152D02*
X206271904Y-89373152D01*
X206271904Y-89373152D02*
X206367142Y-89420771D01*
X206367142Y-89420771D02*
X206414761Y-89468390D01*
X206414761Y-89468390D02*
X206462380Y-89563628D01*
X206462380Y-89563628D02*
X206462380Y-89849342D01*
X206462380Y-89849342D02*
X206414761Y-89944580D01*
X206414761Y-89944580D02*
X206367142Y-89992200D01*
X206367142Y-89992200D02*
X206271904Y-90039819D01*
X206271904Y-90039819D02*
X206129047Y-90039819D01*
X206795714Y-89373152D02*
X206986190Y-90039819D01*
X206986190Y-90039819D02*
X207176666Y-89563628D01*
X207176666Y-89563628D02*
X207367142Y-90039819D01*
X207367142Y-90039819D02*
X207557618Y-89373152D01*
X208319523Y-89992200D02*
X208224285Y-90039819D01*
X208224285Y-90039819D02*
X208033809Y-90039819D01*
X208033809Y-90039819D02*
X207938571Y-89992200D01*
X207938571Y-89992200D02*
X207890952Y-89896961D01*
X207890952Y-89896961D02*
X207890952Y-89516009D01*
X207890952Y-89516009D02*
X207938571Y-89420771D01*
X207938571Y-89420771D02*
X208033809Y-89373152D01*
X208033809Y-89373152D02*
X208224285Y-89373152D01*
X208224285Y-89373152D02*
X208319523Y-89420771D01*
X208319523Y-89420771D02*
X208367142Y-89516009D01*
X208367142Y-89516009D02*
X208367142Y-89611247D01*
X208367142Y-89611247D02*
X207890952Y-89706485D01*
X208795714Y-90039819D02*
X208795714Y-89373152D01*
X208795714Y-89563628D02*
X208843333Y-89468390D01*
X208843333Y-89468390D02*
X208890952Y-89420771D01*
X208890952Y-89420771D02*
X208986190Y-89373152D01*
X208986190Y-89373152D02*
X209081428Y-89373152D01*
X185063333Y-85366065D02*
X185396666Y-85366065D01*
X185539523Y-85889875D02*
X185063333Y-85889875D01*
X185063333Y-85889875D02*
X185063333Y-84889875D01*
X185063333Y-84889875D02*
X185539523Y-84889875D01*
X185920476Y-85842256D02*
X186063333Y-85889875D01*
X186063333Y-85889875D02*
X186301428Y-85889875D01*
X186301428Y-85889875D02*
X186396666Y-85842256D01*
X186396666Y-85842256D02*
X186444285Y-85794636D01*
X186444285Y-85794636D02*
X186491904Y-85699398D01*
X186491904Y-85699398D02*
X186491904Y-85604160D01*
X186491904Y-85604160D02*
X186444285Y-85508922D01*
X186444285Y-85508922D02*
X186396666Y-85461303D01*
X186396666Y-85461303D02*
X186301428Y-85413684D01*
X186301428Y-85413684D02*
X186110952Y-85366065D01*
X186110952Y-85366065D02*
X186015714Y-85318446D01*
X186015714Y-85318446D02*
X185968095Y-85270827D01*
X185968095Y-85270827D02*
X185920476Y-85175589D01*
X185920476Y-85175589D02*
X185920476Y-85080351D01*
X185920476Y-85080351D02*
X185968095Y-84985113D01*
X185968095Y-84985113D02*
X186015714Y-84937494D01*
X186015714Y-84937494D02*
X186110952Y-84889875D01*
X186110952Y-84889875D02*
X186349047Y-84889875D01*
X186349047Y-84889875D02*
X186491904Y-84937494D01*
X186920476Y-85889875D02*
X186920476Y-84889875D01*
X186920476Y-84889875D02*
X187301428Y-84889875D01*
X187301428Y-84889875D02*
X187396666Y-84937494D01*
X187396666Y-84937494D02*
X187444285Y-84985113D01*
X187444285Y-84985113D02*
X187491904Y-85080351D01*
X187491904Y-85080351D02*
X187491904Y-85223208D01*
X187491904Y-85223208D02*
X187444285Y-85318446D01*
X187444285Y-85318446D02*
X187396666Y-85366065D01*
X187396666Y-85366065D02*
X187301428Y-85413684D01*
X187301428Y-85413684D02*
X186920476Y-85413684D01*
X188634761Y-84842256D02*
X187777619Y-86127970D01*
X188920476Y-85842256D02*
X189015714Y-85889875D01*
X189015714Y-85889875D02*
X189206190Y-85889875D01*
X189206190Y-85889875D02*
X189301428Y-85842256D01*
X189301428Y-85842256D02*
X189349047Y-85747017D01*
X189349047Y-85747017D02*
X189349047Y-85699398D01*
X189349047Y-85699398D02*
X189301428Y-85604160D01*
X189301428Y-85604160D02*
X189206190Y-85556541D01*
X189206190Y-85556541D02*
X189063333Y-85556541D01*
X189063333Y-85556541D02*
X188968095Y-85508922D01*
X188968095Y-85508922D02*
X188920476Y-85413684D01*
X188920476Y-85413684D02*
X188920476Y-85366065D01*
X188920476Y-85366065D02*
X188968095Y-85270827D01*
X188968095Y-85270827D02*
X189063333Y-85223208D01*
X189063333Y-85223208D02*
X189206190Y-85223208D01*
X189206190Y-85223208D02*
X189301428Y-85270827D01*
X190158571Y-85842256D02*
X190063333Y-85889875D01*
X190063333Y-85889875D02*
X189872857Y-85889875D01*
X189872857Y-85889875D02*
X189777619Y-85842256D01*
X189777619Y-85842256D02*
X189730000Y-85747017D01*
X189730000Y-85747017D02*
X189730000Y-85366065D01*
X189730000Y-85366065D02*
X189777619Y-85270827D01*
X189777619Y-85270827D02*
X189872857Y-85223208D01*
X189872857Y-85223208D02*
X190063333Y-85223208D01*
X190063333Y-85223208D02*
X190158571Y-85270827D01*
X190158571Y-85270827D02*
X190206190Y-85366065D01*
X190206190Y-85366065D02*
X190206190Y-85461303D01*
X190206190Y-85461303D02*
X189730000Y-85556541D01*
X190634762Y-85223208D02*
X190634762Y-85889875D01*
X190634762Y-85318446D02*
X190682381Y-85270827D01*
X190682381Y-85270827D02*
X190777619Y-85223208D01*
X190777619Y-85223208D02*
X190920476Y-85223208D01*
X190920476Y-85223208D02*
X191015714Y-85270827D01*
X191015714Y-85270827D02*
X191063333Y-85366065D01*
X191063333Y-85366065D02*
X191063333Y-85889875D01*
X191491905Y-85842256D02*
X191587143Y-85889875D01*
X191587143Y-85889875D02*
X191777619Y-85889875D01*
X191777619Y-85889875D02*
X191872857Y-85842256D01*
X191872857Y-85842256D02*
X191920476Y-85747017D01*
X191920476Y-85747017D02*
X191920476Y-85699398D01*
X191920476Y-85699398D02*
X191872857Y-85604160D01*
X191872857Y-85604160D02*
X191777619Y-85556541D01*
X191777619Y-85556541D02*
X191634762Y-85556541D01*
X191634762Y-85556541D02*
X191539524Y-85508922D01*
X191539524Y-85508922D02*
X191491905Y-85413684D01*
X191491905Y-85413684D02*
X191491905Y-85366065D01*
X191491905Y-85366065D02*
X191539524Y-85270827D01*
X191539524Y-85270827D02*
X191634762Y-85223208D01*
X191634762Y-85223208D02*
X191777619Y-85223208D01*
X191777619Y-85223208D02*
X191872857Y-85270827D01*
X192491905Y-85889875D02*
X192396667Y-85842256D01*
X192396667Y-85842256D02*
X192349048Y-85794636D01*
X192349048Y-85794636D02*
X192301429Y-85699398D01*
X192301429Y-85699398D02*
X192301429Y-85413684D01*
X192301429Y-85413684D02*
X192349048Y-85318446D01*
X192349048Y-85318446D02*
X192396667Y-85270827D01*
X192396667Y-85270827D02*
X192491905Y-85223208D01*
X192491905Y-85223208D02*
X192634762Y-85223208D01*
X192634762Y-85223208D02*
X192730000Y-85270827D01*
X192730000Y-85270827D02*
X192777619Y-85318446D01*
X192777619Y-85318446D02*
X192825238Y-85413684D01*
X192825238Y-85413684D02*
X192825238Y-85699398D01*
X192825238Y-85699398D02*
X192777619Y-85794636D01*
X192777619Y-85794636D02*
X192730000Y-85842256D01*
X192730000Y-85842256D02*
X192634762Y-85889875D01*
X192634762Y-85889875D02*
X192491905Y-85889875D01*
X193253810Y-85889875D02*
X193253810Y-85223208D01*
X193253810Y-85413684D02*
X193301429Y-85318446D01*
X193301429Y-85318446D02*
X193349048Y-85270827D01*
X193349048Y-85270827D02*
X193444286Y-85223208D01*
X193444286Y-85223208D02*
X193539524Y-85223208D01*
X187301428Y-86833152D02*
X187301428Y-87833152D01*
X187301428Y-86880771D02*
X187396666Y-86833152D01*
X187396666Y-86833152D02*
X187587142Y-86833152D01*
X187587142Y-86833152D02*
X187682380Y-86880771D01*
X187682380Y-86880771D02*
X187729999Y-86928390D01*
X187729999Y-86928390D02*
X187777618Y-87023628D01*
X187777618Y-87023628D02*
X187777618Y-87309342D01*
X187777618Y-87309342D02*
X187729999Y-87404580D01*
X187729999Y-87404580D02*
X187682380Y-87452200D01*
X187682380Y-87452200D02*
X187587142Y-87499819D01*
X187587142Y-87499819D02*
X187396666Y-87499819D01*
X187396666Y-87499819D02*
X187301428Y-87452200D01*
X188349047Y-87499819D02*
X188253809Y-87452200D01*
X188253809Y-87452200D02*
X188206190Y-87404580D01*
X188206190Y-87404580D02*
X188158571Y-87309342D01*
X188158571Y-87309342D02*
X188158571Y-87023628D01*
X188158571Y-87023628D02*
X188206190Y-86928390D01*
X188206190Y-86928390D02*
X188253809Y-86880771D01*
X188253809Y-86880771D02*
X188349047Y-86833152D01*
X188349047Y-86833152D02*
X188491904Y-86833152D01*
X188491904Y-86833152D02*
X188587142Y-86880771D01*
X188587142Y-86880771D02*
X188634761Y-86928390D01*
X188634761Y-86928390D02*
X188682380Y-87023628D01*
X188682380Y-87023628D02*
X188682380Y-87309342D01*
X188682380Y-87309342D02*
X188634761Y-87404580D01*
X188634761Y-87404580D02*
X188587142Y-87452200D01*
X188587142Y-87452200D02*
X188491904Y-87499819D01*
X188491904Y-87499819D02*
X188349047Y-87499819D01*
X189015714Y-86833152D02*
X189206190Y-87499819D01*
X189206190Y-87499819D02*
X189396666Y-87023628D01*
X189396666Y-87023628D02*
X189587142Y-87499819D01*
X189587142Y-87499819D02*
X189777618Y-86833152D01*
X190539523Y-87452200D02*
X190444285Y-87499819D01*
X190444285Y-87499819D02*
X190253809Y-87499819D01*
X190253809Y-87499819D02*
X190158571Y-87452200D01*
X190158571Y-87452200D02*
X190110952Y-87356961D01*
X190110952Y-87356961D02*
X190110952Y-86976009D01*
X190110952Y-86976009D02*
X190158571Y-86880771D01*
X190158571Y-86880771D02*
X190253809Y-86833152D01*
X190253809Y-86833152D02*
X190444285Y-86833152D01*
X190444285Y-86833152D02*
X190539523Y-86880771D01*
X190539523Y-86880771D02*
X190587142Y-86976009D01*
X190587142Y-86976009D02*
X190587142Y-87071247D01*
X190587142Y-87071247D02*
X190110952Y-87166485D01*
X191015714Y-87499819D02*
X191015714Y-86833152D01*
X191015714Y-87023628D02*
X191063333Y-86928390D01*
X191063333Y-86928390D02*
X191110952Y-86880771D01*
X191110952Y-86880771D02*
X191206190Y-86833152D01*
X191206190Y-86833152D02*
X191301428Y-86833152D01*
X183340476Y-64929819D02*
X183340476Y-65644104D01*
X183340476Y-65644104D02*
X183292857Y-65786961D01*
X183292857Y-65786961D02*
X183197619Y-65882200D01*
X183197619Y-65882200D02*
X183054762Y-65929819D01*
X183054762Y-65929819D02*
X182959524Y-65929819D01*
X184340476Y-65929819D02*
X183769048Y-65929819D01*
X184054762Y-65929819D02*
X184054762Y-64929819D01*
X184054762Y-64929819D02*
X183959524Y-65072676D01*
X183959524Y-65072676D02*
X183864286Y-65167914D01*
X183864286Y-65167914D02*
X183769048Y-65215533D01*
X184673810Y-64929819D02*
X185292857Y-64929819D01*
X185292857Y-64929819D02*
X184959524Y-65310771D01*
X184959524Y-65310771D02*
X185102381Y-65310771D01*
X185102381Y-65310771D02*
X185197619Y-65358390D01*
X185197619Y-65358390D02*
X185245238Y-65406009D01*
X185245238Y-65406009D02*
X185292857Y-65501247D01*
X185292857Y-65501247D02*
X185292857Y-65739342D01*
X185292857Y-65739342D02*
X185245238Y-65834580D01*
X185245238Y-65834580D02*
X185197619Y-65882200D01*
X185197619Y-65882200D02*
X185102381Y-65929819D01*
X185102381Y-65929819D02*
X184816667Y-65929819D01*
X184816667Y-65929819D02*
X184721429Y-65882200D01*
X184721429Y-65882200D02*
X184673810Y-65834580D01*
X158416666Y-64224819D02*
X158416666Y-64939104D01*
X158416666Y-64939104D02*
X158369047Y-65081961D01*
X158369047Y-65081961D02*
X158273809Y-65177200D01*
X158273809Y-65177200D02*
X158130952Y-65224819D01*
X158130952Y-65224819D02*
X158035714Y-65224819D01*
X159369047Y-64224819D02*
X158892857Y-64224819D01*
X158892857Y-64224819D02*
X158845238Y-64701009D01*
X158845238Y-64701009D02*
X158892857Y-64653390D01*
X158892857Y-64653390D02*
X158988095Y-64605771D01*
X158988095Y-64605771D02*
X159226190Y-64605771D01*
X159226190Y-64605771D02*
X159321428Y-64653390D01*
X159321428Y-64653390D02*
X159369047Y-64701009D01*
X159369047Y-64701009D02*
X159416666Y-64796247D01*
X159416666Y-64796247D02*
X159416666Y-65034342D01*
X159416666Y-65034342D02*
X159369047Y-65129580D01*
X159369047Y-65129580D02*
X159321428Y-65177200D01*
X159321428Y-65177200D02*
X159226190Y-65224819D01*
X159226190Y-65224819D02*
X158988095Y-65224819D01*
X158988095Y-65224819D02*
X158892857Y-65177200D01*
X158892857Y-65177200D02*
X158845238Y-65129580D01*
X167094819Y-71453333D02*
X167809104Y-71453333D01*
X167809104Y-71453333D02*
X167951961Y-71500952D01*
X167951961Y-71500952D02*
X168047200Y-71596190D01*
X168047200Y-71596190D02*
X168094819Y-71739047D01*
X168094819Y-71739047D02*
X168094819Y-71834285D01*
X167094819Y-71072380D02*
X167094819Y-70405714D01*
X167094819Y-70405714D02*
X168094819Y-70834285D01*
X154394819Y-73993333D02*
X155109104Y-73993333D01*
X155109104Y-73993333D02*
X155251961Y-74040952D01*
X155251961Y-74040952D02*
X155347200Y-74136190D01*
X155347200Y-74136190D02*
X155394819Y-74279047D01*
X155394819Y-74279047D02*
X155394819Y-74374285D01*
X154394819Y-73088571D02*
X154394819Y-73279047D01*
X154394819Y-73279047D02*
X154442438Y-73374285D01*
X154442438Y-73374285D02*
X154490057Y-73421904D01*
X154490057Y-73421904D02*
X154632914Y-73517142D01*
X154632914Y-73517142D02*
X154823390Y-73564761D01*
X154823390Y-73564761D02*
X155204342Y-73564761D01*
X155204342Y-73564761D02*
X155299580Y-73517142D01*
X155299580Y-73517142D02*
X155347200Y-73469523D01*
X155347200Y-73469523D02*
X155394819Y-73374285D01*
X155394819Y-73374285D02*
X155394819Y-73183809D01*
X155394819Y-73183809D02*
X155347200Y-73088571D01*
X155347200Y-73088571D02*
X155299580Y-73040952D01*
X155299580Y-73040952D02*
X155204342Y-72993333D01*
X155204342Y-72993333D02*
X154966247Y-72993333D01*
X154966247Y-72993333D02*
X154871009Y-73040952D01*
X154871009Y-73040952D02*
X154823390Y-73088571D01*
X154823390Y-73088571D02*
X154775771Y-73183809D01*
X154775771Y-73183809D02*
X154775771Y-73374285D01*
X154775771Y-73374285D02*
X154823390Y-73469523D01*
X154823390Y-73469523D02*
X154871009Y-73517142D01*
X154871009Y-73517142D02*
X154966247Y-73564761D01*
X160485435Y-88994054D02*
X160485435Y-87994054D01*
X160485435Y-88470244D02*
X161056863Y-88470244D01*
X161056863Y-88994054D02*
X161056863Y-87994054D01*
X161961625Y-87994054D02*
X161771149Y-87994054D01*
X161771149Y-87994054D02*
X161675911Y-88041673D01*
X161675911Y-88041673D02*
X161628292Y-88089292D01*
X161628292Y-88089292D02*
X161533054Y-88232149D01*
X161533054Y-88232149D02*
X161485435Y-88422625D01*
X161485435Y-88422625D02*
X161485435Y-88803577D01*
X161485435Y-88803577D02*
X161533054Y-88898815D01*
X161533054Y-88898815D02*
X161580673Y-88946435D01*
X161580673Y-88946435D02*
X161675911Y-88994054D01*
X161675911Y-88994054D02*
X161866387Y-88994054D01*
X161866387Y-88994054D02*
X161961625Y-88946435D01*
X161961625Y-88946435D02*
X162009244Y-88898815D01*
X162009244Y-88898815D02*
X162056863Y-88803577D01*
X162056863Y-88803577D02*
X162056863Y-88565482D01*
X162056863Y-88565482D02*
X162009244Y-88470244D01*
X162009244Y-88470244D02*
X161961625Y-88422625D01*
X161961625Y-88422625D02*
X161866387Y-88375006D01*
X161866387Y-88375006D02*
X161675911Y-88375006D01*
X161675911Y-88375006D02*
X161580673Y-88422625D01*
X161580673Y-88422625D02*
X161533054Y-88470244D01*
X161533054Y-88470244D02*
X161485435Y-88565482D01*
X160452527Y-73461538D02*
X160452527Y-72461538D01*
X160452527Y-72937728D02*
X161023955Y-72937728D01*
X161023955Y-73461538D02*
X161023955Y-72461538D01*
X161976336Y-72461538D02*
X161500146Y-72461538D01*
X161500146Y-72461538D02*
X161452527Y-72937728D01*
X161452527Y-72937728D02*
X161500146Y-72890109D01*
X161500146Y-72890109D02*
X161595384Y-72842490D01*
X161595384Y-72842490D02*
X161833479Y-72842490D01*
X161833479Y-72842490D02*
X161928717Y-72890109D01*
X161928717Y-72890109D02*
X161976336Y-72937728D01*
X161976336Y-72937728D02*
X162023955Y-73032966D01*
X162023955Y-73032966D02*
X162023955Y-73271061D01*
X162023955Y-73271061D02*
X161976336Y-73366299D01*
X161976336Y-73366299D02*
X161928717Y-73413919D01*
X161928717Y-73413919D02*
X161833479Y-73461538D01*
X161833479Y-73461538D02*
X161595384Y-73461538D01*
X161595384Y-73461538D02*
X161500146Y-73413919D01*
X161500146Y-73413919D02*
X161452527Y-73366299D01*
X192208623Y-73856433D02*
X192208623Y-72856433D01*
X192208623Y-73332623D02*
X192780051Y-73332623D01*
X192780051Y-73856433D02*
X192780051Y-72856433D01*
X193161004Y-72856433D02*
X193780051Y-72856433D01*
X193780051Y-72856433D02*
X193446718Y-73237385D01*
X193446718Y-73237385D02*
X193589575Y-73237385D01*
X193589575Y-73237385D02*
X193684813Y-73285004D01*
X193684813Y-73285004D02*
X193732432Y-73332623D01*
X193732432Y-73332623D02*
X193780051Y-73427861D01*
X193780051Y-73427861D02*
X193780051Y-73665956D01*
X193780051Y-73665956D02*
X193732432Y-73761194D01*
X193732432Y-73761194D02*
X193684813Y-73808814D01*
X193684813Y-73808814D02*
X193589575Y-73856433D01*
X193589575Y-73856433D02*
X193303861Y-73856433D01*
X193303861Y-73856433D02*
X193208623Y-73808814D01*
X193208623Y-73808814D02*
X193161004Y-73761194D01*
X209486667Y-60097200D02*
X209629524Y-60144819D01*
X209629524Y-60144819D02*
X209867619Y-60144819D01*
X209867619Y-60144819D02*
X209962857Y-60097200D01*
X209962857Y-60097200D02*
X210010476Y-60049580D01*
X210010476Y-60049580D02*
X210058095Y-59954342D01*
X210058095Y-59954342D02*
X210058095Y-59859104D01*
X210058095Y-59859104D02*
X210010476Y-59763866D01*
X210010476Y-59763866D02*
X209962857Y-59716247D01*
X209962857Y-59716247D02*
X209867619Y-59668628D01*
X209867619Y-59668628D02*
X209677143Y-59621009D01*
X209677143Y-59621009D02*
X209581905Y-59573390D01*
X209581905Y-59573390D02*
X209534286Y-59525771D01*
X209534286Y-59525771D02*
X209486667Y-59430533D01*
X209486667Y-59430533D02*
X209486667Y-59335295D01*
X209486667Y-59335295D02*
X209534286Y-59240057D01*
X209534286Y-59240057D02*
X209581905Y-59192438D01*
X209581905Y-59192438D02*
X209677143Y-59144819D01*
X209677143Y-59144819D02*
X209915238Y-59144819D01*
X209915238Y-59144819D02*
X210058095Y-59192438D01*
X210391429Y-59144819D02*
X210629524Y-60144819D01*
X210629524Y-60144819D02*
X210820000Y-59430533D01*
X210820000Y-59430533D02*
X211010476Y-60144819D01*
X211010476Y-60144819D02*
X211248572Y-59144819D01*
X212153333Y-60144819D02*
X211581905Y-60144819D01*
X211867619Y-60144819D02*
X211867619Y-59144819D01*
X211867619Y-59144819D02*
X211772381Y-59287676D01*
X211772381Y-59287676D02*
X211677143Y-59382914D01*
X211677143Y-59382914D02*
X211581905Y-59430533D01*
X215144819Y-84629523D02*
X215859104Y-84629523D01*
X215859104Y-84629523D02*
X216001961Y-84677142D01*
X216001961Y-84677142D02*
X216097200Y-84772380D01*
X216097200Y-84772380D02*
X216144819Y-84915237D01*
X216144819Y-84915237D02*
X216144819Y-85010475D01*
X216144819Y-83629523D02*
X216144819Y-84200951D01*
X216144819Y-83915237D02*
X215144819Y-83915237D01*
X215144819Y-83915237D02*
X215287676Y-84010475D01*
X215287676Y-84010475D02*
X215382914Y-84105713D01*
X215382914Y-84105713D02*
X215430533Y-84200951D01*
X215573390Y-83058094D02*
X215525771Y-83153332D01*
X215525771Y-83153332D02*
X215478152Y-83200951D01*
X215478152Y-83200951D02*
X215382914Y-83248570D01*
X215382914Y-83248570D02*
X215335295Y-83248570D01*
X215335295Y-83248570D02*
X215240057Y-83200951D01*
X215240057Y-83200951D02*
X215192438Y-83153332D01*
X215192438Y-83153332D02*
X215144819Y-83058094D01*
X215144819Y-83058094D02*
X215144819Y-82867618D01*
X215144819Y-82867618D02*
X215192438Y-82772380D01*
X215192438Y-82772380D02*
X215240057Y-82724761D01*
X215240057Y-82724761D02*
X215335295Y-82677142D01*
X215335295Y-82677142D02*
X215382914Y-82677142D01*
X215382914Y-82677142D02*
X215478152Y-82724761D01*
X215478152Y-82724761D02*
X215525771Y-82772380D01*
X215525771Y-82772380D02*
X215573390Y-82867618D01*
X215573390Y-82867618D02*
X215573390Y-83058094D01*
X215573390Y-83058094D02*
X215621009Y-83153332D01*
X215621009Y-83153332D02*
X215668628Y-83200951D01*
X215668628Y-83200951D02*
X215763866Y-83248570D01*
X215763866Y-83248570D02*
X215954342Y-83248570D01*
X215954342Y-83248570D02*
X216049580Y-83200951D01*
X216049580Y-83200951D02*
X216097200Y-83153332D01*
X216097200Y-83153332D02*
X216144819Y-83058094D01*
X216144819Y-83058094D02*
X216144819Y-82867618D01*
X216144819Y-82867618D02*
X216097200Y-82772380D01*
X216097200Y-82772380D02*
X216049580Y-82724761D01*
X216049580Y-82724761D02*
X215954342Y-82677142D01*
X215954342Y-82677142D02*
X215763866Y-82677142D01*
X215763866Y-82677142D02*
X215668628Y-82724761D01*
X215668628Y-82724761D02*
X215621009Y-82772380D01*
X215621009Y-82772380D02*
X215573390Y-82867618D01*
X215144819Y-79184523D02*
X215859104Y-79184523D01*
X215859104Y-79184523D02*
X216001961Y-79232142D01*
X216001961Y-79232142D02*
X216097200Y-79327380D01*
X216097200Y-79327380D02*
X216144819Y-79470237D01*
X216144819Y-79470237D02*
X216144819Y-79565475D01*
X216144819Y-78184523D02*
X216144819Y-78755951D01*
X216144819Y-78470237D02*
X215144819Y-78470237D01*
X215144819Y-78470237D02*
X215287676Y-78565475D01*
X215287676Y-78565475D02*
X215382914Y-78660713D01*
X215382914Y-78660713D02*
X215430533Y-78755951D01*
X215144819Y-77851189D02*
X215144819Y-77184523D01*
X215144819Y-77184523D02*
X216144819Y-77613094D01*
X215144819Y-74279523D02*
X215859104Y-74279523D01*
X215859104Y-74279523D02*
X216001961Y-74327142D01*
X216001961Y-74327142D02*
X216097200Y-74422380D01*
X216097200Y-74422380D02*
X216144819Y-74565237D01*
X216144819Y-74565237D02*
X216144819Y-74660475D01*
X216144819Y-73279523D02*
X216144819Y-73850951D01*
X216144819Y-73565237D02*
X215144819Y-73565237D01*
X215144819Y-73565237D02*
X215287676Y-73660475D01*
X215287676Y-73660475D02*
X215382914Y-73755713D01*
X215382914Y-73755713D02*
X215430533Y-73850951D01*
X215144819Y-72422380D02*
X215144819Y-72612856D01*
X215144819Y-72612856D02*
X215192438Y-72708094D01*
X215192438Y-72708094D02*
X215240057Y-72755713D01*
X215240057Y-72755713D02*
X215382914Y-72850951D01*
X215382914Y-72850951D02*
X215573390Y-72898570D01*
X215573390Y-72898570D02*
X215954342Y-72898570D01*
X215954342Y-72898570D02*
X216049580Y-72850951D01*
X216049580Y-72850951D02*
X216097200Y-72803332D01*
X216097200Y-72803332D02*
X216144819Y-72708094D01*
X216144819Y-72708094D02*
X216144819Y-72517618D01*
X216144819Y-72517618D02*
X216097200Y-72422380D01*
X216097200Y-72422380D02*
X216049580Y-72374761D01*
X216049580Y-72374761D02*
X215954342Y-72327142D01*
X215954342Y-72327142D02*
X215716247Y-72327142D01*
X215716247Y-72327142D02*
X215621009Y-72374761D01*
X215621009Y-72374761D02*
X215573390Y-72422380D01*
X215573390Y-72422380D02*
X215525771Y-72517618D01*
X215525771Y-72517618D02*
X215525771Y-72708094D01*
X215525771Y-72708094D02*
X215573390Y-72803332D01*
X215573390Y-72803332D02*
X215621009Y-72850951D01*
X215621009Y-72850951D02*
X215716247Y-72898570D01*
X215144819Y-69629523D02*
X215859104Y-69629523D01*
X215859104Y-69629523D02*
X216001961Y-69677142D01*
X216001961Y-69677142D02*
X216097200Y-69772380D01*
X216097200Y-69772380D02*
X216144819Y-69915237D01*
X216144819Y-69915237D02*
X216144819Y-70010475D01*
X216144819Y-68629523D02*
X216144819Y-69200951D01*
X216144819Y-68915237D02*
X215144819Y-68915237D01*
X215144819Y-68915237D02*
X215287676Y-69010475D01*
X215287676Y-69010475D02*
X215382914Y-69105713D01*
X215382914Y-69105713D02*
X215430533Y-69200951D01*
X215144819Y-67724761D02*
X215144819Y-68200951D01*
X215144819Y-68200951D02*
X215621009Y-68248570D01*
X215621009Y-68248570D02*
X215573390Y-68200951D01*
X215573390Y-68200951D02*
X215525771Y-68105713D01*
X215525771Y-68105713D02*
X215525771Y-67867618D01*
X215525771Y-67867618D02*
X215573390Y-67772380D01*
X215573390Y-67772380D02*
X215621009Y-67724761D01*
X215621009Y-67724761D02*
X215716247Y-67677142D01*
X215716247Y-67677142D02*
X215954342Y-67677142D01*
X215954342Y-67677142D02*
X216049580Y-67724761D01*
X216049580Y-67724761D02*
X216097200Y-67772380D01*
X216097200Y-67772380D02*
X216144819Y-67867618D01*
X216144819Y-67867618D02*
X216144819Y-68105713D01*
X216144819Y-68105713D02*
X216097200Y-68200951D01*
X216097200Y-68200951D02*
X216049580Y-68248570D01*
X215144819Y-64979523D02*
X215859104Y-64979523D01*
X215859104Y-64979523D02*
X216001961Y-65027142D01*
X216001961Y-65027142D02*
X216097200Y-65122380D01*
X216097200Y-65122380D02*
X216144819Y-65265237D01*
X216144819Y-65265237D02*
X216144819Y-65360475D01*
X216144819Y-63979523D02*
X216144819Y-64550951D01*
X216144819Y-64265237D02*
X215144819Y-64265237D01*
X215144819Y-64265237D02*
X215287676Y-64360475D01*
X215287676Y-64360475D02*
X215382914Y-64455713D01*
X215382914Y-64455713D02*
X215430533Y-64550951D01*
X215478152Y-63122380D02*
X216144819Y-63122380D01*
X215097200Y-63360475D02*
X215811485Y-63598570D01*
X215811485Y-63598570D02*
X215811485Y-62979523D01*
X198844819Y-75739523D02*
X199559104Y-75739523D01*
X199559104Y-75739523D02*
X199701961Y-75787142D01*
X199701961Y-75787142D02*
X199797200Y-75882380D01*
X199797200Y-75882380D02*
X199844819Y-76025237D01*
X199844819Y-76025237D02*
X199844819Y-76120475D01*
X199844819Y-74739523D02*
X199844819Y-75310951D01*
X199844819Y-75025237D02*
X198844819Y-75025237D01*
X198844819Y-75025237D02*
X198987676Y-75120475D01*
X198987676Y-75120475D02*
X199082914Y-75215713D01*
X199082914Y-75215713D02*
X199130533Y-75310951D01*
X198940057Y-74358570D02*
X198892438Y-74310951D01*
X198892438Y-74310951D02*
X198844819Y-74215713D01*
X198844819Y-74215713D02*
X198844819Y-73977618D01*
X198844819Y-73977618D02*
X198892438Y-73882380D01*
X198892438Y-73882380D02*
X198940057Y-73834761D01*
X198940057Y-73834761D02*
X199035295Y-73787142D01*
X199035295Y-73787142D02*
X199130533Y-73787142D01*
X199130533Y-73787142D02*
X199273390Y-73834761D01*
X199273390Y-73834761D02*
X199844819Y-74406189D01*
X199844819Y-74406189D02*
X199844819Y-73787142D01*
X148097364Y-54098946D02*
X148097364Y-54813231D01*
X148097364Y-54813231D02*
X148049745Y-54956088D01*
X148049745Y-54956088D02*
X147954507Y-55051327D01*
X147954507Y-55051327D02*
X147811650Y-55098946D01*
X147811650Y-55098946D02*
X147716412Y-55098946D01*
X149097364Y-55098946D02*
X148525936Y-55098946D01*
X148811650Y-55098946D02*
X148811650Y-54098946D01*
X148811650Y-54098946D02*
X148716412Y-54241803D01*
X148716412Y-54241803D02*
X148621174Y-54337041D01*
X148621174Y-54337041D02*
X148525936Y-54384660D01*
X150049745Y-55098946D02*
X149478317Y-55098946D01*
X149764031Y-55098946D02*
X149764031Y-54098946D01*
X149764031Y-54098946D02*
X149668793Y-54241803D01*
X149668793Y-54241803D02*
X149573555Y-54337041D01*
X149573555Y-54337041D02*
X149478317Y-54384660D01*
X145290476Y-65704819D02*
X145290476Y-66419104D01*
X145290476Y-66419104D02*
X145242857Y-66561961D01*
X145242857Y-66561961D02*
X145147619Y-66657200D01*
X145147619Y-66657200D02*
X145004762Y-66704819D01*
X145004762Y-66704819D02*
X144909524Y-66704819D01*
X146290476Y-66704819D02*
X145719048Y-66704819D01*
X146004762Y-66704819D02*
X146004762Y-65704819D01*
X146004762Y-65704819D02*
X145909524Y-65847676D01*
X145909524Y-65847676D02*
X145814286Y-65942914D01*
X145814286Y-65942914D02*
X145719048Y-65990533D01*
X146909524Y-65704819D02*
X147004762Y-65704819D01*
X147004762Y-65704819D02*
X147100000Y-65752438D01*
X147100000Y-65752438D02*
X147147619Y-65800057D01*
X147147619Y-65800057D02*
X147195238Y-65895295D01*
X147195238Y-65895295D02*
X147242857Y-66085771D01*
X147242857Y-66085771D02*
X147242857Y-66323866D01*
X147242857Y-66323866D02*
X147195238Y-66514342D01*
X147195238Y-66514342D02*
X147147619Y-66609580D01*
X147147619Y-66609580D02*
X147100000Y-66657200D01*
X147100000Y-66657200D02*
X147004762Y-66704819D01*
X147004762Y-66704819D02*
X146909524Y-66704819D01*
X146909524Y-66704819D02*
X146814286Y-66657200D01*
X146814286Y-66657200D02*
X146766667Y-66609580D01*
X146766667Y-66609580D02*
X146719048Y-66514342D01*
X146719048Y-66514342D02*
X146671429Y-66323866D01*
X146671429Y-66323866D02*
X146671429Y-66085771D01*
X146671429Y-66085771D02*
X146719048Y-65895295D01*
X146719048Y-65895295D02*
X146766667Y-65800057D01*
X146766667Y-65800057D02*
X146814286Y-65752438D01*
X146814286Y-65752438D02*
X146909524Y-65704819D01*
X145716666Y-80734819D02*
X145716666Y-81449104D01*
X145716666Y-81449104D02*
X145669047Y-81591961D01*
X145669047Y-81591961D02*
X145573809Y-81687200D01*
X145573809Y-81687200D02*
X145430952Y-81734819D01*
X145430952Y-81734819D02*
X145335714Y-81734819D01*
X146240476Y-81734819D02*
X146430952Y-81734819D01*
X146430952Y-81734819D02*
X146526190Y-81687200D01*
X146526190Y-81687200D02*
X146573809Y-81639580D01*
X146573809Y-81639580D02*
X146669047Y-81496723D01*
X146669047Y-81496723D02*
X146716666Y-81306247D01*
X146716666Y-81306247D02*
X146716666Y-80925295D01*
X146716666Y-80925295D02*
X146669047Y-80830057D01*
X146669047Y-80830057D02*
X146621428Y-80782438D01*
X146621428Y-80782438D02*
X146526190Y-80734819D01*
X146526190Y-80734819D02*
X146335714Y-80734819D01*
X146335714Y-80734819D02*
X146240476Y-80782438D01*
X146240476Y-80782438D02*
X146192857Y-80830057D01*
X146192857Y-80830057D02*
X146145238Y-80925295D01*
X146145238Y-80925295D02*
X146145238Y-81163390D01*
X146145238Y-81163390D02*
X146192857Y-81258628D01*
X146192857Y-81258628D02*
X146240476Y-81306247D01*
X146240476Y-81306247D02*
X146335714Y-81353866D01*
X146335714Y-81353866D02*
X146526190Y-81353866D01*
X146526190Y-81353866D02*
X146621428Y-81306247D01*
X146621428Y-81306247D02*
X146669047Y-81258628D01*
X146669047Y-81258628D02*
X146716666Y-81163390D01*
X178524819Y-76533333D02*
X179239104Y-76533333D01*
X179239104Y-76533333D02*
X179381961Y-76580952D01*
X179381961Y-76580952D02*
X179477200Y-76676190D01*
X179477200Y-76676190D02*
X179524819Y-76819047D01*
X179524819Y-76819047D02*
X179524819Y-76914285D01*
X178953390Y-75914285D02*
X178905771Y-76009523D01*
X178905771Y-76009523D02*
X178858152Y-76057142D01*
X178858152Y-76057142D02*
X178762914Y-76104761D01*
X178762914Y-76104761D02*
X178715295Y-76104761D01*
X178715295Y-76104761D02*
X178620057Y-76057142D01*
X178620057Y-76057142D02*
X178572438Y-76009523D01*
X178572438Y-76009523D02*
X178524819Y-75914285D01*
X178524819Y-75914285D02*
X178524819Y-75723809D01*
X178524819Y-75723809D02*
X178572438Y-75628571D01*
X178572438Y-75628571D02*
X178620057Y-75580952D01*
X178620057Y-75580952D02*
X178715295Y-75533333D01*
X178715295Y-75533333D02*
X178762914Y-75533333D01*
X178762914Y-75533333D02*
X178858152Y-75580952D01*
X178858152Y-75580952D02*
X178905771Y-75628571D01*
X178905771Y-75628571D02*
X178953390Y-75723809D01*
X178953390Y-75723809D02*
X178953390Y-75914285D01*
X178953390Y-75914285D02*
X179001009Y-76009523D01*
X179001009Y-76009523D02*
X179048628Y-76057142D01*
X179048628Y-76057142D02*
X179143866Y-76104761D01*
X179143866Y-76104761D02*
X179334342Y-76104761D01*
X179334342Y-76104761D02*
X179429580Y-76057142D01*
X179429580Y-76057142D02*
X179477200Y-76009523D01*
X179477200Y-76009523D02*
X179524819Y-75914285D01*
X179524819Y-75914285D02*
X179524819Y-75723809D01*
X179524819Y-75723809D02*
X179477200Y-75628571D01*
X179477200Y-75628571D02*
X179429580Y-75580952D01*
X179429580Y-75580952D02*
X179334342Y-75533333D01*
X179334342Y-75533333D02*
X179143866Y-75533333D01*
X179143866Y-75533333D02*
X179048628Y-75580952D01*
X179048628Y-75580952D02*
X179001009Y-75628571D01*
X179001009Y-75628571D02*
X178953390Y-75723809D01*
X164280361Y-94375740D02*
X164280361Y-95090025D01*
X164280361Y-95090025D02*
X164232742Y-95232882D01*
X164232742Y-95232882D02*
X164137504Y-95328121D01*
X164137504Y-95328121D02*
X163994647Y-95375740D01*
X163994647Y-95375740D02*
X163899409Y-95375740D01*
X165185123Y-94709073D02*
X165185123Y-95375740D01*
X164947028Y-94328121D02*
X164708933Y-95042406D01*
X164708933Y-95042406D02*
X165327980Y-95042406D01*
X153336666Y-95974819D02*
X153336666Y-96689104D01*
X153336666Y-96689104D02*
X153289047Y-96831961D01*
X153289047Y-96831961D02*
X153193809Y-96927200D01*
X153193809Y-96927200D02*
X153050952Y-96974819D01*
X153050952Y-96974819D02*
X152955714Y-96974819D01*
X153717619Y-95974819D02*
X154336666Y-95974819D01*
X154336666Y-95974819D02*
X154003333Y-96355771D01*
X154003333Y-96355771D02*
X154146190Y-96355771D01*
X154146190Y-96355771D02*
X154241428Y-96403390D01*
X154241428Y-96403390D02*
X154289047Y-96451009D01*
X154289047Y-96451009D02*
X154336666Y-96546247D01*
X154336666Y-96546247D02*
X154336666Y-96784342D01*
X154336666Y-96784342D02*
X154289047Y-96879580D01*
X154289047Y-96879580D02*
X154241428Y-96927200D01*
X154241428Y-96927200D02*
X154146190Y-96974819D01*
X154146190Y-96974819D02*
X153860476Y-96974819D01*
X153860476Y-96974819D02*
X153765238Y-96927200D01*
X153765238Y-96927200D02*
X153717619Y-96879580D01*
X184681905Y-100784819D02*
X184681905Y-99784819D01*
X184681905Y-99784819D02*
X184920000Y-99784819D01*
X184920000Y-99784819D02*
X185062857Y-99832438D01*
X185062857Y-99832438D02*
X185158095Y-99927676D01*
X185158095Y-99927676D02*
X185205714Y-100022914D01*
X185205714Y-100022914D02*
X185253333Y-100213390D01*
X185253333Y-100213390D02*
X185253333Y-100356247D01*
X185253333Y-100356247D02*
X185205714Y-100546723D01*
X185205714Y-100546723D02*
X185158095Y-100641961D01*
X185158095Y-100641961D02*
X185062857Y-100737200D01*
X185062857Y-100737200D02*
X184920000Y-100784819D01*
X184920000Y-100784819D02*
X184681905Y-100784819D01*
X186205714Y-100784819D02*
X185634286Y-100784819D01*
X185920000Y-100784819D02*
X185920000Y-99784819D01*
X185920000Y-99784819D02*
X185824762Y-99927676D01*
X185824762Y-99927676D02*
X185729524Y-100022914D01*
X185729524Y-100022914D02*
X185634286Y-100070533D01*
D11*
%TO.C,J19*%
X188440000Y-94480000D02*
X188440000Y-96110000D01*
X197640000Y-94480000D02*
X197640000Y-96110000D01*
%TO.C,J1*%
X206223213Y-94280148D02*
X206223213Y-95910148D01*
X215423213Y-94280148D02*
X215423213Y-95910148D01*
%TO.C,J13*%
X182885000Y-63500000D02*
X182885000Y-62230000D01*
X184155000Y-63500000D02*
X182885000Y-63500000D01*
X186315000Y-61187071D02*
X186315000Y-60790000D01*
X187075000Y-61187071D02*
X187075000Y-60790000D01*
X188855000Y-61187071D02*
X188855000Y-60790000D01*
X189615000Y-61187071D02*
X189615000Y-60790000D01*
X191395000Y-61187071D02*
X191395000Y-60790000D01*
X192155000Y-61187071D02*
X192155000Y-60790000D01*
X193935000Y-61187071D02*
X193935000Y-60790000D01*
X194695000Y-61187071D02*
X194695000Y-60790000D01*
X183775000Y-61120000D02*
X183775000Y-60790000D01*
X184535000Y-61120000D02*
X184535000Y-60790000D01*
X182825000Y-60790000D02*
X195645000Y-60790000D01*
X185425000Y-60790000D02*
X185425000Y-58130000D01*
X187965000Y-60790000D02*
X187965000Y-58130000D01*
X190505000Y-60790000D02*
X190505000Y-58130000D01*
X193045000Y-60790000D02*
X193045000Y-58130000D01*
X195645000Y-60790000D02*
X195645000Y-58130000D01*
X182825000Y-58130000D02*
X182825000Y-60790000D01*
X183775000Y-58130000D02*
X183775000Y-52130000D01*
X183835000Y-58130000D02*
X183835000Y-52130000D01*
X183955000Y-58130000D02*
X183955000Y-52130000D01*
X184075000Y-58130000D02*
X184075000Y-52130000D01*
X184195000Y-58130000D02*
X184195000Y-52130000D01*
X184315000Y-58130000D02*
X184315000Y-52130000D01*
X184435000Y-58130000D02*
X184435000Y-52130000D01*
X186315000Y-58130000D02*
X186315000Y-52130000D01*
X188855000Y-58130000D02*
X188855000Y-52130000D01*
X191395000Y-58130000D02*
X191395000Y-52130000D01*
X193935000Y-58130000D02*
X193935000Y-52130000D01*
X195645000Y-58130000D02*
X182825000Y-58130000D01*
X183775000Y-52130000D02*
X184535000Y-52130000D01*
X184535000Y-52130000D02*
X184535000Y-58130000D01*
X186315000Y-52130000D02*
X187075000Y-52130000D01*
X187075000Y-52130000D02*
X187075000Y-58130000D01*
X188855000Y-52130000D02*
X189615000Y-52130000D01*
X189615000Y-52130000D02*
X189615000Y-58130000D01*
X191395000Y-52130000D02*
X192155000Y-52130000D01*
X192155000Y-52130000D02*
X192155000Y-58130000D01*
X193935000Y-52130000D02*
X194695000Y-52130000D01*
X194695000Y-52130000D02*
X194695000Y-58130000D01*
%TO.C,J5*%
X158750000Y-63500000D02*
X158750000Y-62230000D01*
X160020000Y-63500000D02*
X158750000Y-63500000D01*
X162180000Y-61187071D02*
X162180000Y-60790000D01*
X162940000Y-61187071D02*
X162940000Y-60790000D01*
X164720000Y-61187071D02*
X164720000Y-60790000D01*
X165480000Y-61187071D02*
X165480000Y-60790000D01*
X167260000Y-61187071D02*
X167260000Y-60790000D01*
X168020000Y-61187071D02*
X168020000Y-60790000D01*
X169800000Y-61187071D02*
X169800000Y-60790000D01*
X170560000Y-61187071D02*
X170560000Y-60790000D01*
X159640000Y-61120000D02*
X159640000Y-60790000D01*
X160400000Y-61120000D02*
X160400000Y-60790000D01*
X158690000Y-60790000D02*
X171510000Y-60790000D01*
X161290000Y-60790000D02*
X161290000Y-58130000D01*
X163830000Y-60790000D02*
X163830000Y-58130000D01*
X166370000Y-60790000D02*
X166370000Y-58130000D01*
X168910000Y-60790000D02*
X168910000Y-58130000D01*
X171510000Y-60790000D02*
X171510000Y-58130000D01*
X158690000Y-58130000D02*
X158690000Y-60790000D01*
X159640000Y-58130000D02*
X159640000Y-52130000D01*
X159700000Y-58130000D02*
X159700000Y-52130000D01*
X159820000Y-58130000D02*
X159820000Y-52130000D01*
X159940000Y-58130000D02*
X159940000Y-52130000D01*
X160060000Y-58130000D02*
X160060000Y-52130000D01*
X160180000Y-58130000D02*
X160180000Y-52130000D01*
X160300000Y-58130000D02*
X160300000Y-52130000D01*
X162180000Y-58130000D02*
X162180000Y-52130000D01*
X164720000Y-58130000D02*
X164720000Y-52130000D01*
X167260000Y-58130000D02*
X167260000Y-52130000D01*
X169800000Y-58130000D02*
X169800000Y-52130000D01*
X171510000Y-58130000D02*
X158690000Y-58130000D01*
X159640000Y-52130000D02*
X160400000Y-52130000D01*
X160400000Y-52130000D02*
X160400000Y-58130000D01*
X162180000Y-52130000D02*
X162940000Y-52130000D01*
X162940000Y-52130000D02*
X162940000Y-58130000D01*
X164720000Y-52130000D02*
X165480000Y-52130000D01*
X165480000Y-52130000D02*
X165480000Y-58130000D01*
X167260000Y-52130000D02*
X168020000Y-52130000D01*
X168020000Y-52130000D02*
X168020000Y-58130000D01*
X169800000Y-52130000D02*
X170560000Y-52130000D01*
X170560000Y-52130000D02*
X170560000Y-58130000D01*
%TO.C,J7*%
X171510000Y-67310000D02*
X171510000Y-85150000D01*
X168850000Y-85150000D02*
X171510000Y-85150000D01*
X168850000Y-67310000D02*
X171510000Y-67310000D01*
X168850000Y-67310000D02*
X168850000Y-85150000D01*
X168850000Y-66040000D02*
X168850000Y-64710000D01*
X168850000Y-64710000D02*
X170180000Y-64710000D01*
%TO.C,J6*%
X153570000Y-57150000D02*
X153570000Y-95310000D01*
X150910000Y-95310000D02*
X153570000Y-95310000D01*
X150910000Y-57150000D02*
X153570000Y-57150000D01*
X150910000Y-57150000D02*
X150910000Y-95310000D01*
X150910000Y-55880000D02*
X150910000Y-54550000D01*
X150910000Y-54550000D02*
X152240000Y-54550000D01*
%TO.C,SW1*%
X208260000Y-56050000D02*
X208260000Y-53850000D01*
X208730000Y-58020000D02*
X213930000Y-58020000D01*
X209330000Y-51780000D02*
X213730000Y-51780000D01*
X214500000Y-53850000D02*
X214500000Y-56050000D01*
X212794214Y-54900000D02*
G75*
G02*
X209965786Y-54900000I-1414214J0D01*
G01*
X209965786Y-54900000D02*
G75*
G02*
X212794214Y-54900000I1414214J0D01*
G01*
%TO.C,R1*%
X212297742Y-90437500D02*
X212772258Y-90437500D01*
X212297742Y-89392500D02*
X212772258Y-89392500D01*
%TO.C,R3*%
X182862500Y-92122742D02*
X182862500Y-92597258D01*
X181817500Y-92122742D02*
X181817500Y-92597258D01*
%TO.C,R2*%
X194517742Y-89647500D02*
X194992258Y-89647500D01*
X194517742Y-90692500D02*
X194992258Y-90692500D01*
%TO.C,J18*%
X214690000Y-82490000D02*
X214690000Y-83820000D01*
X213360000Y-82490000D02*
X214690000Y-82490000D01*
X212090000Y-82490000D02*
X206950000Y-82490000D01*
X212090000Y-82490000D02*
X212090000Y-85150000D01*
X206950000Y-82490000D02*
X206950000Y-85150000D01*
X212090000Y-85150000D02*
X206950000Y-85150000D01*
%TO.C,J17*%
X214690000Y-77045000D02*
X214690000Y-78375000D01*
X213360000Y-77045000D02*
X214690000Y-77045000D01*
X212090000Y-77045000D02*
X206950000Y-77045000D01*
X212090000Y-77045000D02*
X212090000Y-79705000D01*
X206950000Y-77045000D02*
X206950000Y-79705000D01*
X212090000Y-79705000D02*
X206950000Y-79705000D01*
%TO.C,J16*%
X214690000Y-72140000D02*
X214690000Y-73470000D01*
X213360000Y-72140000D02*
X214690000Y-72140000D01*
X212090000Y-72140000D02*
X206950000Y-72140000D01*
X212090000Y-72140000D02*
X212090000Y-74800000D01*
X206950000Y-72140000D02*
X206950000Y-74800000D01*
X212090000Y-74800000D02*
X206950000Y-74800000D01*
%TO.C,J15*%
X214690000Y-67490000D02*
X214690000Y-68820000D01*
X213360000Y-67490000D02*
X214690000Y-67490000D01*
X212090000Y-67490000D02*
X206950000Y-67490000D01*
X212090000Y-67490000D02*
X212090000Y-70150000D01*
X206950000Y-67490000D02*
X206950000Y-70150000D01*
X212090000Y-70150000D02*
X206950000Y-70150000D01*
%TO.C,J14*%
X214690000Y-62840000D02*
X214690000Y-64170000D01*
X213360000Y-62840000D02*
X214690000Y-62840000D01*
X212090000Y-62840000D02*
X206950000Y-62840000D01*
X212090000Y-62840000D02*
X212090000Y-65500000D01*
X206950000Y-62840000D02*
X206950000Y-65500000D01*
X212090000Y-65500000D02*
X206950000Y-65500000D01*
%TO.C,J12*%
X200600000Y-54610000D02*
X200600000Y-100390000D01*
X200600000Y-54610000D02*
X203260000Y-54610000D01*
X200600000Y-100390000D02*
X203260000Y-100390000D01*
X201930000Y-52010000D02*
X203260000Y-52010000D01*
X203260000Y-52010000D02*
X203260000Y-53340000D01*
X203260000Y-54610000D02*
X203260000Y-100390000D01*
%TO.C,J11*%
X147430000Y-54610000D02*
X147430000Y-64830000D01*
X144770000Y-64830000D02*
X147430000Y-64830000D01*
X144770000Y-54610000D02*
X147430000Y-54610000D01*
X144770000Y-54610000D02*
X144770000Y-64830000D01*
X144770000Y-53340000D02*
X144770000Y-52010000D01*
X144770000Y-52010000D02*
X146100000Y-52010000D01*
%TO.C,J10*%
X144770000Y-67250000D02*
X146100000Y-67250000D01*
X144770000Y-68580000D02*
X144770000Y-67250000D01*
X144770000Y-69850000D02*
X144770000Y-80070000D01*
X144770000Y-69850000D02*
X147430000Y-69850000D01*
X144770000Y-80070000D02*
X147430000Y-80070000D01*
X147430000Y-69850000D02*
X147430000Y-80070000D01*
%TO.C,J9*%
X144745000Y-82670000D02*
X146075000Y-82670000D01*
X144745000Y-84000000D02*
X144745000Y-82670000D01*
X144745000Y-85270000D02*
X144745000Y-95490000D01*
X144745000Y-85270000D02*
X147405000Y-85270000D01*
X144745000Y-95490000D02*
X147405000Y-95490000D01*
X147405000Y-85270000D02*
X147405000Y-95490000D01*
%TO.C,J8*%
X177885000Y-54610000D02*
X177885000Y-100390000D01*
X177885000Y-52010000D02*
X177885000Y-53340000D01*
X176555000Y-52010000D02*
X177885000Y-52010000D01*
X175225000Y-100390000D02*
X177885000Y-100390000D01*
X175225000Y-54610000D02*
X177885000Y-54610000D01*
X175225000Y-54610000D02*
X175225000Y-100390000D01*
%TO.C,J4*%
X162390000Y-97730000D02*
X172610000Y-97730000D01*
X172610000Y-100390000D02*
X172610000Y-97730000D01*
X162390000Y-100390000D02*
X162390000Y-97730000D01*
X162390000Y-100390000D02*
X172610000Y-100390000D01*
X161120000Y-100390000D02*
X159790000Y-100390000D01*
X159790000Y-100390000D02*
X159790000Y-99060000D01*
%TO.C,J3*%
X144770000Y-100390000D02*
X144770000Y-99060000D01*
X146100000Y-100390000D02*
X144770000Y-100390000D01*
X147370000Y-100390000D02*
X157590000Y-100390000D01*
X147370000Y-100390000D02*
X147370000Y-97730000D01*
X157590000Y-100390000D02*
X157590000Y-97730000D01*
X147370000Y-97730000D02*
X157590000Y-97730000D01*
%TO.C,D1*%
X184302290Y-97575488D02*
G75*
G02*
X179302290Y-97575488I-2500000J0D01*
G01*
X179302290Y-97575488D02*
G75*
G02*
X184302290Y-97575488I2500000J0D01*
G01*
X184792290Y-97575026D02*
G75*
G02*
X179242290Y-99120318I-2990000J-462D01*
G01*
X179242290Y-96030658D02*
G75*
G02*
X184792290Y-97575950I2560000J-1544830D01*
G01*
X179242290Y-96030488D02*
X179242290Y-99120488D01*
%TD*%
M02*
