M48
; DRILL file {KiCad 8.0.3} date 2024-07-03T13:18:26-0500
; FORMAT={-:-/ absolute / inch / decimal}
; #@! TF.CreationDate,2024-07-03T13:18:26-05:00
; #@! TF.GenerationSoftware,Kicad,Pcbnew,8.0.3
; #@! TF.FileFunction,Plated,1,2,PTH
FMAT,2
INCH
; #@! TA.AperFunction,Plated,PTH,ViaDrill
T1C0.0039
; #@! TA.AperFunction,Plated,PTH,ComponentDrill
T2C0.0394
%
G90
G05
T1
X7.25Y-3.6
T2
X5.751Y-3.3071
X5.751Y-3.4071
X5.751Y-3.5071
X5.751Y-3.6071
X5.751Y-3.7071
X5.752Y-2.1
X5.752Y-2.2
X5.752Y-2.3
X5.752Y-2.4
X5.752Y-2.5
X5.752Y-2.7
X5.752Y-2.8
X5.752Y-2.9
X5.752Y-3.0
X5.752Y-3.1
X5.752Y-3.9
X5.852Y-3.9
X5.952Y-3.9
X6.0Y-2.2
X6.0Y-2.3
X6.0Y-2.4
X6.0Y-2.5
X6.0Y-2.6
X6.0Y-2.7
X6.0Y-2.8
X6.0Y-2.9
X6.0Y-3.0
X6.0Y-3.1
X6.0Y-3.2
X6.0Y-3.3
X6.0Y-3.4
X6.0Y-3.5
X6.0Y-3.6
X6.0Y-3.7
X6.052Y-3.9
X6.152Y-3.9
X6.3Y-2.45
X6.3433Y-3.9
X6.4Y-2.45
X6.4433Y-3.9
X6.5Y-2.45
X6.5433Y-3.9
X6.6Y-2.45
X6.6433Y-3.9
X6.7Y-2.45
X6.7Y-2.6
X6.7Y-2.7
X6.7Y-2.8
X6.7Y-2.9
X6.7Y-3.0
X6.7Y-3.1
X6.7Y-3.2
X6.7Y-3.3
X6.7433Y-3.9
X6.951Y-2.1
X6.951Y-2.2
X6.951Y-2.3
X6.951Y-2.4
X6.951Y-2.5
X6.951Y-2.6
X6.951Y-2.7
X6.951Y-2.8
X6.951Y-2.9
X6.951Y-3.0
X6.951Y-3.1
X6.951Y-3.2
X6.951Y-3.3
X6.951Y-3.4
X6.951Y-3.5
X6.951Y-3.6
X6.951Y-3.7
X6.951Y-3.8
X6.951Y-3.9
X7.1Y-2.6
X7.1Y-2.7
X7.1Y-2.8
X7.1Y-3.0
X7.1Y-3.1
X7.1Y-3.2
X7.1Y-3.3
X7.1Y-3.4
X7.1Y-3.5
X7.2502Y-2.45
X7.3502Y-2.45
X7.4502Y-2.45
X7.5502Y-2.45
X7.6502Y-2.45
X7.95Y-2.1
X7.95Y-2.2
X7.95Y-2.3
X7.95Y-2.4
X7.95Y-2.5
X7.95Y-2.6
X7.95Y-2.7
X7.95Y-2.8
X7.95Y-2.9
X7.95Y-3.0
X7.95Y-3.1
X7.95Y-3.2
X7.95Y-3.3
X7.95Y-3.4
X7.95Y-3.5
X7.95Y-3.6
X7.95Y-3.7
X7.95Y-3.8
X7.95Y-3.9
X8.1941Y-2.0728
X8.1941Y-2.25
X8.2Y-2.5
X8.2Y-2.7
X8.2Y-2.9
X8.2Y-3.1
X8.2Y-3.3
X8.3Y-2.5
X8.3Y-2.7
X8.3Y-2.9
X8.3Y-3.1
X8.3Y-3.3
X8.4Y-2.5
X8.4Y-2.7
X8.4Y-2.9
X8.4Y-3.1
X8.4Y-3.3
X8.45Y-2.0728
X8.45Y-2.25
M30
