%TF.GenerationSoftware,KiCad,Pcbnew,8.0.3*%
%TF.CreationDate,2024-07-02T19:52:34-05:00*%
%TF.ProjectId,lucidGloves,6c756369-6447-46c6-9f76-65732e6b6963,rev?*%
%TF.SameCoordinates,Original*%
%TF.FileFunction,Soldermask,Bot*%
%TF.FilePolarity,Negative*%
%FSLAX46Y46*%
G04 Gerber Fmt 4.6, Leading zero omitted, Abs format (unit mm)*
G04 Created by KiCad (PCBNEW 8.0.3) date 2024-07-02 19:52:34*
%MOMM*%
%LPD*%
G01*
G04 APERTURE LIST*
%ADD10R,1.700000X1.700000*%
%ADD11O,1.700000X1.700000*%
%ADD12C,3.200000*%
%ADD13C,1.700000*%
%ADD14C,1.800000*%
%ADD15R,1.800000X1.800000*%
G04 APERTURE END LIST*
D10*
%TO.C,J13*%
X184155000Y-62230000D03*
D11*
X186695000Y-62230000D03*
X189235000Y-62230000D03*
X191775000Y-62230000D03*
X194315000Y-62230000D03*
%TD*%
D10*
%TO.C,J5*%
X160020000Y-62230000D03*
D11*
X162560000Y-62230000D03*
X165100000Y-62230000D03*
X167640000Y-62230000D03*
X170180000Y-62230000D03*
%TD*%
%TO.C,J7*%
X170180000Y-83820000D03*
X170180000Y-81280000D03*
X170180000Y-78740000D03*
X170180000Y-76200000D03*
X170180000Y-73660000D03*
X170180000Y-71120000D03*
X170180000Y-68580000D03*
D10*
X170180000Y-66040000D03*
%TD*%
D11*
%TO.C,J6*%
X152240000Y-93980000D03*
X152240000Y-91440000D03*
X152240000Y-88900000D03*
X152240000Y-86360000D03*
X152240000Y-83820000D03*
X152240000Y-81280000D03*
X152240000Y-78740000D03*
X152240000Y-76200000D03*
X152240000Y-73660000D03*
X152240000Y-71120000D03*
X152240000Y-68580000D03*
X152240000Y-66040000D03*
X152240000Y-63500000D03*
X152240000Y-60960000D03*
X152240000Y-58420000D03*
D10*
X152240000Y-55880000D03*
%TD*%
D12*
%TO.C,H6*%
X161290000Y-91445000D03*
%TD*%
%TO.C,H5*%
X161290000Y-70005000D03*
%TD*%
%TO.C,H3*%
X193000000Y-70000000D03*
%TD*%
D10*
%TO.C,SW1*%
X208130000Y-52650000D03*
D13*
X214630000Y-52650000D03*
X208130000Y-57150000D03*
X214630000Y-57150000D03*
%TD*%
D10*
%TO.C,J18*%
X213360000Y-83820000D03*
D11*
X210820000Y-83820000D03*
X208280000Y-83820000D03*
%TD*%
D10*
%TO.C,J17*%
X213360000Y-78375000D03*
D11*
X210820000Y-78375000D03*
X208280000Y-78375000D03*
%TD*%
D10*
%TO.C,J16*%
X213360000Y-73470000D03*
D11*
X210820000Y-73470000D03*
X208280000Y-73470000D03*
%TD*%
D10*
%TO.C,J15*%
X213360000Y-68820000D03*
D11*
X210820000Y-68820000D03*
X208280000Y-68820000D03*
%TD*%
D10*
%TO.C,J14*%
X213360000Y-64170000D03*
D11*
X210820000Y-64170000D03*
X208280000Y-64170000D03*
%TD*%
D10*
%TO.C,J12*%
X201930000Y-53340000D03*
D11*
X201930000Y-55880000D03*
X201930000Y-58420000D03*
X201930000Y-60960000D03*
X201930000Y-63500000D03*
X201930000Y-66040000D03*
X201930000Y-68580000D03*
X201930000Y-71120000D03*
X201930000Y-73660000D03*
X201930000Y-76200000D03*
X201930000Y-78740000D03*
X201930000Y-81280000D03*
X201930000Y-83820000D03*
X201930000Y-86360000D03*
X201930000Y-88900000D03*
X201930000Y-91440000D03*
X201930000Y-93980000D03*
X201930000Y-96520000D03*
X201930000Y-99060000D03*
%TD*%
%TO.C,J11*%
X146100000Y-63500000D03*
X146100000Y-60960000D03*
X146100000Y-58420000D03*
X146100000Y-55880000D03*
D10*
X146100000Y-53340000D03*
%TD*%
%TO.C,J10*%
X146100000Y-68580000D03*
D11*
X146100000Y-71120000D03*
X146100000Y-73660000D03*
X146100000Y-76200000D03*
X146100000Y-78740000D03*
%TD*%
D10*
%TO.C,J9*%
X146075000Y-84000000D03*
D11*
X146075000Y-86540000D03*
X146075000Y-89080000D03*
X146075000Y-91620000D03*
X146075000Y-94160000D03*
%TD*%
%TO.C,J8*%
X176555000Y-99060000D03*
X176555000Y-96520000D03*
X176555000Y-93980000D03*
X176555000Y-91440000D03*
X176555000Y-88900000D03*
X176555000Y-86360000D03*
X176555000Y-83820000D03*
X176555000Y-81280000D03*
X176555000Y-78740000D03*
X176555000Y-76200000D03*
X176555000Y-73660000D03*
X176555000Y-71120000D03*
X176555000Y-68580000D03*
X176555000Y-66040000D03*
X176555000Y-63500000D03*
X176555000Y-60960000D03*
X176555000Y-58420000D03*
X176555000Y-55880000D03*
D10*
X176555000Y-53340000D03*
%TD*%
D11*
%TO.C,J4*%
X171280000Y-99060000D03*
X168740000Y-99060000D03*
X166200000Y-99060000D03*
X163660000Y-99060000D03*
D10*
X161120000Y-99060000D03*
%TD*%
%TO.C,J3*%
X146100000Y-99060000D03*
D11*
X148640000Y-99060000D03*
X151180000Y-99060000D03*
X153720000Y-99060000D03*
X156260000Y-99060000D03*
%TD*%
D14*
%TO.C,D1*%
X183072290Y-97575488D03*
D15*
X180532290Y-97575488D03*
%TD*%
M02*
