%TF.GenerationSoftware,KiCad,Pcbnew,8.0.3*%
%TF.CreationDate,2024-07-02T19:52:34-05:00*%
%TF.ProjectId,lucidGloves,6c756369-6447-46c6-9f76-65732e6b6963,rev?*%
%TF.SameCoordinates,Original*%
%TF.FileFunction,Copper,L1,Top*%
%TF.FilePolarity,Positive*%
%FSLAX46Y46*%
G04 Gerber Fmt 4.6, Leading zero omitted, Abs format (unit mm)*
G04 Created by KiCad (PCBNEW 8.0.3) date 2024-07-02 19:52:34*
%MOMM*%
%LPD*%
G01*
G04 APERTURE LIST*
G04 Aperture macros list*
%AMRoundRect*
0 Rectangle with rounded corners*
0 $1 Rounding radius*
0 $2 $3 $4 $5 $6 $7 $8 $9 X,Y pos of 4 corners*
0 Add a 4 corners polygon primitive as box body*
4,1,4,$2,$3,$4,$5,$6,$7,$8,$9,$2,$3,0*
0 Add four circle primitives for the rounded corners*
1,1,$1+$1,$2,$3*
1,1,$1+$1,$4,$5*
1,1,$1+$1,$6,$7*
1,1,$1+$1,$8,$9*
0 Add four rect primitives between the rounded corners*
20,1,$1+$1,$2,$3,$4,$5,0*
20,1,$1+$1,$4,$5,$6,$7,0*
20,1,$1+$1,$6,$7,$8,$9,0*
20,1,$1+$1,$8,$9,$2,$3,0*%
G04 Aperture macros list end*
%TA.AperFunction,SMDPad,CuDef*%
%ADD10RoundRect,0.175000X-0.175000X-0.425000X0.175000X-0.425000X0.175000X0.425000X-0.175000X0.425000X0*%
%TD*%
%TA.AperFunction,SMDPad,CuDef*%
%ADD11RoundRect,0.190000X0.190000X0.410000X-0.190000X0.410000X-0.190000X-0.410000X0.190000X-0.410000X0*%
%TD*%
%TA.AperFunction,SMDPad,CuDef*%
%ADD12RoundRect,0.200000X0.200000X0.400000X-0.200000X0.400000X-0.200000X-0.400000X0.200000X-0.400000X0*%
%TD*%
%TA.AperFunction,SMDPad,CuDef*%
%ADD13RoundRect,0.175000X0.175000X0.425000X-0.175000X0.425000X-0.175000X-0.425000X0.175000X-0.425000X0*%
%TD*%
%TA.AperFunction,SMDPad,CuDef*%
%ADD14RoundRect,0.190000X-0.190000X-0.410000X0.190000X-0.410000X0.190000X0.410000X-0.190000X0.410000X0*%
%TD*%
%TA.AperFunction,SMDPad,CuDef*%
%ADD15RoundRect,0.200000X-0.200000X-0.400000X0.200000X-0.400000X0.200000X0.400000X-0.200000X0.400000X0*%
%TD*%
%TA.AperFunction,SMDPad,CuDef*%
%ADD16RoundRect,0.250000X-0.650000X-0.425000X0.650000X-0.425000X0.650000X0.425000X-0.650000X0.425000X0*%
%TD*%
%TA.AperFunction,SMDPad,CuDef*%
%ADD17RoundRect,0.250000X-0.650000X-0.500000X0.650000X-0.500000X0.650000X0.500000X-0.650000X0.500000X0*%
%TD*%
%TA.AperFunction,ComponentPad*%
%ADD18R,1.700000X1.700000*%
%TD*%
%TA.AperFunction,ComponentPad*%
%ADD19O,1.700000X1.700000*%
%TD*%
%TA.AperFunction,ComponentPad*%
%ADD20C,1.700000*%
%TD*%
%TA.AperFunction,SMDPad,CuDef*%
%ADD21RoundRect,0.200000X-0.200000X-0.275000X0.200000X-0.275000X0.200000X0.275000X-0.200000X0.275000X0*%
%TD*%
%TA.AperFunction,SMDPad,CuDef*%
%ADD22RoundRect,0.200000X-0.275000X0.200000X-0.275000X-0.200000X0.275000X-0.200000X0.275000X0.200000X0*%
%TD*%
%TA.AperFunction,ComponentPad*%
%ADD23C,1.800000*%
%TD*%
%TA.AperFunction,ComponentPad*%
%ADD24R,1.800000X1.800000*%
%TD*%
%TA.AperFunction,ViaPad*%
%ADD25C,0.300000*%
%TD*%
%TA.AperFunction,Conductor*%
%ADD26C,0.250000*%
%TD*%
G04 APERTURE END LIST*
D10*
%TO.P,J19,A5,CC1*%
%TO.N,Net-(J19-CC1)*%
X192540000Y-93487500D03*
D11*
%TO.P,J19,A9,VBUS*%
%TO.N,Net-(J8-Pin_19)*%
X194560000Y-93487500D03*
D12*
%TO.P,J19,A12,GND*%
%TO.N,Net-(J10-Pin_5)*%
X195790000Y-93487500D03*
D13*
%TO.P,J19,B5,CC2*%
%TO.N,Net-(J19-CC1)*%
X193540000Y-93487500D03*
D14*
%TO.P,J19,B9,VBUS*%
%TO.N,Net-(J8-Pin_19)*%
X191520000Y-93487500D03*
D15*
%TO.P,J19,B12,GND*%
%TO.N,Net-(J10-Pin_5)*%
X190290000Y-93487500D03*
D16*
%TO.P,J19,S1,SHIELD*%
%TO.N,unconnected-(J19-SHIELD-PadS1)_2*%
X187915000Y-93542500D03*
D17*
%TO.N,unconnected-(J19-SHIELD-PadS1)_1*%
X187915000Y-97122500D03*
D16*
%TO.N,unconnected-(J19-SHIELD-PadS1)_0*%
X198165000Y-93542500D03*
D17*
%TO.N,unconnected-(J19-SHIELD-PadS1)*%
X198165000Y-97122500D03*
%TD*%
D10*
%TO.P,J1,A5,CC1*%
%TO.N,Net-(J1-CC1)*%
X210323213Y-93287648D03*
D11*
%TO.P,J1,A9,VBUS*%
%TO.N,Net-(J14-Pin_2)*%
X212343213Y-93287648D03*
D12*
%TO.P,J1,A12,GND*%
%TO.N,Net-(J14-Pin_1)*%
X213573213Y-93287648D03*
D13*
%TO.P,J1,B5,CC2*%
%TO.N,Net-(J1-CC1)*%
X211323213Y-93287648D03*
D14*
%TO.P,J1,B9,VBUS*%
%TO.N,Net-(J14-Pin_2)*%
X209303213Y-93287648D03*
D15*
%TO.P,J1,B12,GND*%
%TO.N,Net-(J14-Pin_1)*%
X208073213Y-93287648D03*
D16*
%TO.P,J1,S1,SHIELD*%
%TO.N,unconnected-(J1-SHIELD-PadS1)*%
X205698213Y-93342648D03*
D17*
%TO.N,unconnected-(J1-SHIELD-PadS1)_2*%
X205698213Y-96922648D03*
D16*
%TO.N,unconnected-(J1-SHIELD-PadS1)_0*%
X215948213Y-93342648D03*
D17*
%TO.N,unconnected-(J1-SHIELD-PadS1)_1*%
X215948213Y-96922648D03*
%TD*%
D18*
%TO.P,J13,1,Pin_1*%
%TO.N,Net-(J12-Pin_1)*%
X184155000Y-62230000D03*
D19*
%TO.P,J13,2,Pin_2*%
%TO.N,Net-(J12-Pin_5)*%
X186695000Y-62230000D03*
%TO.P,J13,3,Pin_3*%
%TO.N,Net-(J12-Pin_4)*%
X189235000Y-62230000D03*
%TO.P,J13,4,Pin_4*%
%TO.N,Net-(J12-Pin_3)*%
X191775000Y-62230000D03*
%TO.P,J13,5,Pin_5*%
%TO.N,Net-(J12-Pin_2)*%
X194315000Y-62230000D03*
%TD*%
D18*
%TO.P,J5,1,Pin_1*%
%TO.N,Net-(J10-Pin_5)*%
X160020000Y-62230000D03*
D19*
%TO.P,J5,2,Pin_2*%
%TO.N,Net-(J10-Pin_1)*%
X162560000Y-62230000D03*
%TO.P,J5,3,Pin_3*%
%TO.N,Net-(J5-Pin_3)*%
X165100000Y-62230000D03*
%TO.P,J5,4,Pin_4*%
%TO.N,Net-(J5-Pin_4)*%
X167640000Y-62230000D03*
%TO.P,J5,5,Pin_5*%
%TO.N,Net-(J5-Pin_5)*%
X170180000Y-62230000D03*
%TD*%
%TO.P,J7,8,Pin_8*%
%TO.N,Net-(J7-Pin_8)*%
X170180000Y-83820000D03*
%TO.P,J7,7,Pin_7*%
%TO.N,Net-(J7-Pin_7)*%
X170180000Y-81280000D03*
%TO.P,J7,6,Pin_6*%
%TO.N,Net-(J7-Pin_6)*%
X170180000Y-78740000D03*
%TO.P,J7,5,Pin_5*%
%TO.N,Net-(J7-Pin_5)*%
X170180000Y-76200000D03*
%TO.P,J7,4,Pin_4*%
%TO.N,Net-(J7-Pin_4)*%
X170180000Y-73660000D03*
%TO.P,J7,3,Pin_3*%
%TO.N,unconnected-(J7-Pin_3-Pad3)*%
X170180000Y-71120000D03*
%TO.P,J7,2,Pin_2*%
%TO.N,Net-(J10-Pin_1)*%
X170180000Y-68580000D03*
D18*
%TO.P,J7,1,Pin_1*%
%TO.N,Net-(J10-Pin_5)*%
X170180000Y-66040000D03*
%TD*%
D19*
%TO.P,J6,16,Pin_16*%
%TO.N,unconnected-(J6-Pin_16-Pad16)*%
X152240000Y-93980000D03*
%TO.P,J6,15,Pin_15*%
%TO.N,Net-(J4-Pin_4)*%
X152240000Y-91440000D03*
%TO.P,J6,14,Pin_14*%
%TO.N,Net-(J4-Pin_2)*%
X152240000Y-88900000D03*
%TO.P,J6,13,Pin_13*%
%TO.N,Net-(J4-Pin_3)*%
X152240000Y-86360000D03*
%TO.P,J6,12,Pin_12*%
%TO.N,Net-(J3-Pin_4)*%
X152240000Y-83820000D03*
%TO.P,J6,11,Pin_11*%
%TO.N,Net-(J3-Pin_2)*%
X152240000Y-81280000D03*
%TO.P,J6,10,Pin_10*%
%TO.N,Net-(J3-Pin_3)*%
X152240000Y-78740000D03*
%TO.P,J6,9,Pin_9*%
%TO.N,Net-(J6-Pin_9)*%
X152240000Y-76200000D03*
%TO.P,J6,8,Pin_8*%
%TO.N,Net-(J6-Pin_8)*%
X152240000Y-73660000D03*
%TO.P,J6,7,Pin_7*%
%TO.N,Net-(J6-Pin_7)*%
X152240000Y-71120000D03*
%TO.P,J6,6,Pin_6*%
%TO.N,Net-(J10-Pin_2)*%
X152240000Y-68580000D03*
%TO.P,J6,5,Pin_5*%
%TO.N,Net-(J10-Pin_4)*%
X152240000Y-66040000D03*
%TO.P,J6,4,Pin_4*%
%TO.N,Net-(J10-Pin_3)*%
X152240000Y-63500000D03*
%TO.P,J6,3,Pin_3*%
%TO.N,Net-(J11-Pin_3)*%
X152240000Y-60960000D03*
%TO.P,J6,2,Pin_2*%
%TO.N,Net-(J11-Pin_4)*%
X152240000Y-58420000D03*
D18*
%TO.P,J6,1,Pin_1*%
%TO.N,Net-(J11-Pin_2)*%
X152240000Y-55880000D03*
%TD*%
%TO.P,SW1,1,1*%
%TO.N,Net-(J12-Pin_1)*%
X208130000Y-52650000D03*
D20*
X214630000Y-52650000D03*
%TO.P,SW1,2,2*%
%TO.N,Net-(J12-Pin_6)*%
X208130000Y-57150000D03*
X214630000Y-57150000D03*
%TD*%
D21*
%TO.P,R1,2*%
%TO.N,Net-(J14-Pin_1)*%
X213360000Y-89915000D03*
%TO.P,R1,1*%
%TO.N,Net-(J1-CC1)*%
X211710000Y-89915000D03*
%TD*%
D22*
%TO.P,R3,1*%
%TO.N,Net-(J10-Pin_5)*%
X182340000Y-91535000D03*
%TO.P,R3,2*%
%TO.N,Net-(D1-A)*%
X182340000Y-93185000D03*
%TD*%
D21*
%TO.P,R2,1*%
%TO.N,Net-(J19-CC1)*%
X193930000Y-90170000D03*
%TO.P,R2,2*%
%TO.N,Net-(J10-Pin_5)*%
X195580000Y-90170000D03*
%TD*%
D18*
%TO.P,J18,1,Pin_1*%
%TO.N,Net-(J14-Pin_1)*%
X213360000Y-83820000D03*
D19*
%TO.P,J18,2,Pin_2*%
%TO.N,Net-(J14-Pin_2)*%
X210820000Y-83820000D03*
%TO.P,J18,3,Pin_3*%
%TO.N,Net-(J12-Pin_12)*%
X208280000Y-83820000D03*
%TD*%
D18*
%TO.P,J17,1,Pin_1*%
%TO.N,Net-(J14-Pin_1)*%
X213360000Y-78375000D03*
D19*
%TO.P,J17,2,Pin_2*%
%TO.N,Net-(J14-Pin_2)*%
X210820000Y-78375000D03*
%TO.P,J17,3,Pin_3*%
%TO.N,Net-(J12-Pin_11)*%
X208280000Y-78375000D03*
%TD*%
D18*
%TO.P,J16,1,Pin_1*%
%TO.N,Net-(J14-Pin_1)*%
X213360000Y-73470000D03*
D19*
%TO.P,J16,2,Pin_2*%
%TO.N,Net-(J14-Pin_2)*%
X210820000Y-73470000D03*
%TO.P,J16,3,Pin_3*%
%TO.N,Net-(J12-Pin_10)*%
X208280000Y-73470000D03*
%TD*%
D18*
%TO.P,J15,1,Pin_1*%
%TO.N,Net-(J14-Pin_1)*%
X213360000Y-68820000D03*
D19*
%TO.P,J15,2,Pin_2*%
%TO.N,Net-(J14-Pin_2)*%
X210820000Y-68820000D03*
%TO.P,J15,3,Pin_3*%
%TO.N,Net-(J12-Pin_9)*%
X208280000Y-68820000D03*
%TD*%
D18*
%TO.P,J14,1,Pin_1*%
%TO.N,Net-(J14-Pin_1)*%
X213360000Y-64170000D03*
D19*
%TO.P,J14,2,Pin_2*%
%TO.N,Net-(J14-Pin_2)*%
X210820000Y-64170000D03*
%TO.P,J14,3,Pin_3*%
%TO.N,Net-(J12-Pin_8)*%
X208280000Y-64170000D03*
%TD*%
D18*
%TO.P,J12,1,Pin_1*%
%TO.N,Net-(J12-Pin_1)*%
X201930000Y-53340000D03*
D19*
%TO.P,J12,2,Pin_2*%
%TO.N,Net-(J12-Pin_2)*%
X201930000Y-55880000D03*
%TO.P,J12,3,Pin_3*%
%TO.N,Net-(J12-Pin_3)*%
X201930000Y-58420000D03*
%TO.P,J12,4,Pin_4*%
%TO.N,Net-(J12-Pin_4)*%
X201930000Y-60960000D03*
%TO.P,J12,5,Pin_5*%
%TO.N,Net-(J12-Pin_5)*%
X201930000Y-63500000D03*
%TO.P,J12,6,Pin_6*%
%TO.N,Net-(J12-Pin_6)*%
X201930000Y-66040000D03*
%TO.P,J12,7,Pin_7*%
%TO.N,unconnected-(J12-Pin_7-Pad7)*%
X201930000Y-68580000D03*
%TO.P,J12,8,Pin_8*%
%TO.N,Net-(J12-Pin_8)*%
X201930000Y-71120000D03*
%TO.P,J12,9,Pin_9*%
%TO.N,Net-(J12-Pin_9)*%
X201930000Y-73660000D03*
%TO.P,J12,10,Pin_10*%
%TO.N,Net-(J12-Pin_10)*%
X201930000Y-76200000D03*
%TO.P,J12,11,Pin_11*%
%TO.N,Net-(J12-Pin_11)*%
X201930000Y-78740000D03*
%TO.P,J12,12,Pin_12*%
%TO.N,Net-(J12-Pin_12)*%
X201930000Y-81280000D03*
%TO.P,J12,13,Pin_13*%
%TO.N,unconnected-(J12-Pin_13-Pad13)*%
X201930000Y-83820000D03*
%TO.P,J12,14,Pin_14*%
%TO.N,unconnected-(J12-Pin_14-Pad14)*%
X201930000Y-86360000D03*
%TO.P,J12,15,Pin_15*%
%TO.N,unconnected-(J12-Pin_15-Pad15)*%
X201930000Y-88900000D03*
%TO.P,J12,16,Pin_16*%
%TO.N,unconnected-(J12-Pin_16-Pad16)*%
X201930000Y-91440000D03*
%TO.P,J12,17,Pin_17*%
%TO.N,unconnected-(J12-Pin_17-Pad17)*%
X201930000Y-93980000D03*
%TO.P,J12,18,Pin_18*%
%TO.N,unconnected-(J12-Pin_18-Pad18)*%
X201930000Y-96520000D03*
%TO.P,J12,19,Pin_19*%
%TO.N,unconnected-(J12-Pin_19-Pad19)*%
X201930000Y-99060000D03*
%TD*%
%TO.P,J11,5,Pin_5*%
%TO.N,Net-(J10-Pin_5)*%
X146100000Y-63500000D03*
%TO.P,J11,4,Pin_4*%
%TO.N,Net-(J11-Pin_4)*%
X146100000Y-60960000D03*
%TO.P,J11,3,Pin_3*%
%TO.N,Net-(J11-Pin_3)*%
X146100000Y-58420000D03*
%TO.P,J11,2,Pin_2*%
%TO.N,Net-(J11-Pin_2)*%
X146100000Y-55880000D03*
D18*
%TO.P,J11,1,Pin_1*%
%TO.N,Net-(J10-Pin_1)*%
X146100000Y-53340000D03*
%TD*%
%TO.P,J10,1,Pin_1*%
%TO.N,Net-(J10-Pin_1)*%
X146100000Y-68580000D03*
D19*
%TO.P,J10,2,Pin_2*%
%TO.N,Net-(J10-Pin_2)*%
X146100000Y-71120000D03*
%TO.P,J10,3,Pin_3*%
%TO.N,Net-(J10-Pin_3)*%
X146100000Y-73660000D03*
%TO.P,J10,4,Pin_4*%
%TO.N,Net-(J10-Pin_4)*%
X146100000Y-76200000D03*
%TO.P,J10,5,Pin_5*%
%TO.N,Net-(J10-Pin_5)*%
X146100000Y-78740000D03*
%TD*%
D18*
%TO.P,J9,1,Pin_1*%
%TO.N,Net-(J10-Pin_1)*%
X146075000Y-84000000D03*
D19*
%TO.P,J9,2,Pin_2*%
%TO.N,Net-(J6-Pin_9)*%
X146075000Y-86540000D03*
%TO.P,J9,3,Pin_3*%
%TO.N,Net-(J6-Pin_7)*%
X146075000Y-89080000D03*
%TO.P,J9,4,Pin_4*%
%TO.N,Net-(J6-Pin_8)*%
X146075000Y-91620000D03*
%TO.P,J9,5,Pin_5*%
%TO.N,Net-(J10-Pin_5)*%
X146075000Y-94160000D03*
%TD*%
%TO.P,J8,19,Pin_19*%
%TO.N,Net-(J8-Pin_19)*%
X176555000Y-99060000D03*
%TO.P,J8,18,Pin_18*%
%TO.N,unconnected-(J8-Pin_18-Pad18)*%
X176555000Y-96520000D03*
%TO.P,J8,17,Pin_17*%
%TO.N,unconnected-(J8-Pin_17-Pad17)*%
X176555000Y-93980000D03*
%TO.P,J8,16,Pin_16*%
%TO.N,unconnected-(J8-Pin_16-Pad16)*%
X176555000Y-91440000D03*
%TO.P,J8,15,Pin_15*%
%TO.N,Net-(D1-K)*%
X176555000Y-88900000D03*
%TO.P,J8,14,Pin_14*%
%TO.N,Net-(J10-Pin_5)*%
X176555000Y-86360000D03*
%TO.P,J8,13,Pin_13*%
%TO.N,unconnected-(J8-Pin_13-Pad13)*%
X176555000Y-83820000D03*
%TO.P,J8,12,Pin_12*%
%TO.N,unconnected-(J8-Pin_12-Pad12)*%
X176555000Y-81280000D03*
%TO.P,J8,11,Pin_11*%
%TO.N,Net-(J7-Pin_7)*%
X176555000Y-78740000D03*
%TO.P,J8,10,Pin_10*%
%TO.N,Net-(J7-Pin_6)*%
X176555000Y-76200000D03*
%TO.P,J8,9,Pin_9*%
%TO.N,Net-(J7-Pin_5)*%
X176555000Y-73660000D03*
%TO.P,J8,8,Pin_8*%
%TO.N,Net-(J7-Pin_4)*%
X176555000Y-71120000D03*
%TO.P,J8,7,Pin_7*%
%TO.N,Net-(J5-Pin_5)*%
X176555000Y-68580000D03*
%TO.P,J8,6,Pin_6*%
%TO.N,Net-(J5-Pin_4)*%
X176555000Y-66040000D03*
%TO.P,J8,5,Pin_5*%
%TO.N,Net-(J5-Pin_3)*%
X176555000Y-63500000D03*
%TO.P,J8,4,Pin_4*%
%TO.N,unconnected-(J8-Pin_4-Pad4)*%
X176555000Y-60960000D03*
%TO.P,J8,3,Pin_3*%
%TO.N,Net-(J7-Pin_8)*%
X176555000Y-58420000D03*
%TO.P,J8,2,Pin_2*%
%TO.N,unconnected-(J8-Pin_2-Pad2)*%
X176555000Y-55880000D03*
D18*
%TO.P,J8,1,Pin_1*%
%TO.N,Net-(J10-Pin_1)*%
X176555000Y-53340000D03*
%TD*%
D19*
%TO.P,J4,5,Pin_5*%
%TO.N,Net-(J10-Pin_1)*%
X171280000Y-99060000D03*
%TO.P,J4,4,Pin_4*%
%TO.N,Net-(J4-Pin_4)*%
X168740000Y-99060000D03*
%TO.P,J4,3,Pin_3*%
%TO.N,Net-(J4-Pin_3)*%
X166200000Y-99060000D03*
%TO.P,J4,2,Pin_2*%
%TO.N,Net-(J4-Pin_2)*%
X163660000Y-99060000D03*
D18*
%TO.P,J4,1,Pin_1*%
%TO.N,Net-(J10-Pin_5)*%
X161120000Y-99060000D03*
%TD*%
%TO.P,J3,1,Pin_1*%
%TO.N,Net-(J10-Pin_5)*%
X146100000Y-99060000D03*
D19*
%TO.P,J3,2,Pin_2*%
%TO.N,Net-(J3-Pin_2)*%
X148640000Y-99060000D03*
%TO.P,J3,3,Pin_3*%
%TO.N,Net-(J3-Pin_3)*%
X151180000Y-99060000D03*
%TO.P,J3,4,Pin_4*%
%TO.N,Net-(J3-Pin_4)*%
X153720000Y-99060000D03*
%TO.P,J3,5,Pin_5*%
%TO.N,Net-(J10-Pin_1)*%
X156260000Y-99060000D03*
%TD*%
D23*
%TO.P,D1,2,A*%
%TO.N,Net-(D1-A)*%
X183072290Y-97575488D03*
D24*
%TO.P,D1,1,K*%
%TO.N,Net-(D1-K)*%
X180532290Y-97575488D03*
%TD*%
D25*
%TO.N,Net-(J8-Pin_19)*%
X191135000Y-92075000D03*
%TD*%
D26*
%TO.N,Net-(J14-Pin_2)*%
X210820000Y-78375000D02*
X210820000Y-73470000D01*
%TO.N,Net-(J11-Pin_3)*%
X153670000Y-59530000D02*
X152240000Y-60960000D01*
X153670000Y-58188299D02*
X153670000Y-59530000D01*
X147275000Y-57245000D02*
X152726701Y-57245000D01*
X146100000Y-58420000D02*
X147275000Y-57245000D01*
X152726701Y-57245000D02*
X153670000Y-58188299D01*
%TO.N,Net-(J11-Pin_2)*%
X146100000Y-55880000D02*
X152240000Y-55880000D01*
%TO.N,Net-(J11-Pin_4)*%
X148640000Y-58420000D02*
X152240000Y-58420000D01*
X146100000Y-60960000D02*
X148640000Y-58420000D01*
%TO.N,Net-(J10-Pin_2)*%
X152726701Y-62325000D02*
X153415000Y-63013299D01*
X153415000Y-63013299D02*
X153415000Y-67405000D01*
X148003604Y-66074695D02*
X151753299Y-62325000D01*
X148003604Y-69216396D02*
X148003604Y-66074695D01*
X146100000Y-71120000D02*
X148003604Y-69216396D01*
X151753299Y-62325000D02*
X152726701Y-62325000D01*
X153415000Y-67405000D02*
X152240000Y-68580000D01*
%TO.N,Net-(J10-Pin_3)*%
X150615000Y-65125000D02*
X152240000Y-63500000D01*
X150615000Y-69145000D02*
X150615000Y-65125000D01*
X146100000Y-73660000D02*
X150615000Y-69145000D01*
%TO.N,Net-(J10-Pin_4)*%
X151065000Y-69785000D02*
X151065000Y-67215000D01*
X151065000Y-67215000D02*
X152240000Y-66040000D01*
X151130000Y-69850000D02*
X151065000Y-69785000D01*
X147275000Y-75025000D02*
X147275000Y-73705000D01*
X147275000Y-73705000D02*
X151130000Y-69850000D01*
X146100000Y-76200000D02*
X147275000Y-75025000D01*
%TO.N,Net-(J6-Pin_9)*%
X153415000Y-70633299D02*
X153415000Y-75025000D01*
X152726701Y-69945000D02*
X153415000Y-70633299D01*
X148815000Y-72883299D02*
X151753299Y-69945000D01*
X151753299Y-69945000D02*
X152726701Y-69945000D01*
X148815000Y-83800000D02*
X148815000Y-72883299D01*
X153415000Y-75025000D02*
X152240000Y-76200000D01*
X146075000Y-86540000D02*
X148815000Y-83800000D01*
%TO.N,Net-(J6-Pin_7)*%
X149265000Y-74095000D02*
X152240000Y-71120000D01*
X149265000Y-85890000D02*
X149265000Y-74095000D01*
X146075000Y-89080000D02*
X149265000Y-85890000D01*
%TO.N,Net-(J6-Pin_8)*%
X149715000Y-76185000D02*
X152240000Y-73660000D01*
X146075000Y-91620000D02*
X149715000Y-87980000D01*
X149715000Y-87980000D02*
X149715000Y-76185000D01*
%TO.N,Net-(J3-Pin_2)*%
X150165000Y-97535000D02*
X150165000Y-83355000D01*
X148640000Y-99060000D02*
X150165000Y-97535000D01*
X150165000Y-83355000D02*
X152240000Y-81280000D01*
%TO.N,Net-(J3-Pin_3)*%
X152631701Y-82550000D02*
X153415000Y-81766701D01*
X153415000Y-79915000D02*
X152240000Y-78740000D01*
X151848299Y-82550000D02*
X152631701Y-82550000D01*
X153415000Y-81766701D02*
X153415000Y-79915000D01*
X150615000Y-83783299D02*
X151848299Y-82550000D01*
X150615000Y-98495000D02*
X150615000Y-83783299D01*
X151180000Y-99060000D02*
X150615000Y-98495000D01*
%TO.N,Net-(J3-Pin_4)*%
X151065000Y-96405000D02*
X151065000Y-84995000D01*
X151065000Y-84995000D02*
X152240000Y-83820000D01*
X153720000Y-99060000D02*
X151065000Y-96405000D01*
%TO.N,Net-(J4-Pin_4)*%
X153670000Y-92870000D02*
X152240000Y-91440000D01*
X153670000Y-93960000D02*
X153670000Y-92870000D01*
X159945000Y-100235000D02*
X153670000Y-93960000D01*
X168740000Y-99060000D02*
X167565000Y-100235000D01*
X167565000Y-100235000D02*
X159945000Y-100235000D01*
%TO.N,Net-(J4-Pin_3)*%
X153411928Y-86360000D02*
X152240000Y-86360000D01*
X166111928Y-99060000D02*
X153411928Y-86360000D01*
X166200000Y-99060000D02*
X166111928Y-99060000D01*
%TO.N,Net-(J4-Pin_2)*%
X163660000Y-99060000D02*
X153500000Y-88900000D01*
X153500000Y-88900000D02*
X152240000Y-88900000D01*
%TO.N,Net-(J8-Pin_19)*%
X191135000Y-92075000D02*
X191520000Y-92460000D01*
X191520000Y-92460000D02*
X191520000Y-93487500D01*
X191520000Y-94087500D02*
X191520000Y-93487500D01*
X194235000Y-94412500D02*
X191845000Y-94412500D01*
X194560000Y-94087500D02*
X194235000Y-94412500D01*
X191845000Y-94412500D02*
X191520000Y-94087500D01*
X194560000Y-93487500D02*
X194560000Y-94087500D01*
%TO.N,Net-(J5-Pin_3)*%
X173660000Y-60605000D02*
X176555000Y-63500000D01*
X166725000Y-60605000D02*
X173660000Y-60605000D01*
X165100000Y-62230000D02*
X166725000Y-60605000D01*
%TO.N,Net-(J5-Pin_4)*%
X168815000Y-61055000D02*
X171570000Y-61055000D01*
X167640000Y-62230000D02*
X168815000Y-61055000D01*
X171570000Y-61055000D02*
X176555000Y-66040000D01*
%TO.N,Net-(J5-Pin_5)*%
X176530000Y-68580000D02*
X176555000Y-68580000D01*
X170180000Y-62230000D02*
X176530000Y-68580000D01*
%TO.N,Net-(J10-Pin_5)*%
X172745000Y-82550000D02*
X176555000Y-86360000D01*
X169788299Y-82550000D02*
X172745000Y-82550000D01*
X168910000Y-81671701D02*
X169788299Y-82550000D01*
X168910000Y-66040000D02*
X168910000Y-81671701D01*
X163830000Y-66040000D02*
X168910000Y-66040000D01*
X163830000Y-66040000D02*
X170180000Y-66040000D01*
X160020000Y-62230000D02*
X163830000Y-66040000D01*
X181730000Y-91535000D02*
X176555000Y-86360000D01*
X182880000Y-91535000D02*
X181730000Y-91535000D01*
X182880000Y-91535000D02*
X182340000Y-91535000D01*
X188337500Y-91535000D02*
X182880000Y-91535000D01*
X190290000Y-93487500D02*
X188337500Y-91535000D01*
%TO.N,Net-(D1-A)*%
X183072290Y-93917290D02*
X182340000Y-93185000D01*
X183072290Y-97575488D02*
X183072290Y-93917290D01*
%TO.N,Net-(D1-K)*%
X180532290Y-93755589D02*
X176555000Y-89778299D01*
X180532290Y-97575488D02*
X180532290Y-93755589D01*
X176555000Y-89778299D02*
X176555000Y-88900000D01*
%TO.N,Net-(J10-Pin_5)*%
X194627500Y-95250000D02*
X195790000Y-94087500D01*
X191452500Y-95250000D02*
X194627500Y-95250000D01*
X190290000Y-94087500D02*
X191452500Y-95250000D01*
X190290000Y-93487500D02*
X190290000Y-94087500D01*
X195790000Y-94087500D02*
X195790000Y-93487500D01*
%TO.N,Net-(J14-Pin_1)*%
X209435565Y-95250000D02*
X212210861Y-95250000D01*
X208073213Y-93887648D02*
X209435565Y-95250000D01*
X212210861Y-95250000D02*
X213573213Y-93887648D01*
X208073213Y-93287648D02*
X208073213Y-93887648D01*
X213573213Y-93887648D02*
X213573213Y-93287648D01*
%TO.N,Net-(J14-Pin_2)*%
X209303213Y-93733213D02*
X209303213Y-93287648D01*
X212343213Y-93887648D02*
X212018213Y-94212648D01*
X212018213Y-94212648D02*
X209782648Y-94212648D01*
X209782648Y-94212648D02*
X209303213Y-93733213D01*
X212343213Y-93287648D02*
X212343213Y-93887648D01*
%TO.N,Net-(J19-CC1)*%
X193540000Y-93487500D02*
X192540000Y-93487500D01*
X193540000Y-90560000D02*
X193540000Y-93487500D01*
X193930000Y-90170000D02*
X193540000Y-90560000D01*
%TO.N,Net-(J10-Pin_5)*%
X195790000Y-90380000D02*
X195580000Y-90170000D01*
X195790000Y-93487500D02*
X195790000Y-90380000D01*
%TO.N,Net-(J12-Pin_12)*%
X204470000Y-83820000D02*
X201930000Y-81280000D01*
X208280000Y-83820000D02*
X204470000Y-83820000D01*
%TO.N,Net-(J14-Pin_1)*%
X213360000Y-73470000D02*
X213360000Y-68820000D01*
%TO.N,Net-(J14-Pin_2)*%
X210820000Y-68820000D02*
X210820000Y-64170000D01*
X210820000Y-73470000D02*
X210820000Y-68820000D01*
X210920000Y-73570000D02*
X210820000Y-73470000D01*
X210820000Y-78475000D02*
X210920000Y-78375000D01*
X210820000Y-82770000D02*
X210820000Y-78475000D01*
X209303213Y-89146787D02*
X210820000Y-87630000D01*
X209303213Y-93287648D02*
X209303213Y-89146787D01*
%TO.N,Net-(J1-CC1)*%
X210323213Y-93287648D02*
X211323213Y-93287648D01*
X211323213Y-90301787D02*
X211323213Y-93287648D01*
X211710000Y-89915000D02*
X211323213Y-90301787D01*
%TO.N,Net-(J14-Pin_1)*%
X213360000Y-90170000D02*
X213573213Y-90383213D01*
X213360000Y-89915000D02*
X213360000Y-90170000D01*
X213573213Y-90383213D02*
X213573213Y-93287648D01*
%TO.N,Net-(J7-Pin_4)*%
X174015000Y-73660000D02*
X176555000Y-71120000D01*
X170180000Y-73660000D02*
X174015000Y-73660000D01*
%TO.N,Net-(J7-Pin_5)*%
X174015000Y-76200000D02*
X176555000Y-73660000D01*
X170180000Y-76200000D02*
X174015000Y-76200000D01*
%TO.N,Net-(J7-Pin_6)*%
X174015000Y-78740000D02*
X176555000Y-76200000D01*
X170180000Y-78740000D02*
X174015000Y-78740000D01*
%TO.N,Net-(J7-Pin_7)*%
X174015000Y-81280000D02*
X176555000Y-78740000D01*
X170180000Y-81280000D02*
X174015000Y-81280000D01*
%TO.N,Net-(J12-Pin_5)*%
X190500000Y-66040000D02*
X199390000Y-66040000D01*
X186690000Y-62230000D02*
X190500000Y-66040000D01*
%TO.N,Net-(J12-Pin_4)*%
X189230000Y-62230000D02*
X191770000Y-64770000D01*
X191770000Y-64770000D02*
X198120000Y-64770000D01*
%TO.N,Net-(J12-Pin_2)*%
X195580000Y-62230000D02*
X201930000Y-55880000D01*
X194310000Y-62230000D02*
X195580000Y-62230000D01*
%TO.N,Net-(J12-Pin_3)*%
X196850000Y-63500000D02*
X201930000Y-58420000D01*
X193040000Y-63500000D02*
X196850000Y-63500000D01*
X191770000Y-62230000D02*
X193040000Y-63500000D01*
%TO.N,Net-(J12-Pin_4)*%
X198120000Y-64770000D02*
X201930000Y-60960000D01*
%TO.N,Net-(J12-Pin_5)*%
X199390000Y-66040000D02*
X201930000Y-63500000D01*
%TO.N,Net-(J12-Pin_1)*%
X193040000Y-53340000D02*
X201930000Y-53340000D01*
X184150000Y-62230000D02*
X193040000Y-53340000D01*
X202620000Y-52650000D02*
X201930000Y-53340000D01*
X208130000Y-52650000D02*
X202620000Y-52650000D01*
X214630000Y-52650000D02*
X208130000Y-52650000D01*
%TO.N,Net-(J12-Pin_6)*%
X208130000Y-57150000D02*
X214630000Y-57150000D01*
X208130000Y-59840000D02*
X208130000Y-57150000D01*
X201930000Y-66040000D02*
X208130000Y-59840000D01*
%TO.N,Net-(J12-Pin_8)*%
X201930000Y-71120000D02*
X208280000Y-64770000D01*
X208280000Y-64770000D02*
X208280000Y-64170000D01*
%TO.N,Net-(J12-Pin_9)*%
X201930000Y-73660000D02*
X203440000Y-73660000D01*
X203440000Y-73660000D02*
X208280000Y-68820000D01*
%TO.N,Net-(J12-Pin_10)*%
X201930000Y-76200000D02*
X205550000Y-76200000D01*
X205550000Y-76200000D02*
X208280000Y-73470000D01*
%TO.N,Net-(J12-Pin_11)*%
X208015000Y-78740000D02*
X208380000Y-78375000D01*
X201930000Y-78740000D02*
X208015000Y-78740000D01*
%TO.N,Net-(J14-Pin_1)*%
X213360000Y-68820000D02*
X213360000Y-64170000D01*
X213460000Y-78375000D02*
X213460000Y-73570000D01*
X213460000Y-73570000D02*
X213360000Y-73470000D01*
X213360000Y-78475000D02*
X213460000Y-78375000D01*
X213360000Y-82770000D02*
X213360000Y-78475000D01*
X213360000Y-89915000D02*
X213360000Y-82770000D01*
%TO.N,Net-(J14-Pin_2)*%
X210820000Y-87630000D02*
X210820000Y-82770000D01*
%TD*%
M02*
