%TF.GenerationSoftware,KiCad,Pcbnew,8.0.3*%
%TF.CreationDate,2024-07-02T19:52:40-05:00*%
%TF.ProjectId,lucidGloves,6c756369-6447-46c6-9f76-65732e6b6963,rev?*%
%TF.SameCoordinates,Original*%
%TF.FileFunction,Drillmap*%
%TF.FilePolarity,Positive*%
%FSLAX45Y45*%
G04 Gerber Fmt 4.5, Leading zero omitted, Abs format (unit mm)*
G04 Created by KiCad (PCBNEW 8.0.3) date 2024-07-02 19:52:40*
%MOMM*%
%LPD*%
G01*
G04 APERTURE LIST*
%ADD10C,0.100000*%
%ADD11C,0.200000*%
G04 APERTURE END LIST*
D10*
X14351000Y-5080000D02*
X21717000Y-5080000D01*
X21717000Y-10160000D01*
X14351000Y-10160000D01*
X14351000Y-5080000D01*
D11*
D10*
X19108500Y-9202500D02*
X19118500Y-9212500D01*
X19118500Y-9202500D02*
X19108500Y-9212500D01*
X18098229Y-9757549D02*
G75*
G02*
X18008229Y-9757549I-45000J0D01*
G01*
X18008229Y-9757549D02*
G75*
G02*
X18098229Y-9757549I45000J0D01*
G01*
X18352229Y-9757549D02*
G75*
G02*
X18262229Y-9757549I-45000J0D01*
G01*
X18262229Y-9757549D02*
G75*
G02*
X18352229Y-9757549I45000J0D01*
G01*
X14607500Y-8350000D02*
X14607500Y-8450000D01*
X14557500Y-8400000D02*
X14657500Y-8400000D01*
X14607500Y-8604000D02*
X14607500Y-8704000D01*
X14557500Y-8654000D02*
X14657500Y-8654000D01*
X14607500Y-8858000D02*
X14607500Y-8958000D01*
X14557500Y-8908000D02*
X14657500Y-8908000D01*
X14607500Y-9112000D02*
X14607500Y-9212000D01*
X14557500Y-9162000D02*
X14657500Y-9162000D01*
X14607500Y-9366000D02*
X14607500Y-9466000D01*
X14557500Y-9416000D02*
X14657500Y-9416000D01*
X14610000Y-5284000D02*
X14610000Y-5384000D01*
X14560000Y-5334000D02*
X14660000Y-5334000D01*
X14610000Y-5538000D02*
X14610000Y-5638000D01*
X14560000Y-5588000D02*
X14660000Y-5588000D01*
X14610000Y-5792000D02*
X14610000Y-5892000D01*
X14560000Y-5842000D02*
X14660000Y-5842000D01*
X14610000Y-6046000D02*
X14610000Y-6146000D01*
X14560000Y-6096000D02*
X14660000Y-6096000D01*
X14610000Y-6300000D02*
X14610000Y-6400000D01*
X14560000Y-6350000D02*
X14660000Y-6350000D01*
X14610000Y-6808000D02*
X14610000Y-6908000D01*
X14560000Y-6858000D02*
X14660000Y-6858000D01*
X14610000Y-7062000D02*
X14610000Y-7162000D01*
X14560000Y-7112000D02*
X14660000Y-7112000D01*
X14610000Y-7316000D02*
X14610000Y-7416000D01*
X14560000Y-7366000D02*
X14660000Y-7366000D01*
X14610000Y-7570000D02*
X14610000Y-7670000D01*
X14560000Y-7620000D02*
X14660000Y-7620000D01*
X14610000Y-7824000D02*
X14610000Y-7924000D01*
X14560000Y-7874000D02*
X14660000Y-7874000D01*
X14610000Y-9856000D02*
X14610000Y-9956000D01*
X14560000Y-9906000D02*
X14660000Y-9906000D01*
X14864000Y-9856000D02*
X14864000Y-9956000D01*
X14814000Y-9906000D02*
X14914000Y-9906000D01*
X15118000Y-9856000D02*
X15118000Y-9956000D01*
X15068000Y-9906000D02*
X15168000Y-9906000D01*
X15224000Y-5538000D02*
X15224000Y-5638000D01*
X15174000Y-5588000D02*
X15274000Y-5588000D01*
X15224000Y-5792000D02*
X15224000Y-5892000D01*
X15174000Y-5842000D02*
X15274000Y-5842000D01*
X15224000Y-6046000D02*
X15224000Y-6146000D01*
X15174000Y-6096000D02*
X15274000Y-6096000D01*
X15224000Y-6300000D02*
X15224000Y-6400000D01*
X15174000Y-6350000D02*
X15274000Y-6350000D01*
X15224000Y-6554000D02*
X15224000Y-6654000D01*
X15174000Y-6604000D02*
X15274000Y-6604000D01*
X15224000Y-6808000D02*
X15224000Y-6908000D01*
X15174000Y-6858000D02*
X15274000Y-6858000D01*
X15224000Y-7062000D02*
X15224000Y-7162000D01*
X15174000Y-7112000D02*
X15274000Y-7112000D01*
X15224000Y-7316000D02*
X15224000Y-7416000D01*
X15174000Y-7366000D02*
X15274000Y-7366000D01*
X15224000Y-7570000D02*
X15224000Y-7670000D01*
X15174000Y-7620000D02*
X15274000Y-7620000D01*
X15224000Y-7824000D02*
X15224000Y-7924000D01*
X15174000Y-7874000D02*
X15274000Y-7874000D01*
X15224000Y-8078000D02*
X15224000Y-8178000D01*
X15174000Y-8128000D02*
X15274000Y-8128000D01*
X15224000Y-8332000D02*
X15224000Y-8432000D01*
X15174000Y-8382000D02*
X15274000Y-8382000D01*
X15224000Y-8586000D02*
X15224000Y-8686000D01*
X15174000Y-8636000D02*
X15274000Y-8636000D01*
X15224000Y-8840000D02*
X15224000Y-8940000D01*
X15174000Y-8890000D02*
X15274000Y-8890000D01*
X15224000Y-9094000D02*
X15224000Y-9194000D01*
X15174000Y-9144000D02*
X15274000Y-9144000D01*
X15224000Y-9348000D02*
X15224000Y-9448000D01*
X15174000Y-9398000D02*
X15274000Y-9398000D01*
X15372000Y-9856000D02*
X15372000Y-9956000D01*
X15322000Y-9906000D02*
X15422000Y-9906000D01*
X15626000Y-9856000D02*
X15626000Y-9956000D01*
X15576000Y-9906000D02*
X15676000Y-9906000D01*
X16002000Y-6173000D02*
X16002000Y-6273000D01*
X15952000Y-6223000D02*
X16052000Y-6223000D01*
X16112000Y-9856000D02*
X16112000Y-9956000D01*
X16062000Y-9906000D02*
X16162000Y-9906000D01*
X16256000Y-6173000D02*
X16256000Y-6273000D01*
X16206000Y-6223000D02*
X16306000Y-6223000D01*
X16366000Y-9856000D02*
X16366000Y-9956000D01*
X16316000Y-9906000D02*
X16416000Y-9906000D01*
X16510000Y-6173000D02*
X16510000Y-6273000D01*
X16460000Y-6223000D02*
X16560000Y-6223000D01*
X16620000Y-9856000D02*
X16620000Y-9956000D01*
X16570000Y-9906000D02*
X16670000Y-9906000D01*
X16764000Y-6173000D02*
X16764000Y-6273000D01*
X16714000Y-6223000D02*
X16814000Y-6223000D01*
X16874000Y-9856000D02*
X16874000Y-9956000D01*
X16824000Y-9906000D02*
X16924000Y-9906000D01*
X17018000Y-6173000D02*
X17018000Y-6273000D01*
X16968000Y-6223000D02*
X17068000Y-6223000D01*
X17018000Y-6554000D02*
X17018000Y-6654000D01*
X16968000Y-6604000D02*
X17068000Y-6604000D01*
X17018000Y-6808000D02*
X17018000Y-6908000D01*
X16968000Y-6858000D02*
X17068000Y-6858000D01*
X17018000Y-7062000D02*
X17018000Y-7162000D01*
X16968000Y-7112000D02*
X17068000Y-7112000D01*
X17018000Y-7316000D02*
X17018000Y-7416000D01*
X16968000Y-7366000D02*
X17068000Y-7366000D01*
X17018000Y-7570000D02*
X17018000Y-7670000D01*
X16968000Y-7620000D02*
X17068000Y-7620000D01*
X17018000Y-7824000D02*
X17018000Y-7924000D01*
X16968000Y-7874000D02*
X17068000Y-7874000D01*
X17018000Y-8078000D02*
X17018000Y-8178000D01*
X16968000Y-8128000D02*
X17068000Y-8128000D01*
X17018000Y-8332000D02*
X17018000Y-8432000D01*
X16968000Y-8382000D02*
X17068000Y-8382000D01*
X17128000Y-9856000D02*
X17128000Y-9956000D01*
X17078000Y-9906000D02*
X17178000Y-9906000D01*
X17655500Y-5284000D02*
X17655500Y-5384000D01*
X17605500Y-5334000D02*
X17705500Y-5334000D01*
X17655500Y-5538000D02*
X17655500Y-5638000D01*
X17605500Y-5588000D02*
X17705500Y-5588000D01*
X17655500Y-5792000D02*
X17655500Y-5892000D01*
X17605500Y-5842000D02*
X17705500Y-5842000D01*
X17655500Y-6046000D02*
X17655500Y-6146000D01*
X17605500Y-6096000D02*
X17705500Y-6096000D01*
X17655500Y-6300000D02*
X17655500Y-6400000D01*
X17605500Y-6350000D02*
X17705500Y-6350000D01*
X17655500Y-6554000D02*
X17655500Y-6654000D01*
X17605500Y-6604000D02*
X17705500Y-6604000D01*
X17655500Y-6808000D02*
X17655500Y-6908000D01*
X17605500Y-6858000D02*
X17705500Y-6858000D01*
X17655500Y-7062000D02*
X17655500Y-7162000D01*
X17605500Y-7112000D02*
X17705500Y-7112000D01*
X17655500Y-7316000D02*
X17655500Y-7416000D01*
X17605500Y-7366000D02*
X17705500Y-7366000D01*
X17655500Y-7570000D02*
X17655500Y-7670000D01*
X17605500Y-7620000D02*
X17705500Y-7620000D01*
X17655500Y-7824000D02*
X17655500Y-7924000D01*
X17605500Y-7874000D02*
X17705500Y-7874000D01*
X17655500Y-8078000D02*
X17655500Y-8178000D01*
X17605500Y-8128000D02*
X17705500Y-8128000D01*
X17655500Y-8332000D02*
X17655500Y-8432000D01*
X17605500Y-8382000D02*
X17705500Y-8382000D01*
X17655500Y-8586000D02*
X17655500Y-8686000D01*
X17605500Y-8636000D02*
X17705500Y-8636000D01*
X17655500Y-8840000D02*
X17655500Y-8940000D01*
X17605500Y-8890000D02*
X17705500Y-8890000D01*
X17655500Y-9094000D02*
X17655500Y-9194000D01*
X17605500Y-9144000D02*
X17705500Y-9144000D01*
X17655500Y-9348000D02*
X17655500Y-9448000D01*
X17605500Y-9398000D02*
X17705500Y-9398000D01*
X17655500Y-9602000D02*
X17655500Y-9702000D01*
X17605500Y-9652000D02*
X17705500Y-9652000D01*
X17655500Y-9856000D02*
X17655500Y-9956000D01*
X17605500Y-9906000D02*
X17705500Y-9906000D01*
X18415500Y-6173000D02*
X18415500Y-6273000D01*
X18365500Y-6223000D02*
X18465500Y-6223000D01*
X18669500Y-6173000D02*
X18669500Y-6273000D01*
X18619500Y-6223000D02*
X18719500Y-6223000D01*
X18923500Y-6173000D02*
X18923500Y-6273000D01*
X18873500Y-6223000D02*
X18973500Y-6223000D01*
X19177500Y-6173000D02*
X19177500Y-6273000D01*
X19127500Y-6223000D02*
X19227500Y-6223000D01*
X19431500Y-6173000D02*
X19431500Y-6273000D01*
X19381500Y-6223000D02*
X19481500Y-6223000D01*
X20193000Y-5284000D02*
X20193000Y-5384000D01*
X20143000Y-5334000D02*
X20243000Y-5334000D01*
X20193000Y-5538000D02*
X20193000Y-5638000D01*
X20143000Y-5588000D02*
X20243000Y-5588000D01*
X20193000Y-5792000D02*
X20193000Y-5892000D01*
X20143000Y-5842000D02*
X20243000Y-5842000D01*
X20193000Y-6046000D02*
X20193000Y-6146000D01*
X20143000Y-6096000D02*
X20243000Y-6096000D01*
X20193000Y-6300000D02*
X20193000Y-6400000D01*
X20143000Y-6350000D02*
X20243000Y-6350000D01*
X20193000Y-6554000D02*
X20193000Y-6654000D01*
X20143000Y-6604000D02*
X20243000Y-6604000D01*
X20193000Y-6808000D02*
X20193000Y-6908000D01*
X20143000Y-6858000D02*
X20243000Y-6858000D01*
X20193000Y-7062000D02*
X20193000Y-7162000D01*
X20143000Y-7112000D02*
X20243000Y-7112000D01*
X20193000Y-7316000D02*
X20193000Y-7416000D01*
X20143000Y-7366000D02*
X20243000Y-7366000D01*
X20193000Y-7570000D02*
X20193000Y-7670000D01*
X20143000Y-7620000D02*
X20243000Y-7620000D01*
X20193000Y-7824000D02*
X20193000Y-7924000D01*
X20143000Y-7874000D02*
X20243000Y-7874000D01*
X20193000Y-8078000D02*
X20193000Y-8178000D01*
X20143000Y-8128000D02*
X20243000Y-8128000D01*
X20193000Y-8332000D02*
X20193000Y-8432000D01*
X20143000Y-8382000D02*
X20243000Y-8382000D01*
X20193000Y-8586000D02*
X20193000Y-8686000D01*
X20143000Y-8636000D02*
X20243000Y-8636000D01*
X20193000Y-8840000D02*
X20193000Y-8940000D01*
X20143000Y-8890000D02*
X20243000Y-8890000D01*
X20193000Y-9094000D02*
X20193000Y-9194000D01*
X20143000Y-9144000D02*
X20243000Y-9144000D01*
X20193000Y-9348000D02*
X20193000Y-9448000D01*
X20143000Y-9398000D02*
X20243000Y-9398000D01*
X20193000Y-9602000D02*
X20193000Y-9702000D01*
X20143000Y-9652000D02*
X20243000Y-9652000D01*
X20193000Y-9856000D02*
X20193000Y-9956000D01*
X20143000Y-9906000D02*
X20243000Y-9906000D01*
X20813000Y-5215000D02*
X20813000Y-5315000D01*
X20763000Y-5265000D02*
X20863000Y-5265000D01*
X20813000Y-5665000D02*
X20813000Y-5765000D01*
X20763000Y-5715000D02*
X20863000Y-5715000D01*
X20828000Y-6367000D02*
X20828000Y-6467000D01*
X20778000Y-6417000D02*
X20878000Y-6417000D01*
X20828000Y-6832000D02*
X20828000Y-6932000D01*
X20778000Y-6882000D02*
X20878000Y-6882000D01*
X20828000Y-7297000D02*
X20828000Y-7397000D01*
X20778000Y-7347000D02*
X20878000Y-7347000D01*
X20828000Y-7787500D02*
X20828000Y-7887500D01*
X20778000Y-7837500D02*
X20878000Y-7837500D01*
X20828000Y-8332000D02*
X20828000Y-8432000D01*
X20778000Y-8382000D02*
X20878000Y-8382000D01*
X21082000Y-6367000D02*
X21082000Y-6467000D01*
X21032000Y-6417000D02*
X21132000Y-6417000D01*
X21082000Y-6832000D02*
X21082000Y-6932000D01*
X21032000Y-6882000D02*
X21132000Y-6882000D01*
X21082000Y-7297000D02*
X21082000Y-7397000D01*
X21032000Y-7347000D02*
X21132000Y-7347000D01*
X21082000Y-7787500D02*
X21082000Y-7887500D01*
X21032000Y-7837500D02*
X21132000Y-7837500D01*
X21082000Y-8332000D02*
X21082000Y-8432000D01*
X21032000Y-8382000D02*
X21132000Y-8382000D01*
X21336000Y-6367000D02*
X21336000Y-6467000D01*
X21286000Y-6417000D02*
X21386000Y-6417000D01*
X21336000Y-6832000D02*
X21336000Y-6932000D01*
X21286000Y-6882000D02*
X21386000Y-6882000D01*
X21336000Y-7297000D02*
X21336000Y-7397000D01*
X21286000Y-7347000D02*
X21386000Y-7347000D01*
X21336000Y-7787500D02*
X21336000Y-7887500D01*
X21286000Y-7837500D02*
X21386000Y-7837500D01*
X21336000Y-8332000D02*
X21336000Y-8432000D01*
X21286000Y-8382000D02*
X21386000Y-8382000D01*
X21463000Y-5215000D02*
X21463000Y-5315000D01*
X21413000Y-5265000D02*
X21513000Y-5265000D01*
X21463000Y-5665000D02*
X21463000Y-5765000D01*
X21413000Y-5715000D02*
X21513000Y-5715000D01*
D11*
X14606777Y-10476484D02*
X14606777Y-10276484D01*
X14606777Y-10276484D02*
X14654396Y-10276484D01*
X14654396Y-10276484D02*
X14682967Y-10286008D01*
X14682967Y-10286008D02*
X14702015Y-10305055D01*
X14702015Y-10305055D02*
X14711539Y-10324103D01*
X14711539Y-10324103D02*
X14721062Y-10362198D01*
X14721062Y-10362198D02*
X14721062Y-10390770D01*
X14721062Y-10390770D02*
X14711539Y-10428865D01*
X14711539Y-10428865D02*
X14702015Y-10447912D01*
X14702015Y-10447912D02*
X14682967Y-10466960D01*
X14682967Y-10466960D02*
X14654396Y-10476484D01*
X14654396Y-10476484D02*
X14606777Y-10476484D01*
X14806777Y-10476484D02*
X14806777Y-10343150D01*
X14806777Y-10381246D02*
X14816301Y-10362198D01*
X14816301Y-10362198D02*
X14825824Y-10352674D01*
X14825824Y-10352674D02*
X14844872Y-10343150D01*
X14844872Y-10343150D02*
X14863920Y-10343150D01*
X14930586Y-10476484D02*
X14930586Y-10343150D01*
X14930586Y-10276484D02*
X14921062Y-10286008D01*
X14921062Y-10286008D02*
X14930586Y-10295531D01*
X14930586Y-10295531D02*
X14940110Y-10286008D01*
X14940110Y-10286008D02*
X14930586Y-10276484D01*
X14930586Y-10276484D02*
X14930586Y-10295531D01*
X15054396Y-10476484D02*
X15035348Y-10466960D01*
X15035348Y-10466960D02*
X15025824Y-10447912D01*
X15025824Y-10447912D02*
X15025824Y-10276484D01*
X15159158Y-10476484D02*
X15140110Y-10466960D01*
X15140110Y-10466960D02*
X15130586Y-10447912D01*
X15130586Y-10447912D02*
X15130586Y-10276484D01*
X15387729Y-10476484D02*
X15387729Y-10276484D01*
X15387729Y-10276484D02*
X15454396Y-10419341D01*
X15454396Y-10419341D02*
X15521062Y-10276484D01*
X15521062Y-10276484D02*
X15521062Y-10476484D01*
X15702015Y-10476484D02*
X15702015Y-10371722D01*
X15702015Y-10371722D02*
X15692491Y-10352674D01*
X15692491Y-10352674D02*
X15673443Y-10343150D01*
X15673443Y-10343150D02*
X15635348Y-10343150D01*
X15635348Y-10343150D02*
X15616301Y-10352674D01*
X15702015Y-10466960D02*
X15682967Y-10476484D01*
X15682967Y-10476484D02*
X15635348Y-10476484D01*
X15635348Y-10476484D02*
X15616301Y-10466960D01*
X15616301Y-10466960D02*
X15606777Y-10447912D01*
X15606777Y-10447912D02*
X15606777Y-10428865D01*
X15606777Y-10428865D02*
X15616301Y-10409817D01*
X15616301Y-10409817D02*
X15635348Y-10400293D01*
X15635348Y-10400293D02*
X15682967Y-10400293D01*
X15682967Y-10400293D02*
X15702015Y-10390770D01*
X15797253Y-10343150D02*
X15797253Y-10543150D01*
X15797253Y-10352674D02*
X15816301Y-10343150D01*
X15816301Y-10343150D02*
X15854396Y-10343150D01*
X15854396Y-10343150D02*
X15873443Y-10352674D01*
X15873443Y-10352674D02*
X15882967Y-10362198D01*
X15882967Y-10362198D02*
X15892491Y-10381246D01*
X15892491Y-10381246D02*
X15892491Y-10438389D01*
X15892491Y-10438389D02*
X15882967Y-10457436D01*
X15882967Y-10457436D02*
X15873443Y-10466960D01*
X15873443Y-10466960D02*
X15854396Y-10476484D01*
X15854396Y-10476484D02*
X15816301Y-10476484D01*
X15816301Y-10476484D02*
X15797253Y-10466960D01*
X15978205Y-10457436D02*
X15987729Y-10466960D01*
X15987729Y-10466960D02*
X15978205Y-10476484D01*
X15978205Y-10476484D02*
X15968682Y-10466960D01*
X15968682Y-10466960D02*
X15978205Y-10457436D01*
X15978205Y-10457436D02*
X15978205Y-10476484D01*
X15978205Y-10352674D02*
X15987729Y-10362198D01*
X15987729Y-10362198D02*
X15978205Y-10371722D01*
X15978205Y-10371722D02*
X15968682Y-10362198D01*
X15968682Y-10362198D02*
X15978205Y-10352674D01*
X15978205Y-10352674D02*
X15978205Y-10371722D01*
D10*
X14336000Y-10800000D02*
X14346000Y-10810000D01*
X14346000Y-10800000D02*
X14336000Y-10810000D01*
D11*
X14644872Y-10696484D02*
X14663920Y-10696484D01*
X14663920Y-10696484D02*
X14682967Y-10706008D01*
X14682967Y-10706008D02*
X14692491Y-10715531D01*
X14692491Y-10715531D02*
X14702015Y-10734579D01*
X14702015Y-10734579D02*
X14711539Y-10772674D01*
X14711539Y-10772674D02*
X14711539Y-10820293D01*
X14711539Y-10820293D02*
X14702015Y-10858389D01*
X14702015Y-10858389D02*
X14692491Y-10877436D01*
X14692491Y-10877436D02*
X14682967Y-10886960D01*
X14682967Y-10886960D02*
X14663920Y-10896484D01*
X14663920Y-10896484D02*
X14644872Y-10896484D01*
X14644872Y-10896484D02*
X14625824Y-10886960D01*
X14625824Y-10886960D02*
X14616301Y-10877436D01*
X14616301Y-10877436D02*
X14606777Y-10858389D01*
X14606777Y-10858389D02*
X14597253Y-10820293D01*
X14597253Y-10820293D02*
X14597253Y-10772674D01*
X14597253Y-10772674D02*
X14606777Y-10734579D01*
X14606777Y-10734579D02*
X14616301Y-10715531D01*
X14616301Y-10715531D02*
X14625824Y-10706008D01*
X14625824Y-10706008D02*
X14644872Y-10696484D01*
X14797253Y-10877436D02*
X14806777Y-10886960D01*
X14806777Y-10886960D02*
X14797253Y-10896484D01*
X14797253Y-10896484D02*
X14787729Y-10886960D01*
X14787729Y-10886960D02*
X14797253Y-10877436D01*
X14797253Y-10877436D02*
X14797253Y-10896484D01*
X14997253Y-10896484D02*
X14882967Y-10896484D01*
X14940110Y-10896484D02*
X14940110Y-10696484D01*
X14940110Y-10696484D02*
X14921062Y-10725055D01*
X14921062Y-10725055D02*
X14902015Y-10744103D01*
X14902015Y-10744103D02*
X14882967Y-10753627D01*
X15121062Y-10696484D02*
X15140110Y-10696484D01*
X15140110Y-10696484D02*
X15159158Y-10706008D01*
X15159158Y-10706008D02*
X15168682Y-10715531D01*
X15168682Y-10715531D02*
X15178205Y-10734579D01*
X15178205Y-10734579D02*
X15187729Y-10772674D01*
X15187729Y-10772674D02*
X15187729Y-10820293D01*
X15187729Y-10820293D02*
X15178205Y-10858389D01*
X15178205Y-10858389D02*
X15168682Y-10877436D01*
X15168682Y-10877436D02*
X15159158Y-10886960D01*
X15159158Y-10886960D02*
X15140110Y-10896484D01*
X15140110Y-10896484D02*
X15121062Y-10896484D01*
X15121062Y-10896484D02*
X15102015Y-10886960D01*
X15102015Y-10886960D02*
X15092491Y-10877436D01*
X15092491Y-10877436D02*
X15082967Y-10858389D01*
X15082967Y-10858389D02*
X15073443Y-10820293D01*
X15073443Y-10820293D02*
X15073443Y-10772674D01*
X15073443Y-10772674D02*
X15082967Y-10734579D01*
X15082967Y-10734579D02*
X15092491Y-10715531D01*
X15092491Y-10715531D02*
X15102015Y-10706008D01*
X15102015Y-10706008D02*
X15121062Y-10696484D01*
X15311539Y-10696484D02*
X15330586Y-10696484D01*
X15330586Y-10696484D02*
X15349634Y-10706008D01*
X15349634Y-10706008D02*
X15359158Y-10715531D01*
X15359158Y-10715531D02*
X15368682Y-10734579D01*
X15368682Y-10734579D02*
X15378205Y-10772674D01*
X15378205Y-10772674D02*
X15378205Y-10820293D01*
X15378205Y-10820293D02*
X15368682Y-10858389D01*
X15368682Y-10858389D02*
X15359158Y-10877436D01*
X15359158Y-10877436D02*
X15349634Y-10886960D01*
X15349634Y-10886960D02*
X15330586Y-10896484D01*
X15330586Y-10896484D02*
X15311539Y-10896484D01*
X15311539Y-10896484D02*
X15292491Y-10886960D01*
X15292491Y-10886960D02*
X15282967Y-10877436D01*
X15282967Y-10877436D02*
X15273443Y-10858389D01*
X15273443Y-10858389D02*
X15263920Y-10820293D01*
X15263920Y-10820293D02*
X15263920Y-10772674D01*
X15263920Y-10772674D02*
X15273443Y-10734579D01*
X15273443Y-10734579D02*
X15282967Y-10715531D01*
X15282967Y-10715531D02*
X15292491Y-10706008D01*
X15292491Y-10706008D02*
X15311539Y-10696484D01*
X15463920Y-10896484D02*
X15463920Y-10763150D01*
X15463920Y-10782198D02*
X15473443Y-10772674D01*
X15473443Y-10772674D02*
X15492491Y-10763150D01*
X15492491Y-10763150D02*
X15521063Y-10763150D01*
X15521063Y-10763150D02*
X15540110Y-10772674D01*
X15540110Y-10772674D02*
X15549634Y-10791722D01*
X15549634Y-10791722D02*
X15549634Y-10896484D01*
X15549634Y-10791722D02*
X15559158Y-10772674D01*
X15559158Y-10772674D02*
X15578205Y-10763150D01*
X15578205Y-10763150D02*
X15606777Y-10763150D01*
X15606777Y-10763150D02*
X15625824Y-10772674D01*
X15625824Y-10772674D02*
X15635348Y-10791722D01*
X15635348Y-10791722D02*
X15635348Y-10896484D01*
X15730586Y-10896484D02*
X15730586Y-10763150D01*
X15730586Y-10782198D02*
X15740110Y-10772674D01*
X15740110Y-10772674D02*
X15759158Y-10763150D01*
X15759158Y-10763150D02*
X15787729Y-10763150D01*
X15787729Y-10763150D02*
X15806777Y-10772674D01*
X15806777Y-10772674D02*
X15816301Y-10791722D01*
X15816301Y-10791722D02*
X15816301Y-10896484D01*
X15816301Y-10791722D02*
X15825824Y-10772674D01*
X15825824Y-10772674D02*
X15844872Y-10763150D01*
X15844872Y-10763150D02*
X15873443Y-10763150D01*
X15873443Y-10763150D02*
X15892491Y-10772674D01*
X15892491Y-10772674D02*
X15902015Y-10791722D01*
X15902015Y-10791722D02*
X15902015Y-10896484D01*
X16292491Y-10686960D02*
X16121063Y-10944103D01*
X16549634Y-10696484D02*
X16568682Y-10696484D01*
X16568682Y-10696484D02*
X16587729Y-10706008D01*
X16587729Y-10706008D02*
X16597253Y-10715531D01*
X16597253Y-10715531D02*
X16606777Y-10734579D01*
X16606777Y-10734579D02*
X16616301Y-10772674D01*
X16616301Y-10772674D02*
X16616301Y-10820293D01*
X16616301Y-10820293D02*
X16606777Y-10858389D01*
X16606777Y-10858389D02*
X16597253Y-10877436D01*
X16597253Y-10877436D02*
X16587729Y-10886960D01*
X16587729Y-10886960D02*
X16568682Y-10896484D01*
X16568682Y-10896484D02*
X16549634Y-10896484D01*
X16549634Y-10896484D02*
X16530586Y-10886960D01*
X16530586Y-10886960D02*
X16521063Y-10877436D01*
X16521063Y-10877436D02*
X16511539Y-10858389D01*
X16511539Y-10858389D02*
X16502015Y-10820293D01*
X16502015Y-10820293D02*
X16502015Y-10772674D01*
X16502015Y-10772674D02*
X16511539Y-10734579D01*
X16511539Y-10734579D02*
X16521063Y-10715531D01*
X16521063Y-10715531D02*
X16530586Y-10706008D01*
X16530586Y-10706008D02*
X16549634Y-10696484D01*
X16702015Y-10877436D02*
X16711539Y-10886960D01*
X16711539Y-10886960D02*
X16702015Y-10896484D01*
X16702015Y-10896484D02*
X16692491Y-10886960D01*
X16692491Y-10886960D02*
X16702015Y-10877436D01*
X16702015Y-10877436D02*
X16702015Y-10896484D01*
X16835348Y-10696484D02*
X16854396Y-10696484D01*
X16854396Y-10696484D02*
X16873444Y-10706008D01*
X16873444Y-10706008D02*
X16882968Y-10715531D01*
X16882968Y-10715531D02*
X16892491Y-10734579D01*
X16892491Y-10734579D02*
X16902015Y-10772674D01*
X16902015Y-10772674D02*
X16902015Y-10820293D01*
X16902015Y-10820293D02*
X16892491Y-10858389D01*
X16892491Y-10858389D02*
X16882968Y-10877436D01*
X16882968Y-10877436D02*
X16873444Y-10886960D01*
X16873444Y-10886960D02*
X16854396Y-10896484D01*
X16854396Y-10896484D02*
X16835348Y-10896484D01*
X16835348Y-10896484D02*
X16816301Y-10886960D01*
X16816301Y-10886960D02*
X16806777Y-10877436D01*
X16806777Y-10877436D02*
X16797253Y-10858389D01*
X16797253Y-10858389D02*
X16787729Y-10820293D01*
X16787729Y-10820293D02*
X16787729Y-10772674D01*
X16787729Y-10772674D02*
X16797253Y-10734579D01*
X16797253Y-10734579D02*
X16806777Y-10715531D01*
X16806777Y-10715531D02*
X16816301Y-10706008D01*
X16816301Y-10706008D02*
X16835348Y-10696484D01*
X17025825Y-10696484D02*
X17044872Y-10696484D01*
X17044872Y-10696484D02*
X17063920Y-10706008D01*
X17063920Y-10706008D02*
X17073444Y-10715531D01*
X17073444Y-10715531D02*
X17082968Y-10734579D01*
X17082968Y-10734579D02*
X17092491Y-10772674D01*
X17092491Y-10772674D02*
X17092491Y-10820293D01*
X17092491Y-10820293D02*
X17082968Y-10858389D01*
X17082968Y-10858389D02*
X17073444Y-10877436D01*
X17073444Y-10877436D02*
X17063920Y-10886960D01*
X17063920Y-10886960D02*
X17044872Y-10896484D01*
X17044872Y-10896484D02*
X17025825Y-10896484D01*
X17025825Y-10896484D02*
X17006777Y-10886960D01*
X17006777Y-10886960D02*
X16997253Y-10877436D01*
X16997253Y-10877436D02*
X16987729Y-10858389D01*
X16987729Y-10858389D02*
X16978206Y-10820293D01*
X16978206Y-10820293D02*
X16978206Y-10772674D01*
X16978206Y-10772674D02*
X16987729Y-10734579D01*
X16987729Y-10734579D02*
X16997253Y-10715531D01*
X16997253Y-10715531D02*
X17006777Y-10706008D01*
X17006777Y-10706008D02*
X17025825Y-10696484D01*
X17159158Y-10696484D02*
X17282968Y-10696484D01*
X17282968Y-10696484D02*
X17216301Y-10772674D01*
X17216301Y-10772674D02*
X17244872Y-10772674D01*
X17244872Y-10772674D02*
X17263920Y-10782198D01*
X17263920Y-10782198D02*
X17273444Y-10791722D01*
X17273444Y-10791722D02*
X17282968Y-10810770D01*
X17282968Y-10810770D02*
X17282968Y-10858389D01*
X17282968Y-10858389D02*
X17273444Y-10877436D01*
X17273444Y-10877436D02*
X17263920Y-10886960D01*
X17263920Y-10886960D02*
X17244872Y-10896484D01*
X17244872Y-10896484D02*
X17187729Y-10896484D01*
X17187729Y-10896484D02*
X17168682Y-10886960D01*
X17168682Y-10886960D02*
X17159158Y-10877436D01*
X17378206Y-10896484D02*
X17416301Y-10896484D01*
X17416301Y-10896484D02*
X17435349Y-10886960D01*
X17435349Y-10886960D02*
X17444872Y-10877436D01*
X17444872Y-10877436D02*
X17463920Y-10848865D01*
X17463920Y-10848865D02*
X17473444Y-10810770D01*
X17473444Y-10810770D02*
X17473444Y-10734579D01*
X17473444Y-10734579D02*
X17463920Y-10715531D01*
X17463920Y-10715531D02*
X17454396Y-10706008D01*
X17454396Y-10706008D02*
X17435349Y-10696484D01*
X17435349Y-10696484D02*
X17397253Y-10696484D01*
X17397253Y-10696484D02*
X17378206Y-10706008D01*
X17378206Y-10706008D02*
X17368682Y-10715531D01*
X17368682Y-10715531D02*
X17359158Y-10734579D01*
X17359158Y-10734579D02*
X17359158Y-10782198D01*
X17359158Y-10782198D02*
X17368682Y-10801246D01*
X17368682Y-10801246D02*
X17378206Y-10810770D01*
X17378206Y-10810770D02*
X17397253Y-10820293D01*
X17397253Y-10820293D02*
X17435349Y-10820293D01*
X17435349Y-10820293D02*
X17454396Y-10810770D01*
X17454396Y-10810770D02*
X17463920Y-10801246D01*
X17463920Y-10801246D02*
X17473444Y-10782198D01*
X17549634Y-10696484D02*
X17549634Y-10734579D01*
X17625825Y-10696484D02*
X17625825Y-10734579D01*
X17921063Y-10972674D02*
X17911539Y-10963150D01*
X17911539Y-10963150D02*
X17892491Y-10934579D01*
X17892491Y-10934579D02*
X17882968Y-10915531D01*
X17882968Y-10915531D02*
X17873444Y-10886960D01*
X17873444Y-10886960D02*
X17863920Y-10839341D01*
X17863920Y-10839341D02*
X17863920Y-10801246D01*
X17863920Y-10801246D02*
X17873444Y-10753627D01*
X17873444Y-10753627D02*
X17882968Y-10725055D01*
X17882968Y-10725055D02*
X17892491Y-10706008D01*
X17892491Y-10706008D02*
X17911539Y-10677436D01*
X17911539Y-10677436D02*
X17921063Y-10667912D01*
X18102015Y-10896484D02*
X17987730Y-10896484D01*
X18044872Y-10896484D02*
X18044872Y-10696484D01*
X18044872Y-10696484D02*
X18025825Y-10725055D01*
X18025825Y-10725055D02*
X18006777Y-10744103D01*
X18006777Y-10744103D02*
X17987730Y-10753627D01*
X18340111Y-10896484D02*
X18340111Y-10696484D01*
X18425825Y-10896484D02*
X18425825Y-10791722D01*
X18425825Y-10791722D02*
X18416301Y-10772674D01*
X18416301Y-10772674D02*
X18397253Y-10763150D01*
X18397253Y-10763150D02*
X18368682Y-10763150D01*
X18368682Y-10763150D02*
X18349634Y-10772674D01*
X18349634Y-10772674D02*
X18340111Y-10782198D01*
X18549634Y-10896484D02*
X18530587Y-10886960D01*
X18530587Y-10886960D02*
X18521063Y-10877436D01*
X18521063Y-10877436D02*
X18511539Y-10858389D01*
X18511539Y-10858389D02*
X18511539Y-10801246D01*
X18511539Y-10801246D02*
X18521063Y-10782198D01*
X18521063Y-10782198D02*
X18530587Y-10772674D01*
X18530587Y-10772674D02*
X18549634Y-10763150D01*
X18549634Y-10763150D02*
X18578206Y-10763150D01*
X18578206Y-10763150D02*
X18597253Y-10772674D01*
X18597253Y-10772674D02*
X18606777Y-10782198D01*
X18606777Y-10782198D02*
X18616301Y-10801246D01*
X18616301Y-10801246D02*
X18616301Y-10858389D01*
X18616301Y-10858389D02*
X18606777Y-10877436D01*
X18606777Y-10877436D02*
X18597253Y-10886960D01*
X18597253Y-10886960D02*
X18578206Y-10896484D01*
X18578206Y-10896484D02*
X18549634Y-10896484D01*
X18730587Y-10896484D02*
X18711539Y-10886960D01*
X18711539Y-10886960D02*
X18702015Y-10867912D01*
X18702015Y-10867912D02*
X18702015Y-10696484D01*
X18882968Y-10886960D02*
X18863920Y-10896484D01*
X18863920Y-10896484D02*
X18825825Y-10896484D01*
X18825825Y-10896484D02*
X18806777Y-10886960D01*
X18806777Y-10886960D02*
X18797253Y-10867912D01*
X18797253Y-10867912D02*
X18797253Y-10791722D01*
X18797253Y-10791722D02*
X18806777Y-10772674D01*
X18806777Y-10772674D02*
X18825825Y-10763150D01*
X18825825Y-10763150D02*
X18863920Y-10763150D01*
X18863920Y-10763150D02*
X18882968Y-10772674D01*
X18882968Y-10772674D02*
X18892492Y-10791722D01*
X18892492Y-10791722D02*
X18892492Y-10810770D01*
X18892492Y-10810770D02*
X18797253Y-10829817D01*
X18959158Y-10972674D02*
X18968682Y-10963150D01*
X18968682Y-10963150D02*
X18987730Y-10934579D01*
X18987730Y-10934579D02*
X18997253Y-10915531D01*
X18997253Y-10915531D02*
X19006777Y-10886960D01*
X19006777Y-10886960D02*
X19016301Y-10839341D01*
X19016301Y-10839341D02*
X19016301Y-10801246D01*
X19016301Y-10801246D02*
X19006777Y-10753627D01*
X19006777Y-10753627D02*
X18997253Y-10725055D01*
X18997253Y-10725055D02*
X18987730Y-10706008D01*
X18987730Y-10706008D02*
X18968682Y-10677436D01*
X18968682Y-10677436D02*
X18959158Y-10667912D01*
D10*
X14346000Y-11069000D02*
G75*
G02*
X14256000Y-11069000I-45000J0D01*
G01*
X14256000Y-11069000D02*
G75*
G02*
X14346000Y-11069000I45000J0D01*
G01*
D11*
X14644872Y-10960484D02*
X14663920Y-10960484D01*
X14663920Y-10960484D02*
X14682967Y-10970008D01*
X14682967Y-10970008D02*
X14692491Y-10979531D01*
X14692491Y-10979531D02*
X14702015Y-10998579D01*
X14702015Y-10998579D02*
X14711539Y-11036674D01*
X14711539Y-11036674D02*
X14711539Y-11084293D01*
X14711539Y-11084293D02*
X14702015Y-11122389D01*
X14702015Y-11122389D02*
X14692491Y-11141436D01*
X14692491Y-11141436D02*
X14682967Y-11150960D01*
X14682967Y-11150960D02*
X14663920Y-11160484D01*
X14663920Y-11160484D02*
X14644872Y-11160484D01*
X14644872Y-11160484D02*
X14625824Y-11150960D01*
X14625824Y-11150960D02*
X14616301Y-11141436D01*
X14616301Y-11141436D02*
X14606777Y-11122389D01*
X14606777Y-11122389D02*
X14597253Y-11084293D01*
X14597253Y-11084293D02*
X14597253Y-11036674D01*
X14597253Y-11036674D02*
X14606777Y-10998579D01*
X14606777Y-10998579D02*
X14616301Y-10979531D01*
X14616301Y-10979531D02*
X14625824Y-10970008D01*
X14625824Y-10970008D02*
X14644872Y-10960484D01*
X14797253Y-11141436D02*
X14806777Y-11150960D01*
X14806777Y-11150960D02*
X14797253Y-11160484D01*
X14797253Y-11160484D02*
X14787729Y-11150960D01*
X14787729Y-11150960D02*
X14797253Y-11141436D01*
X14797253Y-11141436D02*
X14797253Y-11160484D01*
X14902015Y-11160484D02*
X14940110Y-11160484D01*
X14940110Y-11160484D02*
X14959158Y-11150960D01*
X14959158Y-11150960D02*
X14968682Y-11141436D01*
X14968682Y-11141436D02*
X14987729Y-11112865D01*
X14987729Y-11112865D02*
X14997253Y-11074770D01*
X14997253Y-11074770D02*
X14997253Y-10998579D01*
X14997253Y-10998579D02*
X14987729Y-10979531D01*
X14987729Y-10979531D02*
X14978205Y-10970008D01*
X14978205Y-10970008D02*
X14959158Y-10960484D01*
X14959158Y-10960484D02*
X14921062Y-10960484D01*
X14921062Y-10960484D02*
X14902015Y-10970008D01*
X14902015Y-10970008D02*
X14892491Y-10979531D01*
X14892491Y-10979531D02*
X14882967Y-10998579D01*
X14882967Y-10998579D02*
X14882967Y-11046198D01*
X14882967Y-11046198D02*
X14892491Y-11065246D01*
X14892491Y-11065246D02*
X14902015Y-11074770D01*
X14902015Y-11074770D02*
X14921062Y-11084293D01*
X14921062Y-11084293D02*
X14959158Y-11084293D01*
X14959158Y-11084293D02*
X14978205Y-11074770D01*
X14978205Y-11074770D02*
X14987729Y-11065246D01*
X14987729Y-11065246D02*
X14997253Y-11046198D01*
X15121062Y-10960484D02*
X15140110Y-10960484D01*
X15140110Y-10960484D02*
X15159158Y-10970008D01*
X15159158Y-10970008D02*
X15168682Y-10979531D01*
X15168682Y-10979531D02*
X15178205Y-10998579D01*
X15178205Y-10998579D02*
X15187729Y-11036674D01*
X15187729Y-11036674D02*
X15187729Y-11084293D01*
X15187729Y-11084293D02*
X15178205Y-11122389D01*
X15178205Y-11122389D02*
X15168682Y-11141436D01*
X15168682Y-11141436D02*
X15159158Y-11150960D01*
X15159158Y-11150960D02*
X15140110Y-11160484D01*
X15140110Y-11160484D02*
X15121062Y-11160484D01*
X15121062Y-11160484D02*
X15102015Y-11150960D01*
X15102015Y-11150960D02*
X15092491Y-11141436D01*
X15092491Y-11141436D02*
X15082967Y-11122389D01*
X15082967Y-11122389D02*
X15073443Y-11084293D01*
X15073443Y-11084293D02*
X15073443Y-11036674D01*
X15073443Y-11036674D02*
X15082967Y-10998579D01*
X15082967Y-10998579D02*
X15092491Y-10979531D01*
X15092491Y-10979531D02*
X15102015Y-10970008D01*
X15102015Y-10970008D02*
X15121062Y-10960484D01*
X15311539Y-10960484D02*
X15330586Y-10960484D01*
X15330586Y-10960484D02*
X15349634Y-10970008D01*
X15349634Y-10970008D02*
X15359158Y-10979531D01*
X15359158Y-10979531D02*
X15368682Y-10998579D01*
X15368682Y-10998579D02*
X15378205Y-11036674D01*
X15378205Y-11036674D02*
X15378205Y-11084293D01*
X15378205Y-11084293D02*
X15368682Y-11122389D01*
X15368682Y-11122389D02*
X15359158Y-11141436D01*
X15359158Y-11141436D02*
X15349634Y-11150960D01*
X15349634Y-11150960D02*
X15330586Y-11160484D01*
X15330586Y-11160484D02*
X15311539Y-11160484D01*
X15311539Y-11160484D02*
X15292491Y-11150960D01*
X15292491Y-11150960D02*
X15282967Y-11141436D01*
X15282967Y-11141436D02*
X15273443Y-11122389D01*
X15273443Y-11122389D02*
X15263920Y-11084293D01*
X15263920Y-11084293D02*
X15263920Y-11036674D01*
X15263920Y-11036674D02*
X15273443Y-10998579D01*
X15273443Y-10998579D02*
X15282967Y-10979531D01*
X15282967Y-10979531D02*
X15292491Y-10970008D01*
X15292491Y-10970008D02*
X15311539Y-10960484D01*
X15463920Y-11160484D02*
X15463920Y-11027150D01*
X15463920Y-11046198D02*
X15473443Y-11036674D01*
X15473443Y-11036674D02*
X15492491Y-11027150D01*
X15492491Y-11027150D02*
X15521063Y-11027150D01*
X15521063Y-11027150D02*
X15540110Y-11036674D01*
X15540110Y-11036674D02*
X15549634Y-11055722D01*
X15549634Y-11055722D02*
X15549634Y-11160484D01*
X15549634Y-11055722D02*
X15559158Y-11036674D01*
X15559158Y-11036674D02*
X15578205Y-11027150D01*
X15578205Y-11027150D02*
X15606777Y-11027150D01*
X15606777Y-11027150D02*
X15625824Y-11036674D01*
X15625824Y-11036674D02*
X15635348Y-11055722D01*
X15635348Y-11055722D02*
X15635348Y-11160484D01*
X15730586Y-11160484D02*
X15730586Y-11027150D01*
X15730586Y-11046198D02*
X15740110Y-11036674D01*
X15740110Y-11036674D02*
X15759158Y-11027150D01*
X15759158Y-11027150D02*
X15787729Y-11027150D01*
X15787729Y-11027150D02*
X15806777Y-11036674D01*
X15806777Y-11036674D02*
X15816301Y-11055722D01*
X15816301Y-11055722D02*
X15816301Y-11160484D01*
X15816301Y-11055722D02*
X15825824Y-11036674D01*
X15825824Y-11036674D02*
X15844872Y-11027150D01*
X15844872Y-11027150D02*
X15873443Y-11027150D01*
X15873443Y-11027150D02*
X15892491Y-11036674D01*
X15892491Y-11036674D02*
X15902015Y-11055722D01*
X15902015Y-11055722D02*
X15902015Y-11160484D01*
X16292491Y-10950960D02*
X16121063Y-11208103D01*
X16549634Y-10960484D02*
X16568682Y-10960484D01*
X16568682Y-10960484D02*
X16587729Y-10970008D01*
X16587729Y-10970008D02*
X16597253Y-10979531D01*
X16597253Y-10979531D02*
X16606777Y-10998579D01*
X16606777Y-10998579D02*
X16616301Y-11036674D01*
X16616301Y-11036674D02*
X16616301Y-11084293D01*
X16616301Y-11084293D02*
X16606777Y-11122389D01*
X16606777Y-11122389D02*
X16597253Y-11141436D01*
X16597253Y-11141436D02*
X16587729Y-11150960D01*
X16587729Y-11150960D02*
X16568682Y-11160484D01*
X16568682Y-11160484D02*
X16549634Y-11160484D01*
X16549634Y-11160484D02*
X16530586Y-11150960D01*
X16530586Y-11150960D02*
X16521063Y-11141436D01*
X16521063Y-11141436D02*
X16511539Y-11122389D01*
X16511539Y-11122389D02*
X16502015Y-11084293D01*
X16502015Y-11084293D02*
X16502015Y-11036674D01*
X16502015Y-11036674D02*
X16511539Y-10998579D01*
X16511539Y-10998579D02*
X16521063Y-10979531D01*
X16521063Y-10979531D02*
X16530586Y-10970008D01*
X16530586Y-10970008D02*
X16549634Y-10960484D01*
X16702015Y-11141436D02*
X16711539Y-11150960D01*
X16711539Y-11150960D02*
X16702015Y-11160484D01*
X16702015Y-11160484D02*
X16692491Y-11150960D01*
X16692491Y-11150960D02*
X16702015Y-11141436D01*
X16702015Y-11141436D02*
X16702015Y-11160484D01*
X16835348Y-10960484D02*
X16854396Y-10960484D01*
X16854396Y-10960484D02*
X16873444Y-10970008D01*
X16873444Y-10970008D02*
X16882968Y-10979531D01*
X16882968Y-10979531D02*
X16892491Y-10998579D01*
X16892491Y-10998579D02*
X16902015Y-11036674D01*
X16902015Y-11036674D02*
X16902015Y-11084293D01*
X16902015Y-11084293D02*
X16892491Y-11122389D01*
X16892491Y-11122389D02*
X16882968Y-11141436D01*
X16882968Y-11141436D02*
X16873444Y-11150960D01*
X16873444Y-11150960D02*
X16854396Y-11160484D01*
X16854396Y-11160484D02*
X16835348Y-11160484D01*
X16835348Y-11160484D02*
X16816301Y-11150960D01*
X16816301Y-11150960D02*
X16806777Y-11141436D01*
X16806777Y-11141436D02*
X16797253Y-11122389D01*
X16797253Y-11122389D02*
X16787729Y-11084293D01*
X16787729Y-11084293D02*
X16787729Y-11036674D01*
X16787729Y-11036674D02*
X16797253Y-10998579D01*
X16797253Y-10998579D02*
X16806777Y-10979531D01*
X16806777Y-10979531D02*
X16816301Y-10970008D01*
X16816301Y-10970008D02*
X16835348Y-10960484D01*
X16968682Y-10960484D02*
X17092491Y-10960484D01*
X17092491Y-10960484D02*
X17025825Y-11036674D01*
X17025825Y-11036674D02*
X17054396Y-11036674D01*
X17054396Y-11036674D02*
X17073444Y-11046198D01*
X17073444Y-11046198D02*
X17082968Y-11055722D01*
X17082968Y-11055722D02*
X17092491Y-11074770D01*
X17092491Y-11074770D02*
X17092491Y-11122389D01*
X17092491Y-11122389D02*
X17082968Y-11141436D01*
X17082968Y-11141436D02*
X17073444Y-11150960D01*
X17073444Y-11150960D02*
X17054396Y-11160484D01*
X17054396Y-11160484D02*
X16997253Y-11160484D01*
X16997253Y-11160484D02*
X16978206Y-11150960D01*
X16978206Y-11150960D02*
X16968682Y-11141436D01*
X17273444Y-10960484D02*
X17178206Y-10960484D01*
X17178206Y-10960484D02*
X17168682Y-11055722D01*
X17168682Y-11055722D02*
X17178206Y-11046198D01*
X17178206Y-11046198D02*
X17197253Y-11036674D01*
X17197253Y-11036674D02*
X17244872Y-11036674D01*
X17244872Y-11036674D02*
X17263920Y-11046198D01*
X17263920Y-11046198D02*
X17273444Y-11055722D01*
X17273444Y-11055722D02*
X17282968Y-11074770D01*
X17282968Y-11074770D02*
X17282968Y-11122389D01*
X17282968Y-11122389D02*
X17273444Y-11141436D01*
X17273444Y-11141436D02*
X17263920Y-11150960D01*
X17263920Y-11150960D02*
X17244872Y-11160484D01*
X17244872Y-11160484D02*
X17197253Y-11160484D01*
X17197253Y-11160484D02*
X17178206Y-11150960D01*
X17178206Y-11150960D02*
X17168682Y-11141436D01*
X17454396Y-11027150D02*
X17454396Y-11160484D01*
X17406777Y-10950960D02*
X17359158Y-11093817D01*
X17359158Y-11093817D02*
X17482968Y-11093817D01*
X17549634Y-10960484D02*
X17549634Y-10998579D01*
X17625825Y-10960484D02*
X17625825Y-10998579D01*
X17921063Y-11236674D02*
X17911539Y-11227150D01*
X17911539Y-11227150D02*
X17892491Y-11198579D01*
X17892491Y-11198579D02*
X17882968Y-11179531D01*
X17882968Y-11179531D02*
X17873444Y-11150960D01*
X17873444Y-11150960D02*
X17863920Y-11103341D01*
X17863920Y-11103341D02*
X17863920Y-11065246D01*
X17863920Y-11065246D02*
X17873444Y-11017627D01*
X17873444Y-11017627D02*
X17882968Y-10989055D01*
X17882968Y-10989055D02*
X17892491Y-10970008D01*
X17892491Y-10970008D02*
X17911539Y-10941436D01*
X17911539Y-10941436D02*
X17921063Y-10931912D01*
X17987730Y-10979531D02*
X17997253Y-10970008D01*
X17997253Y-10970008D02*
X18016301Y-10960484D01*
X18016301Y-10960484D02*
X18063920Y-10960484D01*
X18063920Y-10960484D02*
X18082968Y-10970008D01*
X18082968Y-10970008D02*
X18092491Y-10979531D01*
X18092491Y-10979531D02*
X18102015Y-10998579D01*
X18102015Y-10998579D02*
X18102015Y-11017627D01*
X18102015Y-11017627D02*
X18092491Y-11046198D01*
X18092491Y-11046198D02*
X17978206Y-11160484D01*
X17978206Y-11160484D02*
X18102015Y-11160484D01*
X18340111Y-11160484D02*
X18340111Y-10960484D01*
X18425825Y-11160484D02*
X18425825Y-11055722D01*
X18425825Y-11055722D02*
X18416301Y-11036674D01*
X18416301Y-11036674D02*
X18397253Y-11027150D01*
X18397253Y-11027150D02*
X18368682Y-11027150D01*
X18368682Y-11027150D02*
X18349634Y-11036674D01*
X18349634Y-11036674D02*
X18340111Y-11046198D01*
X18549634Y-11160484D02*
X18530587Y-11150960D01*
X18530587Y-11150960D02*
X18521063Y-11141436D01*
X18521063Y-11141436D02*
X18511539Y-11122389D01*
X18511539Y-11122389D02*
X18511539Y-11065246D01*
X18511539Y-11065246D02*
X18521063Y-11046198D01*
X18521063Y-11046198D02*
X18530587Y-11036674D01*
X18530587Y-11036674D02*
X18549634Y-11027150D01*
X18549634Y-11027150D02*
X18578206Y-11027150D01*
X18578206Y-11027150D02*
X18597253Y-11036674D01*
X18597253Y-11036674D02*
X18606777Y-11046198D01*
X18606777Y-11046198D02*
X18616301Y-11065246D01*
X18616301Y-11065246D02*
X18616301Y-11122389D01*
X18616301Y-11122389D02*
X18606777Y-11141436D01*
X18606777Y-11141436D02*
X18597253Y-11150960D01*
X18597253Y-11150960D02*
X18578206Y-11160484D01*
X18578206Y-11160484D02*
X18549634Y-11160484D01*
X18730587Y-11160484D02*
X18711539Y-11150960D01*
X18711539Y-11150960D02*
X18702015Y-11131912D01*
X18702015Y-11131912D02*
X18702015Y-10960484D01*
X18882968Y-11150960D02*
X18863920Y-11160484D01*
X18863920Y-11160484D02*
X18825825Y-11160484D01*
X18825825Y-11160484D02*
X18806777Y-11150960D01*
X18806777Y-11150960D02*
X18797253Y-11131912D01*
X18797253Y-11131912D02*
X18797253Y-11055722D01*
X18797253Y-11055722D02*
X18806777Y-11036674D01*
X18806777Y-11036674D02*
X18825825Y-11027150D01*
X18825825Y-11027150D02*
X18863920Y-11027150D01*
X18863920Y-11027150D02*
X18882968Y-11036674D01*
X18882968Y-11036674D02*
X18892492Y-11055722D01*
X18892492Y-11055722D02*
X18892492Y-11074770D01*
X18892492Y-11074770D02*
X18797253Y-11093817D01*
X18968682Y-11150960D02*
X18987730Y-11160484D01*
X18987730Y-11160484D02*
X19025825Y-11160484D01*
X19025825Y-11160484D02*
X19044873Y-11150960D01*
X19044873Y-11150960D02*
X19054396Y-11131912D01*
X19054396Y-11131912D02*
X19054396Y-11122389D01*
X19054396Y-11122389D02*
X19044873Y-11103341D01*
X19044873Y-11103341D02*
X19025825Y-11093817D01*
X19025825Y-11093817D02*
X18997253Y-11093817D01*
X18997253Y-11093817D02*
X18978206Y-11084293D01*
X18978206Y-11084293D02*
X18968682Y-11065246D01*
X18968682Y-11065246D02*
X18968682Y-11055722D01*
X18968682Y-11055722D02*
X18978206Y-11036674D01*
X18978206Y-11036674D02*
X18997253Y-11027150D01*
X18997253Y-11027150D02*
X19025825Y-11027150D01*
X19025825Y-11027150D02*
X19044873Y-11036674D01*
X19121063Y-11236674D02*
X19130587Y-11227150D01*
X19130587Y-11227150D02*
X19149634Y-11198579D01*
X19149634Y-11198579D02*
X19159158Y-11179531D01*
X19159158Y-11179531D02*
X19168682Y-11150960D01*
X19168682Y-11150960D02*
X19178206Y-11103341D01*
X19178206Y-11103341D02*
X19178206Y-11065246D01*
X19178206Y-11065246D02*
X19168682Y-11017627D01*
X19168682Y-11017627D02*
X19159158Y-10989055D01*
X19159158Y-10989055D02*
X19149634Y-10970008D01*
X19149634Y-10970008D02*
X19130587Y-10941436D01*
X19130587Y-10941436D02*
X19121063Y-10931912D01*
D10*
X14296000Y-11283000D02*
X14296000Y-11383000D01*
X14246000Y-11333000D02*
X14346000Y-11333000D01*
D11*
X14711539Y-11424484D02*
X14597253Y-11424484D01*
X14654396Y-11424484D02*
X14654396Y-11224484D01*
X14654396Y-11224484D02*
X14635348Y-11253055D01*
X14635348Y-11253055D02*
X14616301Y-11272103D01*
X14616301Y-11272103D02*
X14597253Y-11281627D01*
X14797253Y-11405436D02*
X14806777Y-11414960D01*
X14806777Y-11414960D02*
X14797253Y-11424484D01*
X14797253Y-11424484D02*
X14787729Y-11414960D01*
X14787729Y-11414960D02*
X14797253Y-11405436D01*
X14797253Y-11405436D02*
X14797253Y-11424484D01*
X14930586Y-11224484D02*
X14949634Y-11224484D01*
X14949634Y-11224484D02*
X14968682Y-11234008D01*
X14968682Y-11234008D02*
X14978205Y-11243531D01*
X14978205Y-11243531D02*
X14987729Y-11262579D01*
X14987729Y-11262579D02*
X14997253Y-11300674D01*
X14997253Y-11300674D02*
X14997253Y-11348293D01*
X14997253Y-11348293D02*
X14987729Y-11386388D01*
X14987729Y-11386388D02*
X14978205Y-11405436D01*
X14978205Y-11405436D02*
X14968682Y-11414960D01*
X14968682Y-11414960D02*
X14949634Y-11424484D01*
X14949634Y-11424484D02*
X14930586Y-11424484D01*
X14930586Y-11424484D02*
X14911539Y-11414960D01*
X14911539Y-11414960D02*
X14902015Y-11405436D01*
X14902015Y-11405436D02*
X14892491Y-11386388D01*
X14892491Y-11386388D02*
X14882967Y-11348293D01*
X14882967Y-11348293D02*
X14882967Y-11300674D01*
X14882967Y-11300674D02*
X14892491Y-11262579D01*
X14892491Y-11262579D02*
X14902015Y-11243531D01*
X14902015Y-11243531D02*
X14911539Y-11234008D01*
X14911539Y-11234008D02*
X14930586Y-11224484D01*
X15121062Y-11224484D02*
X15140110Y-11224484D01*
X15140110Y-11224484D02*
X15159158Y-11234008D01*
X15159158Y-11234008D02*
X15168682Y-11243531D01*
X15168682Y-11243531D02*
X15178205Y-11262579D01*
X15178205Y-11262579D02*
X15187729Y-11300674D01*
X15187729Y-11300674D02*
X15187729Y-11348293D01*
X15187729Y-11348293D02*
X15178205Y-11386388D01*
X15178205Y-11386388D02*
X15168682Y-11405436D01*
X15168682Y-11405436D02*
X15159158Y-11414960D01*
X15159158Y-11414960D02*
X15140110Y-11424484D01*
X15140110Y-11424484D02*
X15121062Y-11424484D01*
X15121062Y-11424484D02*
X15102015Y-11414960D01*
X15102015Y-11414960D02*
X15092491Y-11405436D01*
X15092491Y-11405436D02*
X15082967Y-11386388D01*
X15082967Y-11386388D02*
X15073443Y-11348293D01*
X15073443Y-11348293D02*
X15073443Y-11300674D01*
X15073443Y-11300674D02*
X15082967Y-11262579D01*
X15082967Y-11262579D02*
X15092491Y-11243531D01*
X15092491Y-11243531D02*
X15102015Y-11234008D01*
X15102015Y-11234008D02*
X15121062Y-11224484D01*
X15311539Y-11224484D02*
X15330586Y-11224484D01*
X15330586Y-11224484D02*
X15349634Y-11234008D01*
X15349634Y-11234008D02*
X15359158Y-11243531D01*
X15359158Y-11243531D02*
X15368682Y-11262579D01*
X15368682Y-11262579D02*
X15378205Y-11300674D01*
X15378205Y-11300674D02*
X15378205Y-11348293D01*
X15378205Y-11348293D02*
X15368682Y-11386388D01*
X15368682Y-11386388D02*
X15359158Y-11405436D01*
X15359158Y-11405436D02*
X15349634Y-11414960D01*
X15349634Y-11414960D02*
X15330586Y-11424484D01*
X15330586Y-11424484D02*
X15311539Y-11424484D01*
X15311539Y-11424484D02*
X15292491Y-11414960D01*
X15292491Y-11414960D02*
X15282967Y-11405436D01*
X15282967Y-11405436D02*
X15273443Y-11386388D01*
X15273443Y-11386388D02*
X15263920Y-11348293D01*
X15263920Y-11348293D02*
X15263920Y-11300674D01*
X15263920Y-11300674D02*
X15273443Y-11262579D01*
X15273443Y-11262579D02*
X15282967Y-11243531D01*
X15282967Y-11243531D02*
X15292491Y-11234008D01*
X15292491Y-11234008D02*
X15311539Y-11224484D01*
X15463920Y-11424484D02*
X15463920Y-11291150D01*
X15463920Y-11310198D02*
X15473443Y-11300674D01*
X15473443Y-11300674D02*
X15492491Y-11291150D01*
X15492491Y-11291150D02*
X15521063Y-11291150D01*
X15521063Y-11291150D02*
X15540110Y-11300674D01*
X15540110Y-11300674D02*
X15549634Y-11319722D01*
X15549634Y-11319722D02*
X15549634Y-11424484D01*
X15549634Y-11319722D02*
X15559158Y-11300674D01*
X15559158Y-11300674D02*
X15578205Y-11291150D01*
X15578205Y-11291150D02*
X15606777Y-11291150D01*
X15606777Y-11291150D02*
X15625824Y-11300674D01*
X15625824Y-11300674D02*
X15635348Y-11319722D01*
X15635348Y-11319722D02*
X15635348Y-11424484D01*
X15730586Y-11424484D02*
X15730586Y-11291150D01*
X15730586Y-11310198D02*
X15740110Y-11300674D01*
X15740110Y-11300674D02*
X15759158Y-11291150D01*
X15759158Y-11291150D02*
X15787729Y-11291150D01*
X15787729Y-11291150D02*
X15806777Y-11300674D01*
X15806777Y-11300674D02*
X15816301Y-11319722D01*
X15816301Y-11319722D02*
X15816301Y-11424484D01*
X15816301Y-11319722D02*
X15825824Y-11300674D01*
X15825824Y-11300674D02*
X15844872Y-11291150D01*
X15844872Y-11291150D02*
X15873443Y-11291150D01*
X15873443Y-11291150D02*
X15892491Y-11300674D01*
X15892491Y-11300674D02*
X15902015Y-11319722D01*
X15902015Y-11319722D02*
X15902015Y-11424484D01*
X16292491Y-11214960D02*
X16121063Y-11472103D01*
X16549634Y-11224484D02*
X16568682Y-11224484D01*
X16568682Y-11224484D02*
X16587729Y-11234008D01*
X16587729Y-11234008D02*
X16597253Y-11243531D01*
X16597253Y-11243531D02*
X16606777Y-11262579D01*
X16606777Y-11262579D02*
X16616301Y-11300674D01*
X16616301Y-11300674D02*
X16616301Y-11348293D01*
X16616301Y-11348293D02*
X16606777Y-11386388D01*
X16606777Y-11386388D02*
X16597253Y-11405436D01*
X16597253Y-11405436D02*
X16587729Y-11414960D01*
X16587729Y-11414960D02*
X16568682Y-11424484D01*
X16568682Y-11424484D02*
X16549634Y-11424484D01*
X16549634Y-11424484D02*
X16530586Y-11414960D01*
X16530586Y-11414960D02*
X16521063Y-11405436D01*
X16521063Y-11405436D02*
X16511539Y-11386388D01*
X16511539Y-11386388D02*
X16502015Y-11348293D01*
X16502015Y-11348293D02*
X16502015Y-11300674D01*
X16502015Y-11300674D02*
X16511539Y-11262579D01*
X16511539Y-11262579D02*
X16521063Y-11243531D01*
X16521063Y-11243531D02*
X16530586Y-11234008D01*
X16530586Y-11234008D02*
X16549634Y-11224484D01*
X16702015Y-11405436D02*
X16711539Y-11414960D01*
X16711539Y-11414960D02*
X16702015Y-11424484D01*
X16702015Y-11424484D02*
X16692491Y-11414960D01*
X16692491Y-11414960D02*
X16702015Y-11405436D01*
X16702015Y-11405436D02*
X16702015Y-11424484D01*
X16835348Y-11224484D02*
X16854396Y-11224484D01*
X16854396Y-11224484D02*
X16873444Y-11234008D01*
X16873444Y-11234008D02*
X16882968Y-11243531D01*
X16882968Y-11243531D02*
X16892491Y-11262579D01*
X16892491Y-11262579D02*
X16902015Y-11300674D01*
X16902015Y-11300674D02*
X16902015Y-11348293D01*
X16902015Y-11348293D02*
X16892491Y-11386388D01*
X16892491Y-11386388D02*
X16882968Y-11405436D01*
X16882968Y-11405436D02*
X16873444Y-11414960D01*
X16873444Y-11414960D02*
X16854396Y-11424484D01*
X16854396Y-11424484D02*
X16835348Y-11424484D01*
X16835348Y-11424484D02*
X16816301Y-11414960D01*
X16816301Y-11414960D02*
X16806777Y-11405436D01*
X16806777Y-11405436D02*
X16797253Y-11386388D01*
X16797253Y-11386388D02*
X16787729Y-11348293D01*
X16787729Y-11348293D02*
X16787729Y-11300674D01*
X16787729Y-11300674D02*
X16797253Y-11262579D01*
X16797253Y-11262579D02*
X16806777Y-11243531D01*
X16806777Y-11243531D02*
X16816301Y-11234008D01*
X16816301Y-11234008D02*
X16835348Y-11224484D01*
X16968682Y-11224484D02*
X17092491Y-11224484D01*
X17092491Y-11224484D02*
X17025825Y-11300674D01*
X17025825Y-11300674D02*
X17054396Y-11300674D01*
X17054396Y-11300674D02*
X17073444Y-11310198D01*
X17073444Y-11310198D02*
X17082968Y-11319722D01*
X17082968Y-11319722D02*
X17092491Y-11338769D01*
X17092491Y-11338769D02*
X17092491Y-11386388D01*
X17092491Y-11386388D02*
X17082968Y-11405436D01*
X17082968Y-11405436D02*
X17073444Y-11414960D01*
X17073444Y-11414960D02*
X17054396Y-11424484D01*
X17054396Y-11424484D02*
X16997253Y-11424484D01*
X16997253Y-11424484D02*
X16978206Y-11414960D01*
X16978206Y-11414960D02*
X16968682Y-11405436D01*
X17187729Y-11424484D02*
X17225825Y-11424484D01*
X17225825Y-11424484D02*
X17244872Y-11414960D01*
X17244872Y-11414960D02*
X17254396Y-11405436D01*
X17254396Y-11405436D02*
X17273444Y-11376865D01*
X17273444Y-11376865D02*
X17282968Y-11338769D01*
X17282968Y-11338769D02*
X17282968Y-11262579D01*
X17282968Y-11262579D02*
X17273444Y-11243531D01*
X17273444Y-11243531D02*
X17263920Y-11234008D01*
X17263920Y-11234008D02*
X17244872Y-11224484D01*
X17244872Y-11224484D02*
X17206777Y-11224484D01*
X17206777Y-11224484D02*
X17187729Y-11234008D01*
X17187729Y-11234008D02*
X17178206Y-11243531D01*
X17178206Y-11243531D02*
X17168682Y-11262579D01*
X17168682Y-11262579D02*
X17168682Y-11310198D01*
X17168682Y-11310198D02*
X17178206Y-11329246D01*
X17178206Y-11329246D02*
X17187729Y-11338769D01*
X17187729Y-11338769D02*
X17206777Y-11348293D01*
X17206777Y-11348293D02*
X17244872Y-11348293D01*
X17244872Y-11348293D02*
X17263920Y-11338769D01*
X17263920Y-11338769D02*
X17273444Y-11329246D01*
X17273444Y-11329246D02*
X17282968Y-11310198D01*
X17454396Y-11291150D02*
X17454396Y-11424484D01*
X17406777Y-11214960D02*
X17359158Y-11357817D01*
X17359158Y-11357817D02*
X17482968Y-11357817D01*
X17549634Y-11224484D02*
X17549634Y-11262579D01*
X17625825Y-11224484D02*
X17625825Y-11262579D01*
X17921063Y-11500674D02*
X17911539Y-11491150D01*
X17911539Y-11491150D02*
X17892491Y-11462579D01*
X17892491Y-11462579D02*
X17882968Y-11443531D01*
X17882968Y-11443531D02*
X17873444Y-11414960D01*
X17873444Y-11414960D02*
X17863920Y-11367341D01*
X17863920Y-11367341D02*
X17863920Y-11329246D01*
X17863920Y-11329246D02*
X17873444Y-11281627D01*
X17873444Y-11281627D02*
X17882968Y-11253055D01*
X17882968Y-11253055D02*
X17892491Y-11234008D01*
X17892491Y-11234008D02*
X17911539Y-11205436D01*
X17911539Y-11205436D02*
X17921063Y-11195912D01*
X18102015Y-11424484D02*
X17987730Y-11424484D01*
X18044872Y-11424484D02*
X18044872Y-11224484D01*
X18044872Y-11224484D02*
X18025825Y-11253055D01*
X18025825Y-11253055D02*
X18006777Y-11272103D01*
X18006777Y-11272103D02*
X17987730Y-11281627D01*
X18292491Y-11424484D02*
X18178206Y-11424484D01*
X18235349Y-11424484D02*
X18235349Y-11224484D01*
X18235349Y-11224484D02*
X18216301Y-11253055D01*
X18216301Y-11253055D02*
X18197253Y-11272103D01*
X18197253Y-11272103D02*
X18178206Y-11281627D01*
X18463920Y-11224484D02*
X18425825Y-11224484D01*
X18425825Y-11224484D02*
X18406777Y-11234008D01*
X18406777Y-11234008D02*
X18397253Y-11243531D01*
X18397253Y-11243531D02*
X18378206Y-11272103D01*
X18378206Y-11272103D02*
X18368682Y-11310198D01*
X18368682Y-11310198D02*
X18368682Y-11386388D01*
X18368682Y-11386388D02*
X18378206Y-11405436D01*
X18378206Y-11405436D02*
X18387730Y-11414960D01*
X18387730Y-11414960D02*
X18406777Y-11424484D01*
X18406777Y-11424484D02*
X18444872Y-11424484D01*
X18444872Y-11424484D02*
X18463920Y-11414960D01*
X18463920Y-11414960D02*
X18473444Y-11405436D01*
X18473444Y-11405436D02*
X18482968Y-11386388D01*
X18482968Y-11386388D02*
X18482968Y-11338769D01*
X18482968Y-11338769D02*
X18473444Y-11319722D01*
X18473444Y-11319722D02*
X18463920Y-11310198D01*
X18463920Y-11310198D02*
X18444872Y-11300674D01*
X18444872Y-11300674D02*
X18406777Y-11300674D01*
X18406777Y-11300674D02*
X18387730Y-11310198D01*
X18387730Y-11310198D02*
X18378206Y-11319722D01*
X18378206Y-11319722D02*
X18368682Y-11338769D01*
X18721063Y-11424484D02*
X18721063Y-11224484D01*
X18806777Y-11424484D02*
X18806777Y-11319722D01*
X18806777Y-11319722D02*
X18797253Y-11300674D01*
X18797253Y-11300674D02*
X18778206Y-11291150D01*
X18778206Y-11291150D02*
X18749634Y-11291150D01*
X18749634Y-11291150D02*
X18730587Y-11300674D01*
X18730587Y-11300674D02*
X18721063Y-11310198D01*
X18930587Y-11424484D02*
X18911539Y-11414960D01*
X18911539Y-11414960D02*
X18902015Y-11405436D01*
X18902015Y-11405436D02*
X18892492Y-11386388D01*
X18892492Y-11386388D02*
X18892492Y-11329246D01*
X18892492Y-11329246D02*
X18902015Y-11310198D01*
X18902015Y-11310198D02*
X18911539Y-11300674D01*
X18911539Y-11300674D02*
X18930587Y-11291150D01*
X18930587Y-11291150D02*
X18959158Y-11291150D01*
X18959158Y-11291150D02*
X18978206Y-11300674D01*
X18978206Y-11300674D02*
X18987730Y-11310198D01*
X18987730Y-11310198D02*
X18997253Y-11329246D01*
X18997253Y-11329246D02*
X18997253Y-11386388D01*
X18997253Y-11386388D02*
X18987730Y-11405436D01*
X18987730Y-11405436D02*
X18978206Y-11414960D01*
X18978206Y-11414960D02*
X18959158Y-11424484D01*
X18959158Y-11424484D02*
X18930587Y-11424484D01*
X19111539Y-11424484D02*
X19092492Y-11414960D01*
X19092492Y-11414960D02*
X19082968Y-11395912D01*
X19082968Y-11395912D02*
X19082968Y-11224484D01*
X19263920Y-11414960D02*
X19244873Y-11424484D01*
X19244873Y-11424484D02*
X19206777Y-11424484D01*
X19206777Y-11424484D02*
X19187730Y-11414960D01*
X19187730Y-11414960D02*
X19178206Y-11395912D01*
X19178206Y-11395912D02*
X19178206Y-11319722D01*
X19178206Y-11319722D02*
X19187730Y-11300674D01*
X19187730Y-11300674D02*
X19206777Y-11291150D01*
X19206777Y-11291150D02*
X19244873Y-11291150D01*
X19244873Y-11291150D02*
X19263920Y-11300674D01*
X19263920Y-11300674D02*
X19273444Y-11319722D01*
X19273444Y-11319722D02*
X19273444Y-11338769D01*
X19273444Y-11338769D02*
X19178206Y-11357817D01*
X19349634Y-11414960D02*
X19368682Y-11424484D01*
X19368682Y-11424484D02*
X19406777Y-11424484D01*
X19406777Y-11424484D02*
X19425825Y-11414960D01*
X19425825Y-11414960D02*
X19435349Y-11395912D01*
X19435349Y-11395912D02*
X19435349Y-11386388D01*
X19435349Y-11386388D02*
X19425825Y-11367341D01*
X19425825Y-11367341D02*
X19406777Y-11357817D01*
X19406777Y-11357817D02*
X19378206Y-11357817D01*
X19378206Y-11357817D02*
X19359158Y-11348293D01*
X19359158Y-11348293D02*
X19349634Y-11329246D01*
X19349634Y-11329246D02*
X19349634Y-11319722D01*
X19349634Y-11319722D02*
X19359158Y-11300674D01*
X19359158Y-11300674D02*
X19378206Y-11291150D01*
X19378206Y-11291150D02*
X19406777Y-11291150D01*
X19406777Y-11291150D02*
X19425825Y-11300674D01*
X19502015Y-11500674D02*
X19511539Y-11491150D01*
X19511539Y-11491150D02*
X19530587Y-11462579D01*
X19530587Y-11462579D02*
X19540111Y-11443531D01*
X19540111Y-11443531D02*
X19549634Y-11414960D01*
X19549634Y-11414960D02*
X19559158Y-11367341D01*
X19559158Y-11367341D02*
X19559158Y-11329246D01*
X19559158Y-11329246D02*
X19549634Y-11281627D01*
X19549634Y-11281627D02*
X19540111Y-11253055D01*
X19540111Y-11253055D02*
X19530587Y-11234008D01*
X19530587Y-11234008D02*
X19511539Y-11205436D01*
X19511539Y-11205436D02*
X19502015Y-11195912D01*
M02*
