%TF.GenerationSoftware,KiCad,Pcbnew,8.0.3*%
%TF.CreationDate,2024-07-02T19:52:34-05:00*%
%TF.ProjectId,lucidGloves,6c756369-6447-46c6-9f76-65732e6b6963,rev?*%
%TF.SameCoordinates,Original*%
%TF.FileFunction,Soldermask,Top*%
%TF.FilePolarity,Negative*%
%FSLAX46Y46*%
G04 Gerber Fmt 4.6, Leading zero omitted, Abs format (unit mm)*
G04 Created by KiCad (PCBNEW 8.0.3) date 2024-07-02 19:52:34*
%MOMM*%
%LPD*%
G01*
G04 APERTURE LIST*
G04 Aperture macros list*
%AMRoundRect*
0 Rectangle with rounded corners*
0 $1 Rounding radius*
0 $2 $3 $4 $5 $6 $7 $8 $9 X,Y pos of 4 corners*
0 Add a 4 corners polygon primitive as box body*
4,1,4,$2,$3,$4,$5,$6,$7,$8,$9,$2,$3,0*
0 Add four circle primitives for the rounded corners*
1,1,$1+$1,$2,$3*
1,1,$1+$1,$4,$5*
1,1,$1+$1,$6,$7*
1,1,$1+$1,$8,$9*
0 Add four rect primitives between the rounded corners*
20,1,$1+$1,$2,$3,$4,$5,0*
20,1,$1+$1,$4,$5,$6,$7,0*
20,1,$1+$1,$6,$7,$8,$9,0*
20,1,$1+$1,$8,$9,$2,$3,0*%
G04 Aperture macros list end*
%ADD10RoundRect,0.175000X-0.175000X-0.425000X0.175000X-0.425000X0.175000X0.425000X-0.175000X0.425000X0*%
%ADD11RoundRect,0.190000X0.190000X0.410000X-0.190000X0.410000X-0.190000X-0.410000X0.190000X-0.410000X0*%
%ADD12RoundRect,0.200000X0.200000X0.400000X-0.200000X0.400000X-0.200000X-0.400000X0.200000X-0.400000X0*%
%ADD13RoundRect,0.175000X0.175000X0.425000X-0.175000X0.425000X-0.175000X-0.425000X0.175000X-0.425000X0*%
%ADD14RoundRect,0.190000X-0.190000X-0.410000X0.190000X-0.410000X0.190000X0.410000X-0.190000X0.410000X0*%
%ADD15RoundRect,0.200000X-0.200000X-0.400000X0.200000X-0.400000X0.200000X0.400000X-0.200000X0.400000X0*%
%ADD16RoundRect,0.250000X-0.650000X-0.425000X0.650000X-0.425000X0.650000X0.425000X-0.650000X0.425000X0*%
%ADD17RoundRect,0.250000X-0.650000X-0.500000X0.650000X-0.500000X0.650000X0.500000X-0.650000X0.500000X0*%
%ADD18R,1.700000X1.700000*%
%ADD19O,1.700000X1.700000*%
%ADD20C,3.200000*%
%ADD21C,1.700000*%
%ADD22RoundRect,0.200000X-0.200000X-0.275000X0.200000X-0.275000X0.200000X0.275000X-0.200000X0.275000X0*%
%ADD23RoundRect,0.200000X-0.275000X0.200000X-0.275000X-0.200000X0.275000X-0.200000X0.275000X0.200000X0*%
%ADD24C,1.800000*%
%ADD25R,1.800000X1.800000*%
G04 APERTURE END LIST*
D10*
%TO.C,J19*%
X192540000Y-93487500D03*
D11*
X194560000Y-93487500D03*
D12*
X195790000Y-93487500D03*
D13*
X193540000Y-93487500D03*
D14*
X191520000Y-93487500D03*
D15*
X190290000Y-93487500D03*
D16*
X187915000Y-93542500D03*
D17*
X187915000Y-97122500D03*
D16*
X198165000Y-93542500D03*
D17*
X198165000Y-97122500D03*
%TD*%
D10*
%TO.C,J1*%
X210323213Y-93287648D03*
D11*
X212343213Y-93287648D03*
D12*
X213573213Y-93287648D03*
D13*
X211323213Y-93287648D03*
D14*
X209303213Y-93287648D03*
D15*
X208073213Y-93287648D03*
D16*
X205698213Y-93342648D03*
D17*
X205698213Y-96922648D03*
D16*
X215948213Y-93342648D03*
D17*
X215948213Y-96922648D03*
%TD*%
D18*
%TO.C,J13*%
X184155000Y-62230000D03*
D19*
X186695000Y-62230000D03*
X189235000Y-62230000D03*
X191775000Y-62230000D03*
X194315000Y-62230000D03*
%TD*%
D18*
%TO.C,J5*%
X160020000Y-62230000D03*
D19*
X162560000Y-62230000D03*
X165100000Y-62230000D03*
X167640000Y-62230000D03*
X170180000Y-62230000D03*
%TD*%
%TO.C,J7*%
X170180000Y-83820000D03*
X170180000Y-81280000D03*
X170180000Y-78740000D03*
X170180000Y-76200000D03*
X170180000Y-73660000D03*
X170180000Y-71120000D03*
X170180000Y-68580000D03*
D18*
X170180000Y-66040000D03*
%TD*%
D19*
%TO.C,J6*%
X152240000Y-93980000D03*
X152240000Y-91440000D03*
X152240000Y-88900000D03*
X152240000Y-86360000D03*
X152240000Y-83820000D03*
X152240000Y-81280000D03*
X152240000Y-78740000D03*
X152240000Y-76200000D03*
X152240000Y-73660000D03*
X152240000Y-71120000D03*
X152240000Y-68580000D03*
X152240000Y-66040000D03*
X152240000Y-63500000D03*
X152240000Y-60960000D03*
X152240000Y-58420000D03*
D18*
X152240000Y-55880000D03*
%TD*%
D20*
%TO.C,H6*%
X161290000Y-91445000D03*
%TD*%
%TO.C,H5*%
X161290000Y-70005000D03*
%TD*%
%TO.C,H3*%
X193000000Y-70000000D03*
%TD*%
D18*
%TO.C,SW1*%
X208130000Y-52650000D03*
D21*
X214630000Y-52650000D03*
X208130000Y-57150000D03*
X214630000Y-57150000D03*
%TD*%
D22*
%TO.C,R1*%
X213360000Y-89915000D03*
X211710000Y-89915000D03*
%TD*%
D23*
%TO.C,R3*%
X182340000Y-91535000D03*
X182340000Y-93185000D03*
%TD*%
D22*
%TO.C,R2*%
X193930000Y-90170000D03*
X195580000Y-90170000D03*
%TD*%
D18*
%TO.C,J18*%
X213360000Y-83820000D03*
D19*
X210820000Y-83820000D03*
X208280000Y-83820000D03*
%TD*%
D18*
%TO.C,J17*%
X213360000Y-78375000D03*
D19*
X210820000Y-78375000D03*
X208280000Y-78375000D03*
%TD*%
D18*
%TO.C,J16*%
X213360000Y-73470000D03*
D19*
X210820000Y-73470000D03*
X208280000Y-73470000D03*
%TD*%
D18*
%TO.C,J15*%
X213360000Y-68820000D03*
D19*
X210820000Y-68820000D03*
X208280000Y-68820000D03*
%TD*%
D18*
%TO.C,J14*%
X213360000Y-64170000D03*
D19*
X210820000Y-64170000D03*
X208280000Y-64170000D03*
%TD*%
D18*
%TO.C,J12*%
X201930000Y-53340000D03*
D19*
X201930000Y-55880000D03*
X201930000Y-58420000D03*
X201930000Y-60960000D03*
X201930000Y-63500000D03*
X201930000Y-66040000D03*
X201930000Y-68580000D03*
X201930000Y-71120000D03*
X201930000Y-73660000D03*
X201930000Y-76200000D03*
X201930000Y-78740000D03*
X201930000Y-81280000D03*
X201930000Y-83820000D03*
X201930000Y-86360000D03*
X201930000Y-88900000D03*
X201930000Y-91440000D03*
X201930000Y-93980000D03*
X201930000Y-96520000D03*
X201930000Y-99060000D03*
%TD*%
%TO.C,J11*%
X146100000Y-63500000D03*
X146100000Y-60960000D03*
X146100000Y-58420000D03*
X146100000Y-55880000D03*
D18*
X146100000Y-53340000D03*
%TD*%
%TO.C,J10*%
X146100000Y-68580000D03*
D19*
X146100000Y-71120000D03*
X146100000Y-73660000D03*
X146100000Y-76200000D03*
X146100000Y-78740000D03*
%TD*%
D18*
%TO.C,J9*%
X146075000Y-84000000D03*
D19*
X146075000Y-86540000D03*
X146075000Y-89080000D03*
X146075000Y-91620000D03*
X146075000Y-94160000D03*
%TD*%
%TO.C,J8*%
X176555000Y-99060000D03*
X176555000Y-96520000D03*
X176555000Y-93980000D03*
X176555000Y-91440000D03*
X176555000Y-88900000D03*
X176555000Y-86360000D03*
X176555000Y-83820000D03*
X176555000Y-81280000D03*
X176555000Y-78740000D03*
X176555000Y-76200000D03*
X176555000Y-73660000D03*
X176555000Y-71120000D03*
X176555000Y-68580000D03*
X176555000Y-66040000D03*
X176555000Y-63500000D03*
X176555000Y-60960000D03*
X176555000Y-58420000D03*
X176555000Y-55880000D03*
D18*
X176555000Y-53340000D03*
%TD*%
D19*
%TO.C,J4*%
X171280000Y-99060000D03*
X168740000Y-99060000D03*
X166200000Y-99060000D03*
X163660000Y-99060000D03*
D18*
X161120000Y-99060000D03*
%TD*%
%TO.C,J3*%
X146100000Y-99060000D03*
D19*
X148640000Y-99060000D03*
X151180000Y-99060000D03*
X153720000Y-99060000D03*
X156260000Y-99060000D03*
%TD*%
D24*
%TO.C,D1*%
X183072290Y-97575488D03*
D25*
X180532290Y-97575488D03*
%TD*%
M02*
